M48
;GenerationSoftware,Autodesk,EAGLE,9.6.2*%
;CreationDate,2020-10-23T10:14:48Z*%
FMAT,2
ICI,OFF
METRIC,TZ,000.000
T7C0.400
T6C0.800
T5C1.000
T4C1.100
T3C1.200
T2C1.270
T1C1.778
%
G90
M71
T1
X51445Y2530
X46345Y2530
X46345Y7630
X51445Y7630
T2
X48895Y5080
T3
X4455Y47860
X4455Y51360
X4445Y40640
X4445Y44140
T4
X14605Y55245
X19685Y55245
X24765Y55245
X27305Y55245
X29845Y55245
X32385Y55245
X34925Y55245
X22225Y55245
X9525Y78545
X12065Y78545
X14605Y78545
X27305Y78545
X29845Y78545
X32385Y78545
X34925Y78545
X37465Y78545
X17145Y78545
X19685Y78545
X17145Y55245
X24765Y78545
X22225Y78545
X9525Y55245
X12065Y55245
X37465Y55245
T5
X10160Y31750
X10160Y36830
X2540Y36830
X2540Y31750
X2540Y26670
X2540Y19050
X9525Y64770
X36830Y62865
X34925Y17780
X10160Y26670
X10160Y19050
T6
X37665Y13725
T7
X15312Y31187
X8890Y43815
X8890Y45085
X31953Y37998
X31115Y60960
X30226Y35839
X32817Y50089
X48793Y31953
X43180Y57429
X33249Y73406
X11227Y39726
X26340Y42316
X41453Y58293
X15875Y16510
X22225Y10160
X12700Y46990
X42316Y59157
X14605Y75565
X26035Y73025
X28575Y67945
X12065Y67945
X10160Y62230
X10160Y57785
X25400Y60960
X26670Y62865
X33655Y62865
X20955Y57150
X22860Y58420
X10160Y34290
X8255Y28575
X15240Y28575
X1905Y12065
X1905Y6985
X17145Y6350
X9525Y2540
X9525Y9525
X17145Y12065
X19685Y2540
X32385Y3175
X34925Y20955
X44450Y21590
X6985Y36830
X34925Y27940
X41275Y30480
X39370Y24765
X43815Y36195
X36830Y42545
X41275Y45720
X50800Y31750
X50800Y34925
X1905Y24130
X1905Y21590
X7620Y24130
X7620Y21590
M30