G04 EAGLE Gerber RS-274X export*
G75*
%MOMM*%
%FSLAX34Y34*%
%LPD*%
%INBottom Copper*%
%IPPOS*%
%AMOC8*
5,1,8,0,0,1.08239X$1,22.5*%
G01*
%ADD10R,1.500000X2.000000*%
%ADD11R,2.000000X1.500000*%
%ADD12R,1.980000X1.980000*%
%ADD13C,1.980000*%
%ADD14P,2.143132X8X22.500000*%
%ADD15R,2.160000X2.160000*%
%ADD16C,2.160000*%
%ADD17C,1.800000*%
%ADD18C,2.286000*%
%ADD19C,3.200400*%
%ADD20C,1.270000*%
%ADD21C,1.152400*%
%ADD22C,0.552400*%
%ADD23C,0.609600*%
%ADD24C,0.952400*%

G36*
X412753Y2001D02*
X412753Y2001D01*
X412756Y2001D01*
X413103Y2021D01*
X413461Y2041D01*
X413464Y2041D01*
X413467Y2041D01*
X413807Y2100D01*
X414164Y2160D01*
X414166Y2161D01*
X414169Y2161D01*
X414514Y2261D01*
X414848Y2357D01*
X414851Y2359D01*
X414854Y2359D01*
X415178Y2494D01*
X415506Y2630D01*
X415509Y2632D01*
X415511Y2633D01*
X415823Y2805D01*
X416130Y2975D01*
X416132Y2977D01*
X416135Y2978D01*
X416432Y3189D01*
X416711Y3387D01*
X416713Y3389D01*
X416715Y3391D01*
X416983Y3631D01*
X417242Y3862D01*
X417244Y3865D01*
X417246Y3866D01*
X417484Y4134D01*
X417716Y4394D01*
X417718Y4396D01*
X417720Y4398D01*
X417918Y4679D01*
X418128Y4975D01*
X418130Y4978D01*
X418131Y4980D01*
X418294Y5276D01*
X418472Y5599D01*
X418473Y5602D01*
X418475Y5604D01*
X418606Y5922D01*
X418744Y6257D01*
X418745Y6260D01*
X418746Y6263D01*
X418841Y6592D01*
X418941Y6942D01*
X418942Y6945D01*
X418942Y6947D01*
X419002Y7301D01*
X419060Y7644D01*
X419060Y7647D01*
X419061Y7650D01*
X419099Y8350D01*
X419099Y190501D01*
X531650Y190501D01*
X531653Y190501D01*
X531656Y190501D01*
X532003Y190521D01*
X532361Y190541D01*
X532364Y190541D01*
X532367Y190541D01*
X532707Y190600D01*
X533064Y190660D01*
X533066Y190661D01*
X533069Y190661D01*
X533414Y190761D01*
X533748Y190857D01*
X533751Y190859D01*
X533754Y190859D01*
X534078Y190994D01*
X534406Y191130D01*
X534409Y191132D01*
X534411Y191133D01*
X534723Y191305D01*
X535030Y191475D01*
X535032Y191477D01*
X535035Y191478D01*
X535332Y191689D01*
X535611Y191888D01*
X535613Y191889D01*
X535615Y191891D01*
X535883Y192131D01*
X536142Y192362D01*
X536144Y192365D01*
X536146Y192366D01*
X536384Y192634D01*
X536616Y192894D01*
X536618Y192896D01*
X536620Y192898D01*
X536811Y193169D01*
X537028Y193475D01*
X537030Y193478D01*
X537031Y193480D01*
X537194Y193776D01*
X537372Y194099D01*
X537373Y194102D01*
X537375Y194104D01*
X537504Y194419D01*
X537644Y194757D01*
X537645Y194760D01*
X537646Y194763D01*
X537741Y195092D01*
X537841Y195442D01*
X537842Y195445D01*
X537842Y195448D01*
X537902Y195801D01*
X537960Y196144D01*
X537960Y196147D01*
X537961Y196150D01*
X537999Y196850D01*
X537999Y791650D01*
X537999Y791653D01*
X537999Y791656D01*
X537979Y792003D01*
X537959Y792361D01*
X537959Y792364D01*
X537959Y792367D01*
X537900Y792707D01*
X537840Y793064D01*
X537839Y793066D01*
X537839Y793069D01*
X537739Y793414D01*
X537643Y793748D01*
X537641Y793751D01*
X537641Y793754D01*
X537506Y794078D01*
X537370Y794406D01*
X537368Y794409D01*
X537367Y794411D01*
X537195Y794723D01*
X537025Y795030D01*
X537023Y795032D01*
X537022Y795035D01*
X536811Y795332D01*
X536613Y795611D01*
X536611Y795613D01*
X536609Y795615D01*
X536369Y795883D01*
X536138Y796142D01*
X536135Y796144D01*
X536134Y796146D01*
X535866Y796384D01*
X535606Y796616D01*
X535604Y796618D01*
X535602Y796620D01*
X535321Y796818D01*
X535025Y797028D01*
X535022Y797030D01*
X535020Y797031D01*
X534724Y797194D01*
X534401Y797372D01*
X534398Y797373D01*
X534396Y797375D01*
X534078Y797506D01*
X533743Y797644D01*
X533740Y797645D01*
X533737Y797646D01*
X533408Y797741D01*
X533058Y797841D01*
X533055Y797842D01*
X533053Y797842D01*
X532699Y797902D01*
X532356Y797960D01*
X532353Y797960D01*
X532350Y797961D01*
X531650Y797999D01*
X393440Y797999D01*
X393437Y797999D01*
X393434Y797999D01*
X393087Y797979D01*
X392729Y797959D01*
X392726Y797959D01*
X392723Y797959D01*
X392383Y797900D01*
X392026Y797840D01*
X392024Y797839D01*
X392021Y797839D01*
X391676Y797739D01*
X391342Y797643D01*
X391339Y797641D01*
X391336Y797641D01*
X391012Y797506D01*
X390684Y797370D01*
X390681Y797368D01*
X390679Y797367D01*
X390367Y797195D01*
X390060Y797025D01*
X390058Y797023D01*
X390055Y797022D01*
X389758Y796811D01*
X389479Y796613D01*
X389477Y796611D01*
X389475Y796609D01*
X389207Y796369D01*
X388948Y796138D01*
X388946Y796135D01*
X388944Y796134D01*
X388706Y795866D01*
X388474Y795606D01*
X388472Y795604D01*
X388470Y795602D01*
X388272Y795321D01*
X388062Y795025D01*
X388060Y795022D01*
X388059Y795020D01*
X387896Y794724D01*
X387718Y794401D01*
X387717Y794398D01*
X387715Y794396D01*
X387584Y794078D01*
X387446Y793743D01*
X387445Y793740D01*
X387444Y793737D01*
X387349Y793408D01*
X387249Y793058D01*
X387248Y793055D01*
X387248Y793053D01*
X387185Y792683D01*
X387130Y792356D01*
X387130Y792353D01*
X387129Y792350D01*
X387091Y791650D01*
X387091Y780185D01*
X387018Y780083D01*
X386814Y779794D01*
X386811Y779790D01*
X386809Y779787D01*
X386642Y779483D01*
X386469Y779171D01*
X386467Y779167D01*
X386465Y779163D01*
X386333Y778843D01*
X386197Y778513D01*
X386195Y778508D01*
X386194Y778504D01*
X386099Y778174D01*
X385999Y777828D01*
X385999Y777824D01*
X385998Y777819D01*
X385939Y777473D01*
X385880Y777126D01*
X385880Y777121D01*
X385879Y777117D01*
X385841Y776417D01*
X385841Y770195D01*
X385851Y770012D01*
X385851Y769828D01*
X385871Y769656D01*
X385881Y769483D01*
X385911Y769303D01*
X385932Y769121D01*
X385971Y768952D01*
X386000Y768781D01*
X386051Y768605D01*
X386092Y768426D01*
X386150Y768260D01*
X386197Y768096D01*
X386264Y767935D01*
X386324Y767765D01*
X386991Y766155D01*
X386991Y745145D01*
X386324Y743535D01*
X386263Y743362D01*
X386194Y743193D01*
X386146Y743026D01*
X386089Y742863D01*
X386048Y742684D01*
X385998Y742508D01*
X385969Y742337D01*
X385930Y742168D01*
X385910Y741986D01*
X385879Y741805D01*
X385870Y741630D01*
X385851Y741460D01*
X385851Y741285D01*
X385841Y741105D01*
X385841Y660363D01*
X385841Y660358D01*
X385841Y660354D01*
X385861Y660001D01*
X385881Y659651D01*
X385881Y659647D01*
X385882Y659643D01*
X385942Y659289D01*
X386000Y658949D01*
X386001Y658945D01*
X386002Y658941D01*
X386104Y658588D01*
X386197Y658264D01*
X386199Y658261D01*
X386200Y658256D01*
X386338Y657925D01*
X386470Y657606D01*
X386472Y657602D01*
X386474Y657599D01*
X386644Y657292D01*
X386815Y656983D01*
X386817Y656979D01*
X386820Y656976D01*
X387032Y656677D01*
X387227Y656402D01*
X387230Y656399D01*
X387233Y656395D01*
X387700Y655873D01*
X404193Y639380D01*
X404199Y639374D01*
X407587Y635986D01*
X408941Y632718D01*
X408941Y600575D01*
X408941Y600573D01*
X408941Y600572D01*
X408961Y600217D01*
X408981Y599864D01*
X408981Y599862D01*
X408981Y599861D01*
X409039Y599522D01*
X409100Y599161D01*
X409101Y599160D01*
X409101Y599158D01*
X409201Y598810D01*
X409297Y598477D01*
X409298Y598475D01*
X409298Y598474D01*
X409444Y598123D01*
X409570Y597819D01*
X409571Y597817D01*
X409571Y597816D01*
X409748Y597497D01*
X409915Y597195D01*
X409916Y597194D01*
X409917Y597193D01*
X410146Y596870D01*
X410327Y596614D01*
X410328Y596613D01*
X410329Y596612D01*
X410586Y596325D01*
X410802Y596083D01*
X410803Y596082D01*
X410804Y596081D01*
X411085Y595831D01*
X411334Y595609D01*
X411335Y595608D01*
X411336Y595607D01*
X411617Y595408D01*
X411915Y595197D01*
X411916Y595196D01*
X411918Y595195D01*
X412245Y595015D01*
X412539Y594853D01*
X412540Y594852D01*
X412541Y594851D01*
X412873Y594715D01*
X413197Y594580D01*
X413199Y594580D01*
X413200Y594579D01*
X413542Y594481D01*
X413882Y594384D01*
X413883Y594383D01*
X413885Y594383D01*
X414255Y594321D01*
X414584Y594265D01*
X414586Y594265D01*
X414587Y594265D01*
X414962Y594244D01*
X415296Y594226D01*
X415297Y594226D01*
X415299Y594226D01*
X415681Y594248D01*
X416007Y594266D01*
X416008Y594266D01*
X416010Y594267D01*
X416385Y594331D01*
X416709Y594386D01*
X416711Y594387D01*
X416712Y594387D01*
X417075Y594492D01*
X417394Y594584D01*
X417395Y594585D01*
X417396Y594585D01*
X417745Y594730D01*
X418051Y594858D01*
X418053Y594858D01*
X418054Y594859D01*
X418352Y595024D01*
X418675Y595203D01*
X418676Y595204D01*
X418677Y595204D01*
X418957Y595404D01*
X419255Y595616D01*
X419256Y595617D01*
X419257Y595618D01*
X419780Y596085D01*
X419998Y596304D01*
X422052Y597155D01*
X424276Y597155D01*
X426330Y596304D01*
X427902Y594732D01*
X428753Y592678D01*
X428753Y585848D01*
X428763Y585666D01*
X428763Y585484D01*
X428783Y585311D01*
X428793Y585137D01*
X428823Y584958D01*
X428844Y584777D01*
X428883Y584606D01*
X428912Y584434D01*
X428962Y584260D01*
X429003Y584082D01*
X429061Y583917D01*
X429109Y583750D01*
X429179Y583582D01*
X429239Y583410D01*
X429315Y583253D01*
X429382Y583092D01*
X429470Y582932D01*
X429549Y582769D01*
X429643Y582621D01*
X429727Y582468D01*
X429832Y582320D01*
X429929Y582166D01*
X430039Y582029D01*
X430139Y581887D01*
X430260Y581752D01*
X430374Y581610D01*
X430498Y581486D01*
X430614Y581356D01*
X430750Y581235D01*
X430879Y581107D01*
X431015Y580998D01*
X431146Y580882D01*
X431294Y580776D01*
X431437Y580664D01*
X431584Y580571D01*
X431727Y580470D01*
X431886Y580382D01*
X432040Y580286D01*
X432200Y580209D01*
X432351Y580126D01*
X432511Y580059D01*
X432672Y579982D01*
X434966Y579032D01*
X492672Y521326D01*
X493523Y519272D01*
X493523Y318420D01*
X492672Y316366D01*
X491100Y314794D01*
X489046Y313943D01*
X486822Y313943D01*
X484768Y314794D01*
X483196Y316366D01*
X482345Y318420D01*
X482345Y513215D01*
X482345Y513219D01*
X482345Y513224D01*
X482325Y513576D01*
X482305Y513926D01*
X482305Y513931D01*
X482304Y513935D01*
X482244Y514286D01*
X482186Y514629D01*
X482185Y514633D01*
X482184Y514637D01*
X482082Y514989D01*
X481989Y515313D01*
X481987Y515317D01*
X481986Y515321D01*
X481850Y515647D01*
X481716Y515971D01*
X481714Y515975D01*
X481712Y515979D01*
X481543Y516284D01*
X481371Y516595D01*
X481369Y516598D01*
X481366Y516602D01*
X481154Y516901D01*
X480959Y517176D01*
X480956Y517179D01*
X480953Y517182D01*
X480486Y517705D01*
X439592Y558599D01*
X439591Y558600D01*
X439590Y558601D01*
X439312Y558848D01*
X439060Y559073D01*
X439059Y559074D01*
X439058Y559075D01*
X438737Y559303D01*
X438479Y559486D01*
X438478Y559486D01*
X438477Y559487D01*
X438134Y559676D01*
X437856Y559830D01*
X437855Y559831D01*
X437853Y559831D01*
X437511Y559973D01*
X437197Y560103D01*
X437196Y560103D01*
X437195Y560104D01*
X436830Y560208D01*
X436513Y560300D01*
X436512Y560300D01*
X436510Y560300D01*
X436144Y560362D01*
X435810Y560419D01*
X435809Y560419D01*
X435808Y560419D01*
X435459Y560438D01*
X435099Y560458D01*
X435098Y560458D01*
X435096Y560458D01*
X434761Y560439D01*
X434388Y560418D01*
X434386Y560418D01*
X434385Y560418D01*
X434079Y560365D01*
X433686Y560298D01*
X433684Y560298D01*
X433683Y560298D01*
X433357Y560203D01*
X433001Y560101D01*
X433000Y560100D01*
X432998Y560100D01*
X432666Y559962D01*
X432343Y559828D01*
X432342Y559827D01*
X432341Y559826D01*
X432040Y559660D01*
X431720Y559483D01*
X431719Y559482D01*
X431717Y559481D01*
X431446Y559288D01*
X431139Y559070D01*
X431138Y559069D01*
X431137Y559068D01*
X430877Y558835D01*
X430608Y558595D01*
X430607Y558594D01*
X430606Y558593D01*
X430373Y558331D01*
X430134Y558063D01*
X430133Y558062D01*
X430132Y558061D01*
X429920Y557760D01*
X429722Y557482D01*
X429722Y557480D01*
X429721Y557479D01*
X429538Y557147D01*
X429378Y556858D01*
X429378Y556856D01*
X429377Y556855D01*
X429257Y556563D01*
X429107Y556199D01*
X429106Y556198D01*
X429106Y556197D01*
X429002Y555835D01*
X428910Y555514D01*
X428910Y555513D01*
X428910Y555512D01*
X428853Y555172D01*
X428792Y554812D01*
X428792Y554810D01*
X428791Y554809D01*
X428753Y554109D01*
X428753Y530002D01*
X427902Y527948D01*
X326980Y427027D01*
X326978Y427024D01*
X326974Y427021D01*
X326740Y426758D01*
X326506Y426495D01*
X326503Y426492D01*
X326500Y426489D01*
X326299Y426204D01*
X326093Y425914D01*
X326091Y425911D01*
X326089Y425907D01*
X325918Y425597D01*
X325749Y425291D01*
X325747Y425287D01*
X325745Y425283D01*
X325611Y424958D01*
X325476Y424633D01*
X325475Y424628D01*
X325474Y424624D01*
X325377Y424286D01*
X325279Y423948D01*
X325279Y423944D01*
X325278Y423940D01*
X325218Y423583D01*
X325160Y423246D01*
X325160Y423241D01*
X325159Y423237D01*
X325121Y422537D01*
X325121Y378872D01*
X324270Y376818D01*
X322698Y375246D01*
X320644Y374395D01*
X318420Y374395D01*
X316628Y375138D01*
X316458Y375197D01*
X316291Y375266D01*
X316121Y375315D01*
X315955Y375373D01*
X315780Y375413D01*
X315606Y375463D01*
X315432Y375492D01*
X315261Y375532D01*
X315082Y375552D01*
X314904Y375582D01*
X314728Y375591D01*
X314553Y375611D01*
X314373Y375611D01*
X314192Y375621D01*
X314017Y375611D01*
X313840Y375611D01*
X313661Y375591D01*
X313481Y375580D01*
X313308Y375551D01*
X313132Y375531D01*
X312956Y375491D01*
X312779Y375460D01*
X312610Y375412D01*
X312438Y375372D01*
X312268Y375313D01*
X312094Y375263D01*
X311932Y375195D01*
X311766Y375137D01*
X311603Y375058D01*
X311437Y374989D01*
X311283Y374904D01*
X311124Y374827D01*
X310971Y374731D01*
X310813Y374644D01*
X310670Y374542D01*
X310521Y374448D01*
X310380Y374335D01*
X310233Y374231D01*
X310102Y374114D01*
X309964Y374003D01*
X309837Y373876D01*
X309702Y373755D01*
X309585Y373624D01*
X309461Y373499D01*
X309348Y373358D01*
X309228Y373224D01*
X309127Y373080D01*
X309017Y372942D01*
X308921Y372789D01*
X308817Y372642D01*
X308732Y372488D01*
X308638Y372339D01*
X308560Y372176D01*
X308473Y372018D01*
X308406Y371855D01*
X308330Y371696D01*
X308270Y371526D01*
X308202Y371359D01*
X308153Y371190D01*
X308095Y371024D01*
X308055Y370848D01*
X308006Y370674D01*
X307976Y370501D01*
X307937Y370329D01*
X307917Y370150D01*
X307887Y369972D01*
X307878Y369793D01*
X307858Y369621D01*
X307859Y369449D01*
X307849Y369272D01*
X307849Y357282D01*
X306998Y355228D01*
X305426Y353656D01*
X303372Y352805D01*
X301148Y352805D01*
X299094Y353656D01*
X297522Y355228D01*
X296671Y357282D01*
X296671Y366403D01*
X296671Y366407D01*
X296671Y366412D01*
X296651Y366765D01*
X296631Y367114D01*
X296631Y367119D01*
X296630Y367123D01*
X296570Y367474D01*
X296512Y367817D01*
X296511Y367821D01*
X296510Y367825D01*
X296412Y368164D01*
X296315Y368501D01*
X296313Y368505D01*
X296312Y368509D01*
X296176Y368835D01*
X296042Y369159D01*
X296040Y369163D01*
X296038Y369167D01*
X295869Y369471D01*
X295697Y369783D01*
X295695Y369786D01*
X295692Y369790D01*
X295480Y370089D01*
X295285Y370364D01*
X295282Y370367D01*
X295279Y370370D01*
X294812Y370893D01*
X250024Y415680D01*
X249173Y417734D01*
X249173Y428594D01*
X250024Y430648D01*
X254987Y435611D01*
X254988Y435611D01*
X254988Y435612D01*
X261337Y441960D01*
X261337Y441961D01*
X267686Y448310D01*
X274035Y454659D01*
X274036Y454659D01*
X280385Y461008D01*
X280385Y461009D01*
X313997Y494620D01*
X313998Y494621D01*
X313999Y494622D01*
X314228Y494879D01*
X314471Y495152D01*
X314472Y495153D01*
X314473Y495154D01*
X314685Y495452D01*
X314884Y495733D01*
X314884Y495734D01*
X314885Y495735D01*
X315055Y496042D01*
X315228Y496356D01*
X315229Y496357D01*
X315229Y496359D01*
X315371Y496701D01*
X315501Y497015D01*
X315501Y497016D01*
X315502Y497017D01*
X315606Y497382D01*
X315698Y497699D01*
X315698Y497700D01*
X315698Y497702D01*
X315756Y498044D01*
X315817Y498402D01*
X315817Y498403D01*
X315817Y498404D01*
X315836Y498753D01*
X315856Y499113D01*
X315856Y499114D01*
X315856Y499116D01*
X315838Y499433D01*
X315816Y499824D01*
X315816Y499826D01*
X315816Y499827D01*
X315765Y500122D01*
X315696Y500526D01*
X315696Y500528D01*
X315696Y500529D01*
X315609Y500830D01*
X315499Y501211D01*
X315498Y501212D01*
X315498Y501214D01*
X315376Y501508D01*
X315226Y501869D01*
X315225Y501870D01*
X315224Y501871D01*
X315058Y502172D01*
X314881Y502492D01*
X314880Y502493D01*
X314879Y502495D01*
X314697Y502751D01*
X314468Y503073D01*
X314467Y503074D01*
X314466Y503075D01*
X314238Y503330D01*
X313993Y503604D01*
X313992Y503605D01*
X313991Y503606D01*
X313729Y503839D01*
X313461Y504078D01*
X313460Y504079D01*
X313459Y504080D01*
X313173Y504282D01*
X312880Y504490D01*
X312878Y504490D01*
X312877Y504491D01*
X312584Y504653D01*
X312256Y504834D01*
X312254Y504834D01*
X312253Y504835D01*
X311961Y504955D01*
X311597Y505105D01*
X311596Y505106D01*
X311595Y505106D01*
X311268Y505200D01*
X310912Y505302D01*
X310911Y505302D01*
X310910Y505302D01*
X310570Y505359D01*
X310210Y505420D01*
X310208Y505420D01*
X310207Y505421D01*
X309507Y505459D01*
X104140Y505459D01*
X104137Y505459D01*
X104134Y505459D01*
X103787Y505439D01*
X103429Y505419D01*
X103426Y505419D01*
X103423Y505419D01*
X103083Y505360D01*
X102726Y505300D01*
X102724Y505299D01*
X102721Y505299D01*
X102376Y505199D01*
X102042Y505103D01*
X102039Y505101D01*
X102036Y505101D01*
X101712Y504966D01*
X101384Y504830D01*
X101381Y504828D01*
X101379Y504827D01*
X101067Y504655D01*
X100760Y504485D01*
X100758Y504483D01*
X100755Y504482D01*
X100458Y504271D01*
X100179Y504073D01*
X100177Y504071D01*
X100175Y504069D01*
X99907Y503829D01*
X99648Y503598D01*
X99646Y503595D01*
X99644Y503594D01*
X99406Y503326D01*
X99174Y503066D01*
X99172Y503064D01*
X99170Y503062D01*
X98972Y502781D01*
X98762Y502485D01*
X98760Y502482D01*
X98759Y502480D01*
X98596Y502183D01*
X98418Y501861D01*
X98417Y501858D01*
X98415Y501856D01*
X98283Y501534D01*
X98146Y501203D01*
X98145Y501200D01*
X98144Y501197D01*
X98047Y500859D01*
X97949Y500518D01*
X97948Y500515D01*
X97948Y500513D01*
X97888Y500159D01*
X97830Y499816D01*
X97830Y499813D01*
X97829Y499810D01*
X97791Y499110D01*
X97791Y453390D01*
X97791Y453387D01*
X97791Y453384D01*
X97811Y453037D01*
X97831Y452679D01*
X97831Y452676D01*
X97831Y452673D01*
X97893Y452309D01*
X97950Y451976D01*
X97951Y451974D01*
X97951Y451971D01*
X98052Y451624D01*
X98147Y451292D01*
X98149Y451289D01*
X98149Y451286D01*
X98284Y450962D01*
X98420Y450634D01*
X98422Y450631D01*
X98423Y450629D01*
X98599Y450311D01*
X98765Y450010D01*
X98767Y450008D01*
X98768Y450005D01*
X98980Y449708D01*
X99177Y449429D01*
X99179Y449427D01*
X99181Y449425D01*
X99426Y449152D01*
X99652Y448898D01*
X99655Y448896D01*
X99656Y448894D01*
X99924Y448656D01*
X100184Y448424D01*
X100186Y448422D01*
X100188Y448420D01*
X100474Y448218D01*
X100765Y448012D01*
X100768Y448010D01*
X100770Y448009D01*
X101066Y447846D01*
X101389Y447668D01*
X101392Y447667D01*
X101394Y447665D01*
X101712Y447534D01*
X102047Y447396D01*
X102050Y447395D01*
X102053Y447394D01*
X102382Y447299D01*
X102732Y447199D01*
X102735Y447198D01*
X102737Y447198D01*
X103091Y447138D01*
X103434Y447080D01*
X103437Y447080D01*
X103440Y447079D01*
X104140Y447041D01*
X128768Y447041D01*
X132036Y445687D01*
X134537Y443186D01*
X135891Y439918D01*
X135891Y344313D01*
X135891Y344308D01*
X135891Y344304D01*
X135911Y343951D01*
X135931Y343601D01*
X135931Y343597D01*
X135932Y343593D01*
X135992Y343242D01*
X136050Y342899D01*
X136051Y342895D01*
X136052Y342891D01*
X136154Y342538D01*
X136247Y342214D01*
X136249Y342211D01*
X136250Y342206D01*
X136386Y341880D01*
X136520Y341556D01*
X136522Y341552D01*
X136524Y341549D01*
X136701Y341229D01*
X136865Y340933D01*
X136867Y340930D01*
X136870Y340926D01*
X137082Y340627D01*
X137277Y340352D01*
X137280Y340349D01*
X137283Y340345D01*
X137750Y339823D01*
X185337Y292236D01*
X186691Y288968D01*
X186691Y202513D01*
X186691Y202508D01*
X186691Y202504D01*
X186711Y202151D01*
X186731Y201801D01*
X186731Y201797D01*
X186732Y201793D01*
X186794Y201430D01*
X186850Y201099D01*
X186851Y201095D01*
X186852Y201091D01*
X186954Y200738D01*
X187047Y200414D01*
X187049Y200411D01*
X187050Y200406D01*
X187186Y200080D01*
X187320Y199756D01*
X187322Y199752D01*
X187324Y199749D01*
X187501Y199429D01*
X187665Y199133D01*
X187667Y199130D01*
X187670Y199126D01*
X187882Y198827D01*
X188077Y198552D01*
X188080Y198549D01*
X188083Y198545D01*
X188550Y198023D01*
X232073Y154500D01*
X232076Y154498D01*
X232079Y154494D01*
X232346Y154257D01*
X232604Y154026D01*
X232608Y154023D01*
X232611Y154020D01*
X232896Y153819D01*
X233185Y153613D01*
X233189Y153611D01*
X233193Y153609D01*
X233505Y153437D01*
X233809Y153269D01*
X233813Y153267D01*
X233817Y153265D01*
X234141Y153131D01*
X234467Y152996D01*
X234471Y152995D01*
X234475Y152994D01*
X234814Y152897D01*
X235152Y152799D01*
X235156Y152799D01*
X235160Y152798D01*
X235516Y152738D01*
X235854Y152680D01*
X235858Y152680D01*
X235863Y152679D01*
X236563Y152641D01*
X315064Y152641D01*
X315332Y152656D01*
X315600Y152663D01*
X315687Y152676D01*
X315775Y152681D01*
X316040Y152726D01*
X316306Y152763D01*
X316391Y152785D01*
X316477Y152800D01*
X316735Y152874D01*
X316995Y152942D01*
X317078Y152973D01*
X317162Y152997D01*
X317410Y153100D01*
X317661Y153196D01*
X317739Y153236D01*
X317820Y153270D01*
X318055Y153400D01*
X318293Y153523D01*
X318367Y153573D01*
X318444Y153615D01*
X318662Y153770D01*
X318886Y153920D01*
X318953Y153977D01*
X319024Y154027D01*
X319224Y154206D01*
X319429Y154380D01*
X319490Y154444D01*
X319555Y154502D01*
X319734Y154703D01*
X319918Y154898D01*
X319971Y154968D01*
X320030Y155034D01*
X320185Y155253D01*
X320346Y155467D01*
X320391Y155543D01*
X320442Y155615D01*
X320572Y155851D01*
X320708Y156081D01*
X320744Y156162D01*
X320786Y156239D01*
X320889Y156487D01*
X320998Y156732D01*
X321025Y156816D01*
X321058Y156897D01*
X321132Y157155D01*
X321214Y157411D01*
X321231Y157497D01*
X321255Y157582D01*
X321300Y157846D01*
X321352Y158110D01*
X321359Y158198D01*
X321374Y158284D01*
X321389Y158552D01*
X321411Y158820D01*
X321408Y158908D01*
X321413Y158996D01*
X321398Y159264D01*
X321390Y159532D01*
X321378Y159619D01*
X321372Y159707D01*
X321327Y159971D01*
X321289Y160237D01*
X321267Y160322D01*
X321252Y160409D01*
X321178Y160667D01*
X321110Y160927D01*
X321079Y161009D01*
X321055Y161094D01*
X320952Y161341D01*
X320855Y161592D01*
X320815Y161670D01*
X320781Y161751D01*
X320651Y161986D01*
X320527Y162224D01*
X320478Y162298D01*
X320436Y162375D01*
X320281Y162593D01*
X320131Y162816D01*
X320074Y162884D01*
X320023Y162955D01*
X319844Y163155D01*
X319670Y163360D01*
X319606Y163420D01*
X319547Y163486D01*
X319347Y163665D01*
X319152Y163848D01*
X319081Y163902D01*
X319016Y163960D01*
X318808Y164107D01*
X318591Y164269D01*
X318580Y164277D01*
X318227Y164630D01*
X317948Y165046D01*
X317757Y165509D01*
X317659Y166000D01*
X317659Y167401D01*
X330200Y167401D01*
X342741Y167401D01*
X342741Y166000D01*
X342643Y165509D01*
X342452Y165046D01*
X342173Y164630D01*
X341820Y164277D01*
X341809Y164269D01*
X341594Y164107D01*
X341376Y163952D01*
X341310Y163894D01*
X341240Y163841D01*
X341045Y163656D01*
X340845Y163478D01*
X340786Y163412D01*
X340722Y163351D01*
X340549Y163147D01*
X340370Y162946D01*
X340319Y162874D01*
X340262Y162807D01*
X340114Y162584D01*
X339958Y162365D01*
X339916Y162288D01*
X339867Y162215D01*
X339744Y161976D01*
X339614Y161741D01*
X339580Y161660D01*
X339540Y161582D01*
X339444Y161331D01*
X339342Y161083D01*
X339317Y160998D01*
X339286Y160916D01*
X339219Y160656D01*
X339145Y160398D01*
X339130Y160311D01*
X339108Y160226D01*
X339071Y159960D01*
X339026Y159696D01*
X339021Y159608D01*
X339009Y159521D01*
X339002Y159252D01*
X338987Y158984D01*
X338992Y158896D01*
X338989Y158808D01*
X339012Y158540D01*
X339028Y158273D01*
X339042Y158187D01*
X339050Y158099D01*
X339102Y157835D01*
X339148Y157571D01*
X339172Y157486D01*
X339189Y157400D01*
X339271Y157144D01*
X339345Y156886D01*
X339379Y156805D01*
X339406Y156721D01*
X339516Y156477D01*
X339619Y156229D01*
X339662Y156151D01*
X339698Y156071D01*
X339834Y155840D01*
X339964Y155605D01*
X340015Y155534D01*
X340060Y155458D01*
X340222Y155243D01*
X340377Y155025D01*
X340436Y154959D01*
X340489Y154889D01*
X340674Y154694D01*
X340853Y154494D01*
X340918Y154436D01*
X340979Y154372D01*
X341184Y154199D01*
X341384Y154020D01*
X341456Y153969D01*
X341524Y153913D01*
X341747Y153764D01*
X341966Y153609D01*
X342043Y153567D01*
X342116Y153518D01*
X342355Y153395D01*
X342590Y153265D01*
X342671Y153232D01*
X342750Y153191D01*
X343001Y153096D01*
X343249Y152994D01*
X343333Y152970D01*
X343416Y152938D01*
X343676Y152871D01*
X343934Y152798D01*
X344020Y152783D01*
X344106Y152761D01*
X344371Y152724D01*
X344636Y152679D01*
X344725Y152675D01*
X344811Y152662D01*
X345066Y152656D01*
X345336Y152641D01*
X378418Y152641D01*
X381686Y151287D01*
X384187Y148786D01*
X385541Y145518D01*
X385541Y135482D01*
X384187Y132214D01*
X381686Y129713D01*
X378418Y128359D01*
X374882Y128359D01*
X371614Y129713D01*
X368327Y133000D01*
X368324Y133002D01*
X368321Y133006D01*
X368058Y133240D01*
X367796Y133474D01*
X367792Y133477D01*
X367789Y133480D01*
X367504Y133681D01*
X367215Y133887D01*
X367211Y133889D01*
X367207Y133891D01*
X366897Y134062D01*
X366591Y134231D01*
X366587Y134233D01*
X366583Y134235D01*
X366263Y134367D01*
X365933Y134504D01*
X365929Y134505D01*
X365925Y134506D01*
X365586Y134603D01*
X365248Y134701D01*
X365244Y134701D01*
X365240Y134702D01*
X364884Y134762D01*
X364546Y134820D01*
X364542Y134820D01*
X364537Y134821D01*
X363837Y134859D01*
X344745Y134859D01*
X344562Y134849D01*
X344378Y134849D01*
X344206Y134829D01*
X344033Y134819D01*
X343853Y134789D01*
X343671Y134768D01*
X343502Y134729D01*
X343331Y134700D01*
X343155Y134649D01*
X342976Y134608D01*
X342810Y134550D01*
X342646Y134503D01*
X342485Y134436D01*
X342315Y134376D01*
X340705Y133709D01*
X319695Y133709D01*
X318085Y134376D01*
X317912Y134436D01*
X317743Y134506D01*
X317576Y134554D01*
X317413Y134611D01*
X317234Y134652D01*
X317058Y134702D01*
X316887Y134731D01*
X316718Y134770D01*
X316536Y134790D01*
X316355Y134821D01*
X316180Y134830D01*
X316010Y134849D01*
X315835Y134849D01*
X315655Y134859D01*
X228482Y134859D01*
X225214Y136213D01*
X170263Y191164D01*
X168909Y194432D01*
X168909Y226060D01*
X168909Y226063D01*
X168909Y226066D01*
X168889Y226413D01*
X168869Y226771D01*
X168869Y226774D01*
X168869Y226777D01*
X168810Y227117D01*
X168750Y227474D01*
X168749Y227476D01*
X168749Y227479D01*
X168652Y227812D01*
X168553Y228158D01*
X168551Y228161D01*
X168551Y228164D01*
X168419Y228481D01*
X168280Y228816D01*
X168278Y228819D01*
X168277Y228821D01*
X168105Y229133D01*
X167935Y229440D01*
X167933Y229442D01*
X167932Y229445D01*
X167721Y229742D01*
X167523Y230021D01*
X167521Y230023D01*
X167519Y230025D01*
X167279Y230293D01*
X167048Y230552D01*
X167045Y230554D01*
X167044Y230556D01*
X166776Y230794D01*
X166516Y231026D01*
X166514Y231028D01*
X166512Y231030D01*
X166231Y231228D01*
X165935Y231438D01*
X165932Y231440D01*
X165930Y231441D01*
X165634Y231604D01*
X165311Y231782D01*
X165308Y231783D01*
X165306Y231785D01*
X164988Y231916D01*
X164653Y232054D01*
X164650Y232055D01*
X164647Y232056D01*
X164318Y232151D01*
X163968Y232251D01*
X163965Y232252D01*
X163963Y232252D01*
X163609Y232312D01*
X163266Y232370D01*
X163263Y232370D01*
X163260Y232371D01*
X162560Y232409D01*
X116840Y232409D01*
X116837Y232409D01*
X116834Y232409D01*
X116487Y232389D01*
X116129Y232369D01*
X116126Y232369D01*
X116123Y232369D01*
X115783Y232310D01*
X115426Y232250D01*
X115424Y232249D01*
X115421Y232249D01*
X115076Y232149D01*
X114742Y232053D01*
X114739Y232051D01*
X114736Y232051D01*
X114412Y231916D01*
X114084Y231780D01*
X114081Y231778D01*
X114079Y231777D01*
X113767Y231605D01*
X113460Y231435D01*
X113458Y231433D01*
X113455Y231432D01*
X113158Y231221D01*
X112879Y231023D01*
X112877Y231021D01*
X112875Y231019D01*
X112607Y230779D01*
X112348Y230548D01*
X112346Y230545D01*
X112344Y230544D01*
X112106Y230276D01*
X111874Y230016D01*
X111872Y230014D01*
X111870Y230012D01*
X111672Y229731D01*
X111462Y229435D01*
X111460Y229432D01*
X111459Y229430D01*
X111296Y229134D01*
X111118Y228811D01*
X111117Y228808D01*
X111115Y228806D01*
X110981Y228481D01*
X110846Y228153D01*
X110845Y228150D01*
X110844Y228147D01*
X110748Y227812D01*
X110649Y227468D01*
X110648Y227465D01*
X110648Y227463D01*
X110588Y227109D01*
X110530Y226766D01*
X110530Y226763D01*
X110529Y226760D01*
X110491Y226060D01*
X110491Y200456D01*
X110501Y200273D01*
X110501Y200090D01*
X110521Y199918D01*
X110531Y199745D01*
X110561Y199564D01*
X110582Y199382D01*
X110621Y199213D01*
X110650Y199043D01*
X110701Y198866D01*
X110742Y198688D01*
X110800Y198522D01*
X110847Y198358D01*
X110914Y198197D01*
X110974Y198026D01*
X113141Y192796D01*
X113141Y188204D01*
X111384Y183963D01*
X108137Y180716D01*
X103896Y178959D01*
X99304Y178959D01*
X95063Y180716D01*
X91816Y183963D01*
X90059Y188204D01*
X90059Y192796D01*
X92226Y198026D01*
X92287Y198200D01*
X92356Y198369D01*
X92404Y198535D01*
X92461Y198699D01*
X92502Y198878D01*
X92552Y199054D01*
X92581Y199224D01*
X92620Y199393D01*
X92640Y199576D01*
X92671Y199756D01*
X92680Y199932D01*
X92699Y200101D01*
X92699Y200276D01*
X92709Y200456D01*
X92709Y243068D01*
X94063Y246336D01*
X94697Y246970D01*
X94698Y246972D01*
X94699Y246972D01*
X94919Y247218D01*
X95172Y247502D01*
X95173Y247503D01*
X95174Y247504D01*
X95376Y247790D01*
X95584Y248083D01*
X95585Y248084D01*
X95585Y248085D01*
X95772Y248422D01*
X95928Y248706D01*
X95929Y248707D01*
X95930Y248709D01*
X96075Y249061D01*
X96201Y249364D01*
X96201Y249366D01*
X96202Y249367D01*
X96300Y249709D01*
X96398Y250049D01*
X96398Y250050D01*
X96399Y250052D01*
X96457Y250397D01*
X96517Y250751D01*
X96517Y250753D01*
X96517Y250754D01*
X96536Y251095D01*
X96557Y251463D01*
X96557Y251464D01*
X96557Y251466D01*
X96538Y251794D01*
X96516Y252174D01*
X96516Y252176D01*
X96516Y252177D01*
X96464Y252482D01*
X96397Y252876D01*
X96396Y252878D01*
X96396Y252879D01*
X96313Y253165D01*
X96199Y253561D01*
X96199Y253562D01*
X96198Y253564D01*
X96067Y253878D01*
X95926Y254219D01*
X95925Y254220D01*
X95925Y254221D01*
X95755Y254528D01*
X95581Y254842D01*
X95580Y254843D01*
X95579Y254845D01*
X95394Y255106D01*
X95168Y255423D01*
X95167Y255424D01*
X95166Y255425D01*
X94939Y255679D01*
X94693Y255954D01*
X94692Y255955D01*
X94691Y255956D01*
X94427Y256191D01*
X94161Y256428D01*
X94160Y256429D01*
X94159Y256430D01*
X93856Y256644D01*
X93580Y256840D01*
X93579Y256840D01*
X93577Y256841D01*
X93276Y257007D01*
X92956Y257183D01*
X92955Y257184D01*
X92953Y257185D01*
X92637Y257315D01*
X92298Y257455D01*
X92296Y257456D01*
X92295Y257456D01*
X91971Y257549D01*
X91613Y257652D01*
X91611Y257652D01*
X91610Y257652D01*
X91259Y257711D01*
X90910Y257770D01*
X90909Y257770D01*
X90907Y257771D01*
X90207Y257809D01*
X42682Y257809D01*
X39635Y259071D01*
X39464Y259131D01*
X39296Y259201D01*
X39128Y259249D01*
X38963Y259306D01*
X38785Y259347D01*
X38611Y259397D01*
X38439Y259426D01*
X38268Y259465D01*
X38087Y259485D01*
X37908Y259515D01*
X37734Y259525D01*
X37560Y259545D01*
X37378Y259544D01*
X37197Y259554D01*
X37022Y259544D01*
X36848Y259544D01*
X36667Y259524D01*
X36486Y259513D01*
X36313Y259484D01*
X36140Y259464D01*
X35963Y259424D01*
X35783Y259393D01*
X35616Y259345D01*
X35445Y259306D01*
X35274Y259246D01*
X35099Y259195D01*
X34938Y259128D01*
X34773Y259070D01*
X34609Y258991D01*
X34441Y258921D01*
X34289Y258836D01*
X34131Y258761D01*
X33977Y258664D01*
X33818Y258576D01*
X33676Y258474D01*
X33528Y258381D01*
X33386Y258268D01*
X33238Y258162D01*
X33106Y258044D01*
X32972Y257937D01*
X32849Y257814D01*
X32716Y257695D01*
X31937Y256916D01*
X27696Y255159D01*
X23104Y255159D01*
X18863Y256916D01*
X15616Y260163D01*
X14216Y263543D01*
X14138Y263704D01*
X14070Y263870D01*
X13984Y264026D01*
X13907Y264185D01*
X13812Y264337D01*
X13725Y264493D01*
X13622Y264638D01*
X13528Y264788D01*
X13416Y264929D01*
X13312Y265074D01*
X13195Y265206D01*
X13083Y265345D01*
X12957Y265472D01*
X12838Y265605D01*
X12705Y265723D01*
X12580Y265849D01*
X12440Y265960D01*
X12306Y266080D01*
X12161Y266182D01*
X12022Y266293D01*
X11871Y266388D01*
X11725Y266492D01*
X11569Y266578D01*
X11419Y266672D01*
X11258Y266749D01*
X11101Y266836D01*
X10937Y266904D01*
X10777Y266981D01*
X10608Y267040D01*
X10443Y267108D01*
X10272Y267157D01*
X10105Y267216D01*
X9930Y267255D01*
X9758Y267305D01*
X9583Y267334D01*
X9410Y267374D01*
X9232Y267394D01*
X9056Y267424D01*
X8879Y267433D01*
X8702Y267453D01*
X8523Y267453D01*
X8344Y267463D01*
X8167Y267453D01*
X7990Y267453D01*
X7812Y267432D01*
X7633Y267422D01*
X7458Y267392D01*
X7282Y267372D01*
X7107Y267332D01*
X6931Y267302D01*
X6760Y267253D01*
X6587Y267213D01*
X6418Y267154D01*
X6246Y267104D01*
X6082Y267036D01*
X5915Y266977D01*
X5754Y266900D01*
X5589Y266831D01*
X5433Y266745D01*
X5273Y266668D01*
X5122Y266572D01*
X4965Y266486D01*
X4821Y266383D01*
X4671Y266288D01*
X4530Y266176D01*
X4385Y266073D01*
X4253Y265954D01*
X4114Y265843D01*
X3988Y265717D01*
X3854Y265597D01*
X3736Y265465D01*
X3611Y265339D01*
X3500Y265199D01*
X3380Y265065D01*
X3278Y264920D01*
X3167Y264781D01*
X3072Y264630D01*
X2969Y264484D01*
X2883Y264328D01*
X2789Y264178D01*
X2712Y264016D01*
X2625Y263860D01*
X2558Y263696D01*
X2481Y263535D01*
X2422Y263366D01*
X2354Y263201D01*
X2305Y263031D01*
X2246Y262863D01*
X2207Y262688D01*
X2158Y262516D01*
X2128Y262341D01*
X2089Y262168D01*
X2069Y261990D01*
X2039Y261814D01*
X2029Y261633D01*
X2010Y261460D01*
X2010Y261289D01*
X2001Y261114D01*
X2001Y196086D01*
X2011Y195908D01*
X2011Y195729D01*
X2031Y195552D01*
X2041Y195375D01*
X2071Y195199D01*
X2091Y195021D01*
X2130Y194848D01*
X2160Y194673D01*
X2210Y194501D01*
X2250Y194326D01*
X2308Y194159D01*
X2357Y193988D01*
X2426Y193823D01*
X2485Y193654D01*
X2562Y193494D01*
X2630Y193330D01*
X2717Y193173D01*
X2795Y193012D01*
X2889Y192862D01*
X2975Y192707D01*
X3079Y192561D01*
X3174Y192409D01*
X3285Y192270D01*
X3387Y192126D01*
X3507Y191992D01*
X3618Y191853D01*
X3744Y191727D01*
X3862Y191595D01*
X3996Y191476D01*
X4123Y191349D01*
X4261Y191238D01*
X4394Y191120D01*
X4540Y191017D01*
X4680Y190905D01*
X4830Y190811D01*
X4975Y190708D01*
X5132Y190622D01*
X5283Y190527D01*
X5340Y190500D01*
X5273Y190468D01*
X5122Y190372D01*
X4965Y190286D01*
X4821Y190183D01*
X4671Y190088D01*
X4530Y189976D01*
X4385Y189873D01*
X4253Y189754D01*
X4114Y189643D01*
X3988Y189517D01*
X3854Y189397D01*
X3736Y189265D01*
X3611Y189139D01*
X3500Y188999D01*
X3380Y188865D01*
X3278Y188720D01*
X3167Y188581D01*
X3072Y188430D01*
X2969Y188284D01*
X2883Y188128D01*
X2789Y187978D01*
X2712Y187816D01*
X2625Y187660D01*
X2558Y187496D01*
X2481Y187335D01*
X2422Y187166D01*
X2354Y187001D01*
X2305Y186831D01*
X2246Y186663D01*
X2207Y186488D01*
X2158Y186316D01*
X2128Y186141D01*
X2089Y185968D01*
X2069Y185790D01*
X2039Y185614D01*
X2029Y185433D01*
X2010Y185260D01*
X2010Y185089D01*
X2001Y184914D01*
X2001Y8350D01*
X2001Y8347D01*
X2001Y8344D01*
X2021Y7997D01*
X2041Y7639D01*
X2041Y7636D01*
X2041Y7633D01*
X2100Y7293D01*
X2160Y6936D01*
X2161Y6934D01*
X2161Y6931D01*
X2261Y6586D01*
X2357Y6252D01*
X2359Y6249D01*
X2359Y6246D01*
X2494Y5922D01*
X2630Y5594D01*
X2632Y5591D01*
X2633Y5589D01*
X2805Y5277D01*
X2975Y4970D01*
X2977Y4968D01*
X2978Y4965D01*
X3189Y4668D01*
X3387Y4389D01*
X3389Y4387D01*
X3391Y4385D01*
X3631Y4117D01*
X3862Y3858D01*
X3865Y3856D01*
X3866Y3854D01*
X4134Y3616D01*
X4394Y3384D01*
X4396Y3382D01*
X4398Y3380D01*
X4679Y3182D01*
X4975Y2972D01*
X4978Y2970D01*
X4980Y2969D01*
X5276Y2806D01*
X5599Y2628D01*
X5602Y2627D01*
X5604Y2625D01*
X5922Y2494D01*
X6257Y2356D01*
X6260Y2355D01*
X6263Y2354D01*
X6592Y2259D01*
X6942Y2159D01*
X6945Y2158D01*
X6947Y2158D01*
X7301Y2098D01*
X7644Y2040D01*
X7647Y2040D01*
X7650Y2039D01*
X8350Y2001D01*
X412750Y2001D01*
X412753Y2001D01*
G37*
G36*
X368342Y523241D02*
X368342Y523241D01*
X368346Y523241D01*
X368698Y523261D01*
X369049Y523281D01*
X369053Y523281D01*
X369057Y523282D01*
X369404Y523341D01*
X369751Y523400D01*
X369755Y523401D01*
X369759Y523402D01*
X370105Y523502D01*
X370436Y523597D01*
X370439Y523599D01*
X370444Y523600D01*
X370771Y523737D01*
X371094Y523870D01*
X371097Y523872D01*
X371101Y523874D01*
X371407Y524044D01*
X371717Y524215D01*
X371721Y524217D01*
X371724Y524220D01*
X372020Y524430D01*
X372298Y524627D01*
X372301Y524630D01*
X372305Y524633D01*
X372827Y525100D01*
X376897Y529170D01*
X376898Y529172D01*
X376899Y529172D01*
X377115Y529414D01*
X377372Y529702D01*
X377373Y529703D01*
X377374Y529704D01*
X377576Y529990D01*
X377784Y530283D01*
X377785Y530284D01*
X377785Y530285D01*
X377958Y530598D01*
X378128Y530906D01*
X378129Y530908D01*
X378130Y530909D01*
X378265Y531236D01*
X378401Y531565D01*
X378401Y531566D01*
X378402Y531567D01*
X378507Y531932D01*
X378598Y532249D01*
X378598Y532250D01*
X378599Y532252D01*
X378660Y532613D01*
X378717Y532952D01*
X378717Y532953D01*
X378717Y532954D01*
X378734Y533263D01*
X378757Y533663D01*
X378757Y533664D01*
X378757Y533666D01*
X378740Y533965D01*
X378716Y534374D01*
X378716Y534376D01*
X378716Y534377D01*
X378663Y534689D01*
X378597Y535076D01*
X378596Y535078D01*
X378596Y535079D01*
X378503Y535399D01*
X378399Y535761D01*
X378399Y535762D01*
X378398Y535764D01*
X378259Y536098D01*
X378126Y536419D01*
X378125Y536420D01*
X378125Y536421D01*
X377954Y536729D01*
X377781Y537042D01*
X377780Y537043D01*
X377779Y537045D01*
X377579Y537326D01*
X377368Y537623D01*
X377367Y537624D01*
X377366Y537625D01*
X377158Y537857D01*
X376893Y538154D01*
X376892Y538155D01*
X376891Y538156D01*
X376622Y538396D01*
X376361Y538628D01*
X376360Y538629D01*
X376359Y538630D01*
X376075Y538830D01*
X375780Y539040D01*
X375779Y539040D01*
X375777Y539041D01*
X375474Y539208D01*
X375156Y539383D01*
X375155Y539384D01*
X375153Y539385D01*
X374830Y539518D01*
X374498Y539655D01*
X374496Y539656D01*
X374495Y539656D01*
X374177Y539747D01*
X373813Y539852D01*
X373811Y539852D01*
X373810Y539852D01*
X373440Y539915D01*
X373110Y539970D01*
X373109Y539970D01*
X373107Y539971D01*
X372407Y540009D01*
X369497Y540009D01*
X369339Y540167D01*
X369336Y540170D01*
X369333Y540173D01*
X369071Y540407D01*
X368808Y540642D01*
X368804Y540644D01*
X368801Y540647D01*
X368514Y540850D01*
X368227Y541054D01*
X368223Y541056D01*
X368220Y541058D01*
X367900Y541234D01*
X367603Y541398D01*
X367600Y541400D01*
X367595Y541402D01*
X367263Y541539D01*
X366945Y541671D01*
X366941Y541672D01*
X366937Y541674D01*
X366589Y541773D01*
X366260Y541868D01*
X366256Y541869D01*
X366252Y541870D01*
X365896Y541930D01*
X365558Y541987D01*
X365554Y541987D01*
X365549Y541988D01*
X365196Y542007D01*
X364847Y542027D01*
X364842Y542026D01*
X364838Y542027D01*
X364486Y542006D01*
X364136Y541986D01*
X364131Y541986D01*
X364127Y541985D01*
X363786Y541927D01*
X363433Y541867D01*
X363429Y541865D01*
X363425Y541865D01*
X363089Y541767D01*
X362749Y541669D01*
X362745Y541667D01*
X362740Y541666D01*
X362408Y541528D01*
X362091Y541396D01*
X362087Y541394D01*
X362083Y541392D01*
X361778Y541222D01*
X361467Y541051D01*
X361464Y541048D01*
X361460Y541046D01*
X361275Y540914D01*
X360354Y540298D01*
X359891Y540107D01*
X359400Y540009D01*
X355599Y540009D01*
X355599Y552450D01*
X355599Y552453D01*
X355599Y552455D01*
X355580Y552803D01*
X355559Y553161D01*
X355559Y553164D01*
X355559Y553167D01*
X355501Y553507D01*
X355440Y553863D01*
X355439Y553866D01*
X355439Y553869D01*
X355339Y554214D01*
X355243Y554548D01*
X355242Y554550D01*
X355241Y554553D01*
X355106Y554877D01*
X354970Y555206D01*
X354968Y555209D01*
X354967Y555211D01*
X354795Y555523D01*
X354625Y555829D01*
X354624Y555832D01*
X354622Y555834D01*
X354411Y556131D01*
X354213Y556410D01*
X354211Y556412D01*
X354209Y556415D01*
X353969Y556683D01*
X353738Y556941D01*
X353737Y556942D01*
X353735Y556943D01*
X353734Y556945D01*
X353733Y556945D01*
X353733Y556946D01*
X353466Y557184D01*
X353206Y557416D01*
X353203Y557418D01*
X353201Y557420D01*
X352921Y557618D01*
X352625Y557828D01*
X352622Y557830D01*
X352620Y557831D01*
X352323Y557994D01*
X352001Y558172D01*
X351998Y558174D01*
X351996Y558175D01*
X351677Y558306D01*
X351342Y558445D01*
X351340Y558445D01*
X351337Y558446D01*
X351008Y558541D01*
X350658Y558641D01*
X350655Y558642D01*
X350652Y558643D01*
X350298Y558702D01*
X349955Y558760D01*
X349953Y558760D01*
X349950Y558761D01*
X349250Y558799D01*
X330199Y558799D01*
X330199Y564891D01*
X330560Y564891D01*
X330563Y564891D01*
X330566Y564891D01*
X330915Y564911D01*
X331271Y564931D01*
X331274Y564931D01*
X331277Y564931D01*
X331623Y564991D01*
X331974Y565050D01*
X331976Y565051D01*
X331979Y565051D01*
X332334Y565154D01*
X332658Y565247D01*
X332661Y565248D01*
X332664Y565249D01*
X333000Y565389D01*
X333316Y565520D01*
X333319Y565522D01*
X333322Y565523D01*
X333634Y565696D01*
X333940Y565865D01*
X333942Y565867D01*
X333945Y565868D01*
X334243Y566081D01*
X334521Y566277D01*
X334523Y566279D01*
X334525Y566281D01*
X334800Y566528D01*
X335052Y566752D01*
X335054Y566755D01*
X335056Y566756D01*
X335282Y567010D01*
X335526Y567284D01*
X335528Y567286D01*
X335530Y567288D01*
X335721Y567558D01*
X335938Y567865D01*
X335940Y567868D01*
X335941Y567870D01*
X336107Y568170D01*
X336282Y568489D01*
X336283Y568491D01*
X336285Y568494D01*
X336412Y568803D01*
X336554Y569147D01*
X336555Y569150D01*
X336556Y569153D01*
X336652Y569485D01*
X336751Y569832D01*
X336752Y569835D01*
X336752Y569838D01*
X336810Y570180D01*
X336870Y570534D01*
X336870Y570537D01*
X336871Y570540D01*
X336909Y571240D01*
X336909Y571501D01*
X346950Y571501D01*
X346953Y571501D01*
X346955Y571501D01*
X347303Y571520D01*
X347661Y571541D01*
X347664Y571541D01*
X347667Y571541D01*
X348007Y571599D01*
X348363Y571660D01*
X348366Y571661D01*
X348369Y571661D01*
X348714Y571761D01*
X349048Y571857D01*
X349050Y571858D01*
X349053Y571859D01*
X349377Y571994D01*
X349706Y572130D01*
X349709Y572131D01*
X349711Y572133D01*
X350023Y572305D01*
X350329Y572475D01*
X350332Y572476D01*
X350334Y572478D01*
X350631Y572689D01*
X350910Y572887D01*
X350912Y572889D01*
X350915Y572891D01*
X351183Y573131D01*
X351441Y573362D01*
X351442Y573363D01*
X351443Y573364D01*
X351445Y573366D01*
X351446Y573367D01*
X351676Y573625D01*
X351916Y573894D01*
X351918Y573897D01*
X351920Y573899D01*
X352118Y574179D01*
X352328Y574475D01*
X352330Y574478D01*
X352331Y574480D01*
X352494Y574777D01*
X352672Y575099D01*
X352674Y575102D01*
X352675Y575104D01*
X352805Y575419D01*
X352945Y575758D01*
X352945Y575760D01*
X352946Y575763D01*
X353038Y576081D01*
X353141Y576442D01*
X353142Y576445D01*
X353143Y576448D01*
X353201Y576796D01*
X353260Y577145D01*
X353260Y577147D01*
X353261Y577150D01*
X353299Y577850D01*
X353299Y603250D01*
X353299Y615791D01*
X354501Y615791D01*
X354681Y615801D01*
X354861Y615801D01*
X355036Y615821D01*
X355212Y615831D01*
X355390Y615861D01*
X355569Y615881D01*
X355741Y615921D01*
X355915Y615950D01*
X356088Y616000D01*
X356264Y616040D01*
X356430Y616099D01*
X356599Y616147D01*
X356766Y616216D01*
X356936Y616276D01*
X357095Y616353D01*
X357257Y616420D01*
X357415Y616508D01*
X357578Y616586D01*
X357727Y616680D01*
X357881Y616765D01*
X358027Y616869D01*
X358180Y616966D01*
X358318Y617076D01*
X358462Y617177D01*
X358596Y617297D01*
X358737Y617410D01*
X358861Y617535D01*
X358993Y617652D01*
X359113Y617787D01*
X359240Y617915D01*
X359350Y618052D01*
X359467Y618184D01*
X359571Y618331D01*
X359684Y618472D01*
X359777Y618621D01*
X359879Y618765D01*
X359966Y618923D01*
X360062Y619076D01*
X360138Y619234D01*
X360223Y619389D01*
X360292Y619556D01*
X360370Y619718D01*
X360428Y619885D01*
X360495Y620047D01*
X360545Y620221D01*
X360605Y620391D01*
X360643Y620563D01*
X360692Y620732D01*
X360722Y620910D01*
X360762Y621086D01*
X360782Y621261D01*
X360811Y621434D01*
X360821Y621614D01*
X360841Y621794D01*
X360840Y621970D01*
X360850Y622146D01*
X360840Y622326D01*
X360840Y622506D01*
X360820Y622681D01*
X360810Y622857D01*
X360779Y623034D01*
X360759Y623214D01*
X360719Y623386D01*
X360690Y623559D01*
X360639Y623732D01*
X360599Y623908D01*
X360540Y624077D01*
X360492Y624244D01*
X360426Y624402D01*
X360367Y624570D01*
X359409Y626882D01*
X359409Y630418D01*
X360763Y633686D01*
X363264Y636187D01*
X366878Y637684D01*
X366971Y637700D01*
X366972Y637701D01*
X366974Y637701D01*
X367346Y637808D01*
X367656Y637897D01*
X367657Y637898D01*
X367658Y637898D01*
X367995Y638038D01*
X368314Y638170D01*
X368315Y638171D01*
X368316Y638171D01*
X368609Y638334D01*
X368937Y638515D01*
X368938Y638516D01*
X368940Y638517D01*
X369262Y638746D01*
X369518Y638927D01*
X369519Y638928D01*
X369520Y638929D01*
X369807Y639186D01*
X370049Y639402D01*
X370050Y639403D01*
X370051Y639404D01*
X370279Y639660D01*
X370524Y639934D01*
X370524Y639935D01*
X370525Y639936D01*
X370702Y640185D01*
X370935Y640515D01*
X370936Y640517D01*
X370937Y640518D01*
X371086Y640788D01*
X371280Y641139D01*
X371280Y641140D01*
X371281Y641141D01*
X371408Y641450D01*
X371552Y641797D01*
X371552Y641799D01*
X371553Y641800D01*
X371656Y642160D01*
X371749Y642482D01*
X371749Y642483D01*
X371749Y642485D01*
X371810Y642842D01*
X371867Y643184D01*
X371867Y643186D01*
X371868Y643187D01*
X371888Y643550D01*
X371907Y643896D01*
X371907Y643897D01*
X371907Y643899D01*
X371887Y644243D01*
X371866Y644607D01*
X371866Y644608D01*
X371866Y644610D01*
X371807Y644952D01*
X371746Y645309D01*
X371746Y645311D01*
X371745Y645312D01*
X371650Y645641D01*
X371548Y645994D01*
X371548Y645995D01*
X371547Y645996D01*
X371419Y646303D01*
X371275Y646651D01*
X371274Y646653D01*
X371273Y646654D01*
X371102Y646963D01*
X370929Y647275D01*
X370929Y647276D01*
X370928Y647277D01*
X370695Y647604D01*
X370516Y647855D01*
X370516Y647856D01*
X370515Y647857D01*
X370047Y648380D01*
X369413Y649014D01*
X368059Y652282D01*
X368059Y740514D01*
X368044Y740782D01*
X368037Y741050D01*
X368024Y741137D01*
X368019Y741225D01*
X367974Y741490D01*
X367937Y741756D01*
X367915Y741841D01*
X367900Y741927D01*
X367826Y742185D01*
X367758Y742445D01*
X367727Y742528D01*
X367703Y742612D01*
X367600Y742860D01*
X367504Y743111D01*
X367464Y743189D01*
X367430Y743270D01*
X367300Y743505D01*
X367177Y743743D01*
X367127Y743817D01*
X367085Y743894D01*
X366930Y744112D01*
X366780Y744336D01*
X366723Y744403D01*
X366673Y744474D01*
X366494Y744674D01*
X366320Y744879D01*
X366256Y744940D01*
X366198Y745005D01*
X365997Y745184D01*
X365802Y745368D01*
X365732Y745421D01*
X365666Y745480D01*
X365447Y745635D01*
X365233Y745796D01*
X365157Y745841D01*
X365085Y745892D01*
X364849Y746022D01*
X364619Y746158D01*
X364538Y746194D01*
X364461Y746236D01*
X364213Y746339D01*
X363968Y746448D01*
X363884Y746475D01*
X363803Y746508D01*
X363545Y746582D01*
X363289Y746664D01*
X363203Y746681D01*
X363118Y746705D01*
X362854Y746750D01*
X362590Y746802D01*
X362502Y746809D01*
X362416Y746824D01*
X362148Y746839D01*
X361880Y746861D01*
X361792Y746858D01*
X361704Y746863D01*
X361436Y746848D01*
X361168Y746840D01*
X361081Y746828D01*
X360993Y746822D01*
X360729Y746777D01*
X360463Y746739D01*
X360378Y746717D01*
X360291Y746702D01*
X360033Y746628D01*
X359773Y746560D01*
X359691Y746529D01*
X359606Y746505D01*
X359359Y746402D01*
X359108Y746305D01*
X359030Y746265D01*
X358949Y746231D01*
X358714Y746101D01*
X358476Y745977D01*
X358402Y745928D01*
X358325Y745886D01*
X358107Y745731D01*
X357884Y745581D01*
X357816Y745524D01*
X357745Y745473D01*
X357545Y745294D01*
X357340Y745120D01*
X357280Y745056D01*
X357214Y744997D01*
X357035Y744797D01*
X356852Y744602D01*
X356798Y744531D01*
X356740Y744466D01*
X356593Y744258D01*
X356431Y744041D01*
X356423Y744030D01*
X356070Y743677D01*
X355654Y743398D01*
X355191Y743207D01*
X354700Y743109D01*
X353299Y743109D01*
X353299Y749301D01*
X360560Y749301D01*
X360563Y749301D01*
X360566Y749301D01*
X360913Y749320D01*
X361271Y749341D01*
X361274Y749341D01*
X361277Y749341D01*
X361617Y749399D01*
X361974Y749460D01*
X361976Y749461D01*
X361979Y749461D01*
X362324Y749561D01*
X362658Y749657D01*
X362661Y749658D01*
X362664Y749659D01*
X362986Y749793D01*
X363316Y749930D01*
X363319Y749931D01*
X363321Y749933D01*
X363633Y750105D01*
X363940Y750275D01*
X363942Y750276D01*
X363945Y750278D01*
X364236Y750486D01*
X364521Y750687D01*
X364523Y750689D01*
X364525Y750691D01*
X364793Y750931D01*
X365052Y751162D01*
X365054Y751164D01*
X365056Y751166D01*
X365294Y751434D01*
X365526Y751694D01*
X365528Y751696D01*
X365530Y751698D01*
X365728Y751979D01*
X365938Y752275D01*
X365940Y752278D01*
X365941Y752280D01*
X366104Y752576D01*
X366282Y752899D01*
X366283Y752901D01*
X366285Y752904D01*
X366416Y753222D01*
X366554Y753557D01*
X366555Y753560D01*
X366556Y753562D01*
X366651Y753891D01*
X366751Y754242D01*
X366752Y754245D01*
X366752Y754247D01*
X366812Y754601D01*
X366870Y754944D01*
X366870Y754947D01*
X366871Y754950D01*
X366909Y755650D01*
X366909Y755653D01*
X366909Y755656D01*
X366889Y756003D01*
X366869Y756361D01*
X366869Y756364D01*
X366869Y756367D01*
X366810Y756708D01*
X366750Y757064D01*
X366749Y757067D01*
X366749Y757069D01*
X366652Y757402D01*
X366553Y757748D01*
X366551Y757751D01*
X366551Y757754D01*
X366416Y758078D01*
X366280Y758406D01*
X366278Y758409D01*
X366277Y758412D01*
X366105Y758723D01*
X365935Y759030D01*
X365933Y759032D01*
X365932Y759035D01*
X365721Y759332D01*
X365523Y759611D01*
X365521Y759613D01*
X365519Y759615D01*
X365279Y759883D01*
X365048Y760142D01*
X365045Y760144D01*
X365044Y760146D01*
X364785Y760377D01*
X364516Y760616D01*
X364514Y760618D01*
X364512Y760620D01*
X364231Y760818D01*
X363935Y761028D01*
X363932Y761030D01*
X363930Y761031D01*
X363634Y761194D01*
X363311Y761372D01*
X363308Y761374D01*
X363306Y761375D01*
X362988Y761506D01*
X362653Y761645D01*
X362650Y761645D01*
X362647Y761646D01*
X362318Y761741D01*
X361968Y761841D01*
X361965Y761842D01*
X361963Y761843D01*
X361609Y761902D01*
X361266Y761960D01*
X361263Y761960D01*
X361260Y761961D01*
X360560Y761999D01*
X346950Y761999D01*
X336909Y761999D01*
X336909Y765900D01*
X337083Y766775D01*
X337096Y766865D01*
X337116Y766954D01*
X337146Y767218D01*
X337183Y767481D01*
X337185Y767571D01*
X337196Y767662D01*
X337195Y767928D01*
X337203Y768193D01*
X337195Y768283D01*
X337195Y768374D01*
X337165Y768638D01*
X337143Y768903D01*
X337125Y768992D01*
X337115Y769082D01*
X337056Y769341D01*
X337004Y769601D01*
X336976Y769688D01*
X336956Y769777D01*
X336868Y770027D01*
X336787Y770280D01*
X336750Y770363D01*
X336720Y770449D01*
X336604Y770688D01*
X336496Y770930D01*
X336450Y771009D01*
X336410Y771091D01*
X336269Y771315D01*
X336134Y771544D01*
X336079Y771616D01*
X336030Y771693D01*
X335865Y771900D01*
X335705Y772113D01*
X335643Y772179D01*
X335586Y772250D01*
X335398Y772437D01*
X335215Y772630D01*
X335146Y772689D01*
X335081Y772753D01*
X334873Y772919D01*
X334671Y773089D01*
X334595Y773140D01*
X334524Y773197D01*
X334298Y773338D01*
X334078Y773485D01*
X333997Y773527D01*
X333920Y773575D01*
X333681Y773690D01*
X333445Y773811D01*
X333360Y773844D01*
X333278Y773883D01*
X333028Y773970D01*
X332779Y774065D01*
X332691Y774088D01*
X332605Y774117D01*
X332346Y774176D01*
X332089Y774242D01*
X331999Y774255D01*
X331910Y774275D01*
X331646Y774304D01*
X331384Y774341D01*
X331293Y774344D01*
X331202Y774354D01*
X330936Y774353D01*
X330672Y774360D01*
X330581Y774353D01*
X330490Y774353D01*
X330226Y774322D01*
X329962Y774300D01*
X329873Y774282D01*
X329782Y774272D01*
X329523Y774212D01*
X329263Y774160D01*
X329176Y774132D01*
X329088Y774112D01*
X328829Y774021D01*
X328585Y773943D01*
X328508Y773908D01*
X328426Y773880D01*
X326325Y773009D01*
X321375Y773009D01*
X316803Y774903D01*
X315640Y776067D01*
X315638Y776068D01*
X315636Y776071D01*
X315359Y776317D01*
X315108Y776541D01*
X315106Y776543D01*
X315104Y776545D01*
X314811Y776752D01*
X314527Y776953D01*
X314525Y776955D01*
X314522Y776957D01*
X314211Y777128D01*
X313904Y777298D01*
X313901Y777299D01*
X313899Y777300D01*
X313566Y777438D01*
X313245Y777570D01*
X313243Y777571D01*
X313240Y777572D01*
X312895Y777671D01*
X312561Y777767D01*
X312558Y777768D01*
X312555Y777769D01*
X312199Y777829D01*
X311858Y777887D01*
X311856Y777887D01*
X311853Y777887D01*
X311489Y777907D01*
X311147Y777926D01*
X311144Y777926D01*
X311141Y777926D01*
X310788Y777906D01*
X310436Y777886D01*
X310433Y777885D01*
X310430Y777885D01*
X310096Y777828D01*
X309734Y777766D01*
X309731Y777765D01*
X309728Y777765D01*
X309404Y777671D01*
X309049Y777569D01*
X309046Y777567D01*
X309044Y777567D01*
X308713Y777429D01*
X308391Y777295D01*
X308389Y777294D01*
X308386Y777293D01*
X308084Y777125D01*
X307768Y776950D01*
X307765Y776949D01*
X307763Y776947D01*
X307482Y776747D01*
X307187Y776538D01*
X307185Y776536D01*
X307183Y776534D01*
X306660Y776067D01*
X305497Y774903D01*
X300925Y773009D01*
X295975Y773009D01*
X291403Y774903D01*
X290240Y776067D01*
X290238Y776068D01*
X290236Y776071D01*
X289959Y776317D01*
X289708Y776541D01*
X289706Y776543D01*
X289704Y776545D01*
X289411Y776752D01*
X289127Y776953D01*
X289125Y776955D01*
X289122Y776957D01*
X288811Y777128D01*
X288504Y777298D01*
X288501Y777299D01*
X288499Y777300D01*
X288166Y777438D01*
X287845Y777570D01*
X287843Y777571D01*
X287840Y777572D01*
X287495Y777671D01*
X287161Y777767D01*
X287158Y777768D01*
X287155Y777769D01*
X286799Y777829D01*
X286458Y777887D01*
X286456Y777887D01*
X286453Y777887D01*
X286089Y777907D01*
X285747Y777926D01*
X285744Y777926D01*
X285741Y777926D01*
X285388Y777906D01*
X285036Y777886D01*
X285033Y777885D01*
X285030Y777885D01*
X284696Y777828D01*
X284334Y777766D01*
X284331Y777765D01*
X284328Y777765D01*
X284004Y777671D01*
X283649Y777569D01*
X283646Y777567D01*
X283644Y777567D01*
X283313Y777429D01*
X282991Y777295D01*
X282989Y777294D01*
X282986Y777293D01*
X282684Y777125D01*
X282368Y776950D01*
X282365Y776949D01*
X282363Y776947D01*
X282082Y776747D01*
X281787Y776538D01*
X281785Y776536D01*
X281783Y776534D01*
X281260Y776067D01*
X280097Y774903D01*
X275525Y773009D01*
X270575Y773009D01*
X266003Y774903D01*
X264840Y776067D01*
X264838Y776068D01*
X264836Y776071D01*
X264559Y776317D01*
X264308Y776541D01*
X264306Y776543D01*
X264304Y776545D01*
X264011Y776752D01*
X263727Y776953D01*
X263725Y776955D01*
X263722Y776957D01*
X263411Y777128D01*
X263104Y777298D01*
X263101Y777299D01*
X263099Y777300D01*
X262766Y777438D01*
X262445Y777570D01*
X262443Y777571D01*
X262440Y777572D01*
X262095Y777671D01*
X261761Y777767D01*
X261758Y777768D01*
X261755Y777769D01*
X261399Y777829D01*
X261058Y777887D01*
X261056Y777887D01*
X261053Y777887D01*
X260689Y777907D01*
X260347Y777926D01*
X260344Y777926D01*
X260341Y777926D01*
X259988Y777906D01*
X259636Y777886D01*
X259633Y777885D01*
X259630Y777885D01*
X259296Y777828D01*
X258934Y777766D01*
X258931Y777765D01*
X258928Y777765D01*
X258604Y777671D01*
X258249Y777569D01*
X258246Y777567D01*
X258244Y777567D01*
X257913Y777429D01*
X257591Y777295D01*
X257589Y777294D01*
X257586Y777293D01*
X257284Y777125D01*
X256968Y776950D01*
X256965Y776949D01*
X256963Y776947D01*
X256682Y776747D01*
X256387Y776538D01*
X256385Y776536D01*
X256383Y776534D01*
X255860Y776067D01*
X254697Y774903D01*
X250125Y773009D01*
X245175Y773009D01*
X240603Y774903D01*
X239440Y776067D01*
X239438Y776068D01*
X239436Y776071D01*
X239159Y776317D01*
X238908Y776541D01*
X238906Y776543D01*
X238904Y776545D01*
X238611Y776752D01*
X238327Y776953D01*
X238325Y776955D01*
X238322Y776957D01*
X238011Y777128D01*
X237704Y777298D01*
X237701Y777299D01*
X237699Y777300D01*
X237366Y777438D01*
X237045Y777570D01*
X237043Y777571D01*
X237040Y777572D01*
X236695Y777671D01*
X236361Y777767D01*
X236358Y777768D01*
X236355Y777769D01*
X235999Y777829D01*
X235658Y777887D01*
X235656Y777887D01*
X235653Y777887D01*
X235289Y777907D01*
X234947Y777926D01*
X234944Y777926D01*
X234941Y777926D01*
X234588Y777906D01*
X234236Y777886D01*
X234233Y777885D01*
X234230Y777885D01*
X233896Y777828D01*
X233534Y777766D01*
X233531Y777765D01*
X233528Y777765D01*
X233204Y777671D01*
X232849Y777569D01*
X232846Y777567D01*
X232844Y777567D01*
X232513Y777429D01*
X232191Y777295D01*
X232189Y777294D01*
X232186Y777293D01*
X231884Y777125D01*
X231568Y776950D01*
X231565Y776949D01*
X231563Y776947D01*
X231282Y776747D01*
X230987Y776538D01*
X230985Y776536D01*
X230983Y776534D01*
X230460Y776067D01*
X229297Y774903D01*
X224725Y773009D01*
X219775Y773009D01*
X215203Y774903D01*
X214040Y776067D01*
X214038Y776068D01*
X214036Y776071D01*
X213759Y776317D01*
X213508Y776541D01*
X213506Y776543D01*
X213504Y776545D01*
X213211Y776752D01*
X212927Y776953D01*
X212925Y776955D01*
X212922Y776957D01*
X212611Y777128D01*
X212304Y777298D01*
X212301Y777299D01*
X212299Y777300D01*
X211966Y777438D01*
X211645Y777570D01*
X211643Y777571D01*
X211640Y777572D01*
X211295Y777671D01*
X210961Y777767D01*
X210958Y777768D01*
X210955Y777769D01*
X210599Y777829D01*
X210258Y777887D01*
X210256Y777887D01*
X210253Y777887D01*
X209889Y777907D01*
X209547Y777926D01*
X209544Y777926D01*
X209541Y777926D01*
X209188Y777906D01*
X208836Y777886D01*
X208833Y777885D01*
X208830Y777885D01*
X208496Y777828D01*
X208134Y777766D01*
X208131Y777765D01*
X208128Y777765D01*
X207804Y777671D01*
X207449Y777569D01*
X207446Y777567D01*
X207444Y777567D01*
X207113Y777429D01*
X206791Y777295D01*
X206789Y777294D01*
X206786Y777293D01*
X206484Y777125D01*
X206168Y776950D01*
X206165Y776949D01*
X206163Y776947D01*
X205882Y776747D01*
X205587Y776538D01*
X205585Y776536D01*
X205583Y776534D01*
X205060Y776067D01*
X203897Y774903D01*
X199325Y773009D01*
X194375Y773009D01*
X189803Y774903D01*
X188640Y776067D01*
X188638Y776068D01*
X188636Y776071D01*
X188359Y776317D01*
X188108Y776541D01*
X188106Y776543D01*
X188104Y776545D01*
X187811Y776752D01*
X187527Y776953D01*
X187525Y776955D01*
X187522Y776957D01*
X187211Y777128D01*
X186904Y777298D01*
X186901Y777299D01*
X186899Y777300D01*
X186566Y777438D01*
X186245Y777570D01*
X186243Y777571D01*
X186240Y777572D01*
X185895Y777671D01*
X185561Y777767D01*
X185558Y777768D01*
X185555Y777769D01*
X185199Y777829D01*
X184858Y777887D01*
X184856Y777887D01*
X184853Y777887D01*
X184489Y777907D01*
X184147Y777926D01*
X184144Y777926D01*
X184141Y777926D01*
X183788Y777906D01*
X183436Y777886D01*
X183433Y777885D01*
X183430Y777885D01*
X183096Y777828D01*
X182734Y777766D01*
X182731Y777765D01*
X182728Y777765D01*
X182404Y777671D01*
X182049Y777569D01*
X182046Y777567D01*
X182044Y777567D01*
X181713Y777429D01*
X181391Y777295D01*
X181389Y777294D01*
X181386Y777293D01*
X181084Y777125D01*
X180768Y776950D01*
X180765Y776949D01*
X180763Y776947D01*
X180482Y776747D01*
X180187Y776538D01*
X180185Y776536D01*
X180183Y776534D01*
X179660Y776067D01*
X178497Y774903D01*
X173925Y773009D01*
X168975Y773009D01*
X164403Y774903D01*
X163240Y776067D01*
X163238Y776068D01*
X163236Y776071D01*
X162959Y776317D01*
X162708Y776541D01*
X162706Y776543D01*
X162704Y776545D01*
X162411Y776752D01*
X162127Y776953D01*
X162125Y776955D01*
X162122Y776957D01*
X161811Y777128D01*
X161504Y777298D01*
X161501Y777299D01*
X161499Y777300D01*
X161166Y777438D01*
X160845Y777570D01*
X160843Y777571D01*
X160840Y777572D01*
X160495Y777671D01*
X160161Y777767D01*
X160158Y777768D01*
X160155Y777769D01*
X159799Y777829D01*
X159458Y777887D01*
X159456Y777887D01*
X159453Y777887D01*
X159089Y777907D01*
X158747Y777926D01*
X158744Y777926D01*
X158741Y777926D01*
X158388Y777906D01*
X158036Y777886D01*
X158033Y777885D01*
X158030Y777885D01*
X157696Y777828D01*
X157334Y777766D01*
X157331Y777765D01*
X157328Y777765D01*
X157004Y777671D01*
X156649Y777569D01*
X156646Y777567D01*
X156644Y777567D01*
X156313Y777429D01*
X155991Y777295D01*
X155989Y777294D01*
X155986Y777293D01*
X155684Y777125D01*
X155368Y776950D01*
X155365Y776949D01*
X155363Y776947D01*
X155082Y776747D01*
X154787Y776538D01*
X154785Y776536D01*
X154783Y776534D01*
X154260Y776067D01*
X153097Y774903D01*
X148525Y773009D01*
X143575Y773009D01*
X141474Y773880D01*
X141388Y773910D01*
X141305Y773947D01*
X141052Y774027D01*
X140801Y774115D01*
X140712Y774135D01*
X140626Y774163D01*
X140366Y774214D01*
X140107Y774274D01*
X140016Y774284D01*
X139927Y774301D01*
X139662Y774324D01*
X139399Y774353D01*
X139308Y774353D01*
X139217Y774361D01*
X138952Y774353D01*
X138686Y774353D01*
X138596Y774343D01*
X138505Y774340D01*
X138243Y774303D01*
X137978Y774273D01*
X137890Y774253D01*
X137800Y774240D01*
X137543Y774174D01*
X137284Y774114D01*
X137198Y774084D01*
X137110Y774061D01*
X136862Y773967D01*
X136612Y773879D01*
X136529Y773839D01*
X136445Y773807D01*
X136210Y773685D01*
X135970Y773569D01*
X135893Y773521D01*
X135812Y773479D01*
X135592Y773332D01*
X135367Y773190D01*
X135296Y773133D01*
X135220Y773083D01*
X135018Y772911D01*
X134810Y772745D01*
X134746Y772681D01*
X134676Y772622D01*
X134494Y772429D01*
X134307Y772241D01*
X134250Y772170D01*
X134188Y772104D01*
X134028Y771891D01*
X133863Y771684D01*
X133815Y771607D01*
X133760Y771534D01*
X133625Y771305D01*
X133484Y771081D01*
X133445Y770998D01*
X133399Y770920D01*
X133291Y770678D01*
X133176Y770438D01*
X133146Y770353D01*
X133109Y770269D01*
X133028Y770016D01*
X132941Y769766D01*
X132921Y769677D01*
X132894Y769590D01*
X132842Y769330D01*
X132783Y769071D01*
X132773Y768980D01*
X132756Y768891D01*
X132734Y768627D01*
X132704Y768363D01*
X132704Y768272D01*
X132697Y768181D01*
X132705Y767916D01*
X132705Y767651D01*
X132715Y767560D01*
X132718Y767469D01*
X132757Y767198D01*
X132786Y766943D01*
X132805Y766860D01*
X132817Y766775D01*
X132991Y765900D01*
X132991Y761999D01*
X122950Y761999D01*
X122947Y761999D01*
X122945Y761999D01*
X122597Y761980D01*
X122239Y761959D01*
X122236Y761959D01*
X122233Y761959D01*
X121893Y761901D01*
X121537Y761840D01*
X121534Y761839D01*
X121531Y761839D01*
X121186Y761739D01*
X120852Y761643D01*
X120850Y761642D01*
X120847Y761641D01*
X120523Y761506D01*
X120194Y761370D01*
X120191Y761368D01*
X120189Y761367D01*
X119877Y761195D01*
X119571Y761025D01*
X119568Y761024D01*
X119566Y761022D01*
X119269Y760811D01*
X118990Y760613D01*
X118988Y760611D01*
X118985Y760609D01*
X118717Y760369D01*
X118459Y760138D01*
X118458Y760137D01*
X118456Y760135D01*
X118455Y760134D01*
X118454Y760133D01*
X118216Y759866D01*
X117984Y759606D01*
X117982Y759603D01*
X117980Y759601D01*
X117782Y759321D01*
X117572Y759025D01*
X117570Y759022D01*
X117569Y759020D01*
X117406Y758723D01*
X117228Y758401D01*
X117226Y758398D01*
X117225Y758396D01*
X117094Y758077D01*
X116955Y757742D01*
X116955Y757740D01*
X116954Y757737D01*
X116858Y757402D01*
X116759Y757058D01*
X116758Y757055D01*
X116757Y757052D01*
X116698Y756698D01*
X116640Y756355D01*
X116640Y756353D01*
X116639Y756350D01*
X116601Y755650D01*
X116601Y730250D01*
X116601Y717709D01*
X115200Y717709D01*
X114709Y717807D01*
X114247Y717998D01*
X114018Y718151D01*
X113939Y718198D01*
X113865Y718250D01*
X113632Y718379D01*
X113404Y718513D01*
X113321Y718551D01*
X113241Y718595D01*
X112996Y718696D01*
X112754Y718804D01*
X112667Y718832D01*
X112583Y718867D01*
X112327Y718940D01*
X112075Y719021D01*
X111986Y719038D01*
X111898Y719063D01*
X111636Y719108D01*
X111376Y719159D01*
X111285Y719167D01*
X111196Y719182D01*
X110931Y719197D01*
X110666Y719219D01*
X110575Y719217D01*
X110484Y719222D01*
X110220Y719206D01*
X109954Y719199D01*
X109864Y719186D01*
X109773Y719181D01*
X109512Y719136D01*
X109249Y719099D01*
X109160Y719076D01*
X109071Y719061D01*
X108816Y718987D01*
X108559Y718921D01*
X108474Y718888D01*
X108386Y718863D01*
X108142Y718761D01*
X107893Y718666D01*
X107812Y718624D01*
X107729Y718590D01*
X107496Y718461D01*
X107261Y718339D01*
X107185Y718288D01*
X107105Y718244D01*
X106889Y718091D01*
X106669Y717943D01*
X106599Y717884D01*
X106525Y717831D01*
X106327Y717654D01*
X106125Y717483D01*
X106062Y717417D01*
X105994Y717356D01*
X105817Y717157D01*
X105636Y716965D01*
X105581Y716892D01*
X105520Y716824D01*
X105367Y716607D01*
X105208Y716395D01*
X105161Y716317D01*
X105109Y716242D01*
X104981Y716010D01*
X104846Y715781D01*
X104809Y715698D01*
X104765Y715618D01*
X104664Y715374D01*
X104556Y715131D01*
X104528Y715044D01*
X104494Y714960D01*
X104421Y714705D01*
X104340Y714452D01*
X104323Y714362D01*
X104298Y714275D01*
X104254Y714013D01*
X104202Y713753D01*
X104195Y713662D01*
X104179Y713572D01*
X104164Y713298D01*
X104143Y713043D01*
X104145Y712958D01*
X104141Y712872D01*
X104141Y645932D01*
X102787Y642664D01*
X100286Y640163D01*
X97018Y638809D01*
X93482Y638809D01*
X92092Y639385D01*
X91921Y639445D01*
X91755Y639513D01*
X91586Y639562D01*
X91419Y639620D01*
X91243Y639660D01*
X91070Y639710D01*
X90896Y639740D01*
X90725Y639779D01*
X90546Y639799D01*
X90368Y639829D01*
X90192Y639839D01*
X90017Y639858D01*
X89837Y639858D01*
X89656Y639868D01*
X89481Y639858D01*
X89304Y639858D01*
X89125Y639838D01*
X88945Y639828D01*
X88772Y639798D01*
X88596Y639778D01*
X88420Y639738D01*
X88243Y639708D01*
X88074Y639659D01*
X87902Y639619D01*
X87732Y639560D01*
X87558Y639510D01*
X87396Y639442D01*
X87230Y639384D01*
X87067Y639305D01*
X86901Y639236D01*
X86747Y639151D01*
X86588Y639074D01*
X86435Y638978D01*
X86277Y638891D01*
X86134Y638789D01*
X85985Y638695D01*
X85844Y638582D01*
X85697Y638478D01*
X85566Y638361D01*
X85428Y638251D01*
X85301Y638123D01*
X85166Y638003D01*
X85049Y637871D01*
X84925Y637747D01*
X84812Y637605D01*
X84692Y637471D01*
X84590Y637327D01*
X84481Y637189D01*
X84385Y637036D01*
X84281Y636889D01*
X84196Y636735D01*
X84102Y636586D01*
X84024Y636423D01*
X83937Y636265D01*
X83870Y636102D01*
X83794Y635944D01*
X83734Y635773D01*
X83666Y635606D01*
X83617Y635437D01*
X83559Y635271D01*
X83519Y635095D01*
X83470Y634922D01*
X83440Y634748D01*
X83401Y634576D01*
X83381Y634397D01*
X83351Y634219D01*
X83342Y634040D01*
X83322Y633868D01*
X83323Y633696D01*
X83313Y633519D01*
X83313Y571240D01*
X83313Y571237D01*
X83313Y571234D01*
X83333Y570877D01*
X83353Y570529D01*
X83353Y570526D01*
X83353Y570523D01*
X83412Y570183D01*
X83472Y569826D01*
X83473Y569824D01*
X83473Y569821D01*
X83575Y569468D01*
X83669Y569142D01*
X83671Y569139D01*
X83671Y569136D01*
X83810Y568803D01*
X83942Y568484D01*
X83944Y568481D01*
X83945Y568479D01*
X84122Y568159D01*
X84287Y567860D01*
X84289Y567858D01*
X84290Y567855D01*
X84502Y567558D01*
X84699Y567279D01*
X84701Y567277D01*
X84703Y567275D01*
X84952Y566997D01*
X85174Y566748D01*
X85177Y566746D01*
X85178Y566744D01*
X85454Y566499D01*
X85706Y566274D01*
X85708Y566272D01*
X85710Y566270D01*
X85991Y566072D01*
X86287Y565862D01*
X86290Y565860D01*
X86292Y565859D01*
X86588Y565696D01*
X86911Y565518D01*
X86914Y565517D01*
X86916Y565515D01*
X87234Y565384D01*
X87569Y565246D01*
X87572Y565245D01*
X87575Y565244D01*
X87904Y565149D01*
X88254Y565049D01*
X88257Y565048D01*
X88259Y565048D01*
X88613Y564988D01*
X88901Y564940D01*
X88901Y552450D01*
X88901Y552447D01*
X88901Y552445D01*
X88920Y552097D01*
X88941Y551739D01*
X88941Y551736D01*
X88941Y551733D01*
X88999Y551393D01*
X89060Y551037D01*
X89061Y551034D01*
X89061Y551031D01*
X89161Y550686D01*
X89257Y550352D01*
X89258Y550350D01*
X89259Y550347D01*
X89394Y550023D01*
X89530Y549694D01*
X89531Y549691D01*
X89533Y549689D01*
X89705Y549377D01*
X89875Y549071D01*
X89876Y549068D01*
X89878Y549066D01*
X90089Y548769D01*
X90287Y548490D01*
X90289Y548488D01*
X90291Y548485D01*
X90531Y548217D01*
X90762Y547959D01*
X90763Y547958D01*
X90765Y547957D01*
X90766Y547955D01*
X90767Y547954D01*
X91034Y547716D01*
X91294Y547484D01*
X91297Y547482D01*
X91299Y547480D01*
X91579Y547282D01*
X91875Y547072D01*
X91878Y547070D01*
X91880Y547069D01*
X92177Y546906D01*
X92499Y546728D01*
X92502Y546726D01*
X92504Y546725D01*
X92823Y546594D01*
X93158Y546455D01*
X93160Y546455D01*
X93163Y546454D01*
X93492Y546359D01*
X93842Y546259D01*
X93845Y546258D01*
X93848Y546257D01*
X94202Y546198D01*
X94545Y546140D01*
X94547Y546140D01*
X94550Y546139D01*
X95250Y546101D01*
X120650Y546101D01*
X127260Y546101D01*
X127263Y546101D01*
X127266Y546101D01*
X127613Y546120D01*
X127971Y546141D01*
X127974Y546141D01*
X127977Y546141D01*
X128317Y546199D01*
X128674Y546260D01*
X128676Y546261D01*
X128679Y546261D01*
X129024Y546361D01*
X129358Y546457D01*
X129361Y546458D01*
X129364Y546459D01*
X129688Y546594D01*
X130016Y546730D01*
X130019Y546731D01*
X130021Y546733D01*
X130333Y546905D01*
X130640Y547075D01*
X130642Y547076D01*
X130645Y547078D01*
X130942Y547289D01*
X131221Y547487D01*
X131223Y547489D01*
X131225Y547491D01*
X131493Y547731D01*
X131752Y547962D01*
X131754Y547964D01*
X131756Y547966D01*
X131994Y548234D01*
X132226Y548494D01*
X132228Y548496D01*
X132230Y548498D01*
X132428Y548779D01*
X132638Y549075D01*
X132640Y549078D01*
X132641Y549080D01*
X132804Y549376D01*
X132982Y549699D01*
X132983Y549701D01*
X132985Y549704D01*
X133116Y550022D01*
X133254Y550357D01*
X133255Y550360D01*
X133256Y550362D01*
X133351Y550691D01*
X133451Y551042D01*
X133452Y551045D01*
X133452Y551047D01*
X133512Y551401D01*
X133570Y551744D01*
X133570Y551747D01*
X133571Y551750D01*
X133609Y552450D01*
X133609Y552453D01*
X133609Y552456D01*
X133589Y552803D01*
X133569Y553161D01*
X133569Y553164D01*
X133569Y553167D01*
X133510Y553508D01*
X133450Y553864D01*
X133449Y553867D01*
X133449Y553869D01*
X133349Y554215D01*
X133253Y554548D01*
X133251Y554551D01*
X133251Y554554D01*
X133116Y554878D01*
X132980Y555206D01*
X132978Y555209D01*
X132977Y555212D01*
X132811Y555512D01*
X132635Y555830D01*
X132633Y555832D01*
X132632Y555835D01*
X132421Y556132D01*
X132223Y556411D01*
X132221Y556413D01*
X132219Y556415D01*
X131979Y556683D01*
X131748Y556942D01*
X131745Y556944D01*
X131744Y556946D01*
X131476Y557184D01*
X131216Y557416D01*
X131214Y557418D01*
X131212Y557420D01*
X130931Y557618D01*
X130635Y557828D01*
X130632Y557830D01*
X130630Y557831D01*
X130334Y557994D01*
X130011Y558172D01*
X130008Y558174D01*
X130006Y558175D01*
X129688Y558306D01*
X129353Y558445D01*
X129350Y558445D01*
X129347Y558446D01*
X129018Y558541D01*
X128668Y558641D01*
X128665Y558642D01*
X128663Y558643D01*
X128309Y558702D01*
X127966Y558760D01*
X127963Y558760D01*
X127960Y558761D01*
X127260Y558799D01*
X126999Y558799D01*
X126999Y564891D01*
X130800Y564891D01*
X131291Y564793D01*
X131754Y564602D01*
X132198Y564305D01*
X132245Y564263D01*
X132374Y564134D01*
X132510Y564025D01*
X132640Y563909D01*
X132789Y563804D01*
X132931Y563691D01*
X133079Y563598D01*
X133221Y563497D01*
X133381Y563409D01*
X133535Y563312D01*
X133692Y563237D01*
X133845Y563152D01*
X134013Y563083D01*
X134177Y563004D01*
X134342Y562947D01*
X134503Y562880D01*
X134678Y562830D01*
X134850Y562770D01*
X135020Y562731D01*
X135188Y562683D01*
X135367Y562652D01*
X135545Y562612D01*
X135718Y562593D01*
X135890Y562564D01*
X136072Y562554D01*
X136253Y562534D01*
X136427Y562534D01*
X136602Y562524D01*
X136783Y562534D01*
X136965Y562535D01*
X137139Y562554D01*
X137313Y562564D01*
X137492Y562595D01*
X137673Y562616D01*
X137843Y562655D01*
X138015Y562684D01*
X138190Y562735D01*
X138367Y562775D01*
X138535Y562834D01*
X138700Y562882D01*
X138860Y562948D01*
X139029Y563007D01*
X143575Y564891D01*
X148525Y564891D01*
X153097Y562997D01*
X154260Y561833D01*
X154262Y561832D01*
X154264Y561829D01*
X154532Y561591D01*
X154792Y561359D01*
X154794Y561357D01*
X154796Y561355D01*
X155089Y561148D01*
X155373Y560947D01*
X155375Y560945D01*
X155378Y560944D01*
X155691Y560771D01*
X155996Y560602D01*
X155999Y560601D01*
X156001Y560600D01*
X156335Y560462D01*
X156654Y560330D01*
X156657Y560329D01*
X156660Y560328D01*
X157004Y560229D01*
X157339Y560133D01*
X157342Y560132D01*
X157345Y560131D01*
X157704Y560071D01*
X158041Y560013D01*
X158044Y560013D01*
X158047Y560013D01*
X158411Y559993D01*
X158753Y559974D01*
X158756Y559974D01*
X158759Y559974D01*
X159112Y559994D01*
X159464Y560014D01*
X159467Y560015D01*
X159470Y560015D01*
X159819Y560075D01*
X160166Y560134D01*
X160169Y560135D01*
X160172Y560135D01*
X160517Y560235D01*
X160851Y560331D01*
X160853Y560333D01*
X160856Y560333D01*
X161187Y560471D01*
X161509Y560605D01*
X161511Y560606D01*
X161514Y560607D01*
X161829Y560782D01*
X162132Y560950D01*
X162134Y560951D01*
X162137Y560953D01*
X162430Y561161D01*
X162713Y561362D01*
X162715Y561364D01*
X162717Y561366D01*
X163240Y561833D01*
X164403Y562997D01*
X168975Y564891D01*
X173925Y564891D01*
X178497Y562997D01*
X179660Y561833D01*
X179662Y561832D01*
X179664Y561829D01*
X179932Y561591D01*
X180192Y561359D01*
X180194Y561357D01*
X180196Y561355D01*
X180489Y561148D01*
X180773Y560947D01*
X180775Y560945D01*
X180778Y560944D01*
X181091Y560771D01*
X181396Y560602D01*
X181399Y560601D01*
X181401Y560600D01*
X181735Y560462D01*
X182054Y560330D01*
X182057Y560329D01*
X182060Y560328D01*
X182404Y560229D01*
X182739Y560133D01*
X182742Y560132D01*
X182745Y560131D01*
X183104Y560071D01*
X183441Y560013D01*
X183444Y560013D01*
X183447Y560013D01*
X183811Y559993D01*
X184153Y559974D01*
X184156Y559974D01*
X184159Y559974D01*
X184512Y559994D01*
X184864Y560014D01*
X184867Y560015D01*
X184870Y560015D01*
X185219Y560075D01*
X185566Y560134D01*
X185569Y560135D01*
X185572Y560135D01*
X185917Y560235D01*
X186251Y560331D01*
X186253Y560333D01*
X186256Y560333D01*
X186587Y560471D01*
X186909Y560605D01*
X186911Y560606D01*
X186914Y560607D01*
X187229Y560782D01*
X187532Y560950D01*
X187534Y560951D01*
X187537Y560953D01*
X187830Y561161D01*
X188113Y561362D01*
X188115Y561364D01*
X188117Y561366D01*
X188640Y561833D01*
X189803Y562997D01*
X194375Y564891D01*
X199325Y564891D01*
X203897Y562997D01*
X205060Y561833D01*
X205062Y561832D01*
X205064Y561829D01*
X205332Y561591D01*
X205592Y561359D01*
X205594Y561357D01*
X205596Y561355D01*
X205889Y561148D01*
X206173Y560947D01*
X206175Y560945D01*
X206178Y560944D01*
X206491Y560771D01*
X206796Y560602D01*
X206799Y560601D01*
X206801Y560600D01*
X207135Y560462D01*
X207454Y560330D01*
X207457Y560329D01*
X207460Y560328D01*
X207804Y560229D01*
X208139Y560133D01*
X208142Y560132D01*
X208145Y560131D01*
X208504Y560071D01*
X208841Y560013D01*
X208844Y560013D01*
X208847Y560013D01*
X209211Y559993D01*
X209553Y559974D01*
X209556Y559974D01*
X209559Y559974D01*
X209912Y559994D01*
X210264Y560014D01*
X210267Y560015D01*
X210270Y560015D01*
X210619Y560075D01*
X210966Y560134D01*
X210969Y560135D01*
X210972Y560135D01*
X211317Y560235D01*
X211651Y560331D01*
X211653Y560333D01*
X211656Y560333D01*
X211987Y560471D01*
X212309Y560605D01*
X212311Y560606D01*
X212314Y560607D01*
X212629Y560782D01*
X212932Y560950D01*
X212934Y560951D01*
X212937Y560953D01*
X213230Y561161D01*
X213513Y561362D01*
X213515Y561364D01*
X213517Y561366D01*
X214040Y561833D01*
X215203Y562997D01*
X219775Y564891D01*
X225309Y564891D01*
X225427Y564871D01*
X225602Y564861D01*
X225775Y564842D01*
X225957Y564842D01*
X226139Y564832D01*
X226313Y564842D01*
X226487Y564842D01*
X226668Y564862D01*
X226850Y564873D01*
X227022Y564902D01*
X227195Y564922D01*
X227373Y564962D01*
X227552Y564993D01*
X227720Y565042D01*
X227890Y565080D01*
X228062Y565141D01*
X228236Y565191D01*
X228398Y565258D01*
X228562Y565316D01*
X228726Y565395D01*
X228894Y565465D01*
X229047Y565550D01*
X229204Y565625D01*
X229358Y565722D01*
X229517Y565811D01*
X229660Y565912D01*
X229807Y566005D01*
X229949Y566118D01*
X230097Y566224D01*
X230230Y566342D01*
X230364Y566449D01*
X230486Y566572D01*
X230620Y566691D01*
X325038Y661109D01*
X325040Y661112D01*
X325044Y661115D01*
X325278Y661378D01*
X325512Y661641D01*
X325515Y661644D01*
X325518Y661647D01*
X325719Y661932D01*
X325925Y662222D01*
X325927Y662225D01*
X325929Y662229D01*
X326100Y662539D01*
X326269Y662845D01*
X326271Y662849D01*
X326273Y662853D01*
X326407Y663178D01*
X326542Y663503D01*
X326543Y663508D01*
X326544Y663512D01*
X326638Y663839D01*
X326739Y664188D01*
X326739Y664192D01*
X326740Y664196D01*
X326798Y664538D01*
X326858Y664890D01*
X326858Y664895D01*
X326859Y664899D01*
X326897Y665599D01*
X326897Y735172D01*
X327748Y737226D01*
X329320Y738798D01*
X331610Y739746D01*
X331620Y739748D01*
X331974Y739808D01*
X331976Y739809D01*
X331979Y739809D01*
X332329Y739911D01*
X332658Y740005D01*
X332661Y740006D01*
X332664Y740007D01*
X332984Y740141D01*
X333316Y740278D01*
X333319Y740280D01*
X333321Y740281D01*
X333627Y740450D01*
X333940Y740623D01*
X333942Y740625D01*
X333945Y740626D01*
X334246Y740840D01*
X334521Y741035D01*
X334523Y741037D01*
X334525Y741039D01*
X334800Y741286D01*
X335052Y741510D01*
X335054Y741513D01*
X335056Y741514D01*
X335295Y741783D01*
X335526Y742042D01*
X335528Y742044D01*
X335530Y742046D01*
X335722Y742318D01*
X335938Y742623D01*
X335940Y742626D01*
X335941Y742628D01*
X336101Y742917D01*
X336282Y743247D01*
X336283Y743250D01*
X336285Y743252D01*
X336413Y743564D01*
X336554Y743905D01*
X336555Y743908D01*
X336556Y743911D01*
X336644Y744217D01*
X336751Y744590D01*
X336752Y744593D01*
X336752Y744596D01*
X336811Y744943D01*
X336870Y745292D01*
X336870Y745295D01*
X336871Y745298D01*
X336909Y745998D01*
X336909Y749301D01*
X340601Y749301D01*
X340601Y741927D01*
X340472Y741825D01*
X340329Y741723D01*
X340194Y741602D01*
X340053Y741490D01*
X339929Y741365D01*
X339798Y741248D01*
X339678Y741113D01*
X339550Y740985D01*
X339440Y740847D01*
X339323Y740716D01*
X339219Y740569D01*
X339106Y740428D01*
X339013Y740279D01*
X338911Y740135D01*
X338824Y739977D01*
X338728Y739824D01*
X338652Y739666D01*
X338567Y739511D01*
X338498Y739344D01*
X338420Y739182D01*
X338362Y739016D01*
X338295Y738853D01*
X338245Y738680D01*
X338186Y738509D01*
X338147Y738337D01*
X338098Y738168D01*
X338068Y737990D01*
X338028Y737814D01*
X338009Y737639D01*
X337979Y737466D01*
X337969Y737286D01*
X337949Y737106D01*
X337950Y736930D01*
X337940Y736754D01*
X337950Y736574D01*
X337951Y736394D01*
X337971Y736219D01*
X337981Y736043D01*
X338011Y735865D01*
X338031Y735686D01*
X338071Y735514D01*
X338075Y735492D01*
X338075Y659542D01*
X337224Y657488D01*
X252956Y573220D01*
X252836Y573086D01*
X252708Y572958D01*
X252598Y572820D01*
X252481Y572689D01*
X252377Y572542D01*
X252264Y572401D01*
X252171Y572252D01*
X252069Y572108D01*
X251982Y571950D01*
X251886Y571797D01*
X251810Y571638D01*
X251725Y571484D01*
X251656Y571318D01*
X251577Y571155D01*
X251519Y570989D01*
X251452Y570826D01*
X251402Y570653D01*
X251343Y570482D01*
X251304Y570310D01*
X251255Y570142D01*
X251225Y569964D01*
X251185Y569788D01*
X251165Y569613D01*
X251136Y569439D01*
X251126Y569259D01*
X251106Y569080D01*
X251106Y568903D01*
X251096Y568728D01*
X251106Y568548D01*
X251107Y568367D01*
X251127Y568192D01*
X251137Y568017D01*
X251167Y567839D01*
X251187Y567659D01*
X251227Y567488D01*
X251256Y567314D01*
X251306Y567141D01*
X251347Y566965D01*
X251405Y566799D01*
X251454Y566630D01*
X251523Y566463D01*
X251583Y566293D01*
X251660Y566134D01*
X251727Y565972D01*
X251814Y565814D01*
X251893Y565651D01*
X251987Y565503D01*
X252072Y565349D01*
X252177Y565201D01*
X252273Y565049D01*
X252383Y564911D01*
X252485Y564768D01*
X252605Y564633D01*
X252718Y564492D01*
X252843Y564368D01*
X252960Y564237D01*
X253095Y564117D01*
X253222Y563990D01*
X253360Y563880D01*
X253492Y563763D01*
X253639Y563658D01*
X253780Y563546D01*
X253930Y563453D01*
X254073Y563351D01*
X254231Y563264D01*
X254384Y563168D01*
X254545Y563091D01*
X254674Y563020D01*
X255860Y561833D01*
X255862Y561832D01*
X255864Y561829D01*
X256132Y561591D01*
X256392Y561359D01*
X256394Y561357D01*
X256396Y561355D01*
X256689Y561148D01*
X256973Y560947D01*
X256975Y560945D01*
X256978Y560944D01*
X257291Y560771D01*
X257596Y560602D01*
X257599Y560601D01*
X257601Y560600D01*
X257935Y560462D01*
X258254Y560330D01*
X258257Y560329D01*
X258260Y560328D01*
X258604Y560229D01*
X258939Y560133D01*
X258942Y560132D01*
X258945Y560131D01*
X259304Y560071D01*
X259641Y560013D01*
X259644Y560013D01*
X259647Y560013D01*
X260011Y559993D01*
X260353Y559974D01*
X260356Y559974D01*
X260359Y559974D01*
X260712Y559994D01*
X261064Y560014D01*
X261067Y560015D01*
X261070Y560015D01*
X261419Y560075D01*
X261766Y560134D01*
X261769Y560135D01*
X261772Y560135D01*
X262117Y560235D01*
X262451Y560331D01*
X262453Y560333D01*
X262456Y560333D01*
X262787Y560471D01*
X263109Y560605D01*
X263111Y560606D01*
X263114Y560607D01*
X263429Y560782D01*
X263732Y560950D01*
X263734Y560951D01*
X263737Y560953D01*
X264030Y561161D01*
X264313Y561362D01*
X264315Y561364D01*
X264317Y561366D01*
X264840Y561833D01*
X266003Y562997D01*
X270575Y564891D01*
X275525Y564891D01*
X280097Y562997D01*
X281260Y561833D01*
X281262Y561832D01*
X281264Y561829D01*
X281532Y561591D01*
X281792Y561359D01*
X281794Y561357D01*
X281796Y561355D01*
X282089Y561148D01*
X282373Y560947D01*
X282375Y560945D01*
X282378Y560944D01*
X282691Y560771D01*
X282996Y560602D01*
X282999Y560601D01*
X283001Y560600D01*
X283335Y560462D01*
X283654Y560330D01*
X283657Y560329D01*
X283660Y560328D01*
X284004Y560229D01*
X284339Y560133D01*
X284342Y560132D01*
X284345Y560131D01*
X284704Y560071D01*
X285041Y560013D01*
X285044Y560013D01*
X285047Y560013D01*
X285411Y559993D01*
X285753Y559974D01*
X285756Y559974D01*
X285759Y559974D01*
X286112Y559994D01*
X286464Y560014D01*
X286467Y560015D01*
X286470Y560015D01*
X286819Y560075D01*
X287166Y560134D01*
X287169Y560135D01*
X287172Y560135D01*
X287517Y560235D01*
X287851Y560331D01*
X287853Y560333D01*
X287856Y560333D01*
X288187Y560471D01*
X288509Y560605D01*
X288511Y560606D01*
X288514Y560607D01*
X288829Y560782D01*
X289132Y560950D01*
X289134Y560951D01*
X289137Y560953D01*
X289430Y561161D01*
X289713Y561362D01*
X289715Y561364D01*
X289717Y561366D01*
X290240Y561833D01*
X291403Y562997D01*
X295975Y564891D01*
X300925Y564891D01*
X305471Y563007D01*
X305643Y562947D01*
X305811Y562878D01*
X305979Y562830D01*
X306144Y562772D01*
X306321Y562732D01*
X306496Y562682D01*
X306668Y562653D01*
X306838Y562614D01*
X307019Y562593D01*
X307198Y562563D01*
X307373Y562554D01*
X307546Y562534D01*
X307728Y562534D01*
X307910Y562524D01*
X308084Y562534D01*
X308259Y562534D01*
X308439Y562555D01*
X308621Y562565D01*
X308793Y562595D01*
X308967Y562614D01*
X309144Y562655D01*
X309323Y562685D01*
X309491Y562734D01*
X309661Y562773D01*
X309833Y562833D01*
X310007Y562884D01*
X310169Y562951D01*
X310333Y563009D01*
X310497Y563088D01*
X310665Y563157D01*
X310818Y563242D01*
X310975Y563318D01*
X311129Y563415D01*
X311288Y563503D01*
X311430Y563604D01*
X311578Y563697D01*
X311720Y563811D01*
X311868Y563916D01*
X312001Y564035D01*
X312135Y564142D01*
X312257Y564264D01*
X312303Y564305D01*
X312746Y564602D01*
X313209Y564793D01*
X313700Y564891D01*
X317501Y564891D01*
X317501Y552450D01*
X317501Y540009D01*
X313700Y540009D01*
X313209Y540107D01*
X312746Y540298D01*
X312302Y540596D01*
X312255Y540637D01*
X312126Y540766D01*
X311990Y540874D01*
X311859Y540991D01*
X311711Y541096D01*
X311569Y541209D01*
X311421Y541302D01*
X311278Y541403D01*
X311119Y541491D01*
X310965Y541588D01*
X310807Y541663D01*
X310655Y541748D01*
X310487Y541817D01*
X310323Y541896D01*
X310158Y541953D01*
X309997Y542020D01*
X309822Y542070D01*
X309650Y542130D01*
X309480Y542169D01*
X309312Y542217D01*
X309133Y542247D01*
X308955Y542288D01*
X308782Y542307D01*
X308610Y542336D01*
X308428Y542346D01*
X308247Y542366D01*
X308072Y542366D01*
X307898Y542376D01*
X307717Y542366D01*
X307535Y542365D01*
X307361Y542345D01*
X307187Y542336D01*
X307008Y542305D01*
X306827Y542284D01*
X306657Y542245D01*
X306485Y542216D01*
X306310Y542165D01*
X306133Y542125D01*
X305965Y542066D01*
X305800Y542018D01*
X305640Y541952D01*
X305471Y541893D01*
X300925Y540009D01*
X295975Y540009D01*
X291403Y541903D01*
X290240Y543067D01*
X290238Y543068D01*
X290236Y543071D01*
X289959Y543317D01*
X289708Y543541D01*
X289706Y543543D01*
X289704Y543545D01*
X289411Y543752D01*
X289127Y543953D01*
X289125Y543955D01*
X289122Y543957D01*
X288809Y544129D01*
X288504Y544298D01*
X288501Y544299D01*
X288499Y544300D01*
X288166Y544438D01*
X287845Y544570D01*
X287843Y544571D01*
X287840Y544572D01*
X287495Y544671D01*
X287161Y544767D01*
X287158Y544768D01*
X287155Y544769D01*
X286799Y544829D01*
X286458Y544887D01*
X286456Y544887D01*
X286453Y544887D01*
X286089Y544907D01*
X285747Y544926D01*
X285744Y544926D01*
X285741Y544926D01*
X285388Y544906D01*
X285036Y544886D01*
X285033Y544885D01*
X285030Y544885D01*
X284697Y544828D01*
X284334Y544766D01*
X284331Y544765D01*
X284328Y544765D01*
X284004Y544671D01*
X283649Y544569D01*
X283646Y544567D01*
X283644Y544567D01*
X283313Y544429D01*
X282991Y544295D01*
X282989Y544294D01*
X282986Y544293D01*
X282684Y544125D01*
X282368Y543950D01*
X282365Y543949D01*
X282363Y543947D01*
X282082Y543747D01*
X281787Y543538D01*
X281785Y543536D01*
X281783Y543534D01*
X281260Y543067D01*
X280097Y541903D01*
X275525Y540009D01*
X270575Y540009D01*
X266003Y541903D01*
X264840Y543067D01*
X264838Y543068D01*
X264836Y543071D01*
X264559Y543317D01*
X264308Y543541D01*
X264306Y543543D01*
X264304Y543545D01*
X264011Y543752D01*
X263727Y543953D01*
X263725Y543955D01*
X263722Y543957D01*
X263409Y544129D01*
X263104Y544298D01*
X263101Y544299D01*
X263099Y544300D01*
X262766Y544438D01*
X262445Y544570D01*
X262443Y544571D01*
X262440Y544572D01*
X262095Y544671D01*
X261761Y544767D01*
X261758Y544768D01*
X261755Y544769D01*
X261399Y544829D01*
X261058Y544887D01*
X261056Y544887D01*
X261053Y544887D01*
X260689Y544907D01*
X260347Y544926D01*
X260344Y544926D01*
X260341Y544926D01*
X259988Y544906D01*
X259636Y544886D01*
X259633Y544885D01*
X259630Y544885D01*
X259297Y544828D01*
X258934Y544766D01*
X258931Y544765D01*
X258928Y544765D01*
X258604Y544671D01*
X258249Y544569D01*
X258246Y544567D01*
X258244Y544567D01*
X257913Y544429D01*
X257591Y544295D01*
X257589Y544294D01*
X257586Y544293D01*
X257284Y544125D01*
X256968Y543950D01*
X256965Y543949D01*
X256963Y543947D01*
X256682Y543747D01*
X256387Y543538D01*
X256385Y543536D01*
X256383Y543534D01*
X255860Y543067D01*
X254697Y541903D01*
X250125Y540009D01*
X245175Y540009D01*
X240603Y541903D01*
X239440Y543067D01*
X239438Y543068D01*
X239436Y543071D01*
X239159Y543317D01*
X238908Y543541D01*
X238906Y543543D01*
X238904Y543545D01*
X238611Y543752D01*
X238327Y543953D01*
X238325Y543955D01*
X238322Y543957D01*
X238009Y544129D01*
X237704Y544298D01*
X237701Y544299D01*
X237699Y544300D01*
X237366Y544438D01*
X237045Y544570D01*
X237043Y544571D01*
X237040Y544572D01*
X236695Y544671D01*
X236361Y544767D01*
X236358Y544768D01*
X236355Y544769D01*
X235999Y544829D01*
X235658Y544887D01*
X235656Y544887D01*
X235653Y544887D01*
X235289Y544907D01*
X234947Y544926D01*
X234944Y544926D01*
X234941Y544926D01*
X234588Y544906D01*
X234236Y544886D01*
X234233Y544885D01*
X234230Y544885D01*
X233897Y544828D01*
X233534Y544766D01*
X233531Y544765D01*
X233528Y544765D01*
X233204Y544671D01*
X232849Y544569D01*
X232846Y544567D01*
X232844Y544567D01*
X232513Y544429D01*
X232191Y544295D01*
X232189Y544294D01*
X232186Y544293D01*
X231884Y544125D01*
X231568Y543950D01*
X231565Y543949D01*
X231563Y543947D01*
X231282Y543747D01*
X230987Y543538D01*
X230985Y543536D01*
X230983Y543534D01*
X230460Y543067D01*
X229297Y541903D01*
X224725Y540009D01*
X219775Y540009D01*
X215203Y541903D01*
X214040Y543067D01*
X214038Y543068D01*
X214036Y543071D01*
X213759Y543317D01*
X213508Y543541D01*
X213506Y543543D01*
X213504Y543545D01*
X213211Y543752D01*
X212927Y543953D01*
X212925Y543955D01*
X212922Y543957D01*
X212609Y544129D01*
X212304Y544298D01*
X212301Y544299D01*
X212299Y544300D01*
X211966Y544438D01*
X211645Y544570D01*
X211643Y544571D01*
X211640Y544572D01*
X211295Y544671D01*
X210961Y544767D01*
X210958Y544768D01*
X210955Y544769D01*
X210599Y544829D01*
X210258Y544887D01*
X210256Y544887D01*
X210253Y544887D01*
X209889Y544907D01*
X209547Y544926D01*
X209544Y544926D01*
X209541Y544926D01*
X209188Y544906D01*
X208836Y544886D01*
X208833Y544885D01*
X208830Y544885D01*
X208497Y544828D01*
X208134Y544766D01*
X208131Y544765D01*
X208128Y544765D01*
X207804Y544671D01*
X207449Y544569D01*
X207446Y544567D01*
X207444Y544567D01*
X207113Y544429D01*
X206791Y544295D01*
X206789Y544294D01*
X206786Y544293D01*
X206484Y544125D01*
X206168Y543950D01*
X206165Y543949D01*
X206163Y543947D01*
X205882Y543747D01*
X205587Y543538D01*
X205585Y543536D01*
X205583Y543534D01*
X205060Y543067D01*
X203897Y541903D01*
X199325Y540009D01*
X196467Y540009D01*
X196463Y540009D01*
X196458Y540009D01*
X196106Y539989D01*
X195756Y539969D01*
X195751Y539969D01*
X195747Y539968D01*
X195400Y539909D01*
X195053Y539850D01*
X195049Y539849D01*
X195045Y539848D01*
X194699Y539748D01*
X194369Y539653D01*
X194365Y539651D01*
X194361Y539650D01*
X194033Y539513D01*
X193711Y539380D01*
X193707Y539378D01*
X193703Y539376D01*
X193397Y539206D01*
X193087Y539035D01*
X193084Y539033D01*
X193080Y539030D01*
X192783Y538819D01*
X192506Y538623D01*
X192503Y538620D01*
X192500Y538617D01*
X191977Y538150D01*
X187907Y534080D01*
X187906Y534078D01*
X187905Y534078D01*
X187683Y533828D01*
X187433Y533548D01*
X187432Y533547D01*
X187431Y533546D01*
X187217Y533245D01*
X187020Y532967D01*
X187020Y532966D01*
X187019Y532965D01*
X186846Y532652D01*
X186676Y532344D01*
X186675Y532342D01*
X186675Y532341D01*
X186530Y531992D01*
X186403Y531685D01*
X186403Y531684D01*
X186402Y531683D01*
X186288Y531283D01*
X186206Y531001D01*
X186206Y531000D01*
X186206Y530998D01*
X186145Y530637D01*
X186087Y530298D01*
X186087Y530297D01*
X186087Y530296D01*
X186066Y529926D01*
X186048Y529587D01*
X186048Y529586D01*
X186048Y529584D01*
X186068Y529224D01*
X186088Y528876D01*
X186088Y528874D01*
X186088Y528873D01*
X186141Y528561D01*
X186208Y528174D01*
X186208Y528172D01*
X186208Y528171D01*
X186317Y527794D01*
X186405Y527489D01*
X186406Y527488D01*
X186406Y527486D01*
X186556Y527127D01*
X186678Y526831D01*
X186679Y526830D01*
X186680Y526829D01*
X186854Y526513D01*
X187023Y526208D01*
X187024Y526207D01*
X187025Y526205D01*
X187233Y525913D01*
X187436Y525627D01*
X187437Y525626D01*
X187438Y525625D01*
X187676Y525360D01*
X187911Y525096D01*
X187912Y525095D01*
X187913Y525094D01*
X188195Y524843D01*
X188443Y524622D01*
X188444Y524621D01*
X188445Y524620D01*
X188758Y524399D01*
X189024Y524210D01*
X189026Y524210D01*
X189027Y524209D01*
X189335Y524039D01*
X189648Y523867D01*
X189650Y523866D01*
X189651Y523865D01*
X189975Y523732D01*
X190307Y523595D01*
X190308Y523594D01*
X190309Y523594D01*
X190628Y523503D01*
X190992Y523398D01*
X190993Y523398D01*
X190994Y523398D01*
X191364Y523335D01*
X191694Y523280D01*
X191695Y523280D01*
X191697Y523279D01*
X192397Y523241D01*
X368337Y523241D01*
X368342Y523241D01*
G37*
G36*
X162563Y250191D02*
X162563Y250191D01*
X162566Y250191D01*
X162913Y250211D01*
X163271Y250231D01*
X163274Y250231D01*
X163277Y250231D01*
X163617Y250290D01*
X163974Y250350D01*
X163976Y250351D01*
X163979Y250351D01*
X164324Y250451D01*
X164658Y250547D01*
X164661Y250549D01*
X164664Y250549D01*
X164988Y250684D01*
X165316Y250820D01*
X165319Y250822D01*
X165321Y250823D01*
X165633Y250995D01*
X165940Y251165D01*
X165942Y251167D01*
X165945Y251168D01*
X166242Y251379D01*
X166521Y251577D01*
X166523Y251579D01*
X166525Y251581D01*
X166793Y251821D01*
X167052Y252052D01*
X167054Y252055D01*
X167056Y252056D01*
X167294Y252324D01*
X167526Y252584D01*
X167528Y252586D01*
X167530Y252588D01*
X167728Y252868D01*
X167938Y253165D01*
X167940Y253168D01*
X167941Y253170D01*
X168104Y253466D01*
X168282Y253789D01*
X168283Y253792D01*
X168285Y253794D01*
X168415Y254109D01*
X168554Y254447D01*
X168555Y254450D01*
X168556Y254453D01*
X168651Y254782D01*
X168751Y255132D01*
X168752Y255135D01*
X168752Y255137D01*
X168812Y255491D01*
X168870Y255834D01*
X168870Y255837D01*
X168871Y255840D01*
X168909Y256540D01*
X168909Y280887D01*
X168909Y280892D01*
X168909Y280896D01*
X168889Y281240D01*
X168869Y281599D01*
X168869Y281603D01*
X168868Y281607D01*
X168808Y281958D01*
X168750Y282301D01*
X168749Y282305D01*
X168748Y282309D01*
X168647Y282657D01*
X168553Y282986D01*
X168551Y282989D01*
X168550Y282994D01*
X168414Y283320D01*
X168280Y283644D01*
X168278Y283648D01*
X168276Y283651D01*
X168107Y283956D01*
X167935Y284267D01*
X167933Y284270D01*
X167930Y284274D01*
X167718Y284573D01*
X167523Y284848D01*
X167520Y284851D01*
X167517Y284855D01*
X167050Y285377D01*
X121930Y330497D01*
X121796Y330616D01*
X121670Y330743D01*
X121531Y330853D01*
X121398Y330972D01*
X121252Y331075D01*
X121113Y331187D01*
X120962Y331281D01*
X120817Y331384D01*
X120661Y331470D01*
X120509Y331566D01*
X120349Y331643D01*
X120194Y331728D01*
X120029Y331797D01*
X119867Y331874D01*
X119699Y331933D01*
X119679Y331942D01*
X119664Y332068D01*
X119624Y332241D01*
X119594Y332416D01*
X119545Y332588D01*
X119504Y332762D01*
X119445Y332932D01*
X119396Y333100D01*
X119331Y333258D01*
X119272Y333424D01*
X118109Y336232D01*
X118109Y353160D01*
X118109Y353163D01*
X118109Y353166D01*
X118089Y353520D01*
X118069Y353871D01*
X118069Y353874D01*
X118069Y353878D01*
X118007Y354235D01*
X117950Y354573D01*
X117949Y354576D01*
X117948Y354580D01*
X117846Y354934D01*
X117753Y355258D01*
X117751Y355261D01*
X117750Y355264D01*
X117616Y355588D01*
X117480Y355916D01*
X117478Y355919D01*
X117477Y355922D01*
X117302Y356237D01*
X117135Y356540D01*
X117133Y356542D01*
X117131Y356545D01*
X116912Y356853D01*
X116723Y357120D01*
X116721Y357123D01*
X116718Y357126D01*
X116473Y357399D01*
X116248Y357651D01*
X116245Y357654D01*
X116243Y357656D01*
X115978Y357892D01*
X115716Y358126D01*
X115713Y358128D01*
X115711Y358130D01*
X115429Y358329D01*
X115135Y358538D01*
X115132Y358539D01*
X115129Y358541D01*
X114827Y358708D01*
X114511Y358882D01*
X114508Y358883D01*
X114505Y358885D01*
X114182Y359018D01*
X113853Y359154D01*
X113850Y359155D01*
X113847Y359156D01*
X113511Y359252D01*
X113168Y359351D01*
X113165Y359352D01*
X113162Y359352D01*
X112810Y359411D01*
X112466Y359470D01*
X112462Y359470D01*
X112459Y359470D01*
X112096Y359490D01*
X111754Y359509D01*
X111751Y359509D01*
X111748Y359509D01*
X111388Y359488D01*
X111043Y359468D01*
X111040Y359468D01*
X111036Y359468D01*
X110676Y359406D01*
X110341Y359348D01*
X110338Y359348D01*
X110334Y359347D01*
X109992Y359248D01*
X109656Y359150D01*
X109653Y359149D01*
X109650Y359148D01*
X109335Y359017D01*
X108999Y358877D01*
X108996Y358875D01*
X108993Y358874D01*
X108967Y358860D01*
X103896Y356759D01*
X99304Y356759D01*
X95063Y358516D01*
X91816Y361763D01*
X90059Y366004D01*
X90059Y370596D01*
X91816Y374837D01*
X95063Y378084D01*
X99304Y379841D01*
X103896Y379841D01*
X108971Y377738D01*
X109003Y377721D01*
X109006Y377720D01*
X109009Y377718D01*
X109326Y377587D01*
X109661Y377448D01*
X109664Y377447D01*
X109667Y377446D01*
X110015Y377346D01*
X110345Y377251D01*
X110349Y377250D01*
X110352Y377249D01*
X110701Y377190D01*
X111048Y377131D01*
X111051Y377131D01*
X111054Y377130D01*
X111396Y377111D01*
X111759Y377091D01*
X111762Y377091D01*
X111766Y377091D01*
X112118Y377111D01*
X112470Y377131D01*
X112474Y377131D01*
X112477Y377132D01*
X112816Y377190D01*
X113173Y377250D01*
X113176Y377251D01*
X113179Y377252D01*
X113515Y377349D01*
X113857Y377447D01*
X113860Y377449D01*
X113864Y377450D01*
X114198Y377588D01*
X114515Y377720D01*
X114518Y377722D01*
X114521Y377723D01*
X114840Y377900D01*
X115139Y378065D01*
X115142Y378067D01*
X115145Y378068D01*
X115431Y378272D01*
X115720Y378477D01*
X115722Y378479D01*
X115725Y378481D01*
X115987Y378716D01*
X116251Y378952D01*
X116253Y378954D01*
X116256Y378957D01*
X116492Y379222D01*
X116726Y379483D01*
X116727Y379486D01*
X116730Y379489D01*
X116930Y379772D01*
X117138Y380065D01*
X117139Y380068D01*
X117141Y380070D01*
X117307Y380372D01*
X117482Y380688D01*
X117483Y380691D01*
X117485Y380694D01*
X117616Y381012D01*
X117754Y381347D01*
X117755Y381350D01*
X117756Y381353D01*
X117853Y381691D01*
X117951Y382031D01*
X117952Y382035D01*
X117952Y382038D01*
X118012Y382392D01*
X118070Y382734D01*
X118070Y382737D01*
X118071Y382740D01*
X118109Y383440D01*
X118109Y385318D01*
X118109Y385321D01*
X118109Y385324D01*
X118089Y385671D01*
X118069Y386029D01*
X118069Y386032D01*
X118069Y386035D01*
X118010Y386375D01*
X117950Y386732D01*
X117949Y386734D01*
X117949Y386737D01*
X117849Y387082D01*
X117753Y387416D01*
X117751Y387419D01*
X117751Y387422D01*
X117616Y387746D01*
X117480Y388074D01*
X117478Y388077D01*
X117477Y388079D01*
X117305Y388391D01*
X117135Y388698D01*
X117133Y388700D01*
X117132Y388703D01*
X116921Y389000D01*
X116723Y389279D01*
X116721Y389281D01*
X116719Y389283D01*
X116479Y389551D01*
X116248Y389810D01*
X116245Y389812D01*
X116244Y389814D01*
X115976Y390052D01*
X115716Y390284D01*
X115714Y390286D01*
X115712Y390288D01*
X115431Y390486D01*
X115135Y390696D01*
X115132Y390698D01*
X115130Y390699D01*
X114834Y390862D01*
X114511Y391040D01*
X114508Y391041D01*
X114506Y391043D01*
X114188Y391174D01*
X113853Y391312D01*
X113850Y391313D01*
X113847Y391314D01*
X113518Y391409D01*
X113168Y391509D01*
X113165Y391510D01*
X113163Y391510D01*
X112809Y391570D01*
X112466Y391628D01*
X112463Y391628D01*
X112460Y391629D01*
X111760Y391667D01*
X111156Y391667D01*
X109102Y392518D01*
X68668Y432952D01*
X67876Y434865D01*
X67746Y435135D01*
X67622Y435405D01*
X67592Y435454D01*
X67567Y435506D01*
X67407Y435760D01*
X67254Y436015D01*
X67219Y436061D01*
X67188Y436110D01*
X67002Y436343D01*
X66820Y436580D01*
X66779Y436622D01*
X66743Y436667D01*
X66533Y436877D01*
X66325Y437093D01*
X66280Y437129D01*
X66240Y437170D01*
X66006Y437356D01*
X65776Y437547D01*
X65728Y437578D01*
X65683Y437614D01*
X65429Y437773D01*
X65180Y437936D01*
X65128Y437962D01*
X65079Y437993D01*
X64810Y438122D01*
X64543Y438257D01*
X64489Y438277D01*
X64437Y438302D01*
X64156Y438400D01*
X63875Y438504D01*
X63819Y438518D01*
X63765Y438537D01*
X63473Y438603D01*
X63184Y438675D01*
X63126Y438682D01*
X63070Y438695D01*
X62772Y438728D01*
X62477Y438767D01*
X62420Y438768D01*
X62362Y438774D01*
X62062Y438774D01*
X61765Y438779D01*
X61707Y438774D01*
X61650Y438774D01*
X61353Y438740D01*
X61056Y438712D01*
X60999Y438700D01*
X60942Y438694D01*
X60651Y438627D01*
X60358Y438566D01*
X60303Y438547D01*
X60247Y438535D01*
X59966Y438436D01*
X59682Y438342D01*
X59629Y438318D01*
X59575Y438299D01*
X59306Y438169D01*
X59035Y438044D01*
X58986Y438014D01*
X58933Y437989D01*
X58680Y437830D01*
X58425Y437675D01*
X58379Y437640D01*
X58331Y437609D01*
X58097Y437423D01*
X57861Y437241D01*
X57819Y437201D01*
X57774Y437165D01*
X57563Y436953D01*
X57348Y436746D01*
X57312Y436701D01*
X57271Y436660D01*
X57085Y436426D01*
X56895Y436196D01*
X56863Y436147D01*
X56827Y436103D01*
X56679Y435867D01*
X56511Y435609D01*
X55566Y433972D01*
X54502Y432585D01*
X53265Y431348D01*
X52977Y431127D01*
X52931Y431087D01*
X52881Y431052D01*
X52662Y430856D01*
X52437Y430663D01*
X52396Y430618D01*
X52350Y430578D01*
X52153Y430357D01*
X51952Y430140D01*
X51916Y430091D01*
X51876Y430046D01*
X51705Y429804D01*
X51529Y429567D01*
X51499Y429515D01*
X51464Y429465D01*
X51321Y429205D01*
X51173Y428950D01*
X51149Y428894D01*
X51120Y428841D01*
X51007Y428568D01*
X50889Y428297D01*
X50871Y428239D01*
X50847Y428183D01*
X50766Y427898D01*
X50679Y427616D01*
X50668Y427557D01*
X50651Y427498D01*
X50601Y427206D01*
X50547Y426916D01*
X50542Y426855D01*
X50532Y426796D01*
X50516Y426500D01*
X50494Y426206D01*
X50496Y426145D01*
X50493Y426084D01*
X50510Y425789D01*
X50521Y425494D01*
X50530Y425433D01*
X50533Y425373D01*
X50583Y425083D01*
X50627Y424789D01*
X50643Y424730D01*
X50653Y424671D01*
X50735Y424388D01*
X50812Y424101D01*
X50834Y424045D01*
X50851Y423986D01*
X50965Y423714D01*
X51073Y423438D01*
X51101Y423385D01*
X51125Y423329D01*
X51268Y423070D01*
X51406Y422809D01*
X51441Y422758D01*
X51470Y422705D01*
X51641Y422465D01*
X51808Y422220D01*
X51848Y422174D01*
X51883Y422125D01*
X52080Y421905D01*
X52273Y421681D01*
X52318Y421640D01*
X52358Y421594D01*
X52579Y421398D01*
X52796Y421197D01*
X52845Y421161D01*
X52890Y421120D01*
X53132Y420950D01*
X53370Y420774D01*
X53422Y420744D01*
X53472Y420709D01*
X53731Y420566D01*
X53987Y420419D01*
X54043Y420395D01*
X54096Y420365D01*
X54369Y420253D01*
X54640Y420135D01*
X54698Y420117D01*
X54755Y420094D01*
X55039Y420012D01*
X55275Y419940D01*
X56689Y419354D01*
X57404Y418639D01*
X57791Y417705D01*
X57791Y395095D01*
X57404Y394161D01*
X56614Y393370D01*
X56464Y393277D01*
X56305Y393189D01*
X56163Y393087D01*
X56015Y392994D01*
X55873Y392881D01*
X55725Y392776D01*
X55595Y392659D01*
X55458Y392550D01*
X55330Y392421D01*
X55194Y392300D01*
X55078Y392170D01*
X54955Y392046D01*
X54841Y391904D01*
X54720Y391768D01*
X54619Y391626D01*
X54511Y391489D01*
X54414Y391335D01*
X54309Y391187D01*
X54225Y391034D01*
X54132Y390886D01*
X54053Y390722D01*
X53965Y390563D01*
X53899Y390401D01*
X53823Y390244D01*
X53763Y390072D01*
X53694Y389904D01*
X53646Y389736D01*
X53588Y389571D01*
X53548Y389394D01*
X53498Y389219D01*
X53469Y389047D01*
X53430Y388877D01*
X53410Y388696D01*
X53379Y388517D01*
X53370Y388339D01*
X53350Y388169D01*
X53351Y387995D01*
X53341Y387817D01*
X53341Y281940D01*
X53341Y281937D01*
X53341Y281934D01*
X53362Y281569D01*
X53381Y281229D01*
X53381Y281226D01*
X53381Y281223D01*
X53441Y280872D01*
X53500Y280526D01*
X53501Y280524D01*
X53501Y280521D01*
X53601Y280176D01*
X53697Y279842D01*
X53699Y279839D01*
X53699Y279836D01*
X53837Y279505D01*
X53970Y279184D01*
X53972Y279181D01*
X53973Y279179D01*
X54146Y278865D01*
X54315Y278560D01*
X54317Y278558D01*
X54318Y278555D01*
X54542Y278241D01*
X54727Y277979D01*
X54729Y277977D01*
X54731Y277975D01*
X54974Y277704D01*
X55202Y277448D01*
X55205Y277446D01*
X55206Y277444D01*
X55480Y277201D01*
X55734Y276974D01*
X55736Y276972D01*
X55738Y276970D01*
X56019Y276772D01*
X56315Y276562D01*
X56318Y276560D01*
X56320Y276559D01*
X56616Y276396D01*
X56939Y276218D01*
X56942Y276217D01*
X56944Y276215D01*
X57262Y276084D01*
X57597Y275946D01*
X57600Y275945D01*
X57603Y275944D01*
X57932Y275849D01*
X58282Y275749D01*
X58285Y275748D01*
X58287Y275748D01*
X58641Y275688D01*
X58984Y275630D01*
X58987Y275630D01*
X58990Y275629D01*
X59690Y275591D01*
X91644Y275591D01*
X91827Y275601D01*
X92010Y275601D01*
X92182Y275621D01*
X92355Y275631D01*
X92536Y275661D01*
X92718Y275682D01*
X92887Y275721D01*
X93057Y275750D01*
X93234Y275801D01*
X93412Y275842D01*
X93578Y275900D01*
X93742Y275947D01*
X93903Y276014D01*
X94074Y276074D01*
X99304Y278241D01*
X103896Y278241D01*
X108137Y276484D01*
X111384Y273237D01*
X113141Y268996D01*
X113141Y264404D01*
X111038Y259329D01*
X111021Y259297D01*
X111020Y259294D01*
X111018Y259291D01*
X110887Y258974D01*
X110748Y258639D01*
X110747Y258636D01*
X110746Y258633D01*
X110646Y258285D01*
X110551Y257955D01*
X110550Y257951D01*
X110549Y257948D01*
X110490Y257599D01*
X110431Y257252D01*
X110431Y257249D01*
X110430Y257246D01*
X110411Y256904D01*
X110391Y256541D01*
X110391Y256538D01*
X110391Y256534D01*
X110411Y256182D01*
X110431Y255830D01*
X110431Y255826D01*
X110432Y255823D01*
X110490Y255484D01*
X110550Y255127D01*
X110551Y255124D01*
X110552Y255121D01*
X110649Y254785D01*
X110747Y254443D01*
X110749Y254440D01*
X110750Y254436D01*
X110888Y254102D01*
X111020Y253785D01*
X111022Y253782D01*
X111023Y253779D01*
X111200Y253460D01*
X111365Y253161D01*
X111367Y253158D01*
X111368Y253155D01*
X111573Y252868D01*
X111777Y252580D01*
X111779Y252578D01*
X111781Y252575D01*
X112016Y252313D01*
X112252Y252049D01*
X112254Y252047D01*
X112257Y252044D01*
X112522Y251808D01*
X112783Y251574D01*
X112786Y251573D01*
X112789Y251570D01*
X113072Y251370D01*
X113365Y251162D01*
X113368Y251161D01*
X113370Y251159D01*
X113672Y250993D01*
X113988Y250818D01*
X113991Y250817D01*
X113994Y250815D01*
X114317Y250682D01*
X114647Y250546D01*
X114650Y250545D01*
X114653Y250544D01*
X114991Y250447D01*
X115331Y250349D01*
X115335Y250348D01*
X115338Y250348D01*
X115693Y250288D01*
X116034Y250230D01*
X116037Y250230D01*
X116040Y250229D01*
X116740Y250191D01*
X162560Y250191D01*
X162563Y250191D01*
G37*
G36*
X8534Y367547D02*
X8534Y367547D01*
X8713Y367547D01*
X8890Y367568D01*
X9067Y367578D01*
X9243Y367608D01*
X9421Y367628D01*
X9594Y367668D01*
X9769Y367698D01*
X9941Y367747D01*
X10116Y367787D01*
X10283Y367846D01*
X10454Y367896D01*
X10619Y367964D01*
X10788Y368024D01*
X10948Y368101D01*
X11111Y368169D01*
X11268Y368256D01*
X11429Y368334D01*
X11579Y368428D01*
X11735Y368514D01*
X11880Y368618D01*
X12032Y368714D01*
X12171Y368825D01*
X12315Y368927D01*
X12448Y369047D01*
X12588Y369159D01*
X12714Y369284D01*
X12846Y369403D01*
X12965Y369536D01*
X13091Y369663D01*
X13201Y369802D01*
X13320Y369935D01*
X13423Y370081D01*
X13534Y370221D01*
X13628Y370371D01*
X13731Y370516D01*
X13817Y370673D01*
X13912Y370825D01*
X13990Y370987D01*
X14075Y371140D01*
X14140Y371298D01*
X14216Y371457D01*
X15616Y374837D01*
X18863Y378084D01*
X23104Y379841D01*
X28083Y379841D01*
X28147Y379826D01*
X28327Y379806D01*
X28504Y379776D01*
X28680Y379766D01*
X28855Y379746D01*
X29035Y379747D01*
X29216Y379737D01*
X29391Y379747D01*
X29567Y379747D01*
X29747Y379767D01*
X29927Y379777D01*
X30100Y379807D01*
X30275Y379827D01*
X30451Y379867D01*
X30629Y379897D01*
X30798Y379946D01*
X30970Y379985D01*
X31140Y380045D01*
X31314Y380095D01*
X31476Y380163D01*
X31642Y380221D01*
X31805Y380299D01*
X31971Y380369D01*
X32125Y380454D01*
X32284Y380530D01*
X32436Y380626D01*
X32595Y380714D01*
X32738Y380816D01*
X32887Y380909D01*
X33028Y381022D01*
X33175Y381127D01*
X33306Y381244D01*
X33443Y381354D01*
X33571Y381482D01*
X33706Y381602D01*
X33823Y381733D01*
X33947Y381858D01*
X34060Y381999D01*
X34180Y382134D01*
X34281Y382278D01*
X34391Y382415D01*
X34487Y382568D01*
X34591Y382716D01*
X34676Y382870D01*
X34769Y383019D01*
X34848Y383182D01*
X34935Y383340D01*
X35002Y383502D01*
X35078Y383661D01*
X35137Y383831D01*
X35206Y383998D01*
X35255Y384167D01*
X35313Y384333D01*
X35353Y384510D01*
X35402Y384683D01*
X35432Y384857D01*
X35471Y385028D01*
X35491Y385208D01*
X35521Y385386D01*
X35530Y385564D01*
X35550Y385736D01*
X35549Y385908D01*
X35559Y386086D01*
X35559Y387817D01*
X35549Y387998D01*
X35549Y388180D01*
X35529Y388354D01*
X35519Y388528D01*
X35489Y388707D01*
X35468Y388888D01*
X35429Y389058D01*
X35400Y389230D01*
X35350Y389405D01*
X35309Y389582D01*
X35251Y389747D01*
X35203Y389915D01*
X35133Y390083D01*
X35073Y390254D01*
X34997Y390411D01*
X34930Y390573D01*
X34842Y390732D01*
X34763Y390896D01*
X34669Y391044D01*
X34585Y391196D01*
X34480Y391344D01*
X34383Y391498D01*
X34274Y391635D01*
X34173Y391777D01*
X34051Y391913D01*
X33938Y392055D01*
X33814Y392178D01*
X33698Y392308D01*
X33562Y392429D01*
X33433Y392558D01*
X33296Y392666D01*
X33166Y392783D01*
X33018Y392888D01*
X32875Y393001D01*
X32728Y393094D01*
X32585Y393195D01*
X32426Y393283D01*
X32288Y393369D01*
X31496Y394161D01*
X31109Y395095D01*
X31109Y417705D01*
X31496Y418639D01*
X32211Y419354D01*
X33620Y419937D01*
X33873Y420016D01*
X34156Y420097D01*
X34212Y420121D01*
X34270Y420139D01*
X34541Y420257D01*
X34814Y420370D01*
X34868Y420400D01*
X34923Y420424D01*
X35179Y420572D01*
X35438Y420715D01*
X35487Y420750D01*
X35540Y420781D01*
X35778Y420957D01*
X36019Y421127D01*
X36064Y421168D01*
X36113Y421204D01*
X36330Y421406D01*
X36550Y421602D01*
X36590Y421648D01*
X36635Y421689D01*
X36827Y421913D01*
X37024Y422134D01*
X37059Y422184D01*
X37099Y422229D01*
X37265Y422473D01*
X37436Y422715D01*
X37466Y422768D01*
X37500Y422818D01*
X37637Y423080D01*
X37780Y423339D01*
X37804Y423395D01*
X37832Y423449D01*
X37940Y423724D01*
X38053Y423997D01*
X38069Y424056D01*
X38091Y424112D01*
X38167Y424397D01*
X38249Y424682D01*
X38259Y424742D01*
X38275Y424800D01*
X38319Y425093D01*
X38368Y425384D01*
X38371Y425445D01*
X38380Y425505D01*
X38391Y425801D01*
X38407Y426096D01*
X38404Y426156D01*
X38406Y426217D01*
X38384Y426511D01*
X38367Y426807D01*
X38356Y426867D01*
X38352Y426927D01*
X38296Y427218D01*
X38247Y427509D01*
X38230Y427567D01*
X38218Y427627D01*
X38131Y427910D01*
X38049Y428194D01*
X38025Y428250D01*
X38007Y428308D01*
X37889Y428578D01*
X37775Y428851D01*
X37746Y428905D01*
X37722Y428960D01*
X37573Y429216D01*
X37430Y429475D01*
X37395Y429524D01*
X37364Y429577D01*
X37188Y429815D01*
X37017Y430055D01*
X36977Y430100D01*
X36940Y430149D01*
X36739Y430366D01*
X36542Y430586D01*
X36496Y430626D01*
X36455Y430670D01*
X36220Y430873D01*
X36010Y431060D01*
X35965Y431091D01*
X35923Y431127D01*
X35635Y431348D01*
X34398Y432585D01*
X33334Y433972D01*
X32711Y435051D01*
X44450Y435051D01*
X44453Y435051D01*
X44455Y435051D01*
X44803Y435070D01*
X45161Y435091D01*
X45164Y435091D01*
X45167Y435091D01*
X45507Y435149D01*
X45863Y435210D01*
X45866Y435211D01*
X45869Y435211D01*
X46214Y435311D01*
X46548Y435407D01*
X46550Y435408D01*
X46553Y435409D01*
X46877Y435544D01*
X47206Y435680D01*
X47209Y435681D01*
X47211Y435683D01*
X47515Y435851D01*
X47829Y436025D01*
X47832Y436026D01*
X47834Y436028D01*
X48131Y436239D01*
X48410Y436437D01*
X48412Y436439D01*
X48415Y436441D01*
X48675Y436674D01*
X48941Y436912D01*
X48943Y436914D01*
X48945Y436916D01*
X49184Y437184D01*
X49416Y437444D01*
X49417Y437446D01*
X49419Y437448D01*
X49608Y437715D01*
X49828Y438025D01*
X49829Y438028D01*
X49831Y438030D01*
X49994Y438326D01*
X50172Y438649D01*
X50173Y438651D01*
X50174Y438654D01*
X50297Y438951D01*
X50444Y439307D01*
X50445Y439310D01*
X50446Y439312D01*
X50538Y439634D01*
X50641Y439992D01*
X50641Y439995D01*
X50642Y439997D01*
X50702Y440351D01*
X50760Y440694D01*
X50760Y440697D01*
X50760Y440700D01*
X50799Y441400D01*
X50799Y441403D01*
X50799Y441406D01*
X50779Y441753D01*
X50759Y442111D01*
X50758Y442114D01*
X50758Y442117D01*
X50700Y442458D01*
X50640Y442814D01*
X50639Y442817D01*
X50638Y442819D01*
X50538Y443165D01*
X50442Y443498D01*
X50441Y443501D01*
X50440Y443504D01*
X50306Y443828D01*
X50169Y444156D01*
X50168Y444159D01*
X50167Y444162D01*
X49994Y444473D01*
X49825Y444780D01*
X49823Y444782D01*
X49822Y444785D01*
X49620Y445069D01*
X49412Y445361D01*
X49410Y445363D01*
X49409Y445365D01*
X49169Y445633D01*
X48937Y445892D01*
X48935Y445894D01*
X48933Y445896D01*
X48666Y446134D01*
X48406Y446366D01*
X48403Y446368D01*
X48401Y446370D01*
X48121Y446568D01*
X47825Y446778D01*
X47822Y446780D01*
X47820Y446781D01*
X47523Y446944D01*
X47201Y447122D01*
X47198Y447124D01*
X47196Y447125D01*
X46877Y447256D01*
X46542Y447395D01*
X46540Y447395D01*
X46537Y447396D01*
X46208Y447491D01*
X45858Y447591D01*
X45855Y447592D01*
X45852Y447593D01*
X45498Y447652D01*
X45155Y447710D01*
X45153Y447710D01*
X45150Y447711D01*
X44450Y447749D01*
X32711Y447749D01*
X33334Y448828D01*
X34398Y450215D01*
X35635Y451452D01*
X37022Y452516D01*
X38573Y453411D01*
X38673Y453477D01*
X38778Y453535D01*
X38970Y453672D01*
X39169Y453802D01*
X39262Y453878D01*
X39359Y453948D01*
X39535Y454105D01*
X39717Y454256D01*
X39801Y454343D01*
X39890Y454422D01*
X40047Y454599D01*
X40212Y454769D01*
X40285Y454864D01*
X40364Y454954D01*
X40501Y455147D01*
X40645Y455335D01*
X40707Y455437D01*
X40776Y455535D01*
X40891Y455743D01*
X41013Y455945D01*
X41063Y456054D01*
X41121Y456159D01*
X41211Y456378D01*
X41310Y456593D01*
X41347Y456706D01*
X41393Y456817D01*
X41458Y457045D01*
X41532Y457269D01*
X41556Y457387D01*
X41589Y457502D01*
X41629Y457735D01*
X41677Y457967D01*
X41688Y458086D01*
X41708Y458204D01*
X41721Y458440D01*
X41743Y458676D01*
X41741Y458796D01*
X41748Y458916D01*
X41734Y459152D01*
X41729Y459388D01*
X41714Y459507D01*
X41707Y459627D01*
X41667Y459860D01*
X41636Y460095D01*
X41607Y460211D01*
X41587Y460329D01*
X41521Y460556D01*
X41464Y460786D01*
X41422Y460899D01*
X41389Y461014D01*
X41298Y461232D01*
X41216Y461454D01*
X41162Y461561D01*
X41116Y461671D01*
X41001Y461879D01*
X40894Y462090D01*
X40828Y462190D01*
X40770Y462295D01*
X40633Y462487D01*
X40503Y462685D01*
X40427Y462778D01*
X40357Y462875D01*
X40200Y463051D01*
X40048Y463233D01*
X39962Y463316D01*
X39882Y463406D01*
X39705Y463563D01*
X39535Y463727D01*
X39440Y463800D01*
X39350Y463880D01*
X39157Y464016D01*
X38969Y464160D01*
X38866Y464222D01*
X38768Y464291D01*
X38561Y464405D01*
X38358Y464527D01*
X38249Y464577D01*
X38144Y464635D01*
X37926Y464725D01*
X37710Y464823D01*
X37596Y464861D01*
X37486Y464906D01*
X37258Y464971D01*
X37033Y465045D01*
X36916Y465069D01*
X36801Y465102D01*
X36567Y465142D01*
X36336Y465190D01*
X36217Y465201D01*
X36098Y465221D01*
X35856Y465234D01*
X35626Y465255D01*
X35514Y465253D01*
X35398Y465259D01*
X33500Y465259D01*
X33009Y465357D01*
X32546Y465548D01*
X32130Y465827D01*
X31777Y466180D01*
X31498Y466596D01*
X31307Y467059D01*
X31209Y467550D01*
X31209Y472251D01*
X44550Y472251D01*
X44553Y472251D01*
X44555Y472251D01*
X44903Y472270D01*
X45261Y472291D01*
X45264Y472291D01*
X45267Y472291D01*
X45607Y472349D01*
X45963Y472410D01*
X45966Y472411D01*
X45969Y472411D01*
X46314Y472511D01*
X46648Y472607D01*
X46650Y472608D01*
X46653Y472609D01*
X46977Y472744D01*
X47306Y472880D01*
X47309Y472881D01*
X47311Y472883D01*
X47623Y473055D01*
X47929Y473225D01*
X47932Y473226D01*
X47934Y473228D01*
X48231Y473439D01*
X48510Y473637D01*
X48512Y473639D01*
X48515Y473641D01*
X48783Y473881D01*
X49041Y474112D01*
X49043Y474114D01*
X49045Y474116D01*
X49284Y474384D01*
X49516Y474644D01*
X49517Y474646D01*
X49519Y474648D01*
X49718Y474929D01*
X49928Y475225D01*
X49929Y475228D01*
X49931Y475230D01*
X50094Y475526D01*
X50272Y475849D01*
X50273Y475851D01*
X50274Y475854D01*
X50406Y476172D01*
X50544Y476507D01*
X50545Y476510D01*
X50546Y476512D01*
X50640Y476841D01*
X50741Y477192D01*
X50741Y477195D01*
X50742Y477197D01*
X50802Y477551D01*
X50860Y477894D01*
X50860Y477897D01*
X50860Y477900D01*
X50899Y478600D01*
X50899Y478603D01*
X50899Y478606D01*
X50879Y478953D01*
X50859Y479311D01*
X50858Y479314D01*
X50858Y479317D01*
X50800Y479658D01*
X50740Y480014D01*
X50739Y480017D01*
X50738Y480019D01*
X50638Y480365D01*
X50542Y480698D01*
X50541Y480701D01*
X50540Y480704D01*
X50406Y481028D01*
X50269Y481356D01*
X50268Y481359D01*
X50267Y481362D01*
X50094Y481673D01*
X49925Y481980D01*
X49923Y481982D01*
X49922Y481985D01*
X49710Y482282D01*
X49512Y482561D01*
X49510Y482563D01*
X49509Y482565D01*
X49269Y482833D01*
X49037Y483092D01*
X49035Y483094D01*
X49033Y483096D01*
X48766Y483334D01*
X48506Y483566D01*
X48503Y483568D01*
X48501Y483570D01*
X48221Y483768D01*
X47925Y483978D01*
X47922Y483980D01*
X47920Y483981D01*
X47623Y484144D01*
X47301Y484322D01*
X47298Y484324D01*
X47296Y484325D01*
X46977Y484456D01*
X46642Y484595D01*
X46640Y484595D01*
X46637Y484596D01*
X46308Y484691D01*
X45958Y484791D01*
X45955Y484792D01*
X45952Y484793D01*
X45598Y484852D01*
X45255Y484910D01*
X45253Y484910D01*
X45250Y484911D01*
X44550Y484949D01*
X31209Y484949D01*
X31209Y489650D01*
X31307Y490141D01*
X31498Y490604D01*
X31777Y491020D01*
X32130Y491373D01*
X32546Y491652D01*
X33009Y491843D01*
X33396Y491920D01*
X33484Y491943D01*
X33573Y491958D01*
X33828Y492032D01*
X34085Y492098D01*
X34170Y492130D01*
X34258Y492156D01*
X34503Y492257D01*
X34751Y492352D01*
X34832Y492394D01*
X34916Y492429D01*
X35148Y492557D01*
X35384Y492679D01*
X35459Y492730D01*
X35539Y492774D01*
X35756Y492928D01*
X35976Y493075D01*
X36046Y493134D01*
X36120Y493187D01*
X36318Y493364D01*
X36520Y493535D01*
X36583Y493601D01*
X36651Y493662D01*
X36827Y493860D01*
X37010Y494053D01*
X37064Y494125D01*
X37125Y494193D01*
X37278Y494410D01*
X37438Y494622D01*
X37484Y494700D01*
X37536Y494775D01*
X37665Y495007D01*
X37799Y495236D01*
X37836Y495319D01*
X37880Y495399D01*
X37982Y495644D01*
X38090Y495886D01*
X38118Y495973D01*
X38152Y496057D01*
X38225Y496312D01*
X38306Y496565D01*
X38324Y496655D01*
X38349Y496742D01*
X38393Y497004D01*
X38444Y497264D01*
X38452Y497355D01*
X38467Y497445D01*
X38482Y497710D01*
X38504Y497974D01*
X38501Y498065D01*
X38506Y498156D01*
X38491Y498421D01*
X38483Y498686D01*
X38470Y498776D01*
X38465Y498867D01*
X38420Y499129D01*
X38383Y499391D01*
X38360Y499480D01*
X38345Y499569D01*
X38271Y499824D01*
X38204Y500081D01*
X38172Y500166D01*
X38147Y500254D01*
X38045Y500499D01*
X37950Y500746D01*
X37908Y500827D01*
X37873Y500911D01*
X37744Y501144D01*
X37622Y501379D01*
X37572Y501455D01*
X37527Y501534D01*
X37373Y501750D01*
X37226Y501971D01*
X37167Y502041D01*
X37114Y502115D01*
X36931Y502319D01*
X36765Y502515D01*
X36704Y502573D01*
X36647Y502637D01*
X33240Y506043D01*
X31209Y510946D01*
X31209Y516254D01*
X33240Y521157D01*
X36993Y524910D01*
X41489Y526772D01*
X41650Y526850D01*
X41816Y526918D01*
X41971Y527004D01*
X42131Y527081D01*
X42283Y527176D01*
X42439Y527263D01*
X42584Y527366D01*
X42734Y527460D01*
X42875Y527572D01*
X43020Y527676D01*
X43152Y527794D01*
X43291Y527905D01*
X43418Y528031D01*
X43551Y528150D01*
X43669Y528283D01*
X43795Y528408D01*
X43906Y528548D01*
X44026Y528682D01*
X44128Y528827D01*
X44239Y528966D01*
X44334Y529117D01*
X44438Y529263D01*
X44523Y529419D01*
X44618Y529569D01*
X44695Y529730D01*
X44782Y529887D01*
X44850Y530051D01*
X44927Y530211D01*
X44986Y530380D01*
X45054Y530545D01*
X45103Y530716D01*
X45161Y530883D01*
X45201Y531058D01*
X45251Y531230D01*
X45280Y531405D01*
X45320Y531578D01*
X45340Y531756D01*
X45369Y531932D01*
X45379Y532109D01*
X45399Y532286D01*
X45399Y532465D01*
X45409Y532644D01*
X45399Y532821D01*
X45398Y532998D01*
X45378Y533176D01*
X45368Y533355D01*
X45338Y533530D01*
X45318Y533706D01*
X45278Y533881D01*
X45248Y534057D01*
X45199Y534228D01*
X45159Y534401D01*
X45100Y534570D01*
X45050Y534742D01*
X44982Y534906D01*
X44923Y535073D01*
X44845Y535234D01*
X44777Y535399D01*
X44691Y535555D01*
X44614Y535715D01*
X44518Y535866D01*
X44431Y536023D01*
X44329Y536167D01*
X44234Y536317D01*
X44122Y536458D01*
X44018Y536603D01*
X43900Y536735D01*
X43789Y536874D01*
X43662Y537001D01*
X43543Y537134D01*
X43411Y537252D01*
X43285Y537377D01*
X43145Y537489D01*
X43011Y537608D01*
X42866Y537710D01*
X42727Y537821D01*
X42576Y537916D01*
X42430Y538019D01*
X42274Y538105D01*
X42124Y538199D01*
X41962Y538276D01*
X41805Y538363D01*
X41641Y538430D01*
X41481Y538507D01*
X41312Y538566D01*
X41147Y538634D01*
X40977Y538683D01*
X40809Y538742D01*
X40634Y538781D01*
X40462Y538830D01*
X40287Y538860D01*
X40114Y538899D01*
X39936Y538919D01*
X39759Y538949D01*
X39579Y538959D01*
X39406Y538978D01*
X39235Y538978D01*
X39059Y538987D01*
X8350Y538987D01*
X8347Y538987D01*
X8344Y538987D01*
X7997Y538967D01*
X7639Y538947D01*
X7636Y538947D01*
X7633Y538947D01*
X7293Y538888D01*
X6936Y538828D01*
X6934Y538827D01*
X6931Y538827D01*
X6586Y538727D01*
X6252Y538631D01*
X6249Y538629D01*
X6246Y538629D01*
X5922Y538494D01*
X5594Y538358D01*
X5591Y538356D01*
X5589Y538355D01*
X5277Y538183D01*
X4970Y538013D01*
X4968Y538011D01*
X4965Y538010D01*
X4668Y537799D01*
X4389Y537601D01*
X4387Y537599D01*
X4385Y537597D01*
X4117Y537357D01*
X3858Y537126D01*
X3856Y537123D01*
X3854Y537122D01*
X3616Y536854D01*
X3384Y536594D01*
X3382Y536592D01*
X3380Y536590D01*
X3180Y536306D01*
X2972Y536013D01*
X2970Y536010D01*
X2969Y536008D01*
X2796Y535694D01*
X2628Y535389D01*
X2627Y535386D01*
X2625Y535384D01*
X2492Y535061D01*
X2356Y534731D01*
X2355Y534728D01*
X2354Y534725D01*
X2259Y534396D01*
X2159Y534046D01*
X2158Y534043D01*
X2158Y534041D01*
X2096Y533675D01*
X2040Y533344D01*
X2040Y533341D01*
X2039Y533338D01*
X2001Y532638D01*
X2001Y373886D01*
X2011Y373708D01*
X2011Y373529D01*
X2031Y373352D01*
X2041Y373175D01*
X2071Y372999D01*
X2091Y372821D01*
X2130Y372648D01*
X2160Y372473D01*
X2210Y372301D01*
X2250Y372126D01*
X2308Y371959D01*
X2357Y371788D01*
X2426Y371623D01*
X2485Y371454D01*
X2562Y371294D01*
X2630Y371130D01*
X2717Y370973D01*
X2795Y370812D01*
X2889Y370662D01*
X2975Y370507D01*
X3078Y370361D01*
X3174Y370209D01*
X3285Y370070D01*
X3387Y369926D01*
X3506Y369793D01*
X3618Y369652D01*
X3744Y369527D01*
X3862Y369395D01*
X3996Y369276D01*
X4123Y369149D01*
X4261Y369038D01*
X4394Y368920D01*
X4540Y368817D01*
X4680Y368705D01*
X4830Y368611D01*
X4975Y368508D01*
X5132Y368422D01*
X5283Y368327D01*
X5443Y368250D01*
X5599Y368164D01*
X5764Y368096D01*
X5926Y368018D01*
X6093Y367960D01*
X6257Y367892D01*
X6429Y367842D01*
X6598Y367784D01*
X6771Y367744D01*
X6942Y367695D01*
X7119Y367665D01*
X7293Y367626D01*
X7469Y367606D01*
X7644Y367576D01*
X7823Y367567D01*
X8001Y367547D01*
X8179Y367547D01*
X8356Y367537D01*
X8534Y367547D01*
G37*
%LPC*%
G36*
X23104Y178959D02*
X23104Y178959D01*
X18863Y180716D01*
X15616Y183963D01*
X14216Y187343D01*
X14138Y187504D01*
X14070Y187670D01*
X13984Y187826D01*
X13907Y187985D01*
X13812Y188137D01*
X13725Y188293D01*
X13622Y188438D01*
X13528Y188588D01*
X13416Y188729D01*
X13312Y188874D01*
X13195Y189006D01*
X13083Y189145D01*
X12957Y189272D01*
X12838Y189405D01*
X12705Y189523D01*
X12580Y189649D01*
X12440Y189760D01*
X12306Y189880D01*
X12161Y189982D01*
X12022Y190093D01*
X11871Y190188D01*
X11725Y190292D01*
X11569Y190378D01*
X11419Y190472D01*
X11360Y190500D01*
X11429Y190534D01*
X11579Y190628D01*
X11735Y190714D01*
X11880Y190818D01*
X12032Y190914D01*
X12171Y191025D01*
X12315Y191127D01*
X12448Y191247D01*
X12588Y191359D01*
X12713Y191484D01*
X12846Y191603D01*
X12965Y191737D01*
X13091Y191863D01*
X13201Y192002D01*
X13320Y192135D01*
X13423Y192281D01*
X13534Y192421D01*
X13628Y192571D01*
X13731Y192716D01*
X13817Y192873D01*
X13912Y193025D01*
X13991Y193187D01*
X14075Y193340D01*
X14140Y193498D01*
X14216Y193657D01*
X15616Y197037D01*
X18863Y200284D01*
X23104Y202041D01*
X27696Y202041D01*
X31937Y200284D01*
X35184Y197037D01*
X36941Y192796D01*
X36941Y188204D01*
X35184Y183963D01*
X31937Y180716D01*
X27696Y178959D01*
X23104Y178959D01*
G37*
%LPD*%
%LPC*%
G36*
X99304Y305959D02*
X99304Y305959D01*
X95063Y307716D01*
X91816Y310963D01*
X90059Y315204D01*
X90059Y319796D01*
X91816Y324037D01*
X95063Y327284D01*
X99304Y329041D01*
X103896Y329041D01*
X108137Y327284D01*
X108917Y326504D01*
X109050Y326385D01*
X109177Y326258D01*
X109316Y326148D01*
X109448Y326029D01*
X109594Y325926D01*
X109734Y325814D01*
X109884Y325720D01*
X110029Y325617D01*
X110186Y325531D01*
X110337Y325436D01*
X110497Y325359D01*
X110653Y325273D01*
X110818Y325204D01*
X110979Y325127D01*
X111147Y325068D01*
X111168Y325060D01*
X111182Y324933D01*
X111222Y324760D01*
X111252Y324585D01*
X111302Y324413D01*
X111342Y324239D01*
X111402Y324069D01*
X111450Y323901D01*
X111516Y323744D01*
X111574Y323578D01*
X113141Y319796D01*
X113141Y315204D01*
X111384Y310963D01*
X108137Y307716D01*
X103896Y305959D01*
X99304Y305959D01*
G37*
%LPD*%
%LPC*%
G36*
X101599Y558799D02*
X101599Y558799D01*
X101599Y564891D01*
X105400Y564891D01*
X106049Y564762D01*
X106192Y564712D01*
X106197Y564711D01*
X106201Y564709D01*
X106545Y564631D01*
X106887Y564553D01*
X106891Y564553D01*
X106896Y564551D01*
X107244Y564513D01*
X107594Y564473D01*
X107599Y564473D01*
X107604Y564473D01*
X107951Y564473D01*
X108307Y564473D01*
X108312Y564474D01*
X108317Y564474D01*
X108667Y564514D01*
X109015Y564553D01*
X109019Y564554D01*
X109024Y564555D01*
X109376Y564636D01*
X109709Y564712D01*
X109714Y564714D01*
X109719Y564715D01*
X109855Y564762D01*
X110500Y564891D01*
X114301Y564891D01*
X114301Y558799D01*
X101599Y558799D01*
G37*
%LPD*%
%LPC*%
G36*
X330199Y540009D02*
X330199Y540009D01*
X330199Y546101D01*
X342901Y546101D01*
X342901Y540009D01*
X339100Y540009D01*
X338451Y540138D01*
X338308Y540188D01*
X338303Y540190D01*
X338298Y540191D01*
X337963Y540267D01*
X337613Y540347D01*
X337608Y540348D01*
X337604Y540349D01*
X337266Y540386D01*
X336905Y540427D01*
X336900Y540427D01*
X336895Y540427D01*
X336548Y540427D01*
X336193Y540427D01*
X336188Y540426D01*
X336183Y540426D01*
X335843Y540387D01*
X335485Y540347D01*
X335480Y540346D01*
X335475Y540345D01*
X335133Y540266D01*
X334790Y540188D01*
X334786Y540186D01*
X334781Y540185D01*
X334645Y540138D01*
X334000Y540009D01*
X330199Y540009D01*
G37*
%LPD*%
%LPC*%
G36*
X129299Y736599D02*
X129299Y736599D01*
X129299Y749301D01*
X132991Y749301D01*
X132991Y745400D01*
X132853Y744708D01*
X132852Y744703D01*
X132851Y744699D01*
X132773Y744355D01*
X132695Y744013D01*
X132694Y744009D01*
X132693Y744004D01*
X132653Y743641D01*
X132615Y743305D01*
X132615Y743301D01*
X132614Y743296D01*
X132615Y742940D01*
X132615Y742593D01*
X132615Y742588D01*
X132615Y742584D01*
X132655Y742233D01*
X132695Y741885D01*
X132696Y741880D01*
X132696Y741876D01*
X132776Y741531D01*
X132853Y741192D01*
X132991Y740500D01*
X132991Y736599D01*
X129299Y736599D01*
G37*
%LPD*%
%LPC*%
G36*
X336909Y584199D02*
X336909Y584199D01*
X336909Y588100D01*
X337047Y588792D01*
X337048Y588797D01*
X337049Y588801D01*
X337127Y589145D01*
X337205Y589487D01*
X337206Y589491D01*
X337207Y589496D01*
X337247Y589855D01*
X337285Y590195D01*
X337285Y590199D01*
X337286Y590204D01*
X337285Y590551D01*
X337285Y590907D01*
X337285Y590912D01*
X337285Y590916D01*
X337246Y591255D01*
X337205Y591615D01*
X337204Y591620D01*
X337204Y591624D01*
X337126Y591963D01*
X337047Y592308D01*
X336909Y593000D01*
X336909Y596901D01*
X340601Y596901D01*
X340601Y584199D01*
X336909Y584199D01*
G37*
%LPD*%
%LPC*%
G36*
X336549Y180099D02*
X336549Y180099D01*
X336549Y183791D01*
X340450Y183791D01*
X340941Y183693D01*
X341404Y183502D01*
X341820Y183223D01*
X342173Y182870D01*
X342452Y182454D01*
X342643Y181991D01*
X342741Y181500D01*
X342741Y180099D01*
X336549Y180099D01*
G37*
%LPD*%
%LPC*%
G36*
X129299Y717709D02*
X129299Y717709D01*
X129299Y723901D01*
X132991Y723901D01*
X132991Y720000D01*
X132893Y719509D01*
X132702Y719046D01*
X132423Y718630D01*
X132070Y718277D01*
X131654Y717998D01*
X131191Y717807D01*
X130700Y717709D01*
X129299Y717709D01*
G37*
%LPD*%
%LPC*%
G36*
X317659Y180099D02*
X317659Y180099D01*
X317659Y181500D01*
X317757Y181991D01*
X317948Y182454D01*
X318227Y182870D01*
X318580Y183223D01*
X318996Y183502D01*
X319459Y183693D01*
X319950Y183791D01*
X323851Y183791D01*
X323851Y180099D01*
X317659Y180099D01*
G37*
%LPD*%
%LPC*%
G36*
X336909Y609599D02*
X336909Y609599D01*
X336909Y613500D01*
X337007Y613991D01*
X337198Y614454D01*
X337477Y614870D01*
X337830Y615223D01*
X338246Y615502D01*
X338709Y615693D01*
X339200Y615791D01*
X340601Y615791D01*
X340601Y609599D01*
X336909Y609599D01*
G37*
%LPD*%
D10*
X376950Y577850D03*
X346950Y577850D03*
X92950Y755650D03*
X122950Y755650D03*
X92950Y730250D03*
X122950Y730250D03*
X376950Y603250D03*
X346950Y603250D03*
D11*
X330200Y143750D03*
X330200Y173750D03*
D10*
X376950Y755650D03*
X346950Y755650D03*
D12*
X95250Y552450D03*
X120650Y552450D03*
D13*
X146050Y552450D03*
X171450Y552450D03*
X196850Y552450D03*
X222250Y552450D03*
X247650Y552450D03*
X273050Y552450D03*
X298450Y552450D03*
D12*
X323850Y552450D03*
X349250Y552450D03*
D14*
X374650Y552450D03*
X95250Y785450D03*
D13*
X120650Y785450D03*
X146050Y785450D03*
X171450Y785450D03*
X196850Y785450D03*
X222250Y785450D03*
X247650Y785450D03*
X273050Y785450D03*
X298450Y785450D03*
X323850Y785450D03*
D12*
X349250Y785450D03*
D14*
X374650Y785450D03*
D15*
X44550Y478600D03*
D16*
X44550Y513600D03*
D15*
X44450Y406400D03*
D16*
X44450Y441400D03*
D17*
X101600Y190500D03*
X101600Y266700D03*
X101600Y317500D03*
X101600Y368300D03*
X25400Y368300D03*
X25400Y317500D03*
X25400Y266700D03*
X25400Y190500D03*
D18*
X488950Y50800D03*
D19*
X463451Y76299D03*
X514449Y76299D03*
X514449Y25301D03*
X463451Y25301D03*
D20*
X349250Y755650D02*
X349250Y785450D01*
X330200Y173750D02*
X228250Y173750D01*
X196850Y205150D01*
X196850Y295150D01*
X146050Y345950D01*
X146050Y469900D01*
X330200Y173750D02*
X349250Y173750D01*
X349250Y177800D01*
D21*
X349250Y177800D03*
D20*
X146050Y755650D02*
X122950Y755650D01*
X146050Y755650D02*
X346950Y755650D01*
X122950Y755650D02*
X122950Y730250D01*
X346950Y755650D02*
X346950Y603250D01*
X346950Y755650D02*
X349250Y755650D01*
X346950Y603250D02*
X346950Y577850D01*
X346950Y552450D01*
X349250Y552450D01*
X323850Y552450D01*
X122950Y552450D02*
X122950Y730250D01*
X122950Y552450D02*
X120650Y552450D01*
X95250Y552450D01*
D22*
X158750Y165100D03*
D23*
X158750Y114300D01*
X171450Y101600D01*
X222250Y101600D01*
D22*
X222250Y101600D03*
X127000Y469900D03*
D20*
X146050Y469900D01*
D22*
X146050Y755650D03*
X260350Y730250D03*
X285750Y679450D03*
X120650Y679450D03*
X101600Y622300D03*
X101600Y577850D03*
X254000Y609600D03*
X266700Y628650D03*
X311150Y609600D03*
X336550Y628650D03*
X209550Y571500D03*
X228600Y584200D03*
X101600Y342900D03*
X82550Y285750D03*
X152400Y285750D03*
X19050Y120650D03*
X19050Y63500D03*
X171450Y63500D03*
X95250Y44450D03*
X95250Y95250D03*
X171450Y120650D03*
X196850Y12700D03*
X323850Y31750D03*
X349250Y209550D03*
X444500Y215900D03*
X349250Y279400D03*
X412750Y304800D03*
X393700Y247650D03*
X438150Y361950D03*
X368300Y425450D03*
X412750Y457200D03*
X508000Y317500D03*
X508000Y349250D03*
X69850Y368300D03*
X19050Y241300D03*
X19050Y215900D03*
X76200Y241300D03*
X76200Y215900D03*
D20*
X92950Y755650D02*
X92950Y785450D01*
X95250Y785450D01*
X92950Y755650D02*
X92950Y730250D01*
X376950Y577850D02*
X376950Y552450D01*
X374650Y552450D01*
X376950Y577850D02*
X376950Y603250D01*
X376950Y628650D01*
X368300Y628650D01*
D21*
X368300Y628650D03*
X95250Y647700D03*
D20*
X95250Y727950D02*
X92950Y730250D01*
X95250Y727950D02*
X95250Y647700D01*
X230250Y143750D02*
X330200Y143750D01*
X230250Y143750D02*
X177800Y196200D01*
X177800Y241300D01*
X177800Y287200D01*
X153125Y311875D01*
X127000Y338000D01*
X127000Y438150D01*
X376950Y755650D02*
X376950Y785450D01*
X374650Y785450D01*
X376650Y143750D02*
X330200Y143750D01*
X376650Y143750D02*
X376650Y137250D01*
D24*
X376650Y137250D03*
D20*
X101600Y190500D02*
X101600Y241300D01*
X177800Y241300D01*
D22*
X153125Y311875D03*
D20*
X127000Y438150D02*
X88900Y438150D01*
D22*
X88900Y438150D03*
D20*
X376950Y654050D02*
X376950Y755650D01*
X400050Y630950D02*
X400050Y539750D01*
X374650Y514350D01*
X88900Y514350D01*
X88900Y450850D01*
X88900Y438150D01*
X376950Y654050D02*
X400050Y630950D01*
D22*
X88900Y450850D03*
D20*
X44450Y406400D02*
X44450Y266700D01*
X101600Y266700D01*
D23*
X319532Y379984D02*
X319532Y427482D01*
X423164Y531114D01*
X423164Y591566D01*
D22*
X319532Y379984D03*
X423164Y591566D03*
D23*
X302260Y371348D02*
X302260Y358394D01*
X302260Y371348D02*
X254762Y418846D01*
X254762Y427482D01*
X328168Y500888D01*
D22*
X302260Y358394D03*
X328168Y500888D03*
D23*
X487934Y518160D02*
X487934Y319532D01*
X487934Y518160D02*
X431800Y574294D01*
D22*
X487934Y319532D03*
X431800Y574294D03*
D23*
X332486Y660654D02*
X332486Y734060D01*
X332486Y660654D02*
X224536Y552704D01*
X222250Y552450D01*
D22*
X332486Y734060D03*
D23*
X73406Y436118D02*
X112268Y397256D01*
X73406Y436118D02*
X73406Y518160D01*
X90678Y535432D01*
X181356Y535432D01*
X194310Y548386D01*
X196850Y552450D01*
D22*
X112268Y397256D03*
D23*
X263398Y423164D02*
X302260Y423164D01*
X414528Y535432D01*
X414528Y582930D01*
D22*
X263398Y423164D03*
X414528Y582930D03*
M02*
