G04 EAGLE Gerber RS-274X export*
G75*
%MOMM*%
%FSLAX34Y34*%
%LPD*%
%INSilkscreen Top*%
%IPPOS*%
%AMOC8*
5,1,8,0,0,1.08239X$1,22.5*%
G01*
%ADD10C,0.050800*%
%ADD11C,0.508000*%
%ADD12C,0.076200*%
%ADD13C,0.101600*%
%ADD14C,0.203200*%
%ADD15C,0.150000*%
%ADD16C,0.400000*%
%ADD17C,0.800000*%
%ADD18R,2.540000X1.270000*%
%ADD19R,0.762000X0.863600*%
%ADD20C,0.025400*%
%ADD21C,0.127000*%


D10*
X8842Y511746D02*
X3254Y509883D01*
X8842Y508021D01*
X5427Y505894D02*
X5427Y502169D01*
X3564Y504031D02*
X7290Y504031D01*
X8842Y409746D02*
X3254Y407883D01*
X8842Y406021D01*
X5427Y403894D02*
X5427Y400169D01*
X3564Y402031D02*
X7290Y402031D01*
X3254Y480883D02*
X8842Y482746D01*
X8842Y479021D02*
X3254Y480883D01*
X5427Y476894D02*
X5427Y473169D01*
X8842Y452746D02*
X3254Y450883D01*
X8842Y449021D01*
X5427Y446894D02*
X5427Y443169D01*
X3254Y496125D02*
X8842Y496125D01*
X3254Y496746D02*
X3254Y495504D01*
X8842Y495504D02*
X8842Y496746D01*
X8842Y493105D02*
X3254Y493105D01*
X3254Y490001D02*
X8842Y493105D01*
X8842Y490001D02*
X3254Y490001D01*
X3254Y441746D02*
X8842Y441746D01*
X8842Y440194D01*
X8840Y440117D01*
X8834Y440039D01*
X8825Y439963D01*
X8811Y439886D01*
X8794Y439811D01*
X8773Y439737D01*
X8748Y439663D01*
X8720Y439591D01*
X8688Y439521D01*
X8653Y439452D01*
X8614Y439385D01*
X8572Y439320D01*
X8527Y439257D01*
X8479Y439196D01*
X8428Y439138D01*
X8374Y439083D01*
X8317Y439030D01*
X8258Y438981D01*
X8196Y438934D01*
X8132Y438890D01*
X8066Y438850D01*
X7998Y438813D01*
X7928Y438779D01*
X7857Y438749D01*
X7784Y438723D01*
X7710Y438700D01*
X7635Y438681D01*
X7560Y438666D01*
X7483Y438654D01*
X7406Y438646D01*
X7329Y438642D01*
X7251Y438642D01*
X7174Y438646D01*
X7097Y438654D01*
X7020Y438666D01*
X6945Y438681D01*
X6870Y438700D01*
X6796Y438723D01*
X6723Y438749D01*
X6652Y438779D01*
X6582Y438813D01*
X6514Y438850D01*
X6448Y438890D01*
X6384Y438934D01*
X6322Y438981D01*
X6263Y439030D01*
X6206Y439083D01*
X6152Y439138D01*
X6101Y439196D01*
X6053Y439257D01*
X6008Y439320D01*
X5966Y439385D01*
X5927Y439452D01*
X5892Y439521D01*
X5860Y439591D01*
X5832Y439663D01*
X5807Y439737D01*
X5786Y439811D01*
X5769Y439886D01*
X5755Y439963D01*
X5746Y440039D01*
X5740Y440117D01*
X5738Y440194D01*
X5738Y441746D01*
X3254Y436836D02*
X8842Y434973D01*
X3254Y433111D01*
X4651Y433576D02*
X4651Y436370D01*
X4806Y428113D02*
X7290Y428113D01*
X7367Y428111D01*
X7445Y428105D01*
X7521Y428096D01*
X7598Y428082D01*
X7673Y428065D01*
X7747Y428044D01*
X7821Y428019D01*
X7893Y427991D01*
X7963Y427959D01*
X8032Y427924D01*
X8099Y427885D01*
X8164Y427843D01*
X8227Y427798D01*
X8288Y427750D01*
X8346Y427699D01*
X8401Y427645D01*
X8454Y427588D01*
X8503Y427529D01*
X8550Y427467D01*
X8594Y427403D01*
X8634Y427337D01*
X8671Y427269D01*
X8705Y427199D01*
X8735Y427128D01*
X8761Y427055D01*
X8784Y426981D01*
X8803Y426906D01*
X8818Y426831D01*
X8830Y426754D01*
X8838Y426677D01*
X8842Y426600D01*
X8842Y426522D01*
X8838Y426445D01*
X8830Y426368D01*
X8818Y426291D01*
X8803Y426216D01*
X8784Y426141D01*
X8761Y426067D01*
X8735Y425994D01*
X8705Y425923D01*
X8671Y425853D01*
X8634Y425785D01*
X8594Y425719D01*
X8550Y425655D01*
X8503Y425593D01*
X8454Y425534D01*
X8401Y425477D01*
X8346Y425423D01*
X8288Y425372D01*
X8227Y425324D01*
X8164Y425279D01*
X8099Y425237D01*
X8032Y425198D01*
X7963Y425163D01*
X7893Y425131D01*
X7821Y425103D01*
X7747Y425078D01*
X7673Y425057D01*
X7598Y425040D01*
X7521Y425026D01*
X7445Y425017D01*
X7367Y425011D01*
X7290Y425009D01*
X4806Y425009D01*
X4729Y425011D01*
X4651Y425017D01*
X4575Y425026D01*
X4498Y425040D01*
X4423Y425057D01*
X4349Y425078D01*
X4275Y425103D01*
X4203Y425131D01*
X4133Y425163D01*
X4064Y425198D01*
X3997Y425237D01*
X3932Y425279D01*
X3869Y425324D01*
X3808Y425372D01*
X3750Y425423D01*
X3695Y425477D01*
X3642Y425534D01*
X3593Y425593D01*
X3546Y425655D01*
X3502Y425719D01*
X3462Y425785D01*
X3425Y425853D01*
X3391Y425923D01*
X3361Y425994D01*
X3335Y426067D01*
X3312Y426141D01*
X3293Y426216D01*
X3278Y426291D01*
X3266Y426368D01*
X3258Y426445D01*
X3254Y426522D01*
X3254Y426600D01*
X3258Y426677D01*
X3266Y426754D01*
X3278Y426831D01*
X3293Y426906D01*
X3312Y426981D01*
X3335Y427055D01*
X3361Y427128D01*
X3391Y427199D01*
X3425Y427269D01*
X3462Y427337D01*
X3502Y427403D01*
X3546Y427467D01*
X3593Y427529D01*
X3642Y427588D01*
X3695Y427645D01*
X3750Y427699D01*
X3808Y427750D01*
X3869Y427798D01*
X3932Y427843D01*
X3997Y427885D01*
X4064Y427924D01*
X4133Y427959D01*
X4203Y427991D01*
X4275Y428019D01*
X4349Y428044D01*
X4423Y428065D01*
X4498Y428082D01*
X4575Y428096D01*
X4651Y428105D01*
X4729Y428111D01*
X4806Y428113D01*
X4806Y422444D02*
X8842Y422444D01*
X4806Y422444D02*
X4729Y422442D01*
X4651Y422436D01*
X4575Y422427D01*
X4498Y422413D01*
X4423Y422396D01*
X4349Y422375D01*
X4275Y422350D01*
X4203Y422322D01*
X4133Y422290D01*
X4064Y422255D01*
X3997Y422216D01*
X3932Y422174D01*
X3869Y422129D01*
X3808Y422081D01*
X3750Y422030D01*
X3695Y421976D01*
X3642Y421919D01*
X3593Y421860D01*
X3546Y421798D01*
X3502Y421734D01*
X3462Y421668D01*
X3425Y421600D01*
X3391Y421530D01*
X3361Y421459D01*
X3335Y421386D01*
X3312Y421312D01*
X3293Y421237D01*
X3278Y421162D01*
X3266Y421085D01*
X3258Y421008D01*
X3254Y420931D01*
X3254Y420853D01*
X3258Y420776D01*
X3266Y420699D01*
X3278Y420622D01*
X3293Y420547D01*
X3312Y420472D01*
X3335Y420398D01*
X3361Y420325D01*
X3391Y420254D01*
X3425Y420184D01*
X3462Y420116D01*
X3502Y420050D01*
X3546Y419986D01*
X3593Y419924D01*
X3642Y419865D01*
X3695Y419808D01*
X3750Y419754D01*
X3808Y419703D01*
X3869Y419655D01*
X3932Y419610D01*
X3997Y419568D01*
X4064Y419529D01*
X4133Y419494D01*
X4203Y419462D01*
X4275Y419434D01*
X4349Y419409D01*
X4423Y419388D01*
X4498Y419371D01*
X4575Y419357D01*
X4651Y419348D01*
X4729Y419342D01*
X4806Y419340D01*
X4806Y419339D02*
X8842Y419339D01*
X8842Y415588D02*
X3254Y415588D01*
X8842Y417140D02*
X8842Y414036D01*
D11*
X80550Y171800D02*
X80550Y145700D01*
X358000Y83050D02*
X358000Y56950D01*
X180200Y330000D02*
X180200Y356100D01*
X427850Y495100D02*
X427850Y521200D01*
X235150Y491350D02*
X209050Y491350D01*
D12*
X306731Y535191D02*
X309342Y537279D01*
X309342Y527881D01*
X311952Y527881D02*
X306731Y527881D01*
X315875Y532580D02*
X315877Y532765D01*
X315884Y532950D01*
X315895Y533134D01*
X315910Y533318D01*
X315930Y533502D01*
X315954Y533686D01*
X315983Y533868D01*
X316016Y534050D01*
X316053Y534231D01*
X316095Y534411D01*
X316141Y534591D01*
X316191Y534769D01*
X316245Y534945D01*
X316304Y535121D01*
X316366Y535295D01*
X316433Y535467D01*
X316504Y535638D01*
X316579Y535807D01*
X316658Y535974D01*
X316688Y536054D01*
X316721Y536133D01*
X316758Y536210D01*
X316798Y536286D01*
X316841Y536360D01*
X316887Y536432D01*
X316937Y536501D01*
X316989Y536569D01*
X317045Y536634D01*
X317103Y536697D01*
X317165Y536756D01*
X317228Y536814D01*
X317295Y536868D01*
X317363Y536919D01*
X317434Y536967D01*
X317507Y537012D01*
X317581Y537054D01*
X317658Y537092D01*
X317736Y537127D01*
X317815Y537159D01*
X317896Y537187D01*
X317978Y537211D01*
X318062Y537232D01*
X318145Y537249D01*
X318230Y537262D01*
X318315Y537271D01*
X318400Y537277D01*
X318486Y537279D01*
X318572Y537277D01*
X318657Y537271D01*
X318742Y537262D01*
X318827Y537249D01*
X318910Y537232D01*
X318994Y537211D01*
X319076Y537187D01*
X319157Y537159D01*
X319236Y537127D01*
X319314Y537092D01*
X319391Y537054D01*
X319465Y537012D01*
X319538Y536967D01*
X319609Y536919D01*
X319677Y536868D01*
X319744Y536814D01*
X319807Y536756D01*
X319869Y536697D01*
X319927Y536634D01*
X319983Y536569D01*
X320035Y536501D01*
X320085Y536432D01*
X320131Y536360D01*
X320174Y536286D01*
X320214Y536210D01*
X320251Y536133D01*
X320284Y536054D01*
X320314Y535974D01*
X320313Y535974D02*
X320392Y535807D01*
X320467Y535638D01*
X320538Y535467D01*
X320605Y535295D01*
X320667Y535121D01*
X320726Y534945D01*
X320780Y534769D01*
X320830Y534591D01*
X320876Y534411D01*
X320918Y534231D01*
X320955Y534050D01*
X320988Y533868D01*
X321017Y533686D01*
X321041Y533502D01*
X321061Y533318D01*
X321076Y533134D01*
X321087Y532950D01*
X321094Y532765D01*
X321096Y532580D01*
X315875Y532580D02*
X315877Y532395D01*
X315884Y532210D01*
X315895Y532026D01*
X315910Y531842D01*
X315930Y531658D01*
X315954Y531474D01*
X315983Y531292D01*
X316016Y531110D01*
X316053Y530929D01*
X316095Y530749D01*
X316141Y530569D01*
X316191Y530391D01*
X316245Y530215D01*
X316304Y530039D01*
X316366Y529865D01*
X316433Y529693D01*
X316504Y529522D01*
X316579Y529353D01*
X316658Y529186D01*
X316688Y529106D01*
X316721Y529027D01*
X316758Y528950D01*
X316798Y528874D01*
X316841Y528800D01*
X316887Y528728D01*
X316937Y528659D01*
X316990Y528591D01*
X317045Y528526D01*
X317104Y528463D01*
X317165Y528404D01*
X317228Y528346D01*
X317295Y528292D01*
X317363Y528241D01*
X317434Y528193D01*
X317507Y528148D01*
X317581Y528106D01*
X317658Y528068D01*
X317736Y528033D01*
X317815Y528001D01*
X317896Y527973D01*
X317978Y527949D01*
X318062Y527928D01*
X318145Y527911D01*
X318230Y527898D01*
X318315Y527889D01*
X318400Y527883D01*
X318486Y527881D01*
X320313Y529186D02*
X320392Y529353D01*
X320467Y529522D01*
X320538Y529693D01*
X320605Y529865D01*
X320667Y530039D01*
X320726Y530215D01*
X320780Y530391D01*
X320830Y530569D01*
X320876Y530749D01*
X320918Y530929D01*
X320955Y531110D01*
X320988Y531292D01*
X321017Y531474D01*
X321041Y531658D01*
X321061Y531842D01*
X321076Y532026D01*
X321087Y532210D01*
X321094Y532395D01*
X321096Y532580D01*
X320314Y529186D02*
X320284Y529106D01*
X320251Y529027D01*
X320214Y528950D01*
X320174Y528874D01*
X320131Y528800D01*
X320085Y528728D01*
X320035Y528659D01*
X319983Y528591D01*
X319927Y528526D01*
X319869Y528463D01*
X319807Y528404D01*
X319744Y528346D01*
X319677Y528292D01*
X319609Y528241D01*
X319538Y528193D01*
X319465Y528148D01*
X319391Y528106D01*
X319314Y528068D01*
X319236Y528033D01*
X319157Y528001D01*
X319076Y527973D01*
X318994Y527949D01*
X318910Y527928D01*
X318827Y527911D01*
X318742Y527898D01*
X318657Y527889D01*
X318572Y527883D01*
X318486Y527881D01*
X316397Y529969D02*
X320574Y535191D01*
X325555Y534146D02*
X325555Y524748D01*
X329732Y529969D02*
X329732Y534146D01*
X329732Y529969D02*
X329730Y529879D01*
X329724Y529790D01*
X329715Y529700D01*
X329701Y529611D01*
X329684Y529523D01*
X329663Y529436D01*
X329638Y529349D01*
X329609Y529264D01*
X329577Y529180D01*
X329542Y529098D01*
X329502Y529017D01*
X329460Y528938D01*
X329414Y528861D01*
X329364Y528786D01*
X329312Y528713D01*
X329256Y528642D01*
X329198Y528574D01*
X329136Y528509D01*
X329072Y528446D01*
X329005Y528386D01*
X328936Y528329D01*
X328864Y528275D01*
X328790Y528224D01*
X328714Y528176D01*
X328636Y528132D01*
X328556Y528091D01*
X328474Y528053D01*
X328391Y528019D01*
X328306Y527989D01*
X328220Y527962D01*
X328134Y527939D01*
X328046Y527920D01*
X327957Y527905D01*
X327868Y527893D01*
X327779Y527885D01*
X327689Y527881D01*
X327599Y527881D01*
X327509Y527885D01*
X327420Y527893D01*
X327331Y527905D01*
X327242Y527920D01*
X327154Y527939D01*
X327068Y527962D01*
X326982Y527989D01*
X326897Y528019D01*
X326814Y528053D01*
X326732Y528091D01*
X326652Y528132D01*
X326574Y528176D01*
X326498Y528224D01*
X326424Y528275D01*
X326352Y528329D01*
X326283Y528386D01*
X326216Y528446D01*
X326152Y528509D01*
X326090Y528574D01*
X326032Y528642D01*
X325976Y528713D01*
X325924Y528786D01*
X325874Y528861D01*
X325828Y528938D01*
X325786Y529017D01*
X325746Y529098D01*
X325711Y529180D01*
X325679Y529264D01*
X325650Y529349D01*
X325625Y529436D01*
X325604Y529523D01*
X325587Y529611D01*
X325573Y529700D01*
X325564Y529790D01*
X325558Y529879D01*
X325556Y529969D01*
X329732Y529969D02*
X329732Y528925D01*
X329734Y528862D01*
X329740Y528799D01*
X329749Y528737D01*
X329762Y528675D01*
X329779Y528614D01*
X329800Y528555D01*
X329824Y528497D01*
X329852Y528440D01*
X329883Y528385D01*
X329917Y528332D01*
X329954Y528281D01*
X329995Y528233D01*
X330038Y528187D01*
X330084Y528144D01*
X330132Y528103D01*
X330183Y528066D01*
X330236Y528032D01*
X330291Y528001D01*
X330348Y527973D01*
X330406Y527949D01*
X330465Y527928D01*
X330526Y527911D01*
X330588Y527898D01*
X330650Y527889D01*
X330713Y527883D01*
X330776Y527881D01*
X334180Y527881D02*
X334180Y537279D01*
X338357Y537279D01*
X338357Y533102D02*
X334180Y533102D01*
X274342Y537879D02*
X271731Y535791D01*
X274342Y537879D02*
X274342Y528481D01*
X276952Y528481D02*
X271731Y528481D01*
X280875Y533180D02*
X280877Y533365D01*
X280884Y533550D01*
X280895Y533734D01*
X280910Y533918D01*
X280930Y534102D01*
X280954Y534286D01*
X280983Y534468D01*
X281016Y534650D01*
X281053Y534831D01*
X281095Y535011D01*
X281141Y535191D01*
X281191Y535369D01*
X281245Y535545D01*
X281304Y535721D01*
X281366Y535895D01*
X281433Y536067D01*
X281504Y536238D01*
X281579Y536407D01*
X281658Y536574D01*
X281688Y536654D01*
X281721Y536733D01*
X281758Y536810D01*
X281798Y536886D01*
X281841Y536960D01*
X281887Y537032D01*
X281937Y537101D01*
X281989Y537169D01*
X282045Y537234D01*
X282103Y537297D01*
X282165Y537356D01*
X282228Y537414D01*
X282295Y537468D01*
X282363Y537519D01*
X282434Y537567D01*
X282507Y537612D01*
X282581Y537654D01*
X282658Y537692D01*
X282736Y537727D01*
X282815Y537759D01*
X282896Y537787D01*
X282978Y537811D01*
X283062Y537832D01*
X283145Y537849D01*
X283230Y537862D01*
X283315Y537871D01*
X283400Y537877D01*
X283486Y537879D01*
X283572Y537877D01*
X283657Y537871D01*
X283742Y537862D01*
X283827Y537849D01*
X283910Y537832D01*
X283994Y537811D01*
X284076Y537787D01*
X284157Y537759D01*
X284236Y537727D01*
X284314Y537692D01*
X284391Y537654D01*
X284465Y537612D01*
X284538Y537567D01*
X284609Y537519D01*
X284677Y537468D01*
X284744Y537414D01*
X284807Y537356D01*
X284869Y537297D01*
X284927Y537234D01*
X284983Y537169D01*
X285035Y537101D01*
X285085Y537032D01*
X285131Y536960D01*
X285174Y536886D01*
X285214Y536810D01*
X285251Y536733D01*
X285284Y536654D01*
X285314Y536574D01*
X285313Y536574D02*
X285392Y536407D01*
X285467Y536238D01*
X285538Y536067D01*
X285605Y535895D01*
X285667Y535721D01*
X285726Y535545D01*
X285780Y535369D01*
X285830Y535191D01*
X285876Y535011D01*
X285918Y534831D01*
X285955Y534650D01*
X285988Y534468D01*
X286017Y534286D01*
X286041Y534102D01*
X286061Y533918D01*
X286076Y533734D01*
X286087Y533550D01*
X286094Y533365D01*
X286096Y533180D01*
X280875Y533180D02*
X280877Y532995D01*
X280884Y532810D01*
X280895Y532626D01*
X280910Y532442D01*
X280930Y532258D01*
X280954Y532074D01*
X280983Y531892D01*
X281016Y531710D01*
X281053Y531529D01*
X281095Y531349D01*
X281141Y531169D01*
X281191Y530991D01*
X281245Y530815D01*
X281304Y530639D01*
X281366Y530465D01*
X281433Y530293D01*
X281504Y530122D01*
X281579Y529953D01*
X281658Y529786D01*
X281688Y529706D01*
X281721Y529627D01*
X281758Y529550D01*
X281798Y529474D01*
X281841Y529400D01*
X281887Y529328D01*
X281937Y529259D01*
X281990Y529191D01*
X282045Y529126D01*
X282104Y529063D01*
X282165Y529004D01*
X282228Y528946D01*
X282295Y528892D01*
X282363Y528841D01*
X282434Y528793D01*
X282507Y528748D01*
X282581Y528706D01*
X282658Y528668D01*
X282736Y528633D01*
X282815Y528601D01*
X282896Y528573D01*
X282978Y528549D01*
X283062Y528528D01*
X283145Y528511D01*
X283230Y528498D01*
X283315Y528489D01*
X283400Y528483D01*
X283486Y528481D01*
X285313Y529786D02*
X285392Y529953D01*
X285467Y530122D01*
X285538Y530293D01*
X285605Y530465D01*
X285667Y530639D01*
X285726Y530815D01*
X285780Y530991D01*
X285830Y531169D01*
X285876Y531349D01*
X285918Y531529D01*
X285955Y531710D01*
X285988Y531892D01*
X286017Y532074D01*
X286041Y532258D01*
X286061Y532442D01*
X286076Y532626D01*
X286087Y532810D01*
X286094Y532995D01*
X286096Y533180D01*
X285314Y529786D02*
X285284Y529706D01*
X285251Y529627D01*
X285214Y529550D01*
X285174Y529474D01*
X285131Y529400D01*
X285085Y529328D01*
X285035Y529259D01*
X284983Y529191D01*
X284927Y529126D01*
X284869Y529063D01*
X284807Y529004D01*
X284744Y528946D01*
X284677Y528892D01*
X284609Y528841D01*
X284538Y528793D01*
X284465Y528748D01*
X284391Y528706D01*
X284314Y528668D01*
X284236Y528633D01*
X284157Y528601D01*
X284076Y528573D01*
X283994Y528549D01*
X283910Y528528D01*
X283827Y528511D01*
X283742Y528498D01*
X283657Y528489D01*
X283572Y528483D01*
X283486Y528481D01*
X281397Y530569D02*
X285574Y535791D01*
X290555Y534746D02*
X290555Y525348D01*
X294732Y530569D02*
X294732Y534746D01*
X294732Y530569D02*
X294730Y530479D01*
X294724Y530390D01*
X294715Y530300D01*
X294701Y530211D01*
X294684Y530123D01*
X294663Y530036D01*
X294638Y529949D01*
X294609Y529864D01*
X294577Y529780D01*
X294542Y529698D01*
X294502Y529617D01*
X294460Y529538D01*
X294414Y529461D01*
X294364Y529386D01*
X294312Y529313D01*
X294256Y529242D01*
X294198Y529174D01*
X294136Y529109D01*
X294072Y529046D01*
X294005Y528986D01*
X293936Y528929D01*
X293864Y528875D01*
X293790Y528824D01*
X293714Y528776D01*
X293636Y528732D01*
X293556Y528691D01*
X293474Y528653D01*
X293391Y528619D01*
X293306Y528589D01*
X293220Y528562D01*
X293134Y528539D01*
X293046Y528520D01*
X292957Y528505D01*
X292868Y528493D01*
X292779Y528485D01*
X292689Y528481D01*
X292599Y528481D01*
X292509Y528485D01*
X292420Y528493D01*
X292331Y528505D01*
X292242Y528520D01*
X292154Y528539D01*
X292068Y528562D01*
X291982Y528589D01*
X291897Y528619D01*
X291814Y528653D01*
X291732Y528691D01*
X291652Y528732D01*
X291574Y528776D01*
X291498Y528824D01*
X291424Y528875D01*
X291352Y528929D01*
X291283Y528986D01*
X291216Y529046D01*
X291152Y529109D01*
X291090Y529174D01*
X291032Y529242D01*
X290976Y529313D01*
X290924Y529386D01*
X290874Y529461D01*
X290828Y529538D01*
X290786Y529617D01*
X290746Y529698D01*
X290711Y529780D01*
X290679Y529864D01*
X290650Y529949D01*
X290625Y530036D01*
X290604Y530123D01*
X290587Y530211D01*
X290573Y530300D01*
X290564Y530390D01*
X290558Y530479D01*
X290556Y530569D01*
X294732Y530569D02*
X294732Y529525D01*
X294734Y529462D01*
X294740Y529399D01*
X294749Y529337D01*
X294762Y529275D01*
X294779Y529214D01*
X294800Y529155D01*
X294824Y529097D01*
X294852Y529040D01*
X294883Y528985D01*
X294917Y528932D01*
X294954Y528881D01*
X294995Y528833D01*
X295038Y528787D01*
X295084Y528744D01*
X295132Y528703D01*
X295183Y528666D01*
X295236Y528632D01*
X295291Y528601D01*
X295348Y528573D01*
X295406Y528549D01*
X295465Y528528D01*
X295526Y528511D01*
X295588Y528498D01*
X295650Y528489D01*
X295713Y528483D01*
X295776Y528481D01*
X299180Y528481D02*
X299180Y537879D01*
X303357Y537879D01*
X303357Y533702D02*
X299180Y533702D01*
X241342Y537479D02*
X238731Y535391D01*
X241342Y537479D02*
X241342Y528081D01*
X243952Y528081D02*
X238731Y528081D01*
X247875Y532780D02*
X247877Y532965D01*
X247884Y533150D01*
X247895Y533334D01*
X247910Y533518D01*
X247930Y533702D01*
X247954Y533886D01*
X247983Y534068D01*
X248016Y534250D01*
X248053Y534431D01*
X248095Y534611D01*
X248141Y534791D01*
X248191Y534969D01*
X248245Y535145D01*
X248304Y535321D01*
X248366Y535495D01*
X248433Y535667D01*
X248504Y535838D01*
X248579Y536007D01*
X248658Y536174D01*
X248688Y536254D01*
X248721Y536333D01*
X248758Y536410D01*
X248798Y536486D01*
X248841Y536560D01*
X248887Y536632D01*
X248937Y536701D01*
X248989Y536769D01*
X249045Y536834D01*
X249103Y536897D01*
X249165Y536956D01*
X249228Y537014D01*
X249295Y537068D01*
X249363Y537119D01*
X249434Y537167D01*
X249507Y537212D01*
X249581Y537254D01*
X249658Y537292D01*
X249736Y537327D01*
X249815Y537359D01*
X249896Y537387D01*
X249978Y537411D01*
X250062Y537432D01*
X250145Y537449D01*
X250230Y537462D01*
X250315Y537471D01*
X250400Y537477D01*
X250486Y537479D01*
X250572Y537477D01*
X250657Y537471D01*
X250742Y537462D01*
X250827Y537449D01*
X250910Y537432D01*
X250994Y537411D01*
X251076Y537387D01*
X251157Y537359D01*
X251236Y537327D01*
X251314Y537292D01*
X251391Y537254D01*
X251465Y537212D01*
X251538Y537167D01*
X251609Y537119D01*
X251677Y537068D01*
X251744Y537014D01*
X251807Y536956D01*
X251869Y536897D01*
X251927Y536834D01*
X251983Y536769D01*
X252035Y536701D01*
X252085Y536632D01*
X252131Y536560D01*
X252174Y536486D01*
X252214Y536410D01*
X252251Y536333D01*
X252284Y536254D01*
X252314Y536174D01*
X252313Y536174D02*
X252392Y536007D01*
X252467Y535838D01*
X252538Y535667D01*
X252605Y535495D01*
X252667Y535321D01*
X252726Y535145D01*
X252780Y534969D01*
X252830Y534791D01*
X252876Y534611D01*
X252918Y534431D01*
X252955Y534250D01*
X252988Y534068D01*
X253017Y533886D01*
X253041Y533702D01*
X253061Y533518D01*
X253076Y533334D01*
X253087Y533150D01*
X253094Y532965D01*
X253096Y532780D01*
X247875Y532780D02*
X247877Y532595D01*
X247884Y532410D01*
X247895Y532226D01*
X247910Y532042D01*
X247930Y531858D01*
X247954Y531674D01*
X247983Y531492D01*
X248016Y531310D01*
X248053Y531129D01*
X248095Y530949D01*
X248141Y530769D01*
X248191Y530591D01*
X248245Y530415D01*
X248304Y530239D01*
X248366Y530065D01*
X248433Y529893D01*
X248504Y529722D01*
X248579Y529553D01*
X248658Y529386D01*
X248688Y529306D01*
X248721Y529227D01*
X248758Y529150D01*
X248798Y529074D01*
X248841Y529000D01*
X248887Y528928D01*
X248937Y528859D01*
X248990Y528791D01*
X249045Y528726D01*
X249104Y528663D01*
X249165Y528604D01*
X249228Y528546D01*
X249295Y528492D01*
X249363Y528441D01*
X249434Y528393D01*
X249507Y528348D01*
X249581Y528306D01*
X249658Y528268D01*
X249736Y528233D01*
X249815Y528201D01*
X249896Y528173D01*
X249978Y528149D01*
X250062Y528128D01*
X250145Y528111D01*
X250230Y528098D01*
X250315Y528089D01*
X250400Y528083D01*
X250486Y528081D01*
X252313Y529386D02*
X252392Y529553D01*
X252467Y529722D01*
X252538Y529893D01*
X252605Y530065D01*
X252667Y530239D01*
X252726Y530415D01*
X252780Y530591D01*
X252830Y530769D01*
X252876Y530949D01*
X252918Y531129D01*
X252955Y531310D01*
X252988Y531492D01*
X253017Y531674D01*
X253041Y531858D01*
X253061Y532042D01*
X253076Y532226D01*
X253087Y532410D01*
X253094Y532595D01*
X253096Y532780D01*
X252314Y529386D02*
X252284Y529306D01*
X252251Y529227D01*
X252214Y529150D01*
X252174Y529074D01*
X252131Y529000D01*
X252085Y528928D01*
X252035Y528859D01*
X251983Y528791D01*
X251927Y528726D01*
X251869Y528663D01*
X251807Y528604D01*
X251744Y528546D01*
X251677Y528492D01*
X251609Y528441D01*
X251538Y528393D01*
X251465Y528348D01*
X251391Y528306D01*
X251314Y528268D01*
X251236Y528233D01*
X251157Y528201D01*
X251076Y528173D01*
X250994Y528149D01*
X250910Y528128D01*
X250827Y528111D01*
X250742Y528098D01*
X250657Y528089D01*
X250572Y528083D01*
X250486Y528081D01*
X248397Y530169D02*
X252574Y535391D01*
X257555Y534346D02*
X257555Y524948D01*
X261732Y530169D02*
X261732Y534346D01*
X261732Y530169D02*
X261730Y530079D01*
X261724Y529990D01*
X261715Y529900D01*
X261701Y529811D01*
X261684Y529723D01*
X261663Y529636D01*
X261638Y529549D01*
X261609Y529464D01*
X261577Y529380D01*
X261542Y529298D01*
X261502Y529217D01*
X261460Y529138D01*
X261414Y529061D01*
X261364Y528986D01*
X261312Y528913D01*
X261256Y528842D01*
X261198Y528774D01*
X261136Y528709D01*
X261072Y528646D01*
X261005Y528586D01*
X260936Y528529D01*
X260864Y528475D01*
X260790Y528424D01*
X260714Y528376D01*
X260636Y528332D01*
X260556Y528291D01*
X260474Y528253D01*
X260391Y528219D01*
X260306Y528189D01*
X260220Y528162D01*
X260134Y528139D01*
X260046Y528120D01*
X259957Y528105D01*
X259868Y528093D01*
X259779Y528085D01*
X259689Y528081D01*
X259599Y528081D01*
X259509Y528085D01*
X259420Y528093D01*
X259331Y528105D01*
X259242Y528120D01*
X259154Y528139D01*
X259068Y528162D01*
X258982Y528189D01*
X258897Y528219D01*
X258814Y528253D01*
X258732Y528291D01*
X258652Y528332D01*
X258574Y528376D01*
X258498Y528424D01*
X258424Y528475D01*
X258352Y528529D01*
X258283Y528586D01*
X258216Y528646D01*
X258152Y528709D01*
X258090Y528774D01*
X258032Y528842D01*
X257976Y528913D01*
X257924Y528986D01*
X257874Y529061D01*
X257828Y529138D01*
X257786Y529217D01*
X257746Y529298D01*
X257711Y529380D01*
X257679Y529464D01*
X257650Y529549D01*
X257625Y529636D01*
X257604Y529723D01*
X257587Y529811D01*
X257573Y529900D01*
X257564Y529990D01*
X257558Y530079D01*
X257556Y530169D01*
X261732Y530169D02*
X261732Y529125D01*
X261734Y529062D01*
X261740Y528999D01*
X261749Y528937D01*
X261762Y528875D01*
X261779Y528814D01*
X261800Y528755D01*
X261824Y528697D01*
X261852Y528640D01*
X261883Y528585D01*
X261917Y528532D01*
X261954Y528481D01*
X261995Y528433D01*
X262038Y528387D01*
X262084Y528344D01*
X262132Y528303D01*
X262183Y528266D01*
X262236Y528232D01*
X262291Y528201D01*
X262348Y528173D01*
X262406Y528149D01*
X262465Y528128D01*
X262526Y528111D01*
X262588Y528098D01*
X262650Y528089D01*
X262713Y528083D01*
X262776Y528081D01*
X266180Y528081D02*
X266180Y537479D01*
X270357Y537479D01*
X270357Y533302D02*
X266180Y533302D01*
D13*
X402158Y66358D02*
X406053Y66358D01*
X406152Y66360D01*
X406252Y66366D01*
X406351Y66375D01*
X406449Y66388D01*
X406547Y66405D01*
X406645Y66426D01*
X406741Y66451D01*
X406836Y66479D01*
X406930Y66511D01*
X407023Y66546D01*
X407115Y66585D01*
X407205Y66628D01*
X407293Y66673D01*
X407380Y66723D01*
X407464Y66775D01*
X407547Y66831D01*
X407627Y66889D01*
X407705Y66951D01*
X407780Y67016D01*
X407853Y67084D01*
X407923Y67154D01*
X407991Y67227D01*
X408056Y67302D01*
X408118Y67380D01*
X408176Y67460D01*
X408232Y67543D01*
X408284Y67627D01*
X408334Y67714D01*
X408379Y67802D01*
X408422Y67892D01*
X408461Y67984D01*
X408496Y68077D01*
X408528Y68171D01*
X408556Y68266D01*
X408581Y68362D01*
X408602Y68460D01*
X408619Y68558D01*
X408632Y68656D01*
X408641Y68755D01*
X408647Y68855D01*
X408649Y68954D01*
X408649Y70253D01*
X408647Y70352D01*
X408641Y70452D01*
X408632Y70551D01*
X408619Y70649D01*
X408602Y70747D01*
X408581Y70845D01*
X408556Y70941D01*
X408528Y71036D01*
X408496Y71130D01*
X408461Y71223D01*
X408422Y71315D01*
X408379Y71405D01*
X408334Y71493D01*
X408284Y71580D01*
X408232Y71664D01*
X408176Y71747D01*
X408118Y71827D01*
X408056Y71905D01*
X407991Y71980D01*
X407923Y72053D01*
X407853Y72123D01*
X407780Y72191D01*
X407705Y72256D01*
X407627Y72318D01*
X407547Y72376D01*
X407464Y72432D01*
X407380Y72484D01*
X407293Y72534D01*
X407205Y72579D01*
X407115Y72622D01*
X407023Y72661D01*
X406930Y72696D01*
X406836Y72728D01*
X406741Y72756D01*
X406645Y72781D01*
X406547Y72802D01*
X406449Y72819D01*
X406351Y72832D01*
X406252Y72841D01*
X406152Y72847D01*
X406053Y72849D01*
X402158Y72849D01*
X402158Y78042D01*
X408649Y78042D01*
X413094Y74147D02*
X415691Y66358D01*
X418287Y74147D01*
X472008Y504508D02*
X475254Y504508D01*
X475367Y504510D01*
X475480Y504516D01*
X475593Y504526D01*
X475706Y504540D01*
X475818Y504557D01*
X475929Y504579D01*
X476039Y504604D01*
X476149Y504634D01*
X476257Y504667D01*
X476364Y504704D01*
X476470Y504744D01*
X476574Y504789D01*
X476677Y504837D01*
X476778Y504888D01*
X476877Y504943D01*
X476974Y505001D01*
X477069Y505063D01*
X477162Y505128D01*
X477252Y505196D01*
X477340Y505267D01*
X477426Y505342D01*
X477509Y505419D01*
X477589Y505499D01*
X477666Y505582D01*
X477741Y505668D01*
X477812Y505756D01*
X477880Y505846D01*
X477945Y505939D01*
X478007Y506034D01*
X478065Y506131D01*
X478120Y506230D01*
X478171Y506331D01*
X478219Y506434D01*
X478264Y506538D01*
X478304Y506644D01*
X478341Y506751D01*
X478374Y506859D01*
X478404Y506969D01*
X478429Y507079D01*
X478451Y507190D01*
X478468Y507302D01*
X478482Y507415D01*
X478492Y507528D01*
X478498Y507641D01*
X478500Y507754D01*
X478498Y507867D01*
X478492Y507980D01*
X478482Y508093D01*
X478468Y508206D01*
X478451Y508318D01*
X478429Y508429D01*
X478404Y508539D01*
X478374Y508649D01*
X478341Y508757D01*
X478304Y508864D01*
X478264Y508970D01*
X478219Y509074D01*
X478171Y509177D01*
X478120Y509278D01*
X478065Y509377D01*
X478007Y509474D01*
X477945Y509569D01*
X477880Y509662D01*
X477812Y509752D01*
X477741Y509840D01*
X477666Y509926D01*
X477589Y510009D01*
X477509Y510089D01*
X477426Y510166D01*
X477340Y510241D01*
X477252Y510312D01*
X477162Y510380D01*
X477069Y510445D01*
X476974Y510507D01*
X476877Y510565D01*
X476778Y510620D01*
X476677Y510671D01*
X476574Y510719D01*
X476470Y510764D01*
X476364Y510804D01*
X476257Y510841D01*
X476149Y510874D01*
X476039Y510904D01*
X475929Y510929D01*
X475818Y510951D01*
X475706Y510968D01*
X475593Y510982D01*
X475480Y510992D01*
X475367Y510998D01*
X475254Y511000D01*
X475903Y516192D02*
X472008Y516192D01*
X475903Y516192D02*
X476004Y516190D01*
X476104Y516184D01*
X476204Y516174D01*
X476304Y516161D01*
X476403Y516143D01*
X476502Y516122D01*
X476599Y516097D01*
X476696Y516068D01*
X476791Y516035D01*
X476885Y515999D01*
X476977Y515959D01*
X477068Y515916D01*
X477157Y515869D01*
X477244Y515819D01*
X477330Y515765D01*
X477413Y515708D01*
X477493Y515648D01*
X477572Y515585D01*
X477648Y515518D01*
X477721Y515449D01*
X477791Y515377D01*
X477859Y515303D01*
X477924Y515226D01*
X477985Y515146D01*
X478044Y515064D01*
X478099Y514980D01*
X478151Y514894D01*
X478200Y514806D01*
X478245Y514716D01*
X478287Y514624D01*
X478325Y514531D01*
X478359Y514436D01*
X478390Y514341D01*
X478417Y514244D01*
X478440Y514146D01*
X478460Y514047D01*
X478475Y513947D01*
X478487Y513847D01*
X478495Y513747D01*
X478499Y513646D01*
X478499Y513546D01*
X478495Y513445D01*
X478487Y513345D01*
X478475Y513245D01*
X478460Y513145D01*
X478440Y513046D01*
X478417Y512948D01*
X478390Y512851D01*
X478359Y512756D01*
X478325Y512661D01*
X478287Y512568D01*
X478245Y512476D01*
X478200Y512386D01*
X478151Y512298D01*
X478099Y512212D01*
X478044Y512128D01*
X477985Y512046D01*
X477924Y511966D01*
X477859Y511889D01*
X477791Y511815D01*
X477721Y511743D01*
X477648Y511674D01*
X477572Y511607D01*
X477493Y511544D01*
X477413Y511484D01*
X477330Y511427D01*
X477244Y511373D01*
X477157Y511323D01*
X477068Y511276D01*
X476977Y511233D01*
X476885Y511193D01*
X476791Y511157D01*
X476696Y511124D01*
X476599Y511095D01*
X476502Y511070D01*
X476403Y511049D01*
X476304Y511031D01*
X476204Y511018D01*
X476104Y511008D01*
X476004Y511002D01*
X475903Y511000D01*
X475903Y510999D02*
X473306Y510999D01*
X482944Y512297D02*
X485541Y504508D01*
X488137Y512297D01*
X492582Y504508D02*
X495828Y504508D01*
X495941Y504510D01*
X496054Y504516D01*
X496167Y504526D01*
X496280Y504540D01*
X496392Y504557D01*
X496503Y504579D01*
X496613Y504604D01*
X496723Y504634D01*
X496831Y504667D01*
X496938Y504704D01*
X497044Y504744D01*
X497148Y504789D01*
X497251Y504837D01*
X497352Y504888D01*
X497451Y504943D01*
X497548Y505001D01*
X497643Y505063D01*
X497736Y505128D01*
X497826Y505196D01*
X497914Y505267D01*
X498000Y505342D01*
X498083Y505419D01*
X498163Y505499D01*
X498240Y505582D01*
X498315Y505668D01*
X498386Y505756D01*
X498454Y505846D01*
X498519Y505939D01*
X498581Y506034D01*
X498639Y506131D01*
X498694Y506230D01*
X498745Y506331D01*
X498793Y506434D01*
X498838Y506538D01*
X498878Y506644D01*
X498915Y506751D01*
X498948Y506859D01*
X498978Y506969D01*
X499003Y507079D01*
X499025Y507190D01*
X499042Y507302D01*
X499056Y507415D01*
X499066Y507528D01*
X499072Y507641D01*
X499074Y507754D01*
X499072Y507867D01*
X499066Y507980D01*
X499056Y508093D01*
X499042Y508206D01*
X499025Y508318D01*
X499003Y508429D01*
X498978Y508539D01*
X498948Y508649D01*
X498915Y508757D01*
X498878Y508864D01*
X498838Y508970D01*
X498793Y509074D01*
X498745Y509177D01*
X498694Y509278D01*
X498639Y509377D01*
X498581Y509474D01*
X498519Y509569D01*
X498454Y509662D01*
X498386Y509752D01*
X498315Y509840D01*
X498240Y509926D01*
X498163Y510009D01*
X498083Y510089D01*
X498000Y510166D01*
X497914Y510241D01*
X497826Y510312D01*
X497736Y510380D01*
X497643Y510445D01*
X497548Y510507D01*
X497451Y510565D01*
X497352Y510620D01*
X497251Y510671D01*
X497148Y510719D01*
X497044Y510764D01*
X496938Y510804D01*
X496831Y510841D01*
X496723Y510874D01*
X496613Y510904D01*
X496503Y510929D01*
X496392Y510951D01*
X496280Y510968D01*
X496167Y510982D01*
X496054Y510992D01*
X495941Y510998D01*
X495828Y511000D01*
X496477Y516192D02*
X492582Y516192D01*
X496477Y516192D02*
X496578Y516190D01*
X496678Y516184D01*
X496778Y516174D01*
X496878Y516161D01*
X496977Y516143D01*
X497076Y516122D01*
X497173Y516097D01*
X497270Y516068D01*
X497365Y516035D01*
X497459Y515999D01*
X497551Y515959D01*
X497642Y515916D01*
X497731Y515869D01*
X497818Y515819D01*
X497904Y515765D01*
X497987Y515708D01*
X498067Y515648D01*
X498146Y515585D01*
X498222Y515518D01*
X498295Y515449D01*
X498365Y515377D01*
X498433Y515303D01*
X498498Y515226D01*
X498559Y515146D01*
X498618Y515064D01*
X498673Y514980D01*
X498725Y514894D01*
X498774Y514806D01*
X498819Y514716D01*
X498861Y514624D01*
X498899Y514531D01*
X498933Y514436D01*
X498964Y514341D01*
X498991Y514244D01*
X499014Y514146D01*
X499034Y514047D01*
X499049Y513947D01*
X499061Y513847D01*
X499069Y513747D01*
X499073Y513646D01*
X499073Y513546D01*
X499069Y513445D01*
X499061Y513345D01*
X499049Y513245D01*
X499034Y513145D01*
X499014Y513046D01*
X498991Y512948D01*
X498964Y512851D01*
X498933Y512756D01*
X498899Y512661D01*
X498861Y512568D01*
X498819Y512476D01*
X498774Y512386D01*
X498725Y512298D01*
X498673Y512212D01*
X498618Y512128D01*
X498559Y512046D01*
X498498Y511966D01*
X498433Y511889D01*
X498365Y511815D01*
X498295Y511743D01*
X498222Y511674D01*
X498146Y511607D01*
X498067Y511544D01*
X497987Y511484D01*
X497904Y511427D01*
X497818Y511373D01*
X497731Y511323D01*
X497642Y511276D01*
X497551Y511233D01*
X497459Y511193D01*
X497365Y511157D01*
X497270Y511124D01*
X497173Y511095D01*
X497076Y511070D01*
X496977Y511049D01*
X496878Y511031D01*
X496778Y511018D01*
X496678Y511008D01*
X496578Y511002D01*
X496477Y511000D01*
X496477Y510999D02*
X493880Y510999D01*
X203262Y228092D02*
X200017Y225496D01*
X203262Y228092D02*
X203262Y216408D01*
X200017Y216408D02*
X206508Y216408D01*
X212126Y212513D02*
X212126Y224197D01*
X217319Y224197D02*
X217319Y219004D01*
X217317Y218903D01*
X217311Y218803D01*
X217301Y218703D01*
X217288Y218603D01*
X217270Y218504D01*
X217249Y218405D01*
X217224Y218308D01*
X217195Y218211D01*
X217162Y218116D01*
X217126Y218022D01*
X217086Y217930D01*
X217043Y217839D01*
X216996Y217750D01*
X216946Y217663D01*
X216892Y217577D01*
X216835Y217494D01*
X216775Y217414D01*
X216712Y217335D01*
X216645Y217259D01*
X216576Y217186D01*
X216504Y217116D01*
X216430Y217048D01*
X216353Y216983D01*
X216273Y216922D01*
X216191Y216863D01*
X216107Y216808D01*
X216021Y216756D01*
X215933Y216707D01*
X215843Y216662D01*
X215751Y216620D01*
X215658Y216582D01*
X215563Y216548D01*
X215468Y216517D01*
X215371Y216490D01*
X215273Y216467D01*
X215174Y216447D01*
X215074Y216432D01*
X214974Y216420D01*
X214874Y216412D01*
X214773Y216408D01*
X214673Y216408D01*
X214572Y216412D01*
X214472Y216420D01*
X214372Y216432D01*
X214272Y216447D01*
X214173Y216467D01*
X214075Y216490D01*
X213978Y216517D01*
X213883Y216548D01*
X213788Y216582D01*
X213695Y216620D01*
X213603Y216662D01*
X213513Y216707D01*
X213425Y216756D01*
X213339Y216808D01*
X213255Y216863D01*
X213173Y216922D01*
X213093Y216983D01*
X213016Y217048D01*
X212942Y217116D01*
X212870Y217186D01*
X212801Y217259D01*
X212734Y217335D01*
X212671Y217414D01*
X212611Y217494D01*
X212554Y217577D01*
X212500Y217663D01*
X212450Y217750D01*
X212403Y217839D01*
X212360Y217930D01*
X212320Y218022D01*
X212284Y218116D01*
X212251Y218211D01*
X212222Y218308D01*
X212197Y218405D01*
X212176Y218504D01*
X212158Y218603D01*
X212145Y218703D01*
X212135Y218803D01*
X212129Y218903D01*
X212127Y219004D01*
X217319Y219004D02*
X217319Y217706D01*
X217321Y217636D01*
X217327Y217566D01*
X217336Y217496D01*
X217349Y217427D01*
X217366Y217359D01*
X217387Y217292D01*
X217411Y217226D01*
X217439Y217161D01*
X217470Y217098D01*
X217505Y217037D01*
X217543Y216978D01*
X217584Y216920D01*
X217628Y216866D01*
X217675Y216813D01*
X217724Y216764D01*
X217777Y216717D01*
X217831Y216673D01*
X217889Y216632D01*
X217948Y216594D01*
X218009Y216559D01*
X218072Y216528D01*
X218137Y216500D01*
X218203Y216476D01*
X218270Y216455D01*
X218338Y216438D01*
X218407Y216425D01*
X218477Y216416D01*
X218547Y216410D01*
X218617Y216408D01*
X222899Y216408D02*
X222899Y228092D01*
X228092Y228092D01*
X228092Y222899D02*
X222899Y222899D01*
X203262Y151892D02*
X200017Y149296D01*
X203262Y151892D02*
X203262Y140208D01*
X200017Y140208D02*
X206508Y140208D01*
X212126Y136313D02*
X212126Y147997D01*
X217319Y147997D02*
X217319Y142804D01*
X217317Y142703D01*
X217311Y142603D01*
X217301Y142503D01*
X217288Y142403D01*
X217270Y142304D01*
X217249Y142205D01*
X217224Y142108D01*
X217195Y142011D01*
X217162Y141916D01*
X217126Y141822D01*
X217086Y141730D01*
X217043Y141639D01*
X216996Y141550D01*
X216946Y141463D01*
X216892Y141377D01*
X216835Y141294D01*
X216775Y141214D01*
X216712Y141135D01*
X216645Y141059D01*
X216576Y140986D01*
X216504Y140916D01*
X216430Y140848D01*
X216353Y140783D01*
X216273Y140722D01*
X216191Y140663D01*
X216107Y140608D01*
X216021Y140556D01*
X215933Y140507D01*
X215843Y140462D01*
X215751Y140420D01*
X215658Y140382D01*
X215563Y140348D01*
X215468Y140317D01*
X215371Y140290D01*
X215273Y140267D01*
X215174Y140247D01*
X215074Y140232D01*
X214974Y140220D01*
X214874Y140212D01*
X214773Y140208D01*
X214673Y140208D01*
X214572Y140212D01*
X214472Y140220D01*
X214372Y140232D01*
X214272Y140247D01*
X214173Y140267D01*
X214075Y140290D01*
X213978Y140317D01*
X213883Y140348D01*
X213788Y140382D01*
X213695Y140420D01*
X213603Y140462D01*
X213513Y140507D01*
X213425Y140556D01*
X213339Y140608D01*
X213255Y140663D01*
X213173Y140722D01*
X213093Y140783D01*
X213016Y140848D01*
X212942Y140916D01*
X212870Y140986D01*
X212801Y141059D01*
X212734Y141135D01*
X212671Y141214D01*
X212611Y141294D01*
X212554Y141377D01*
X212500Y141463D01*
X212450Y141550D01*
X212403Y141639D01*
X212360Y141730D01*
X212320Y141822D01*
X212284Y141916D01*
X212251Y142011D01*
X212222Y142108D01*
X212197Y142205D01*
X212176Y142304D01*
X212158Y142403D01*
X212145Y142503D01*
X212135Y142603D01*
X212129Y142703D01*
X212127Y142804D01*
X217319Y142804D02*
X217319Y141506D01*
X217321Y141436D01*
X217327Y141366D01*
X217336Y141296D01*
X217349Y141227D01*
X217366Y141159D01*
X217387Y141092D01*
X217411Y141026D01*
X217439Y140961D01*
X217470Y140898D01*
X217505Y140837D01*
X217543Y140778D01*
X217584Y140720D01*
X217628Y140666D01*
X217675Y140613D01*
X217724Y140564D01*
X217777Y140517D01*
X217831Y140473D01*
X217889Y140432D01*
X217948Y140394D01*
X218009Y140359D01*
X218072Y140328D01*
X218137Y140300D01*
X218203Y140276D01*
X218270Y140255D01*
X218338Y140238D01*
X218407Y140225D01*
X218477Y140216D01*
X218547Y140210D01*
X218617Y140208D01*
X222899Y140208D02*
X222899Y151892D01*
X228092Y151892D01*
X228092Y146699D02*
X222899Y146699D01*
X203262Y75692D02*
X200017Y73096D01*
X203262Y75692D02*
X203262Y64008D01*
X200017Y64008D02*
X206508Y64008D01*
X212126Y60113D02*
X212126Y71797D01*
X217319Y71797D02*
X217319Y66604D01*
X217317Y66503D01*
X217311Y66403D01*
X217301Y66303D01*
X217288Y66203D01*
X217270Y66104D01*
X217249Y66005D01*
X217224Y65908D01*
X217195Y65811D01*
X217162Y65716D01*
X217126Y65622D01*
X217086Y65530D01*
X217043Y65439D01*
X216996Y65350D01*
X216946Y65263D01*
X216892Y65177D01*
X216835Y65094D01*
X216775Y65014D01*
X216712Y64935D01*
X216645Y64859D01*
X216576Y64786D01*
X216504Y64716D01*
X216430Y64648D01*
X216353Y64583D01*
X216273Y64522D01*
X216191Y64463D01*
X216107Y64408D01*
X216021Y64356D01*
X215933Y64307D01*
X215843Y64262D01*
X215751Y64220D01*
X215658Y64182D01*
X215563Y64148D01*
X215468Y64117D01*
X215371Y64090D01*
X215273Y64067D01*
X215174Y64047D01*
X215074Y64032D01*
X214974Y64020D01*
X214874Y64012D01*
X214773Y64008D01*
X214673Y64008D01*
X214572Y64012D01*
X214472Y64020D01*
X214372Y64032D01*
X214272Y64047D01*
X214173Y64067D01*
X214075Y64090D01*
X213978Y64117D01*
X213883Y64148D01*
X213788Y64182D01*
X213695Y64220D01*
X213603Y64262D01*
X213513Y64307D01*
X213425Y64356D01*
X213339Y64408D01*
X213255Y64463D01*
X213173Y64522D01*
X213093Y64583D01*
X213016Y64648D01*
X212942Y64716D01*
X212870Y64786D01*
X212801Y64859D01*
X212734Y64935D01*
X212671Y65014D01*
X212611Y65094D01*
X212554Y65177D01*
X212500Y65263D01*
X212450Y65350D01*
X212403Y65439D01*
X212360Y65530D01*
X212320Y65622D01*
X212284Y65716D01*
X212251Y65811D01*
X212222Y65908D01*
X212197Y66005D01*
X212176Y66104D01*
X212158Y66203D01*
X212145Y66303D01*
X212135Y66403D01*
X212129Y66503D01*
X212127Y66604D01*
X217319Y66604D02*
X217319Y65306D01*
X217321Y65236D01*
X217327Y65166D01*
X217336Y65096D01*
X217349Y65027D01*
X217366Y64959D01*
X217387Y64892D01*
X217411Y64826D01*
X217439Y64761D01*
X217470Y64698D01*
X217505Y64637D01*
X217543Y64578D01*
X217584Y64520D01*
X217628Y64466D01*
X217675Y64413D01*
X217724Y64364D01*
X217777Y64317D01*
X217831Y64273D01*
X217889Y64232D01*
X217948Y64194D01*
X218009Y64159D01*
X218072Y64128D01*
X218137Y64100D01*
X218203Y64076D01*
X218270Y64055D01*
X218338Y64038D01*
X218407Y64025D01*
X218477Y64016D01*
X218547Y64010D01*
X218617Y64008D01*
X222899Y64008D02*
X222899Y75692D01*
X228092Y75692D01*
X228092Y70499D02*
X222899Y70499D01*
X195017Y303646D02*
X198262Y306242D01*
X198262Y294558D01*
X195017Y294558D02*
X201508Y294558D01*
X207126Y290663D02*
X207126Y302347D01*
X212319Y302347D02*
X212319Y297154D01*
X212317Y297053D01*
X212311Y296953D01*
X212301Y296853D01*
X212288Y296753D01*
X212270Y296654D01*
X212249Y296555D01*
X212224Y296458D01*
X212195Y296361D01*
X212162Y296266D01*
X212126Y296172D01*
X212086Y296080D01*
X212043Y295989D01*
X211996Y295900D01*
X211946Y295813D01*
X211892Y295727D01*
X211835Y295644D01*
X211775Y295564D01*
X211712Y295485D01*
X211645Y295409D01*
X211576Y295336D01*
X211504Y295266D01*
X211430Y295198D01*
X211353Y295133D01*
X211273Y295072D01*
X211191Y295013D01*
X211107Y294958D01*
X211021Y294906D01*
X210933Y294857D01*
X210843Y294812D01*
X210751Y294770D01*
X210658Y294732D01*
X210563Y294698D01*
X210468Y294667D01*
X210371Y294640D01*
X210273Y294617D01*
X210174Y294597D01*
X210074Y294582D01*
X209974Y294570D01*
X209874Y294562D01*
X209773Y294558D01*
X209673Y294558D01*
X209572Y294562D01*
X209472Y294570D01*
X209372Y294582D01*
X209272Y294597D01*
X209173Y294617D01*
X209075Y294640D01*
X208978Y294667D01*
X208883Y294698D01*
X208788Y294732D01*
X208695Y294770D01*
X208603Y294812D01*
X208513Y294857D01*
X208425Y294906D01*
X208339Y294958D01*
X208255Y295013D01*
X208173Y295072D01*
X208093Y295133D01*
X208016Y295198D01*
X207942Y295266D01*
X207870Y295336D01*
X207801Y295409D01*
X207734Y295485D01*
X207671Y295564D01*
X207611Y295644D01*
X207554Y295727D01*
X207500Y295813D01*
X207450Y295900D01*
X207403Y295989D01*
X207360Y296080D01*
X207320Y296172D01*
X207284Y296266D01*
X207251Y296361D01*
X207222Y296458D01*
X207197Y296555D01*
X207176Y296654D01*
X207158Y296753D01*
X207145Y296853D01*
X207135Y296953D01*
X207129Y297053D01*
X207127Y297154D01*
X212319Y297154D02*
X212319Y295856D01*
X212321Y295786D01*
X212327Y295716D01*
X212336Y295646D01*
X212349Y295577D01*
X212366Y295509D01*
X212387Y295442D01*
X212411Y295376D01*
X212439Y295311D01*
X212470Y295248D01*
X212505Y295187D01*
X212543Y295128D01*
X212584Y295070D01*
X212628Y295016D01*
X212675Y294963D01*
X212724Y294914D01*
X212777Y294867D01*
X212831Y294823D01*
X212889Y294782D01*
X212948Y294744D01*
X213009Y294709D01*
X213072Y294678D01*
X213137Y294650D01*
X213203Y294626D01*
X213270Y294605D01*
X213338Y294588D01*
X213407Y294575D01*
X213477Y294566D01*
X213547Y294560D01*
X213617Y294558D01*
X217899Y294558D02*
X217899Y306242D01*
X223092Y306242D01*
X223092Y301049D02*
X217899Y301049D01*
X182017Y375696D02*
X185262Y378292D01*
X185262Y366608D01*
X182017Y366608D02*
X188508Y366608D01*
X194126Y362713D02*
X194126Y374397D01*
X199319Y374397D02*
X199319Y369204D01*
X199317Y369103D01*
X199311Y369003D01*
X199301Y368903D01*
X199288Y368803D01*
X199270Y368704D01*
X199249Y368605D01*
X199224Y368508D01*
X199195Y368411D01*
X199162Y368316D01*
X199126Y368222D01*
X199086Y368130D01*
X199043Y368039D01*
X198996Y367950D01*
X198946Y367863D01*
X198892Y367777D01*
X198835Y367694D01*
X198775Y367614D01*
X198712Y367535D01*
X198645Y367459D01*
X198576Y367386D01*
X198504Y367316D01*
X198430Y367248D01*
X198353Y367183D01*
X198273Y367122D01*
X198191Y367063D01*
X198107Y367008D01*
X198021Y366956D01*
X197933Y366907D01*
X197843Y366862D01*
X197751Y366820D01*
X197658Y366782D01*
X197563Y366748D01*
X197468Y366717D01*
X197371Y366690D01*
X197273Y366667D01*
X197174Y366647D01*
X197074Y366632D01*
X196974Y366620D01*
X196874Y366612D01*
X196773Y366608D01*
X196673Y366608D01*
X196572Y366612D01*
X196472Y366620D01*
X196372Y366632D01*
X196272Y366647D01*
X196173Y366667D01*
X196075Y366690D01*
X195978Y366717D01*
X195883Y366748D01*
X195788Y366782D01*
X195695Y366820D01*
X195603Y366862D01*
X195513Y366907D01*
X195425Y366956D01*
X195339Y367008D01*
X195255Y367063D01*
X195173Y367122D01*
X195093Y367183D01*
X195016Y367248D01*
X194942Y367316D01*
X194870Y367386D01*
X194801Y367459D01*
X194734Y367535D01*
X194671Y367614D01*
X194611Y367694D01*
X194554Y367777D01*
X194500Y367863D01*
X194450Y367950D01*
X194403Y368039D01*
X194360Y368130D01*
X194320Y368222D01*
X194284Y368316D01*
X194251Y368411D01*
X194222Y368508D01*
X194197Y368605D01*
X194176Y368704D01*
X194158Y368803D01*
X194145Y368903D01*
X194135Y369003D01*
X194129Y369103D01*
X194127Y369204D01*
X199319Y369204D02*
X199319Y367906D01*
X199321Y367836D01*
X199327Y367766D01*
X199336Y367696D01*
X199349Y367627D01*
X199366Y367559D01*
X199387Y367492D01*
X199411Y367426D01*
X199439Y367361D01*
X199470Y367298D01*
X199505Y367237D01*
X199543Y367178D01*
X199584Y367120D01*
X199628Y367066D01*
X199675Y367013D01*
X199724Y366964D01*
X199777Y366917D01*
X199831Y366873D01*
X199889Y366832D01*
X199948Y366794D01*
X200009Y366759D01*
X200072Y366728D01*
X200137Y366700D01*
X200203Y366676D01*
X200270Y366655D01*
X200338Y366638D01*
X200407Y366625D01*
X200477Y366616D01*
X200547Y366610D01*
X200617Y366608D01*
X204899Y366608D02*
X204899Y378292D01*
X210092Y378292D01*
X210092Y373099D02*
X204899Y373099D01*
D12*
X197459Y384431D02*
X195371Y387042D01*
X204769Y387042D01*
X204769Y389652D02*
X204769Y384431D01*
X200070Y393575D02*
X199885Y393577D01*
X199700Y393584D01*
X199516Y393595D01*
X199332Y393610D01*
X199148Y393630D01*
X198964Y393654D01*
X198782Y393683D01*
X198600Y393716D01*
X198419Y393753D01*
X198239Y393795D01*
X198059Y393841D01*
X197881Y393891D01*
X197705Y393945D01*
X197529Y394004D01*
X197355Y394066D01*
X197183Y394133D01*
X197012Y394204D01*
X196843Y394279D01*
X196676Y394358D01*
X196596Y394388D01*
X196517Y394421D01*
X196440Y394458D01*
X196364Y394498D01*
X196290Y394541D01*
X196218Y394587D01*
X196149Y394637D01*
X196081Y394689D01*
X196016Y394745D01*
X195953Y394803D01*
X195894Y394865D01*
X195836Y394928D01*
X195782Y394995D01*
X195731Y395063D01*
X195683Y395134D01*
X195638Y395207D01*
X195596Y395281D01*
X195558Y395358D01*
X195523Y395436D01*
X195491Y395515D01*
X195463Y395596D01*
X195439Y395678D01*
X195418Y395762D01*
X195401Y395845D01*
X195388Y395930D01*
X195379Y396015D01*
X195373Y396100D01*
X195371Y396186D01*
X195373Y396272D01*
X195379Y396357D01*
X195388Y396442D01*
X195401Y396527D01*
X195418Y396610D01*
X195439Y396694D01*
X195463Y396776D01*
X195491Y396857D01*
X195523Y396936D01*
X195558Y397014D01*
X195596Y397091D01*
X195638Y397165D01*
X195683Y397238D01*
X195731Y397309D01*
X195782Y397377D01*
X195836Y397444D01*
X195894Y397507D01*
X195953Y397569D01*
X196016Y397627D01*
X196081Y397683D01*
X196149Y397735D01*
X196218Y397785D01*
X196290Y397831D01*
X196364Y397874D01*
X196440Y397914D01*
X196517Y397951D01*
X196596Y397984D01*
X196676Y398014D01*
X196676Y398013D02*
X196843Y398092D01*
X197012Y398167D01*
X197183Y398238D01*
X197355Y398305D01*
X197529Y398367D01*
X197705Y398426D01*
X197881Y398480D01*
X198059Y398530D01*
X198239Y398576D01*
X198419Y398618D01*
X198600Y398655D01*
X198782Y398688D01*
X198964Y398717D01*
X199148Y398741D01*
X199332Y398761D01*
X199516Y398776D01*
X199700Y398787D01*
X199885Y398794D01*
X200070Y398796D01*
X200070Y393575D02*
X200255Y393577D01*
X200440Y393584D01*
X200624Y393595D01*
X200808Y393610D01*
X200992Y393630D01*
X201176Y393654D01*
X201358Y393683D01*
X201540Y393716D01*
X201721Y393753D01*
X201901Y393795D01*
X202081Y393841D01*
X202259Y393891D01*
X202435Y393945D01*
X202611Y394004D01*
X202785Y394066D01*
X202957Y394133D01*
X203128Y394204D01*
X203297Y394279D01*
X203464Y394358D01*
X203544Y394388D01*
X203623Y394421D01*
X203700Y394458D01*
X203776Y394498D01*
X203850Y394541D01*
X203922Y394587D01*
X203991Y394637D01*
X204059Y394690D01*
X204124Y394745D01*
X204187Y394804D01*
X204246Y394865D01*
X204304Y394928D01*
X204358Y394995D01*
X204409Y395063D01*
X204457Y395134D01*
X204502Y395207D01*
X204544Y395281D01*
X204582Y395358D01*
X204617Y395436D01*
X204649Y395515D01*
X204677Y395596D01*
X204701Y395678D01*
X204722Y395762D01*
X204739Y395845D01*
X204752Y395930D01*
X204761Y396015D01*
X204767Y396100D01*
X204769Y396186D01*
X203464Y398013D02*
X203297Y398092D01*
X203128Y398167D01*
X202957Y398238D01*
X202785Y398305D01*
X202611Y398367D01*
X202435Y398426D01*
X202259Y398480D01*
X202081Y398530D01*
X201901Y398576D01*
X201721Y398618D01*
X201540Y398655D01*
X201358Y398688D01*
X201176Y398717D01*
X200992Y398741D01*
X200808Y398761D01*
X200624Y398776D01*
X200440Y398787D01*
X200255Y398794D01*
X200070Y398796D01*
X203464Y398014D02*
X203544Y397984D01*
X203623Y397951D01*
X203700Y397914D01*
X203776Y397874D01*
X203850Y397831D01*
X203922Y397785D01*
X203991Y397735D01*
X204059Y397683D01*
X204124Y397627D01*
X204187Y397569D01*
X204246Y397507D01*
X204304Y397444D01*
X204358Y397377D01*
X204409Y397309D01*
X204457Y397238D01*
X204502Y397165D01*
X204544Y397091D01*
X204582Y397014D01*
X204617Y396936D01*
X204649Y396857D01*
X204677Y396776D01*
X204701Y396694D01*
X204722Y396610D01*
X204739Y396527D01*
X204752Y396442D01*
X204761Y396357D01*
X204767Y396272D01*
X204769Y396186D01*
X202681Y394097D02*
X197459Y398274D01*
X198504Y403255D02*
X207902Y403255D01*
X202681Y407432D02*
X198504Y407432D01*
X202681Y407432D02*
X202771Y407430D01*
X202860Y407424D01*
X202950Y407415D01*
X203039Y407401D01*
X203127Y407384D01*
X203214Y407363D01*
X203301Y407338D01*
X203386Y407309D01*
X203470Y407277D01*
X203552Y407242D01*
X203633Y407202D01*
X203712Y407160D01*
X203789Y407114D01*
X203864Y407064D01*
X203937Y407012D01*
X204008Y406956D01*
X204076Y406898D01*
X204141Y406836D01*
X204204Y406772D01*
X204264Y406705D01*
X204321Y406636D01*
X204375Y406564D01*
X204426Y406490D01*
X204474Y406414D01*
X204518Y406336D01*
X204559Y406256D01*
X204597Y406174D01*
X204631Y406091D01*
X204661Y406006D01*
X204688Y405920D01*
X204711Y405834D01*
X204730Y405746D01*
X204745Y405657D01*
X204757Y405568D01*
X204765Y405479D01*
X204769Y405389D01*
X204769Y405299D01*
X204765Y405209D01*
X204757Y405120D01*
X204745Y405031D01*
X204730Y404942D01*
X204711Y404854D01*
X204688Y404768D01*
X204661Y404682D01*
X204631Y404597D01*
X204597Y404514D01*
X204559Y404432D01*
X204518Y404352D01*
X204474Y404274D01*
X204426Y404198D01*
X204375Y404124D01*
X204321Y404052D01*
X204264Y403983D01*
X204204Y403916D01*
X204141Y403852D01*
X204076Y403790D01*
X204008Y403732D01*
X203937Y403676D01*
X203864Y403624D01*
X203789Y403574D01*
X203712Y403528D01*
X203633Y403486D01*
X203552Y403446D01*
X203470Y403411D01*
X203386Y403379D01*
X203301Y403350D01*
X203214Y403325D01*
X203127Y403304D01*
X203039Y403287D01*
X202950Y403273D01*
X202860Y403264D01*
X202771Y403258D01*
X202681Y403256D01*
X202681Y407432D02*
X203725Y407432D01*
X203788Y407434D01*
X203851Y407440D01*
X203913Y407449D01*
X203975Y407462D01*
X204036Y407479D01*
X204095Y407500D01*
X204153Y407524D01*
X204210Y407552D01*
X204265Y407583D01*
X204318Y407617D01*
X204369Y407654D01*
X204417Y407695D01*
X204463Y407738D01*
X204506Y407784D01*
X204547Y407832D01*
X204584Y407883D01*
X204618Y407936D01*
X204649Y407991D01*
X204677Y408048D01*
X204701Y408106D01*
X204722Y408165D01*
X204739Y408226D01*
X204752Y408288D01*
X204761Y408350D01*
X204767Y408413D01*
X204769Y408476D01*
X204769Y411880D02*
X195371Y411880D01*
X195371Y416057D01*
X199548Y416057D02*
X199548Y411880D01*
X85419Y397443D02*
X83331Y400053D01*
X92729Y400053D01*
X92729Y397443D02*
X92729Y402664D01*
X88030Y406586D02*
X87845Y406588D01*
X87660Y406595D01*
X87476Y406606D01*
X87292Y406621D01*
X87108Y406641D01*
X86924Y406665D01*
X86742Y406694D01*
X86560Y406727D01*
X86379Y406764D01*
X86199Y406806D01*
X86019Y406852D01*
X85841Y406902D01*
X85665Y406956D01*
X85489Y407015D01*
X85315Y407077D01*
X85143Y407144D01*
X84972Y407215D01*
X84803Y407290D01*
X84636Y407369D01*
X84556Y407399D01*
X84477Y407432D01*
X84400Y407469D01*
X84324Y407509D01*
X84250Y407552D01*
X84178Y407598D01*
X84109Y407648D01*
X84041Y407700D01*
X83976Y407756D01*
X83913Y407814D01*
X83854Y407876D01*
X83796Y407939D01*
X83742Y408006D01*
X83691Y408074D01*
X83643Y408145D01*
X83598Y408218D01*
X83556Y408292D01*
X83518Y408369D01*
X83483Y408447D01*
X83451Y408526D01*
X83423Y408607D01*
X83399Y408689D01*
X83378Y408773D01*
X83361Y408856D01*
X83348Y408941D01*
X83339Y409026D01*
X83333Y409111D01*
X83331Y409197D01*
X83333Y409283D01*
X83339Y409368D01*
X83348Y409453D01*
X83361Y409538D01*
X83378Y409621D01*
X83399Y409705D01*
X83423Y409787D01*
X83451Y409868D01*
X83483Y409947D01*
X83518Y410025D01*
X83556Y410102D01*
X83598Y410176D01*
X83643Y410249D01*
X83691Y410320D01*
X83742Y410388D01*
X83796Y410455D01*
X83854Y410518D01*
X83913Y410580D01*
X83976Y410638D01*
X84041Y410694D01*
X84109Y410746D01*
X84178Y410796D01*
X84250Y410842D01*
X84324Y410885D01*
X84400Y410925D01*
X84477Y410962D01*
X84556Y410995D01*
X84636Y411025D01*
X84803Y411104D01*
X84972Y411179D01*
X85143Y411250D01*
X85315Y411317D01*
X85489Y411379D01*
X85665Y411438D01*
X85841Y411492D01*
X86019Y411542D01*
X86199Y411588D01*
X86379Y411630D01*
X86560Y411667D01*
X86742Y411700D01*
X86924Y411729D01*
X87108Y411753D01*
X87292Y411773D01*
X87476Y411788D01*
X87660Y411799D01*
X87845Y411806D01*
X88030Y411808D01*
X88030Y406587D02*
X88215Y406589D01*
X88400Y406596D01*
X88584Y406607D01*
X88768Y406622D01*
X88952Y406642D01*
X89136Y406666D01*
X89318Y406695D01*
X89500Y406728D01*
X89681Y406765D01*
X89861Y406807D01*
X90041Y406853D01*
X90219Y406903D01*
X90395Y406957D01*
X90571Y407016D01*
X90745Y407078D01*
X90917Y407145D01*
X91088Y407216D01*
X91257Y407291D01*
X91424Y407370D01*
X91424Y407369D02*
X91504Y407399D01*
X91583Y407432D01*
X91660Y407469D01*
X91736Y407509D01*
X91810Y407552D01*
X91882Y407598D01*
X91951Y407648D01*
X92019Y407701D01*
X92084Y407756D01*
X92147Y407815D01*
X92206Y407876D01*
X92264Y407939D01*
X92318Y408006D01*
X92369Y408074D01*
X92417Y408145D01*
X92462Y408218D01*
X92504Y408292D01*
X92542Y408369D01*
X92577Y408447D01*
X92609Y408526D01*
X92637Y408607D01*
X92661Y408689D01*
X92682Y408773D01*
X92699Y408856D01*
X92712Y408941D01*
X92721Y409026D01*
X92727Y409111D01*
X92729Y409197D01*
X91424Y411025D02*
X91257Y411104D01*
X91088Y411179D01*
X90917Y411250D01*
X90745Y411317D01*
X90571Y411379D01*
X90395Y411438D01*
X90219Y411492D01*
X90041Y411542D01*
X89861Y411588D01*
X89681Y411630D01*
X89500Y411667D01*
X89318Y411700D01*
X89136Y411729D01*
X88952Y411753D01*
X88768Y411773D01*
X88584Y411788D01*
X88400Y411799D01*
X88215Y411806D01*
X88030Y411808D01*
X91424Y411025D02*
X91504Y410995D01*
X91583Y410962D01*
X91660Y410925D01*
X91736Y410885D01*
X91810Y410842D01*
X91882Y410796D01*
X91951Y410746D01*
X92019Y410694D01*
X92084Y410638D01*
X92147Y410580D01*
X92206Y410518D01*
X92264Y410455D01*
X92318Y410388D01*
X92369Y410320D01*
X92417Y410249D01*
X92462Y410176D01*
X92504Y410102D01*
X92542Y410025D01*
X92577Y409947D01*
X92609Y409868D01*
X92637Y409787D01*
X92661Y409705D01*
X92682Y409621D01*
X92699Y409538D01*
X92712Y409453D01*
X92721Y409368D01*
X92727Y409283D01*
X92729Y409197D01*
X90641Y407109D02*
X85419Y411286D01*
X86464Y416267D02*
X95862Y416267D01*
X90641Y420444D02*
X86464Y420444D01*
X90641Y420444D02*
X90731Y420442D01*
X90820Y420436D01*
X90910Y420427D01*
X90999Y420413D01*
X91087Y420396D01*
X91174Y420375D01*
X91261Y420350D01*
X91346Y420321D01*
X91430Y420289D01*
X91512Y420254D01*
X91593Y420214D01*
X91672Y420172D01*
X91749Y420126D01*
X91824Y420076D01*
X91897Y420024D01*
X91968Y419968D01*
X92036Y419910D01*
X92101Y419848D01*
X92164Y419784D01*
X92224Y419717D01*
X92281Y419648D01*
X92335Y419576D01*
X92386Y419502D01*
X92434Y419426D01*
X92478Y419348D01*
X92519Y419268D01*
X92557Y419186D01*
X92591Y419103D01*
X92621Y419018D01*
X92648Y418932D01*
X92671Y418846D01*
X92690Y418758D01*
X92705Y418669D01*
X92717Y418580D01*
X92725Y418491D01*
X92729Y418401D01*
X92729Y418311D01*
X92725Y418221D01*
X92717Y418132D01*
X92705Y418043D01*
X92690Y417954D01*
X92671Y417866D01*
X92648Y417780D01*
X92621Y417694D01*
X92591Y417609D01*
X92557Y417526D01*
X92519Y417444D01*
X92478Y417364D01*
X92434Y417286D01*
X92386Y417210D01*
X92335Y417136D01*
X92281Y417064D01*
X92224Y416995D01*
X92164Y416928D01*
X92101Y416864D01*
X92036Y416802D01*
X91968Y416744D01*
X91897Y416688D01*
X91824Y416636D01*
X91749Y416586D01*
X91672Y416540D01*
X91593Y416498D01*
X91512Y416458D01*
X91430Y416423D01*
X91346Y416391D01*
X91261Y416362D01*
X91174Y416337D01*
X91087Y416316D01*
X90999Y416299D01*
X90910Y416285D01*
X90820Y416276D01*
X90731Y416270D01*
X90641Y416268D01*
X90641Y420444D02*
X91685Y420444D01*
X91748Y420446D01*
X91811Y420452D01*
X91873Y420461D01*
X91935Y420474D01*
X91996Y420491D01*
X92055Y420512D01*
X92113Y420536D01*
X92170Y420564D01*
X92225Y420595D01*
X92278Y420629D01*
X92329Y420666D01*
X92377Y420707D01*
X92423Y420750D01*
X92466Y420796D01*
X92507Y420844D01*
X92544Y420895D01*
X92578Y420948D01*
X92609Y421003D01*
X92637Y421060D01*
X92661Y421118D01*
X92682Y421177D01*
X92699Y421238D01*
X92712Y421300D01*
X92721Y421362D01*
X92727Y421425D01*
X92729Y421488D01*
X92729Y424892D02*
X83331Y424892D01*
X83331Y429069D01*
X87508Y429069D02*
X87508Y424892D01*
D13*
X246508Y440429D02*
X249104Y437183D01*
X246508Y440429D02*
X258192Y440429D01*
X258192Y443674D02*
X258192Y437183D01*
X246508Y452183D02*
X246510Y452290D01*
X246516Y452396D01*
X246526Y452502D01*
X246539Y452608D01*
X246557Y452714D01*
X246578Y452818D01*
X246603Y452922D01*
X246632Y453025D01*
X246664Y453126D01*
X246701Y453226D01*
X246741Y453325D01*
X246784Y453423D01*
X246831Y453519D01*
X246882Y453613D01*
X246936Y453705D01*
X246993Y453795D01*
X247053Y453883D01*
X247117Y453968D01*
X247184Y454051D01*
X247254Y454132D01*
X247326Y454210D01*
X247402Y454286D01*
X247480Y454358D01*
X247561Y454428D01*
X247644Y454495D01*
X247729Y454559D01*
X247817Y454619D01*
X247907Y454676D01*
X247999Y454730D01*
X248093Y454781D01*
X248189Y454828D01*
X248287Y454871D01*
X248386Y454911D01*
X248486Y454948D01*
X248587Y454980D01*
X248690Y455009D01*
X248794Y455034D01*
X248898Y455055D01*
X249004Y455073D01*
X249110Y455086D01*
X249216Y455096D01*
X249322Y455102D01*
X249429Y455104D01*
X246508Y452183D02*
X246510Y452062D01*
X246516Y451941D01*
X246526Y451821D01*
X246539Y451700D01*
X246557Y451581D01*
X246578Y451461D01*
X246603Y451343D01*
X246632Y451226D01*
X246665Y451109D01*
X246701Y450994D01*
X246742Y450880D01*
X246785Y450767D01*
X246833Y450655D01*
X246884Y450546D01*
X246939Y450438D01*
X246997Y450331D01*
X247058Y450227D01*
X247123Y450125D01*
X247191Y450025D01*
X247262Y449927D01*
X247336Y449831D01*
X247413Y449738D01*
X247494Y449648D01*
X247577Y449560D01*
X247663Y449475D01*
X247752Y449392D01*
X247843Y449313D01*
X247937Y449236D01*
X248033Y449163D01*
X248131Y449093D01*
X248232Y449026D01*
X248335Y448962D01*
X248440Y448902D01*
X248547Y448844D01*
X248655Y448791D01*
X248765Y448741D01*
X248877Y448695D01*
X248990Y448652D01*
X249105Y448613D01*
X251701Y454130D02*
X251623Y454209D01*
X251543Y454285D01*
X251460Y454358D01*
X251374Y454428D01*
X251287Y454495D01*
X251196Y454559D01*
X251104Y454619D01*
X251010Y454677D01*
X250913Y454731D01*
X250815Y454781D01*
X250715Y454828D01*
X250614Y454872D01*
X250511Y454912D01*
X250406Y454948D01*
X250301Y454980D01*
X250194Y455009D01*
X250087Y455034D01*
X249978Y455056D01*
X249869Y455073D01*
X249760Y455087D01*
X249650Y455096D01*
X249539Y455102D01*
X249429Y455104D01*
X251701Y454130D02*
X258192Y448613D01*
X258192Y455104D01*
X258192Y462146D02*
X250403Y459549D01*
X250403Y464742D02*
X258192Y462146D01*
D14*
X46850Y173250D02*
X46850Y168750D01*
X46850Y173250D02*
X92850Y173250D01*
X92850Y168750D01*
X92850Y148750D02*
X92850Y144250D01*
X46850Y144250D01*
X46850Y148750D01*
X79850Y148750D02*
X79850Y168750D01*
X234188Y292608D02*
X236728Y292608D01*
X234188Y292608D02*
X234188Y293116D01*
X234239Y293116D01*
X234239Y342621D01*
X236550Y342621D01*
X283540Y292405D02*
X286258Y292405D01*
X286258Y292913D01*
X286283Y292913D01*
X286283Y342595D01*
X284023Y342595D01*
X269240Y292100D02*
X252222Y292100D01*
X251714Y342900D02*
X260350Y342900D01*
X268986Y342900D01*
X260350Y342900D02*
X285750Y317500D01*
X236728Y368808D02*
X234188Y368808D01*
X234188Y369316D01*
X234239Y369316D01*
X234239Y418821D01*
X236550Y418821D01*
X283540Y368605D02*
X286258Y368605D01*
X286258Y369113D01*
X286283Y369113D01*
X286283Y418795D01*
X284023Y418795D01*
X269240Y368300D02*
X252222Y368300D01*
X251714Y419100D02*
X260350Y419100D01*
X268986Y419100D01*
X260350Y419100D02*
X285750Y393700D01*
X236728Y216408D02*
X234188Y216408D01*
X234188Y216916D01*
X234239Y216916D01*
X234239Y266421D01*
X236550Y266421D01*
X283540Y216205D02*
X286258Y216205D01*
X286258Y216713D01*
X286283Y216713D01*
X286283Y266395D01*
X284023Y266395D01*
X269240Y215900D02*
X252222Y215900D01*
X251714Y266700D02*
X260350Y266700D01*
X268986Y266700D01*
X260350Y266700D02*
X285750Y241300D01*
X236728Y140208D02*
X234188Y140208D01*
X234188Y140716D01*
X234239Y140716D01*
X234239Y190221D01*
X236550Y190221D01*
X283540Y140005D02*
X286258Y140005D01*
X286258Y140513D01*
X286283Y140513D01*
X286283Y190195D01*
X284023Y190195D01*
X269240Y139700D02*
X252222Y139700D01*
X251714Y190500D02*
X260350Y190500D01*
X268986Y190500D01*
X260350Y190500D02*
X285750Y165100D01*
X236728Y64008D02*
X234188Y64008D01*
X234188Y64516D01*
X234239Y64516D01*
X234239Y114021D01*
X236550Y114021D01*
X283540Y63805D02*
X286258Y63805D01*
X286258Y64313D01*
X286283Y64313D01*
X286283Y113995D01*
X284023Y113995D01*
X269240Y63500D02*
X252222Y63500D01*
X251714Y114300D02*
X260350Y114300D01*
X268986Y114300D01*
X260350Y114300D02*
X285750Y88900D01*
X148450Y352900D02*
X148450Y357400D01*
X194450Y357400D01*
X194450Y352900D01*
X194450Y332900D02*
X194450Y328400D01*
X148450Y328400D01*
X148450Y332900D01*
X181450Y332900D02*
X181450Y352900D01*
X125980Y388620D02*
X125980Y424180D01*
X191520Y424180D01*
X191520Y388620D01*
X125980Y388620D01*
D15*
X15250Y544450D02*
X15250Y793450D01*
X525250Y793450D01*
X535250Y783450D01*
X535250Y554450D01*
X525250Y544450D01*
X15250Y544450D01*
D16*
X475250Y624450D02*
X555250Y624450D01*
X475250Y624450D02*
X475250Y718450D01*
X555250Y718450D01*
X555250Y624450D01*
D17*
X525254Y786130D02*
X525256Y786214D01*
X525262Y786298D01*
X525272Y786382D01*
X525285Y786465D01*
X525303Y786547D01*
X525325Y786629D01*
X525350Y786709D01*
X525379Y786788D01*
X525412Y786866D01*
X525448Y786942D01*
X525488Y787016D01*
X525531Y787088D01*
X525577Y787158D01*
X525627Y787226D01*
X525680Y787292D01*
X525736Y787355D01*
X525795Y787415D01*
X525857Y787472D01*
X525921Y787527D01*
X525988Y787578D01*
X526057Y787626D01*
X526128Y787671D01*
X526201Y787713D01*
X526276Y787751D01*
X526353Y787785D01*
X526431Y787816D01*
X526511Y787843D01*
X526592Y787867D01*
X526674Y787886D01*
X526757Y787902D01*
X526840Y787914D01*
X526924Y787922D01*
X527008Y787926D01*
X527092Y787926D01*
X527176Y787922D01*
X527260Y787914D01*
X527343Y787902D01*
X527426Y787886D01*
X527508Y787867D01*
X527589Y787843D01*
X527669Y787816D01*
X527747Y787785D01*
X527824Y787751D01*
X527899Y787713D01*
X527972Y787671D01*
X528043Y787626D01*
X528112Y787578D01*
X528179Y787527D01*
X528243Y787472D01*
X528305Y787415D01*
X528364Y787355D01*
X528420Y787292D01*
X528473Y787226D01*
X528523Y787158D01*
X528569Y787088D01*
X528612Y787016D01*
X528652Y786942D01*
X528688Y786866D01*
X528721Y786788D01*
X528750Y786709D01*
X528775Y786629D01*
X528797Y786547D01*
X528815Y786465D01*
X528828Y786382D01*
X528838Y786298D01*
X528844Y786214D01*
X528846Y786130D01*
X528844Y786046D01*
X528838Y785962D01*
X528828Y785878D01*
X528815Y785795D01*
X528797Y785713D01*
X528775Y785631D01*
X528750Y785551D01*
X528721Y785472D01*
X528688Y785394D01*
X528652Y785318D01*
X528612Y785244D01*
X528569Y785172D01*
X528523Y785102D01*
X528473Y785034D01*
X528420Y784968D01*
X528364Y784905D01*
X528305Y784845D01*
X528243Y784788D01*
X528179Y784733D01*
X528112Y784682D01*
X528043Y784634D01*
X527972Y784589D01*
X527899Y784547D01*
X527824Y784509D01*
X527747Y784475D01*
X527669Y784444D01*
X527589Y784417D01*
X527508Y784393D01*
X527426Y784374D01*
X527343Y784358D01*
X527260Y784346D01*
X527176Y784338D01*
X527092Y784334D01*
X527008Y784334D01*
X526924Y784338D01*
X526840Y784346D01*
X526757Y784358D01*
X526674Y784374D01*
X526592Y784393D01*
X526511Y784417D01*
X526431Y784444D01*
X526353Y784475D01*
X526276Y784509D01*
X526201Y784547D01*
X526128Y784589D01*
X526057Y784634D01*
X525988Y784682D01*
X525921Y784733D01*
X525857Y784788D01*
X525795Y784845D01*
X525736Y784905D01*
X525680Y784968D01*
X525627Y785034D01*
X525577Y785102D01*
X525531Y785172D01*
X525488Y785244D01*
X525448Y785318D01*
X525412Y785394D01*
X525379Y785472D01*
X525350Y785551D01*
X525325Y785631D01*
X525303Y785713D01*
X525285Y785795D01*
X525272Y785878D01*
X525262Y785962D01*
X525256Y786046D01*
X525254Y786130D01*
D15*
X492218Y582450D02*
X492220Y582647D01*
X492228Y582844D01*
X492240Y583041D01*
X492257Y583237D01*
X492278Y583433D01*
X492305Y583629D01*
X492336Y583823D01*
X492372Y584017D01*
X492413Y584210D01*
X492459Y584402D01*
X492509Y584592D01*
X492564Y584782D01*
X492623Y584969D01*
X492688Y585156D01*
X492756Y585341D01*
X492829Y585524D01*
X492907Y585705D01*
X492989Y585884D01*
X493076Y586061D01*
X493166Y586236D01*
X493261Y586409D01*
X493361Y586579D01*
X493464Y586747D01*
X493572Y586912D01*
X493683Y587075D01*
X493799Y587235D01*
X493918Y587392D01*
X494041Y587545D01*
X494168Y587696D01*
X494299Y587844D01*
X494433Y587988D01*
X494571Y588129D01*
X494712Y588267D01*
X494856Y588401D01*
X495004Y588532D01*
X495155Y588659D01*
X495308Y588782D01*
X495465Y588901D01*
X495625Y589017D01*
X495788Y589128D01*
X495953Y589236D01*
X496121Y589339D01*
X496291Y589439D01*
X496464Y589534D01*
X496639Y589624D01*
X496816Y589711D01*
X496995Y589793D01*
X497176Y589871D01*
X497359Y589944D01*
X497544Y590012D01*
X497731Y590077D01*
X497918Y590136D01*
X498108Y590191D01*
X498298Y590241D01*
X498490Y590287D01*
X498683Y590328D01*
X498877Y590364D01*
X499071Y590395D01*
X499267Y590422D01*
X499463Y590443D01*
X499659Y590460D01*
X499856Y590472D01*
X500053Y590480D01*
X500250Y590482D01*
X500447Y590480D01*
X500644Y590472D01*
X500841Y590460D01*
X501037Y590443D01*
X501233Y590422D01*
X501429Y590395D01*
X501623Y590364D01*
X501817Y590328D01*
X502010Y590287D01*
X502202Y590241D01*
X502392Y590191D01*
X502582Y590136D01*
X502769Y590077D01*
X502956Y590012D01*
X503141Y589944D01*
X503324Y589871D01*
X503505Y589793D01*
X503684Y589711D01*
X503861Y589624D01*
X504036Y589534D01*
X504209Y589439D01*
X504379Y589339D01*
X504547Y589236D01*
X504712Y589128D01*
X504875Y589017D01*
X505035Y588901D01*
X505192Y588782D01*
X505345Y588659D01*
X505496Y588532D01*
X505644Y588401D01*
X505788Y588267D01*
X505929Y588129D01*
X506067Y587988D01*
X506201Y587844D01*
X506332Y587696D01*
X506459Y587545D01*
X506582Y587392D01*
X506701Y587235D01*
X506817Y587075D01*
X506928Y586912D01*
X507036Y586747D01*
X507139Y586579D01*
X507239Y586409D01*
X507334Y586236D01*
X507424Y586061D01*
X507511Y585884D01*
X507593Y585705D01*
X507671Y585524D01*
X507744Y585341D01*
X507812Y585156D01*
X507877Y584969D01*
X507936Y584782D01*
X507991Y584592D01*
X508041Y584402D01*
X508087Y584210D01*
X508128Y584017D01*
X508164Y583823D01*
X508195Y583629D01*
X508222Y583433D01*
X508243Y583237D01*
X508260Y583041D01*
X508272Y582844D01*
X508280Y582647D01*
X508282Y582450D01*
X508280Y582253D01*
X508272Y582056D01*
X508260Y581859D01*
X508243Y581663D01*
X508222Y581467D01*
X508195Y581271D01*
X508164Y581077D01*
X508128Y580883D01*
X508087Y580690D01*
X508041Y580498D01*
X507991Y580308D01*
X507936Y580118D01*
X507877Y579931D01*
X507812Y579744D01*
X507744Y579559D01*
X507671Y579376D01*
X507593Y579195D01*
X507511Y579016D01*
X507424Y578839D01*
X507334Y578664D01*
X507239Y578491D01*
X507139Y578321D01*
X507036Y578153D01*
X506928Y577988D01*
X506817Y577825D01*
X506701Y577665D01*
X506582Y577508D01*
X506459Y577355D01*
X506332Y577204D01*
X506201Y577056D01*
X506067Y576912D01*
X505929Y576771D01*
X505788Y576633D01*
X505644Y576499D01*
X505496Y576368D01*
X505345Y576241D01*
X505192Y576118D01*
X505035Y575999D01*
X504875Y575883D01*
X504712Y575772D01*
X504547Y575664D01*
X504379Y575561D01*
X504209Y575461D01*
X504036Y575366D01*
X503861Y575276D01*
X503684Y575189D01*
X503505Y575107D01*
X503324Y575029D01*
X503141Y574956D01*
X502956Y574888D01*
X502769Y574823D01*
X502582Y574764D01*
X502392Y574709D01*
X502202Y574659D01*
X502010Y574613D01*
X501817Y574572D01*
X501623Y574536D01*
X501429Y574505D01*
X501233Y574478D01*
X501037Y574457D01*
X500841Y574440D01*
X500644Y574428D01*
X500447Y574420D01*
X500250Y574418D01*
X500053Y574420D01*
X499856Y574428D01*
X499659Y574440D01*
X499463Y574457D01*
X499267Y574478D01*
X499071Y574505D01*
X498877Y574536D01*
X498683Y574572D01*
X498490Y574613D01*
X498298Y574659D01*
X498108Y574709D01*
X497918Y574764D01*
X497731Y574823D01*
X497544Y574888D01*
X497359Y574956D01*
X497176Y575029D01*
X496995Y575107D01*
X496816Y575189D01*
X496639Y575276D01*
X496464Y575366D01*
X496291Y575461D01*
X496121Y575561D01*
X495953Y575664D01*
X495788Y575772D01*
X495625Y575883D01*
X495465Y575999D01*
X495308Y576118D01*
X495155Y576241D01*
X495004Y576368D01*
X494856Y576499D01*
X494712Y576633D01*
X494571Y576771D01*
X494433Y576912D01*
X494299Y577056D01*
X494168Y577204D01*
X494041Y577355D01*
X493918Y577508D01*
X493799Y577665D01*
X493683Y577825D01*
X493572Y577988D01*
X493464Y578153D01*
X493361Y578321D01*
X493261Y578491D01*
X493166Y578664D01*
X493076Y578839D01*
X492989Y579016D01*
X492907Y579195D01*
X492829Y579376D01*
X492756Y579559D01*
X492688Y579744D01*
X492623Y579931D01*
X492564Y580118D01*
X492509Y580308D01*
X492459Y580498D01*
X492413Y580690D01*
X492372Y580883D01*
X492336Y581077D01*
X492305Y581271D01*
X492278Y581467D01*
X492257Y581663D01*
X492240Y581859D01*
X492228Y582056D01*
X492220Y582253D01*
X492218Y582450D01*
X492218Y755450D02*
X492220Y755647D01*
X492228Y755844D01*
X492240Y756041D01*
X492257Y756237D01*
X492278Y756433D01*
X492305Y756629D01*
X492336Y756823D01*
X492372Y757017D01*
X492413Y757210D01*
X492459Y757402D01*
X492509Y757592D01*
X492564Y757782D01*
X492623Y757969D01*
X492688Y758156D01*
X492756Y758341D01*
X492829Y758524D01*
X492907Y758705D01*
X492989Y758884D01*
X493076Y759061D01*
X493166Y759236D01*
X493261Y759409D01*
X493361Y759579D01*
X493464Y759747D01*
X493572Y759912D01*
X493683Y760075D01*
X493799Y760235D01*
X493918Y760392D01*
X494041Y760545D01*
X494168Y760696D01*
X494299Y760844D01*
X494433Y760988D01*
X494571Y761129D01*
X494712Y761267D01*
X494856Y761401D01*
X495004Y761532D01*
X495155Y761659D01*
X495308Y761782D01*
X495465Y761901D01*
X495625Y762017D01*
X495788Y762128D01*
X495953Y762236D01*
X496121Y762339D01*
X496291Y762439D01*
X496464Y762534D01*
X496639Y762624D01*
X496816Y762711D01*
X496995Y762793D01*
X497176Y762871D01*
X497359Y762944D01*
X497544Y763012D01*
X497731Y763077D01*
X497918Y763136D01*
X498108Y763191D01*
X498298Y763241D01*
X498490Y763287D01*
X498683Y763328D01*
X498877Y763364D01*
X499071Y763395D01*
X499267Y763422D01*
X499463Y763443D01*
X499659Y763460D01*
X499856Y763472D01*
X500053Y763480D01*
X500250Y763482D01*
X500447Y763480D01*
X500644Y763472D01*
X500841Y763460D01*
X501037Y763443D01*
X501233Y763422D01*
X501429Y763395D01*
X501623Y763364D01*
X501817Y763328D01*
X502010Y763287D01*
X502202Y763241D01*
X502392Y763191D01*
X502582Y763136D01*
X502769Y763077D01*
X502956Y763012D01*
X503141Y762944D01*
X503324Y762871D01*
X503505Y762793D01*
X503684Y762711D01*
X503861Y762624D01*
X504036Y762534D01*
X504209Y762439D01*
X504379Y762339D01*
X504547Y762236D01*
X504712Y762128D01*
X504875Y762017D01*
X505035Y761901D01*
X505192Y761782D01*
X505345Y761659D01*
X505496Y761532D01*
X505644Y761401D01*
X505788Y761267D01*
X505929Y761129D01*
X506067Y760988D01*
X506201Y760844D01*
X506332Y760696D01*
X506459Y760545D01*
X506582Y760392D01*
X506701Y760235D01*
X506817Y760075D01*
X506928Y759912D01*
X507036Y759747D01*
X507139Y759579D01*
X507239Y759409D01*
X507334Y759236D01*
X507424Y759061D01*
X507511Y758884D01*
X507593Y758705D01*
X507671Y758524D01*
X507744Y758341D01*
X507812Y758156D01*
X507877Y757969D01*
X507936Y757782D01*
X507991Y757592D01*
X508041Y757402D01*
X508087Y757210D01*
X508128Y757017D01*
X508164Y756823D01*
X508195Y756629D01*
X508222Y756433D01*
X508243Y756237D01*
X508260Y756041D01*
X508272Y755844D01*
X508280Y755647D01*
X508282Y755450D01*
X508280Y755253D01*
X508272Y755056D01*
X508260Y754859D01*
X508243Y754663D01*
X508222Y754467D01*
X508195Y754271D01*
X508164Y754077D01*
X508128Y753883D01*
X508087Y753690D01*
X508041Y753498D01*
X507991Y753308D01*
X507936Y753118D01*
X507877Y752931D01*
X507812Y752744D01*
X507744Y752559D01*
X507671Y752376D01*
X507593Y752195D01*
X507511Y752016D01*
X507424Y751839D01*
X507334Y751664D01*
X507239Y751491D01*
X507139Y751321D01*
X507036Y751153D01*
X506928Y750988D01*
X506817Y750825D01*
X506701Y750665D01*
X506582Y750508D01*
X506459Y750355D01*
X506332Y750204D01*
X506201Y750056D01*
X506067Y749912D01*
X505929Y749771D01*
X505788Y749633D01*
X505644Y749499D01*
X505496Y749368D01*
X505345Y749241D01*
X505192Y749118D01*
X505035Y748999D01*
X504875Y748883D01*
X504712Y748772D01*
X504547Y748664D01*
X504379Y748561D01*
X504209Y748461D01*
X504036Y748366D01*
X503861Y748276D01*
X503684Y748189D01*
X503505Y748107D01*
X503324Y748029D01*
X503141Y747956D01*
X502956Y747888D01*
X502769Y747823D01*
X502582Y747764D01*
X502392Y747709D01*
X502202Y747659D01*
X502010Y747613D01*
X501817Y747572D01*
X501623Y747536D01*
X501429Y747505D01*
X501233Y747478D01*
X501037Y747457D01*
X500841Y747440D01*
X500644Y747428D01*
X500447Y747420D01*
X500250Y747418D01*
X500053Y747420D01*
X499856Y747428D01*
X499659Y747440D01*
X499463Y747457D01*
X499267Y747478D01*
X499071Y747505D01*
X498877Y747536D01*
X498683Y747572D01*
X498490Y747613D01*
X498298Y747659D01*
X498108Y747709D01*
X497918Y747764D01*
X497731Y747823D01*
X497544Y747888D01*
X497359Y747956D01*
X497176Y748029D01*
X496995Y748107D01*
X496816Y748189D01*
X496639Y748276D01*
X496464Y748366D01*
X496291Y748461D01*
X496121Y748561D01*
X495953Y748664D01*
X495788Y748772D01*
X495625Y748883D01*
X495465Y748999D01*
X495308Y749118D01*
X495155Y749241D01*
X495004Y749368D01*
X494856Y749499D01*
X494712Y749633D01*
X494571Y749771D01*
X494433Y749912D01*
X494299Y750056D01*
X494168Y750204D01*
X494041Y750355D01*
X493918Y750508D01*
X493799Y750665D01*
X493683Y750825D01*
X493572Y750988D01*
X493464Y751153D01*
X493361Y751321D01*
X493261Y751491D01*
X493166Y751664D01*
X493076Y751839D01*
X492989Y752016D01*
X492907Y752195D01*
X492829Y752376D01*
X492756Y752559D01*
X492688Y752744D01*
X492623Y752931D01*
X492564Y753118D01*
X492509Y753308D01*
X492459Y753498D01*
X492413Y753690D01*
X492372Y753883D01*
X492336Y754077D01*
X492305Y754271D01*
X492278Y754467D01*
X492257Y754663D01*
X492240Y754859D01*
X492228Y755056D01*
X492220Y755253D01*
X492218Y755450D01*
D18*
X416560Y800100D03*
D15*
X394970Y792480D02*
X394970Y770890D01*
X439420Y770890D01*
X439420Y792480D01*
D14*
X178054Y456184D02*
X118110Y456180D01*
X118110Y521720D01*
X178054Y521716D01*
D19*
X113284Y488950D03*
D13*
X119808Y536044D02*
X119808Y537342D01*
X126299Y537342D01*
X123054Y525658D01*
X131238Y528904D02*
X131240Y529017D01*
X131246Y529130D01*
X131256Y529243D01*
X131270Y529356D01*
X131287Y529468D01*
X131309Y529579D01*
X131334Y529689D01*
X131364Y529799D01*
X131397Y529907D01*
X131434Y530014D01*
X131474Y530120D01*
X131519Y530224D01*
X131567Y530327D01*
X131618Y530428D01*
X131673Y530527D01*
X131731Y530624D01*
X131793Y530719D01*
X131858Y530812D01*
X131926Y530902D01*
X131997Y530990D01*
X132072Y531076D01*
X132149Y531159D01*
X132229Y531239D01*
X132312Y531316D01*
X132398Y531391D01*
X132486Y531462D01*
X132576Y531530D01*
X132669Y531595D01*
X132764Y531657D01*
X132861Y531715D01*
X132960Y531770D01*
X133061Y531821D01*
X133164Y531869D01*
X133268Y531914D01*
X133374Y531954D01*
X133481Y531991D01*
X133589Y532024D01*
X133699Y532054D01*
X133809Y532079D01*
X133920Y532101D01*
X134032Y532118D01*
X134145Y532132D01*
X134258Y532142D01*
X134371Y532148D01*
X134484Y532150D01*
X134597Y532148D01*
X134710Y532142D01*
X134823Y532132D01*
X134936Y532118D01*
X135048Y532101D01*
X135159Y532079D01*
X135269Y532054D01*
X135379Y532024D01*
X135487Y531991D01*
X135594Y531954D01*
X135700Y531914D01*
X135804Y531869D01*
X135907Y531821D01*
X136008Y531770D01*
X136107Y531715D01*
X136204Y531657D01*
X136299Y531595D01*
X136392Y531530D01*
X136482Y531462D01*
X136570Y531391D01*
X136656Y531316D01*
X136739Y531239D01*
X136819Y531159D01*
X136896Y531076D01*
X136971Y530990D01*
X137042Y530902D01*
X137110Y530812D01*
X137175Y530719D01*
X137237Y530624D01*
X137295Y530527D01*
X137350Y530428D01*
X137401Y530327D01*
X137449Y530224D01*
X137494Y530120D01*
X137534Y530014D01*
X137571Y529907D01*
X137604Y529799D01*
X137634Y529689D01*
X137659Y529579D01*
X137681Y529468D01*
X137698Y529356D01*
X137712Y529243D01*
X137722Y529130D01*
X137728Y529017D01*
X137730Y528904D01*
X137728Y528791D01*
X137722Y528678D01*
X137712Y528565D01*
X137698Y528452D01*
X137681Y528340D01*
X137659Y528229D01*
X137634Y528119D01*
X137604Y528009D01*
X137571Y527901D01*
X137534Y527794D01*
X137494Y527688D01*
X137449Y527584D01*
X137401Y527481D01*
X137350Y527380D01*
X137295Y527281D01*
X137237Y527184D01*
X137175Y527089D01*
X137110Y526996D01*
X137042Y526906D01*
X136971Y526818D01*
X136896Y526732D01*
X136819Y526649D01*
X136739Y526569D01*
X136656Y526492D01*
X136570Y526417D01*
X136482Y526346D01*
X136392Y526278D01*
X136299Y526213D01*
X136204Y526151D01*
X136107Y526093D01*
X136008Y526038D01*
X135907Y525987D01*
X135804Y525939D01*
X135700Y525894D01*
X135594Y525854D01*
X135487Y525817D01*
X135379Y525784D01*
X135269Y525754D01*
X135159Y525729D01*
X135048Y525707D01*
X134936Y525690D01*
X134823Y525676D01*
X134710Y525666D01*
X134597Y525660D01*
X134484Y525658D01*
X134371Y525660D01*
X134258Y525666D01*
X134145Y525676D01*
X134032Y525690D01*
X133920Y525707D01*
X133809Y525729D01*
X133699Y525754D01*
X133589Y525784D01*
X133481Y525817D01*
X133374Y525854D01*
X133268Y525894D01*
X133164Y525939D01*
X133061Y525987D01*
X132960Y526038D01*
X132861Y526093D01*
X132764Y526151D01*
X132669Y526213D01*
X132576Y526278D01*
X132486Y526346D01*
X132398Y526417D01*
X132312Y526492D01*
X132229Y526569D01*
X132149Y526649D01*
X132072Y526732D01*
X131997Y526818D01*
X131926Y526906D01*
X131858Y526996D01*
X131793Y527089D01*
X131731Y527184D01*
X131673Y527281D01*
X131618Y527380D01*
X131567Y527481D01*
X131519Y527584D01*
X131474Y527688D01*
X131434Y527794D01*
X131397Y527901D01*
X131364Y528009D01*
X131334Y528119D01*
X131309Y528229D01*
X131287Y528340D01*
X131270Y528452D01*
X131256Y528565D01*
X131246Y528678D01*
X131240Y528791D01*
X131238Y528904D01*
X131888Y534746D02*
X131890Y534847D01*
X131896Y534947D01*
X131906Y535047D01*
X131919Y535147D01*
X131937Y535246D01*
X131958Y535345D01*
X131983Y535442D01*
X132012Y535539D01*
X132045Y535634D01*
X132081Y535728D01*
X132121Y535820D01*
X132164Y535911D01*
X132211Y536000D01*
X132261Y536087D01*
X132315Y536173D01*
X132372Y536256D01*
X132432Y536336D01*
X132495Y536415D01*
X132562Y536491D01*
X132631Y536564D01*
X132703Y536634D01*
X132777Y536702D01*
X132854Y536767D01*
X132934Y536828D01*
X133016Y536887D01*
X133100Y536942D01*
X133186Y536994D01*
X133274Y537043D01*
X133364Y537088D01*
X133456Y537130D01*
X133549Y537168D01*
X133644Y537202D01*
X133739Y537233D01*
X133836Y537260D01*
X133934Y537283D01*
X134033Y537303D01*
X134133Y537318D01*
X134233Y537330D01*
X134333Y537338D01*
X134434Y537342D01*
X134534Y537342D01*
X134635Y537338D01*
X134735Y537330D01*
X134835Y537318D01*
X134935Y537303D01*
X135034Y537283D01*
X135132Y537260D01*
X135229Y537233D01*
X135324Y537202D01*
X135419Y537168D01*
X135512Y537130D01*
X135604Y537088D01*
X135694Y537043D01*
X135782Y536994D01*
X135868Y536942D01*
X135952Y536887D01*
X136034Y536828D01*
X136114Y536767D01*
X136191Y536702D01*
X136265Y536634D01*
X136337Y536564D01*
X136406Y536491D01*
X136473Y536415D01*
X136536Y536336D01*
X136596Y536256D01*
X136653Y536173D01*
X136707Y536087D01*
X136757Y536000D01*
X136804Y535911D01*
X136847Y535820D01*
X136887Y535728D01*
X136923Y535634D01*
X136956Y535539D01*
X136985Y535442D01*
X137010Y535345D01*
X137031Y535246D01*
X137049Y535147D01*
X137062Y535047D01*
X137072Y534947D01*
X137078Y534847D01*
X137080Y534746D01*
X137078Y534645D01*
X137072Y534545D01*
X137062Y534445D01*
X137049Y534345D01*
X137031Y534246D01*
X137010Y534147D01*
X136985Y534050D01*
X136956Y533953D01*
X136923Y533858D01*
X136887Y533764D01*
X136847Y533672D01*
X136804Y533581D01*
X136757Y533492D01*
X136707Y533405D01*
X136653Y533319D01*
X136596Y533236D01*
X136536Y533156D01*
X136473Y533077D01*
X136406Y533001D01*
X136337Y532928D01*
X136265Y532858D01*
X136191Y532790D01*
X136114Y532725D01*
X136034Y532664D01*
X135952Y532605D01*
X135868Y532550D01*
X135782Y532498D01*
X135694Y532449D01*
X135604Y532404D01*
X135512Y532362D01*
X135419Y532324D01*
X135324Y532290D01*
X135229Y532259D01*
X135132Y532232D01*
X135034Y532209D01*
X134935Y532189D01*
X134835Y532174D01*
X134735Y532162D01*
X134635Y532154D01*
X134534Y532150D01*
X134434Y532150D01*
X134333Y532154D01*
X134233Y532162D01*
X134133Y532174D01*
X134033Y532189D01*
X133934Y532209D01*
X133836Y532232D01*
X133739Y532259D01*
X133644Y532290D01*
X133549Y532324D01*
X133456Y532362D01*
X133364Y532404D01*
X133274Y532449D01*
X133186Y532498D01*
X133100Y532550D01*
X133016Y532605D01*
X132934Y532664D01*
X132854Y532725D01*
X132777Y532790D01*
X132703Y532858D01*
X132631Y532928D01*
X132562Y533001D01*
X132495Y533077D01*
X132432Y533156D01*
X132372Y533236D01*
X132315Y533319D01*
X132261Y533405D01*
X132211Y533492D01*
X132164Y533581D01*
X132121Y533672D01*
X132081Y533764D01*
X132045Y533858D01*
X132012Y533953D01*
X131983Y534050D01*
X131958Y534147D01*
X131937Y534246D01*
X131919Y534345D01*
X131906Y534445D01*
X131896Y534545D01*
X131890Y534645D01*
X131888Y534746D01*
X142668Y531500D02*
X142671Y531730D01*
X142679Y531960D01*
X142693Y532189D01*
X142712Y532418D01*
X142737Y532647D01*
X142767Y532874D01*
X142802Y533102D01*
X142843Y533328D01*
X142889Y533553D01*
X142941Y533777D01*
X142998Y533999D01*
X143060Y534221D01*
X143128Y534440D01*
X143201Y534658D01*
X143279Y534875D01*
X143362Y535089D01*
X143450Y535301D01*
X143543Y535511D01*
X143642Y535719D01*
X143641Y535719D02*
X143674Y535809D01*
X143710Y535898D01*
X143750Y535986D01*
X143794Y536071D01*
X143841Y536155D01*
X143891Y536237D01*
X143945Y536317D01*
X144001Y536394D01*
X144061Y536470D01*
X144124Y536543D01*
X144189Y536613D01*
X144258Y536681D01*
X144329Y536745D01*
X144402Y536807D01*
X144478Y536866D01*
X144556Y536922D01*
X144637Y536975D01*
X144719Y537024D01*
X144803Y537070D01*
X144890Y537113D01*
X144977Y537152D01*
X145067Y537188D01*
X145157Y537220D01*
X145249Y537248D01*
X145342Y537273D01*
X145436Y537294D01*
X145530Y537311D01*
X145625Y537325D01*
X145721Y537334D01*
X145817Y537340D01*
X145913Y537342D01*
X146009Y537340D01*
X146105Y537334D01*
X146201Y537325D01*
X146296Y537311D01*
X146390Y537294D01*
X146484Y537273D01*
X146577Y537248D01*
X146669Y537220D01*
X146759Y537188D01*
X146849Y537152D01*
X146936Y537113D01*
X147023Y537070D01*
X147107Y537024D01*
X147189Y536975D01*
X147270Y536922D01*
X147348Y536866D01*
X147424Y536807D01*
X147497Y536745D01*
X147568Y536681D01*
X147637Y536613D01*
X147702Y536543D01*
X147765Y536470D01*
X147825Y536394D01*
X147881Y536317D01*
X147935Y536237D01*
X147985Y536155D01*
X148032Y536071D01*
X148076Y535986D01*
X148116Y535898D01*
X148152Y535809D01*
X148185Y535719D01*
X148186Y535719D02*
X148285Y535512D01*
X148378Y535302D01*
X148466Y535089D01*
X148549Y534875D01*
X148627Y534659D01*
X148700Y534441D01*
X148768Y534221D01*
X148830Y534000D01*
X148887Y533777D01*
X148939Y533553D01*
X148985Y533328D01*
X149026Y533102D01*
X149061Y532875D01*
X149091Y532647D01*
X149116Y532418D01*
X149135Y532189D01*
X149149Y531960D01*
X149157Y531730D01*
X149160Y531500D01*
X142668Y531500D02*
X142671Y531270D01*
X142679Y531040D01*
X142693Y530811D01*
X142712Y530582D01*
X142737Y530353D01*
X142767Y530125D01*
X142802Y529898D01*
X142843Y529672D01*
X142889Y529447D01*
X142941Y529223D01*
X142998Y529000D01*
X143060Y528779D01*
X143128Y528559D01*
X143201Y528341D01*
X143279Y528125D01*
X143362Y527911D01*
X143450Y527699D01*
X143543Y527488D01*
X143642Y527281D01*
X143641Y527281D02*
X143674Y527191D01*
X143710Y527102D01*
X143751Y527014D01*
X143794Y526929D01*
X143841Y526845D01*
X143891Y526763D01*
X143945Y526683D01*
X144001Y526606D01*
X144061Y526530D01*
X144124Y526457D01*
X144189Y526387D01*
X144258Y526319D01*
X144329Y526255D01*
X144402Y526193D01*
X144478Y526134D01*
X144556Y526078D01*
X144637Y526025D01*
X144719Y525976D01*
X144803Y525930D01*
X144890Y525887D01*
X144977Y525848D01*
X145067Y525812D01*
X145157Y525780D01*
X145249Y525752D01*
X145342Y525727D01*
X145436Y525706D01*
X145530Y525689D01*
X145625Y525675D01*
X145721Y525666D01*
X145817Y525660D01*
X145913Y525658D01*
X148185Y527281D02*
X148284Y527488D01*
X148377Y527699D01*
X148465Y527911D01*
X148548Y528125D01*
X148626Y528341D01*
X148699Y528559D01*
X148767Y528779D01*
X148829Y529000D01*
X148886Y529223D01*
X148938Y529447D01*
X148984Y529672D01*
X149025Y529898D01*
X149060Y530125D01*
X149090Y530353D01*
X149115Y530582D01*
X149134Y530811D01*
X149148Y531040D01*
X149156Y531270D01*
X149159Y531500D01*
X148185Y527281D02*
X148152Y527191D01*
X148116Y527102D01*
X148076Y527014D01*
X148032Y526929D01*
X147985Y526845D01*
X147935Y526763D01*
X147881Y526683D01*
X147825Y526606D01*
X147765Y526530D01*
X147702Y526457D01*
X147637Y526387D01*
X147568Y526319D01*
X147497Y526255D01*
X147424Y526193D01*
X147348Y526134D01*
X147270Y526078D01*
X147189Y526025D01*
X147107Y525976D01*
X147023Y525930D01*
X146936Y525887D01*
X146849Y525848D01*
X146759Y525812D01*
X146669Y525780D01*
X146577Y525752D01*
X146484Y525727D01*
X146390Y525706D01*
X146296Y525689D01*
X146201Y525675D01*
X146105Y525666D01*
X146009Y525660D01*
X145913Y525658D01*
X143317Y528254D02*
X148510Y534746D01*
X154098Y525658D02*
X157993Y525658D01*
X158092Y525660D01*
X158192Y525666D01*
X158291Y525675D01*
X158389Y525688D01*
X158487Y525705D01*
X158585Y525726D01*
X158681Y525751D01*
X158776Y525779D01*
X158870Y525811D01*
X158963Y525846D01*
X159055Y525885D01*
X159145Y525928D01*
X159233Y525973D01*
X159320Y526023D01*
X159404Y526075D01*
X159487Y526131D01*
X159567Y526189D01*
X159645Y526251D01*
X159720Y526316D01*
X159793Y526384D01*
X159863Y526454D01*
X159931Y526527D01*
X159996Y526602D01*
X160058Y526680D01*
X160116Y526760D01*
X160172Y526843D01*
X160224Y526927D01*
X160274Y527014D01*
X160319Y527102D01*
X160362Y527192D01*
X160401Y527284D01*
X160436Y527377D01*
X160468Y527471D01*
X160496Y527566D01*
X160521Y527662D01*
X160542Y527760D01*
X160559Y527858D01*
X160572Y527956D01*
X160581Y528055D01*
X160587Y528155D01*
X160589Y528254D01*
X160589Y529553D01*
X160587Y529652D01*
X160581Y529752D01*
X160572Y529851D01*
X160559Y529949D01*
X160542Y530047D01*
X160521Y530145D01*
X160496Y530241D01*
X160468Y530336D01*
X160436Y530430D01*
X160401Y530523D01*
X160362Y530615D01*
X160319Y530705D01*
X160274Y530793D01*
X160224Y530880D01*
X160172Y530964D01*
X160116Y531047D01*
X160058Y531127D01*
X159996Y531205D01*
X159931Y531280D01*
X159863Y531353D01*
X159793Y531423D01*
X159720Y531491D01*
X159645Y531556D01*
X159567Y531618D01*
X159487Y531676D01*
X159404Y531732D01*
X159320Y531784D01*
X159233Y531834D01*
X159145Y531879D01*
X159055Y531922D01*
X158963Y531961D01*
X158870Y531996D01*
X158776Y532028D01*
X158681Y532056D01*
X158585Y532081D01*
X158487Y532102D01*
X158389Y532119D01*
X158291Y532132D01*
X158192Y532141D01*
X158092Y532147D01*
X157993Y532149D01*
X154098Y532149D01*
X154098Y537342D01*
X160589Y537342D01*
X165909Y537342D02*
X165909Y525658D01*
X165909Y537342D02*
X169154Y537342D01*
X169267Y537340D01*
X169380Y537334D01*
X169493Y537324D01*
X169606Y537310D01*
X169718Y537293D01*
X169829Y537271D01*
X169939Y537246D01*
X170049Y537216D01*
X170157Y537183D01*
X170264Y537146D01*
X170370Y537106D01*
X170474Y537061D01*
X170577Y537013D01*
X170678Y536962D01*
X170777Y536907D01*
X170874Y536849D01*
X170969Y536787D01*
X171062Y536722D01*
X171152Y536654D01*
X171240Y536583D01*
X171326Y536508D01*
X171409Y536431D01*
X171489Y536351D01*
X171566Y536268D01*
X171641Y536182D01*
X171712Y536094D01*
X171780Y536004D01*
X171845Y535911D01*
X171907Y535816D01*
X171965Y535719D01*
X172020Y535620D01*
X172071Y535519D01*
X172119Y535416D01*
X172164Y535312D01*
X172204Y535206D01*
X172241Y535099D01*
X172274Y534991D01*
X172304Y534881D01*
X172329Y534771D01*
X172351Y534660D01*
X172368Y534548D01*
X172382Y534435D01*
X172392Y534322D01*
X172398Y534209D01*
X172400Y534096D01*
X172400Y528904D01*
X172398Y528791D01*
X172392Y528678D01*
X172382Y528565D01*
X172368Y528452D01*
X172351Y528340D01*
X172329Y528229D01*
X172304Y528119D01*
X172274Y528009D01*
X172241Y527901D01*
X172204Y527794D01*
X172164Y527688D01*
X172119Y527584D01*
X172071Y527481D01*
X172020Y527380D01*
X171965Y527281D01*
X171907Y527184D01*
X171845Y527089D01*
X171780Y526996D01*
X171712Y526906D01*
X171641Y526818D01*
X171566Y526732D01*
X171489Y526649D01*
X171409Y526569D01*
X171326Y526492D01*
X171240Y526417D01*
X171152Y526346D01*
X171062Y526278D01*
X170969Y526213D01*
X170874Y526151D01*
X170777Y526093D01*
X170678Y526038D01*
X170577Y525987D01*
X170474Y525939D01*
X170370Y525894D01*
X170264Y525854D01*
X170157Y525817D01*
X170049Y525784D01*
X169939Y525754D01*
X169829Y525729D01*
X169718Y525707D01*
X169606Y525690D01*
X169493Y525676D01*
X169380Y525666D01*
X169267Y525660D01*
X169154Y525658D01*
X165909Y525658D01*
X180203Y525658D02*
X180203Y537342D01*
X176958Y537342D02*
X183449Y537342D01*
D20*
X107076Y460947D02*
X104113Y460947D01*
X107076Y460947D02*
X107131Y460945D01*
X107187Y460940D01*
X107241Y460931D01*
X107295Y460918D01*
X107348Y460902D01*
X107400Y460883D01*
X107451Y460860D01*
X107500Y460834D01*
X107547Y460804D01*
X107592Y460772D01*
X107634Y460737D01*
X107675Y460699D01*
X107713Y460658D01*
X107748Y460616D01*
X107780Y460571D01*
X107810Y460523D01*
X107836Y460475D01*
X107859Y460424D01*
X107878Y460372D01*
X107894Y460319D01*
X107907Y460265D01*
X107916Y460211D01*
X107921Y460155D01*
X107923Y460100D01*
X107923Y459677D01*
X104960Y462597D02*
X104113Y463655D01*
X107923Y463655D01*
X107923Y462597D02*
X107923Y464713D01*
X18076Y395097D02*
X15113Y395097D01*
X18076Y395097D02*
X18131Y395095D01*
X18187Y395090D01*
X18241Y395081D01*
X18295Y395068D01*
X18348Y395052D01*
X18400Y395033D01*
X18451Y395010D01*
X18500Y394984D01*
X18547Y394954D01*
X18592Y394922D01*
X18634Y394887D01*
X18675Y394849D01*
X18713Y394808D01*
X18748Y394766D01*
X18780Y394721D01*
X18810Y394673D01*
X18836Y394625D01*
X18859Y394574D01*
X18878Y394522D01*
X18894Y394469D01*
X18907Y394415D01*
X18916Y394361D01*
X18921Y394305D01*
X18923Y394250D01*
X18923Y393827D01*
X15113Y397911D02*
X15115Y397971D01*
X15121Y398030D01*
X15130Y398090D01*
X15143Y398148D01*
X15160Y398205D01*
X15180Y398262D01*
X15204Y398317D01*
X15231Y398370D01*
X15261Y398422D01*
X15295Y398471D01*
X15332Y398518D01*
X15371Y398563D01*
X15414Y398606D01*
X15459Y398645D01*
X15506Y398682D01*
X15555Y398716D01*
X15607Y398746D01*
X15660Y398773D01*
X15715Y398797D01*
X15772Y398817D01*
X15829Y398834D01*
X15887Y398847D01*
X15947Y398856D01*
X16006Y398862D01*
X16066Y398864D01*
X15113Y397911D02*
X15115Y397844D01*
X15120Y397777D01*
X15129Y397711D01*
X15142Y397645D01*
X15158Y397581D01*
X15178Y397517D01*
X15202Y397454D01*
X15228Y397392D01*
X15258Y397333D01*
X15291Y397275D01*
X15328Y397218D01*
X15367Y397164D01*
X15409Y397112D01*
X15454Y397063D01*
X15502Y397016D01*
X15552Y396972D01*
X15605Y396930D01*
X15660Y396892D01*
X15716Y396856D01*
X15775Y396824D01*
X15835Y396795D01*
X15897Y396769D01*
X15960Y396747D01*
X16807Y398545D02*
X16765Y398587D01*
X16720Y398626D01*
X16674Y398663D01*
X16625Y398697D01*
X16575Y398727D01*
X16523Y398755D01*
X16469Y398780D01*
X16414Y398802D01*
X16358Y398821D01*
X16301Y398836D01*
X16243Y398848D01*
X16184Y398856D01*
X16125Y398861D01*
X16066Y398863D01*
X16806Y398546D02*
X18923Y396747D01*
X18923Y398863D01*
D14*
X5250Y379150D02*
X5250Y179650D01*
X5250Y379150D02*
X121250Y379150D01*
X121250Y179650D01*
X5250Y179650D01*
D13*
X131458Y235178D02*
X131460Y235285D01*
X131466Y235391D01*
X131476Y235497D01*
X131489Y235603D01*
X131507Y235709D01*
X131528Y235813D01*
X131553Y235917D01*
X131582Y236020D01*
X131614Y236121D01*
X131651Y236221D01*
X131691Y236320D01*
X131734Y236418D01*
X131781Y236514D01*
X131832Y236608D01*
X131886Y236700D01*
X131943Y236790D01*
X132003Y236878D01*
X132067Y236963D01*
X132134Y237046D01*
X132204Y237127D01*
X132276Y237205D01*
X132352Y237281D01*
X132430Y237353D01*
X132511Y237423D01*
X132594Y237490D01*
X132679Y237554D01*
X132767Y237614D01*
X132857Y237671D01*
X132949Y237725D01*
X133043Y237776D01*
X133139Y237823D01*
X133237Y237866D01*
X133336Y237906D01*
X133436Y237943D01*
X133537Y237975D01*
X133640Y238004D01*
X133744Y238029D01*
X133848Y238050D01*
X133954Y238068D01*
X134060Y238081D01*
X134166Y238091D01*
X134272Y238097D01*
X134379Y238099D01*
X131458Y235178D02*
X131460Y235057D01*
X131466Y234936D01*
X131476Y234816D01*
X131489Y234695D01*
X131507Y234576D01*
X131528Y234456D01*
X131553Y234338D01*
X131582Y234221D01*
X131615Y234104D01*
X131651Y233989D01*
X131692Y233875D01*
X131735Y233762D01*
X131783Y233650D01*
X131834Y233541D01*
X131889Y233433D01*
X131947Y233326D01*
X132008Y233222D01*
X132073Y233120D01*
X132141Y233020D01*
X132212Y232922D01*
X132286Y232826D01*
X132363Y232733D01*
X132444Y232643D01*
X132527Y232555D01*
X132613Y232470D01*
X132702Y232387D01*
X132793Y232308D01*
X132887Y232231D01*
X132983Y232158D01*
X133081Y232088D01*
X133182Y232021D01*
X133285Y231957D01*
X133390Y231897D01*
X133497Y231839D01*
X133605Y231786D01*
X133715Y231736D01*
X133827Y231690D01*
X133940Y231647D01*
X134055Y231608D01*
X136651Y237125D02*
X136573Y237204D01*
X136493Y237280D01*
X136410Y237353D01*
X136324Y237423D01*
X136237Y237490D01*
X136146Y237554D01*
X136054Y237614D01*
X135960Y237672D01*
X135863Y237726D01*
X135765Y237776D01*
X135665Y237823D01*
X135564Y237867D01*
X135461Y237907D01*
X135356Y237943D01*
X135251Y237975D01*
X135144Y238004D01*
X135037Y238029D01*
X134928Y238051D01*
X134819Y238068D01*
X134710Y238082D01*
X134600Y238091D01*
X134489Y238097D01*
X134379Y238099D01*
X136651Y237125D02*
X143142Y231608D01*
X143142Y238099D01*
X143142Y243442D02*
X131458Y243442D01*
X135353Y248634D02*
X139247Y243442D01*
X137625Y245713D02*
X143142Y248634D01*
X152908Y235254D02*
X155504Y232008D01*
X152908Y235254D02*
X164592Y235254D01*
X164592Y238499D02*
X164592Y232008D01*
X158750Y243438D02*
X158520Y243441D01*
X158290Y243449D01*
X158061Y243463D01*
X157832Y243482D01*
X157603Y243507D01*
X157375Y243537D01*
X157148Y243572D01*
X156922Y243613D01*
X156697Y243659D01*
X156473Y243711D01*
X156250Y243768D01*
X156029Y243830D01*
X155809Y243898D01*
X155591Y243971D01*
X155375Y244049D01*
X155161Y244132D01*
X154949Y244220D01*
X154738Y244313D01*
X154531Y244412D01*
X154441Y244445D01*
X154352Y244481D01*
X154264Y244521D01*
X154179Y244565D01*
X154095Y244612D01*
X154013Y244662D01*
X153933Y244716D01*
X153856Y244772D01*
X153780Y244832D01*
X153707Y244895D01*
X153637Y244960D01*
X153569Y245029D01*
X153505Y245100D01*
X153443Y245173D01*
X153384Y245249D01*
X153328Y245327D01*
X153275Y245408D01*
X153226Y245490D01*
X153180Y245574D01*
X153137Y245661D01*
X153098Y245748D01*
X153062Y245838D01*
X153030Y245928D01*
X153002Y246020D01*
X152977Y246113D01*
X152956Y246207D01*
X152939Y246301D01*
X152925Y246396D01*
X152916Y246492D01*
X152910Y246588D01*
X152908Y246684D01*
X152910Y246780D01*
X152916Y246876D01*
X152925Y246972D01*
X152939Y247067D01*
X152956Y247161D01*
X152977Y247255D01*
X153002Y247348D01*
X153030Y247440D01*
X153062Y247530D01*
X153098Y247620D01*
X153137Y247708D01*
X153180Y247794D01*
X153226Y247878D01*
X153275Y247960D01*
X153328Y248041D01*
X153384Y248119D01*
X153443Y248195D01*
X153505Y248268D01*
X153569Y248339D01*
X153637Y248408D01*
X153707Y248473D01*
X153780Y248536D01*
X153856Y248596D01*
X153933Y248652D01*
X154013Y248706D01*
X154095Y248756D01*
X154179Y248803D01*
X154264Y248847D01*
X154352Y248887D01*
X154441Y248923D01*
X154531Y248956D01*
X154531Y248955D02*
X154738Y249054D01*
X154949Y249147D01*
X155161Y249235D01*
X155375Y249318D01*
X155591Y249396D01*
X155809Y249469D01*
X156029Y249537D01*
X156250Y249599D01*
X156473Y249656D01*
X156697Y249708D01*
X156922Y249754D01*
X157148Y249795D01*
X157375Y249830D01*
X157603Y249860D01*
X157832Y249885D01*
X158061Y249904D01*
X158290Y249918D01*
X158520Y249926D01*
X158750Y249929D01*
X158750Y243438D02*
X158980Y243441D01*
X159210Y243449D01*
X159439Y243463D01*
X159668Y243482D01*
X159897Y243507D01*
X160125Y243537D01*
X160352Y243572D01*
X160578Y243613D01*
X160803Y243659D01*
X161027Y243711D01*
X161250Y243768D01*
X161471Y243830D01*
X161691Y243898D01*
X161909Y243971D01*
X162125Y244049D01*
X162339Y244132D01*
X162551Y244220D01*
X162762Y244313D01*
X162969Y244412D01*
X163059Y244445D01*
X163148Y244481D01*
X163236Y244522D01*
X163321Y244565D01*
X163405Y244612D01*
X163487Y244662D01*
X163567Y244716D01*
X163644Y244772D01*
X163720Y244832D01*
X163793Y244895D01*
X163863Y244960D01*
X163931Y245029D01*
X163995Y245100D01*
X164057Y245173D01*
X164116Y245249D01*
X164172Y245327D01*
X164225Y245408D01*
X164274Y245490D01*
X164320Y245574D01*
X164363Y245661D01*
X164402Y245748D01*
X164438Y245838D01*
X164470Y245928D01*
X164498Y246020D01*
X164523Y246113D01*
X164544Y246207D01*
X164561Y246301D01*
X164575Y246396D01*
X164584Y246492D01*
X164590Y246588D01*
X164592Y246684D01*
X162969Y248955D02*
X162762Y249054D01*
X162551Y249147D01*
X162339Y249235D01*
X162125Y249318D01*
X161909Y249396D01*
X161691Y249469D01*
X161471Y249537D01*
X161250Y249599D01*
X161027Y249656D01*
X160803Y249708D01*
X160578Y249754D01*
X160352Y249795D01*
X160125Y249830D01*
X159897Y249860D01*
X159668Y249885D01*
X159439Y249904D01*
X159210Y249918D01*
X158980Y249926D01*
X158750Y249929D01*
X162969Y248956D02*
X163059Y248923D01*
X163148Y248887D01*
X163236Y248847D01*
X163321Y248803D01*
X163405Y248756D01*
X163487Y248706D01*
X163567Y248652D01*
X163644Y248596D01*
X163720Y248536D01*
X163793Y248473D01*
X163863Y248408D01*
X163931Y248339D01*
X163995Y248268D01*
X164057Y248195D01*
X164116Y248119D01*
X164172Y248041D01*
X164225Y247960D01*
X164274Y247878D01*
X164320Y247794D01*
X164363Y247707D01*
X164402Y247620D01*
X164438Y247530D01*
X164470Y247440D01*
X164498Y247348D01*
X164523Y247255D01*
X164544Y247161D01*
X164561Y247067D01*
X164575Y246972D01*
X164584Y246876D01*
X164590Y246780D01*
X164592Y246684D01*
X161996Y244087D02*
X155504Y249280D01*
X152908Y255272D02*
X164592Y255272D01*
X160697Y255272D02*
X156803Y260464D01*
X159075Y257543D02*
X164592Y260464D01*
D21*
X293650Y96250D02*
X293650Y476250D01*
X501650Y476250D01*
X501650Y96250D01*
X293650Y96250D01*
D13*
X332108Y330708D02*
X343792Y330708D01*
X332108Y330708D02*
X332108Y333954D01*
X332110Y334067D01*
X332116Y334180D01*
X332126Y334293D01*
X332140Y334406D01*
X332157Y334518D01*
X332179Y334629D01*
X332204Y334739D01*
X332234Y334849D01*
X332267Y334957D01*
X332304Y335064D01*
X332344Y335170D01*
X332389Y335274D01*
X332437Y335377D01*
X332488Y335478D01*
X332543Y335577D01*
X332601Y335674D01*
X332663Y335769D01*
X332728Y335862D01*
X332796Y335952D01*
X332867Y336040D01*
X332942Y336126D01*
X333019Y336209D01*
X333099Y336289D01*
X333182Y336366D01*
X333268Y336441D01*
X333356Y336512D01*
X333446Y336580D01*
X333539Y336645D01*
X333634Y336707D01*
X333731Y336765D01*
X333830Y336820D01*
X333931Y336871D01*
X334034Y336919D01*
X334138Y336964D01*
X334244Y337004D01*
X334351Y337041D01*
X334459Y337074D01*
X334569Y337104D01*
X334679Y337129D01*
X334790Y337151D01*
X334902Y337168D01*
X335015Y337182D01*
X335128Y337192D01*
X335241Y337198D01*
X335354Y337200D01*
X335467Y337198D01*
X335580Y337192D01*
X335693Y337182D01*
X335806Y337168D01*
X335918Y337151D01*
X336029Y337129D01*
X336139Y337104D01*
X336249Y337074D01*
X336357Y337041D01*
X336464Y337004D01*
X336570Y336964D01*
X336674Y336919D01*
X336777Y336871D01*
X336878Y336820D01*
X336977Y336765D01*
X337074Y336707D01*
X337169Y336645D01*
X337262Y336580D01*
X337352Y336512D01*
X337440Y336441D01*
X337526Y336366D01*
X337609Y336289D01*
X337689Y336209D01*
X337766Y336126D01*
X337841Y336040D01*
X337912Y335952D01*
X337980Y335862D01*
X338045Y335769D01*
X338107Y335674D01*
X338165Y335577D01*
X338220Y335478D01*
X338271Y335377D01*
X338319Y335274D01*
X338364Y335170D01*
X338404Y335064D01*
X338441Y334957D01*
X338474Y334849D01*
X338504Y334739D01*
X338529Y334629D01*
X338551Y334518D01*
X338568Y334406D01*
X338582Y334293D01*
X338592Y334180D01*
X338598Y334067D01*
X338600Y333954D01*
X338599Y333954D02*
X338599Y330708D01*
X338599Y334603D02*
X343792Y337199D01*
X343792Y342468D02*
X332108Y342468D01*
X332108Y347661D01*
X337301Y347661D02*
X337301Y342468D01*
X341196Y351970D02*
X332108Y354567D01*
X341196Y351970D02*
X341196Y358461D01*
X338599Y356514D02*
X343792Y356514D01*
X341196Y363400D02*
X332108Y365997D01*
X341196Y363400D02*
X341196Y369891D01*
X338599Y367944D02*
X343792Y367944D01*
X337301Y374830D02*
X337301Y378725D01*
X337303Y378824D01*
X337309Y378924D01*
X337318Y379023D01*
X337331Y379121D01*
X337348Y379219D01*
X337369Y379317D01*
X337394Y379413D01*
X337422Y379508D01*
X337454Y379602D01*
X337489Y379695D01*
X337528Y379787D01*
X337571Y379877D01*
X337616Y379965D01*
X337666Y380052D01*
X337718Y380136D01*
X337774Y380219D01*
X337832Y380299D01*
X337894Y380377D01*
X337959Y380452D01*
X338027Y380525D01*
X338097Y380595D01*
X338170Y380663D01*
X338245Y380728D01*
X338323Y380790D01*
X338403Y380848D01*
X338486Y380904D01*
X338570Y380956D01*
X338657Y381006D01*
X338745Y381051D01*
X338835Y381094D01*
X338927Y381133D01*
X339020Y381168D01*
X339114Y381200D01*
X339209Y381228D01*
X339305Y381253D01*
X339403Y381274D01*
X339501Y381291D01*
X339599Y381304D01*
X339698Y381313D01*
X339798Y381319D01*
X339897Y381321D01*
X340546Y381321D01*
X340546Y381322D02*
X340659Y381320D01*
X340772Y381314D01*
X340885Y381304D01*
X340998Y381290D01*
X341110Y381273D01*
X341221Y381251D01*
X341331Y381226D01*
X341441Y381196D01*
X341549Y381163D01*
X341656Y381126D01*
X341762Y381086D01*
X341866Y381041D01*
X341969Y380993D01*
X342070Y380942D01*
X342169Y380887D01*
X342266Y380829D01*
X342361Y380767D01*
X342454Y380702D01*
X342544Y380634D01*
X342632Y380563D01*
X342718Y380488D01*
X342801Y380411D01*
X342881Y380331D01*
X342958Y380248D01*
X343033Y380162D01*
X343104Y380074D01*
X343172Y379984D01*
X343237Y379891D01*
X343299Y379796D01*
X343357Y379699D01*
X343412Y379600D01*
X343463Y379499D01*
X343511Y379396D01*
X343556Y379292D01*
X343596Y379186D01*
X343633Y379079D01*
X343666Y378971D01*
X343696Y378861D01*
X343721Y378751D01*
X343743Y378640D01*
X343760Y378528D01*
X343774Y378415D01*
X343784Y378302D01*
X343790Y378189D01*
X343792Y378076D01*
X343790Y377963D01*
X343784Y377850D01*
X343774Y377737D01*
X343760Y377624D01*
X343743Y377512D01*
X343721Y377401D01*
X343696Y377291D01*
X343666Y377181D01*
X343633Y377073D01*
X343596Y376966D01*
X343556Y376860D01*
X343511Y376756D01*
X343463Y376653D01*
X343412Y376552D01*
X343357Y376453D01*
X343299Y376356D01*
X343237Y376261D01*
X343172Y376168D01*
X343104Y376078D01*
X343033Y375990D01*
X342958Y375904D01*
X342881Y375821D01*
X342801Y375741D01*
X342718Y375664D01*
X342632Y375589D01*
X342544Y375518D01*
X342454Y375450D01*
X342361Y375385D01*
X342266Y375323D01*
X342169Y375265D01*
X342070Y375210D01*
X341969Y375159D01*
X341866Y375111D01*
X341762Y375066D01*
X341656Y375026D01*
X341549Y374989D01*
X341441Y374956D01*
X341331Y374926D01*
X341221Y374901D01*
X341110Y374879D01*
X340998Y374862D01*
X340885Y374848D01*
X340772Y374838D01*
X340659Y374832D01*
X340546Y374830D01*
X337301Y374830D01*
X337158Y374832D01*
X337015Y374838D01*
X336872Y374848D01*
X336730Y374862D01*
X336588Y374879D01*
X336446Y374901D01*
X336305Y374926D01*
X336165Y374956D01*
X336026Y374989D01*
X335888Y375026D01*
X335751Y375067D01*
X335615Y375111D01*
X335480Y375160D01*
X335347Y375212D01*
X335215Y375267D01*
X335085Y375327D01*
X334956Y375390D01*
X334829Y375456D01*
X334705Y375526D01*
X334582Y375599D01*
X334461Y375676D01*
X334342Y375755D01*
X334226Y375839D01*
X334111Y375925D01*
X334000Y376014D01*
X333891Y376107D01*
X333784Y376202D01*
X333680Y376301D01*
X333579Y376402D01*
X333480Y376506D01*
X333385Y376612D01*
X333292Y376722D01*
X333203Y376833D01*
X333117Y376947D01*
X333034Y377064D01*
X332954Y377183D01*
X332877Y377304D01*
X332804Y377426D01*
X332734Y377551D01*
X332668Y377678D01*
X332605Y377807D01*
X332545Y377937D01*
X332490Y378069D01*
X332438Y378202D01*
X332389Y378337D01*
X332345Y378473D01*
X332304Y378610D01*
X332267Y378748D01*
X332234Y378887D01*
X332204Y379027D01*
X332179Y379168D01*
X332157Y379310D01*
X332140Y379452D01*
X332126Y379594D01*
X332116Y379737D01*
X332110Y379880D01*
X332108Y380023D01*
X343792Y386260D02*
X343792Y389506D01*
X343790Y389619D01*
X343784Y389732D01*
X343774Y389845D01*
X343760Y389958D01*
X343743Y390070D01*
X343721Y390181D01*
X343696Y390291D01*
X343666Y390401D01*
X343633Y390509D01*
X343596Y390616D01*
X343556Y390722D01*
X343511Y390826D01*
X343463Y390929D01*
X343412Y391030D01*
X343357Y391129D01*
X343299Y391226D01*
X343237Y391321D01*
X343172Y391414D01*
X343104Y391504D01*
X343033Y391592D01*
X342958Y391678D01*
X342881Y391761D01*
X342801Y391841D01*
X342718Y391918D01*
X342632Y391993D01*
X342544Y392064D01*
X342454Y392132D01*
X342361Y392197D01*
X342266Y392259D01*
X342169Y392317D01*
X342070Y392372D01*
X341969Y392423D01*
X341866Y392471D01*
X341762Y392516D01*
X341656Y392556D01*
X341549Y392593D01*
X341441Y392626D01*
X341331Y392656D01*
X341221Y392681D01*
X341110Y392703D01*
X340998Y392720D01*
X340885Y392734D01*
X340772Y392744D01*
X340659Y392750D01*
X340546Y392752D01*
X340433Y392750D01*
X340320Y392744D01*
X340207Y392734D01*
X340094Y392720D01*
X339982Y392703D01*
X339871Y392681D01*
X339761Y392656D01*
X339651Y392626D01*
X339543Y392593D01*
X339436Y392556D01*
X339330Y392516D01*
X339226Y392471D01*
X339123Y392423D01*
X339022Y392372D01*
X338923Y392317D01*
X338826Y392259D01*
X338731Y392197D01*
X338638Y392132D01*
X338548Y392064D01*
X338460Y391993D01*
X338374Y391918D01*
X338291Y391841D01*
X338211Y391761D01*
X338134Y391678D01*
X338059Y391592D01*
X337988Y391504D01*
X337920Y391414D01*
X337855Y391321D01*
X337793Y391226D01*
X337735Y391129D01*
X337680Y391030D01*
X337629Y390929D01*
X337581Y390826D01*
X337536Y390722D01*
X337496Y390616D01*
X337459Y390509D01*
X337426Y390401D01*
X337396Y390291D01*
X337371Y390181D01*
X337349Y390070D01*
X337332Y389958D01*
X337318Y389845D01*
X337308Y389732D01*
X337302Y389619D01*
X337300Y389506D01*
X332108Y390155D02*
X332108Y386260D01*
X332108Y390155D02*
X332110Y390256D01*
X332116Y390356D01*
X332126Y390456D01*
X332139Y390556D01*
X332157Y390655D01*
X332178Y390754D01*
X332203Y390851D01*
X332232Y390948D01*
X332265Y391043D01*
X332301Y391137D01*
X332341Y391229D01*
X332384Y391320D01*
X332431Y391409D01*
X332481Y391496D01*
X332535Y391582D01*
X332592Y391665D01*
X332652Y391745D01*
X332715Y391824D01*
X332782Y391900D01*
X332851Y391973D01*
X332923Y392043D01*
X332997Y392111D01*
X333074Y392176D01*
X333154Y392237D01*
X333236Y392296D01*
X333320Y392351D01*
X333406Y392403D01*
X333494Y392452D01*
X333584Y392497D01*
X333676Y392539D01*
X333769Y392577D01*
X333864Y392611D01*
X333959Y392642D01*
X334056Y392669D01*
X334154Y392692D01*
X334253Y392712D01*
X334353Y392727D01*
X334453Y392739D01*
X334553Y392747D01*
X334654Y392751D01*
X334754Y392751D01*
X334855Y392747D01*
X334955Y392739D01*
X335055Y392727D01*
X335155Y392712D01*
X335254Y392692D01*
X335352Y392669D01*
X335449Y392642D01*
X335544Y392611D01*
X335639Y392577D01*
X335732Y392539D01*
X335824Y392497D01*
X335914Y392452D01*
X336002Y392403D01*
X336088Y392351D01*
X336172Y392296D01*
X336254Y392237D01*
X336334Y392176D01*
X336411Y392111D01*
X336485Y392043D01*
X336557Y391973D01*
X336626Y391900D01*
X336693Y391824D01*
X336756Y391745D01*
X336816Y391665D01*
X336873Y391582D01*
X336927Y391496D01*
X336977Y391409D01*
X337024Y391320D01*
X337067Y391229D01*
X337107Y391137D01*
X337143Y391043D01*
X337176Y390948D01*
X337205Y390851D01*
X337230Y390754D01*
X337251Y390655D01*
X337269Y390556D01*
X337282Y390456D01*
X337292Y390356D01*
X337298Y390256D01*
X337300Y390155D01*
X337301Y390155D02*
X337301Y387558D01*
X332108Y398094D02*
X343792Y398094D01*
X332108Y398094D02*
X332108Y403287D01*
X337301Y403287D02*
X337301Y398094D01*
X343792Y407596D02*
X343792Y410842D01*
X343790Y410955D01*
X343784Y411068D01*
X343774Y411181D01*
X343760Y411294D01*
X343743Y411406D01*
X343721Y411517D01*
X343696Y411627D01*
X343666Y411737D01*
X343633Y411845D01*
X343596Y411952D01*
X343556Y412058D01*
X343511Y412162D01*
X343463Y412265D01*
X343412Y412366D01*
X343357Y412465D01*
X343299Y412562D01*
X343237Y412657D01*
X343172Y412750D01*
X343104Y412840D01*
X343033Y412928D01*
X342958Y413014D01*
X342881Y413097D01*
X342801Y413177D01*
X342718Y413254D01*
X342632Y413329D01*
X342544Y413400D01*
X342454Y413468D01*
X342361Y413533D01*
X342266Y413595D01*
X342169Y413653D01*
X342070Y413708D01*
X341969Y413759D01*
X341866Y413807D01*
X341762Y413852D01*
X341656Y413892D01*
X341549Y413929D01*
X341441Y413962D01*
X341331Y413992D01*
X341221Y414017D01*
X341110Y414039D01*
X340998Y414056D01*
X340885Y414070D01*
X340772Y414080D01*
X340659Y414086D01*
X340546Y414088D01*
X340433Y414086D01*
X340320Y414080D01*
X340207Y414070D01*
X340094Y414056D01*
X339982Y414039D01*
X339871Y414017D01*
X339761Y413992D01*
X339651Y413962D01*
X339543Y413929D01*
X339436Y413892D01*
X339330Y413852D01*
X339226Y413807D01*
X339123Y413759D01*
X339022Y413708D01*
X338923Y413653D01*
X338826Y413595D01*
X338731Y413533D01*
X338638Y413468D01*
X338548Y413400D01*
X338460Y413329D01*
X338374Y413254D01*
X338291Y413177D01*
X338211Y413097D01*
X338134Y413014D01*
X338059Y412928D01*
X337988Y412840D01*
X337920Y412750D01*
X337855Y412657D01*
X337793Y412562D01*
X337735Y412465D01*
X337680Y412366D01*
X337629Y412265D01*
X337581Y412162D01*
X337536Y412058D01*
X337496Y411952D01*
X337459Y411845D01*
X337426Y411737D01*
X337396Y411627D01*
X337371Y411517D01*
X337349Y411406D01*
X337332Y411294D01*
X337318Y411181D01*
X337308Y411068D01*
X337302Y410955D01*
X337300Y410842D01*
X332108Y411491D02*
X332108Y407596D01*
X332108Y411491D02*
X332110Y411592D01*
X332116Y411692D01*
X332126Y411792D01*
X332139Y411892D01*
X332157Y411991D01*
X332178Y412090D01*
X332203Y412187D01*
X332232Y412284D01*
X332265Y412379D01*
X332301Y412473D01*
X332341Y412565D01*
X332384Y412656D01*
X332431Y412745D01*
X332481Y412832D01*
X332535Y412918D01*
X332592Y413001D01*
X332652Y413081D01*
X332715Y413160D01*
X332782Y413236D01*
X332851Y413309D01*
X332923Y413379D01*
X332997Y413447D01*
X333074Y413512D01*
X333154Y413573D01*
X333236Y413632D01*
X333320Y413687D01*
X333406Y413739D01*
X333494Y413788D01*
X333584Y413833D01*
X333676Y413875D01*
X333769Y413913D01*
X333864Y413947D01*
X333959Y413978D01*
X334056Y414005D01*
X334154Y414028D01*
X334253Y414048D01*
X334353Y414063D01*
X334453Y414075D01*
X334553Y414083D01*
X334654Y414087D01*
X334754Y414087D01*
X334855Y414083D01*
X334955Y414075D01*
X335055Y414063D01*
X335155Y414048D01*
X335254Y414028D01*
X335352Y414005D01*
X335449Y413978D01*
X335544Y413947D01*
X335639Y413913D01*
X335732Y413875D01*
X335824Y413833D01*
X335914Y413788D01*
X336002Y413739D01*
X336088Y413687D01*
X336172Y413632D01*
X336254Y413573D01*
X336334Y413512D01*
X336411Y413447D01*
X336485Y413379D01*
X336557Y413309D01*
X336626Y413236D01*
X336693Y413160D01*
X336756Y413081D01*
X336816Y413001D01*
X336873Y412918D01*
X336927Y412832D01*
X336977Y412745D01*
X337024Y412656D01*
X337067Y412565D01*
X337107Y412473D01*
X337143Y412379D01*
X337176Y412284D01*
X337205Y412187D01*
X337230Y412090D01*
X337251Y411991D01*
X337269Y411892D01*
X337282Y411792D01*
X337292Y411692D01*
X337298Y411592D01*
X337300Y411491D01*
X337301Y411491D02*
X337301Y408894D01*
X337950Y419026D02*
X337720Y419029D01*
X337490Y419037D01*
X337261Y419051D01*
X337032Y419070D01*
X336803Y419095D01*
X336575Y419125D01*
X336348Y419160D01*
X336122Y419201D01*
X335897Y419247D01*
X335673Y419299D01*
X335450Y419356D01*
X335229Y419418D01*
X335009Y419486D01*
X334791Y419559D01*
X334575Y419637D01*
X334361Y419720D01*
X334149Y419808D01*
X333938Y419901D01*
X333731Y420000D01*
X333641Y420033D01*
X333552Y420069D01*
X333464Y420109D01*
X333379Y420153D01*
X333295Y420200D01*
X333213Y420250D01*
X333133Y420304D01*
X333056Y420360D01*
X332980Y420420D01*
X332907Y420483D01*
X332837Y420548D01*
X332769Y420617D01*
X332705Y420688D01*
X332643Y420761D01*
X332584Y420837D01*
X332528Y420915D01*
X332475Y420996D01*
X332426Y421078D01*
X332380Y421162D01*
X332337Y421249D01*
X332298Y421336D01*
X332262Y421426D01*
X332230Y421516D01*
X332202Y421608D01*
X332177Y421701D01*
X332156Y421795D01*
X332139Y421889D01*
X332125Y421984D01*
X332116Y422080D01*
X332110Y422176D01*
X332108Y422272D01*
X332110Y422368D01*
X332116Y422464D01*
X332125Y422560D01*
X332139Y422655D01*
X332156Y422749D01*
X332177Y422843D01*
X332202Y422936D01*
X332230Y423028D01*
X332262Y423118D01*
X332298Y423208D01*
X332337Y423296D01*
X332380Y423382D01*
X332426Y423466D01*
X332475Y423548D01*
X332528Y423629D01*
X332584Y423707D01*
X332643Y423783D01*
X332705Y423856D01*
X332769Y423927D01*
X332837Y423996D01*
X332907Y424061D01*
X332980Y424124D01*
X333056Y424184D01*
X333133Y424240D01*
X333213Y424294D01*
X333295Y424344D01*
X333379Y424391D01*
X333464Y424435D01*
X333552Y424475D01*
X333641Y424511D01*
X333731Y424544D01*
X333938Y424643D01*
X334149Y424736D01*
X334361Y424824D01*
X334575Y424907D01*
X334791Y424985D01*
X335009Y425058D01*
X335229Y425126D01*
X335450Y425188D01*
X335673Y425245D01*
X335897Y425297D01*
X336122Y425343D01*
X336348Y425384D01*
X336575Y425419D01*
X336803Y425449D01*
X337032Y425474D01*
X337261Y425493D01*
X337490Y425507D01*
X337720Y425515D01*
X337950Y425518D01*
X337950Y419026D02*
X338180Y419029D01*
X338410Y419037D01*
X338639Y419051D01*
X338868Y419070D01*
X339097Y419095D01*
X339325Y419125D01*
X339552Y419160D01*
X339778Y419201D01*
X340003Y419247D01*
X340227Y419299D01*
X340450Y419356D01*
X340671Y419418D01*
X340891Y419486D01*
X341109Y419559D01*
X341325Y419637D01*
X341539Y419720D01*
X341751Y419808D01*
X341962Y419901D01*
X342169Y420000D01*
X342259Y420033D01*
X342348Y420069D01*
X342436Y420110D01*
X342521Y420153D01*
X342605Y420200D01*
X342687Y420250D01*
X342767Y420304D01*
X342844Y420360D01*
X342920Y420420D01*
X342993Y420483D01*
X343063Y420548D01*
X343131Y420617D01*
X343195Y420688D01*
X343257Y420761D01*
X343316Y420837D01*
X343372Y420915D01*
X343425Y420996D01*
X343474Y421078D01*
X343520Y421162D01*
X343563Y421249D01*
X343602Y421336D01*
X343638Y421426D01*
X343670Y421516D01*
X343698Y421608D01*
X343723Y421701D01*
X343744Y421795D01*
X343761Y421889D01*
X343775Y421984D01*
X343784Y422080D01*
X343790Y422176D01*
X343792Y422272D01*
X342169Y424544D02*
X341962Y424643D01*
X341751Y424736D01*
X341539Y424824D01*
X341325Y424907D01*
X341109Y424985D01*
X340891Y425058D01*
X340671Y425126D01*
X340450Y425188D01*
X340227Y425245D01*
X340003Y425297D01*
X339778Y425343D01*
X339552Y425384D01*
X339325Y425419D01*
X339097Y425449D01*
X338868Y425474D01*
X338639Y425493D01*
X338410Y425507D01*
X338180Y425515D01*
X337950Y425518D01*
X342169Y424544D02*
X342259Y424511D01*
X342348Y424475D01*
X342436Y424435D01*
X342521Y424391D01*
X342605Y424344D01*
X342687Y424294D01*
X342767Y424240D01*
X342844Y424184D01*
X342920Y424124D01*
X342993Y424061D01*
X343063Y423996D01*
X343131Y423927D01*
X343195Y423856D01*
X343257Y423783D01*
X343316Y423707D01*
X343372Y423629D01*
X343425Y423548D01*
X343474Y423466D01*
X343520Y423382D01*
X343563Y423295D01*
X343602Y423208D01*
X343638Y423118D01*
X343670Y423028D01*
X343698Y422936D01*
X343723Y422843D01*
X343744Y422749D01*
X343761Y422655D01*
X343775Y422560D01*
X343784Y422464D01*
X343790Y422368D01*
X343792Y422272D01*
X341196Y419675D02*
X334704Y424868D01*
D14*
X477950Y82800D02*
X499950Y82800D01*
X520950Y61800D02*
X520950Y39800D01*
X499950Y18800D02*
X477950Y18800D01*
X456950Y39800D02*
X456950Y61800D01*
X471950Y50800D02*
X471955Y51217D01*
X471970Y51634D01*
X471996Y52051D01*
X472032Y52466D01*
X472078Y52881D01*
X472134Y53294D01*
X472200Y53706D01*
X472277Y54117D01*
X472363Y54525D01*
X472459Y54931D01*
X472566Y55334D01*
X472682Y55735D01*
X472808Y56133D01*
X472944Y56527D01*
X473089Y56918D01*
X473244Y57306D01*
X473408Y57689D01*
X473582Y58068D01*
X473765Y58443D01*
X473957Y58814D01*
X474159Y59179D01*
X474369Y59540D01*
X474587Y59895D01*
X474815Y60245D01*
X475051Y60589D01*
X475295Y60927D01*
X475548Y61259D01*
X475809Y61585D01*
X476077Y61904D01*
X476354Y62217D01*
X476638Y62522D01*
X476929Y62821D01*
X477228Y63112D01*
X477533Y63396D01*
X477846Y63673D01*
X478165Y63941D01*
X478491Y64202D01*
X478823Y64455D01*
X479161Y64699D01*
X479505Y64935D01*
X479855Y65163D01*
X480210Y65381D01*
X480571Y65591D01*
X480936Y65793D01*
X481307Y65985D01*
X481682Y66168D01*
X482061Y66342D01*
X482444Y66506D01*
X482832Y66661D01*
X483223Y66806D01*
X483617Y66942D01*
X484015Y67068D01*
X484416Y67184D01*
X484819Y67291D01*
X485225Y67387D01*
X485633Y67473D01*
X486044Y67550D01*
X486456Y67616D01*
X486869Y67672D01*
X487284Y67718D01*
X487699Y67754D01*
X488116Y67780D01*
X488533Y67795D01*
X488950Y67800D01*
X489367Y67795D01*
X489784Y67780D01*
X490201Y67754D01*
X490616Y67718D01*
X491031Y67672D01*
X491444Y67616D01*
X491856Y67550D01*
X492267Y67473D01*
X492675Y67387D01*
X493081Y67291D01*
X493484Y67184D01*
X493885Y67068D01*
X494283Y66942D01*
X494677Y66806D01*
X495068Y66661D01*
X495456Y66506D01*
X495839Y66342D01*
X496218Y66168D01*
X496593Y65985D01*
X496964Y65793D01*
X497329Y65591D01*
X497690Y65381D01*
X498045Y65163D01*
X498395Y64935D01*
X498739Y64699D01*
X499077Y64455D01*
X499409Y64202D01*
X499735Y63941D01*
X500054Y63673D01*
X500367Y63396D01*
X500672Y63112D01*
X500971Y62821D01*
X501262Y62522D01*
X501546Y62217D01*
X501823Y61904D01*
X502091Y61585D01*
X502352Y61259D01*
X502605Y60927D01*
X502849Y60589D01*
X503085Y60245D01*
X503313Y59895D01*
X503531Y59540D01*
X503741Y59179D01*
X503943Y58814D01*
X504135Y58443D01*
X504318Y58068D01*
X504492Y57689D01*
X504656Y57306D01*
X504811Y56918D01*
X504956Y56527D01*
X505092Y56133D01*
X505218Y55735D01*
X505334Y55334D01*
X505441Y54931D01*
X505537Y54525D01*
X505623Y54117D01*
X505700Y53706D01*
X505766Y53294D01*
X505822Y52881D01*
X505868Y52466D01*
X505904Y52051D01*
X505930Y51634D01*
X505945Y51217D01*
X505950Y50800D01*
X505945Y50383D01*
X505930Y49966D01*
X505904Y49549D01*
X505868Y49134D01*
X505822Y48719D01*
X505766Y48306D01*
X505700Y47894D01*
X505623Y47483D01*
X505537Y47075D01*
X505441Y46669D01*
X505334Y46266D01*
X505218Y45865D01*
X505092Y45467D01*
X504956Y45073D01*
X504811Y44682D01*
X504656Y44294D01*
X504492Y43911D01*
X504318Y43532D01*
X504135Y43157D01*
X503943Y42786D01*
X503741Y42421D01*
X503531Y42060D01*
X503313Y41705D01*
X503085Y41355D01*
X502849Y41011D01*
X502605Y40673D01*
X502352Y40341D01*
X502091Y40015D01*
X501823Y39696D01*
X501546Y39383D01*
X501262Y39078D01*
X500971Y38779D01*
X500672Y38488D01*
X500367Y38204D01*
X500054Y37927D01*
X499735Y37659D01*
X499409Y37398D01*
X499077Y37145D01*
X498739Y36901D01*
X498395Y36665D01*
X498045Y36437D01*
X497690Y36219D01*
X497329Y36009D01*
X496964Y35807D01*
X496593Y35615D01*
X496218Y35432D01*
X495839Y35258D01*
X495456Y35094D01*
X495068Y34939D01*
X494677Y34794D01*
X494283Y34658D01*
X493885Y34532D01*
X493484Y34416D01*
X493081Y34309D01*
X492675Y34213D01*
X492267Y34127D01*
X491856Y34050D01*
X491444Y33984D01*
X491031Y33928D01*
X490616Y33882D01*
X490201Y33846D01*
X489784Y33820D01*
X489367Y33805D01*
X488950Y33800D01*
X488533Y33805D01*
X488116Y33820D01*
X487699Y33846D01*
X487284Y33882D01*
X486869Y33928D01*
X486456Y33984D01*
X486044Y34050D01*
X485633Y34127D01*
X485225Y34213D01*
X484819Y34309D01*
X484416Y34416D01*
X484015Y34532D01*
X483617Y34658D01*
X483223Y34794D01*
X482832Y34939D01*
X482444Y35094D01*
X482061Y35258D01*
X481682Y35432D01*
X481307Y35615D01*
X480936Y35807D01*
X480571Y36009D01*
X480210Y36219D01*
X479855Y36437D01*
X479505Y36665D01*
X479161Y36901D01*
X478823Y37145D01*
X478491Y37398D01*
X478165Y37659D01*
X477846Y37927D01*
X477533Y38204D01*
X477228Y38488D01*
X476929Y38779D01*
X476638Y39078D01*
X476354Y39383D01*
X476077Y39696D01*
X475809Y40015D01*
X475548Y40341D01*
X475295Y40673D01*
X475051Y41011D01*
X474815Y41355D01*
X474587Y41705D01*
X474369Y42060D01*
X474159Y42421D01*
X473957Y42786D01*
X473765Y43157D01*
X473582Y43532D01*
X473408Y43911D01*
X473244Y44294D01*
X473089Y44682D01*
X472944Y45073D01*
X472808Y45467D01*
X472682Y45865D01*
X472566Y46266D01*
X472459Y46669D01*
X472363Y47075D01*
X472277Y47483D01*
X472200Y47894D01*
X472134Y48306D01*
X472078Y48719D01*
X472032Y49134D01*
X471996Y49549D01*
X471970Y49966D01*
X471955Y50383D01*
X471950Y50800D01*
M02*
