G04 EAGLE Gerber RS-274X export*
G75*
%MOMM*%
%FSLAX34Y34*%
%LPD*%
%INSoldermask Bottom*%
%IPPOS*%
%AMOC8*
5,1,8,0,0,1.08239X$1,22.5*%
G01*
%ADD10C,0.152400*%
%ADD11R,1.703200X2.203200*%
%ADD12R,2.203200X1.703200*%
%ADD13R,2.183200X2.183200*%
%ADD14C,2.183200*%
%ADD15P,2.363074X8X22.500000*%
%ADD16R,2.363200X2.363200*%
%ADD17C,2.363200*%
%ADD18C,2.003200*%
%ADD19C,2.489200*%
%ADD20C,3.403600*%
%ADD21C,1.355600*%
%ADD22C,0.755600*%
%ADD23C,1.155600*%


D10*
X288997Y37338D02*
X288997Y24694D01*
X288998Y24694D02*
X289000Y24576D01*
X289006Y24458D01*
X289015Y24340D01*
X289029Y24223D01*
X289046Y24106D01*
X289067Y23989D01*
X289092Y23874D01*
X289121Y23759D01*
X289154Y23645D01*
X289190Y23533D01*
X289230Y23422D01*
X289273Y23312D01*
X289320Y23203D01*
X289370Y23096D01*
X289425Y22991D01*
X289482Y22888D01*
X289543Y22787D01*
X289607Y22687D01*
X289674Y22590D01*
X289744Y22495D01*
X289818Y22403D01*
X289894Y22312D01*
X289974Y22225D01*
X290056Y22140D01*
X290141Y22058D01*
X290228Y21978D01*
X290319Y21902D01*
X290411Y21828D01*
X290506Y21758D01*
X290603Y21691D01*
X290703Y21627D01*
X290804Y21566D01*
X290907Y21509D01*
X291012Y21454D01*
X291119Y21404D01*
X291228Y21357D01*
X291338Y21314D01*
X291449Y21274D01*
X291561Y21238D01*
X291675Y21205D01*
X291790Y21176D01*
X291905Y21151D01*
X292022Y21130D01*
X292139Y21113D01*
X292256Y21099D01*
X292374Y21090D01*
X292492Y21084D01*
X292610Y21082D01*
X294416Y21082D01*
X279360Y21082D02*
X274844Y21082D01*
X279360Y21082D02*
X279461Y21084D01*
X279562Y21090D01*
X279663Y21099D01*
X279764Y21112D01*
X279864Y21129D01*
X279963Y21150D01*
X280061Y21174D01*
X280158Y21202D01*
X280255Y21234D01*
X280350Y21269D01*
X280443Y21308D01*
X280535Y21350D01*
X280626Y21396D01*
X280715Y21445D01*
X280801Y21497D01*
X280886Y21553D01*
X280969Y21611D01*
X281049Y21673D01*
X281127Y21738D01*
X281203Y21805D01*
X281276Y21875D01*
X281346Y21948D01*
X281413Y22024D01*
X281478Y22102D01*
X281540Y22182D01*
X281598Y22265D01*
X281654Y22350D01*
X281706Y22436D01*
X281755Y22525D01*
X281801Y22616D01*
X281843Y22708D01*
X281882Y22801D01*
X281917Y22896D01*
X281949Y22993D01*
X281977Y23090D01*
X282001Y23188D01*
X282022Y23287D01*
X282039Y23387D01*
X282052Y23488D01*
X282061Y23589D01*
X282067Y23690D01*
X282069Y23791D01*
X282069Y28307D01*
X282067Y28426D01*
X282061Y28546D01*
X282051Y28665D01*
X282037Y28783D01*
X282020Y28902D01*
X281998Y29019D01*
X281973Y29136D01*
X281943Y29251D01*
X281910Y29366D01*
X281873Y29480D01*
X281833Y29592D01*
X281788Y29703D01*
X281740Y29812D01*
X281689Y29920D01*
X281634Y30026D01*
X281575Y30130D01*
X281513Y30232D01*
X281448Y30332D01*
X281379Y30430D01*
X281307Y30526D01*
X281232Y30619D01*
X281155Y30709D01*
X281074Y30797D01*
X280990Y30882D01*
X280903Y30964D01*
X280814Y31044D01*
X280722Y31120D01*
X280628Y31194D01*
X280531Y31264D01*
X280433Y31331D01*
X280332Y31395D01*
X280228Y31455D01*
X280123Y31512D01*
X280016Y31565D01*
X279908Y31615D01*
X279798Y31661D01*
X279686Y31703D01*
X279573Y31742D01*
X279459Y31777D01*
X279344Y31808D01*
X279227Y31836D01*
X279110Y31859D01*
X278993Y31879D01*
X278874Y31895D01*
X278755Y31907D01*
X278636Y31915D01*
X278517Y31919D01*
X278397Y31919D01*
X278278Y31915D01*
X278159Y31907D01*
X278040Y31895D01*
X277921Y31879D01*
X277804Y31859D01*
X277687Y31836D01*
X277570Y31808D01*
X277455Y31777D01*
X277341Y31742D01*
X277228Y31703D01*
X277116Y31661D01*
X277006Y31615D01*
X276898Y31565D01*
X276791Y31512D01*
X276686Y31455D01*
X276582Y31395D01*
X276481Y31331D01*
X276383Y31264D01*
X276286Y31194D01*
X276192Y31120D01*
X276100Y31044D01*
X276011Y30964D01*
X275924Y30882D01*
X275840Y30797D01*
X275759Y30709D01*
X275682Y30619D01*
X275607Y30526D01*
X275535Y30430D01*
X275466Y30332D01*
X275401Y30232D01*
X275339Y30130D01*
X275280Y30026D01*
X275225Y29920D01*
X275174Y29812D01*
X275126Y29703D01*
X275081Y29592D01*
X275041Y29480D01*
X275004Y29366D01*
X274971Y29251D01*
X274941Y29136D01*
X274916Y29019D01*
X274894Y28902D01*
X274877Y28783D01*
X274863Y28665D01*
X274853Y28546D01*
X274847Y28426D01*
X274845Y28307D01*
X274844Y28307D02*
X274844Y26501D01*
X282069Y26501D01*
X268285Y23791D02*
X268285Y37338D01*
X268285Y23791D02*
X268283Y23690D01*
X268277Y23589D01*
X268268Y23488D01*
X268255Y23387D01*
X268238Y23287D01*
X268217Y23188D01*
X268193Y23090D01*
X268165Y22993D01*
X268133Y22896D01*
X268098Y22801D01*
X268059Y22708D01*
X268017Y22616D01*
X267971Y22525D01*
X267922Y22436D01*
X267870Y22350D01*
X267814Y22265D01*
X267756Y22182D01*
X267694Y22102D01*
X267629Y22024D01*
X267562Y21948D01*
X267492Y21875D01*
X267419Y21805D01*
X267343Y21738D01*
X267265Y21673D01*
X267185Y21611D01*
X267102Y21553D01*
X267017Y21497D01*
X266931Y21445D01*
X266842Y21396D01*
X266751Y21350D01*
X266659Y21308D01*
X266566Y21269D01*
X266471Y21234D01*
X266374Y21202D01*
X266277Y21174D01*
X266179Y21150D01*
X266080Y21129D01*
X265980Y21112D01*
X265879Y21099D01*
X265778Y21090D01*
X265677Y21084D01*
X265576Y21082D01*
X259386Y21082D02*
X259386Y31919D01*
X251258Y31919D01*
X251157Y31917D01*
X251056Y31911D01*
X250955Y31902D01*
X250854Y31889D01*
X250754Y31872D01*
X250655Y31851D01*
X250557Y31827D01*
X250460Y31799D01*
X250363Y31767D01*
X250268Y31732D01*
X250175Y31693D01*
X250083Y31651D01*
X249992Y31605D01*
X249904Y31556D01*
X249817Y31504D01*
X249732Y31448D01*
X249649Y31390D01*
X249569Y31328D01*
X249491Y31263D01*
X249415Y31196D01*
X249342Y31126D01*
X249272Y31053D01*
X249205Y30977D01*
X249140Y30899D01*
X249078Y30819D01*
X249020Y30736D01*
X248964Y30651D01*
X248912Y30564D01*
X248863Y30476D01*
X248817Y30385D01*
X248775Y30293D01*
X248736Y30200D01*
X248701Y30105D01*
X248669Y30008D01*
X248641Y29911D01*
X248617Y29813D01*
X248596Y29714D01*
X248579Y29614D01*
X248566Y29513D01*
X248557Y29412D01*
X248551Y29311D01*
X248549Y29210D01*
X248549Y21082D01*
X253968Y21082D02*
X253968Y31919D01*
X238718Y21082D02*
X234203Y21082D01*
X238718Y21082D02*
X238819Y21084D01*
X238920Y21090D01*
X239021Y21099D01*
X239122Y21112D01*
X239222Y21129D01*
X239321Y21150D01*
X239419Y21174D01*
X239516Y21202D01*
X239613Y21234D01*
X239708Y21269D01*
X239801Y21308D01*
X239893Y21350D01*
X239984Y21396D01*
X240073Y21445D01*
X240159Y21497D01*
X240244Y21553D01*
X240327Y21611D01*
X240407Y21673D01*
X240485Y21738D01*
X240561Y21805D01*
X240634Y21875D01*
X240704Y21948D01*
X240771Y22024D01*
X240836Y22102D01*
X240898Y22182D01*
X240956Y22265D01*
X241012Y22350D01*
X241064Y22436D01*
X241113Y22525D01*
X241159Y22616D01*
X241201Y22708D01*
X241240Y22801D01*
X241275Y22896D01*
X241307Y22993D01*
X241335Y23090D01*
X241359Y23188D01*
X241380Y23287D01*
X241397Y23387D01*
X241410Y23488D01*
X241419Y23589D01*
X241425Y23690D01*
X241427Y23791D01*
X241428Y23791D02*
X241428Y28307D01*
X241427Y28307D02*
X241425Y28426D01*
X241419Y28546D01*
X241409Y28665D01*
X241395Y28783D01*
X241378Y28902D01*
X241356Y29019D01*
X241331Y29136D01*
X241301Y29251D01*
X241268Y29366D01*
X241231Y29480D01*
X241191Y29592D01*
X241146Y29703D01*
X241098Y29812D01*
X241047Y29920D01*
X240992Y30026D01*
X240933Y30130D01*
X240871Y30232D01*
X240806Y30332D01*
X240737Y30430D01*
X240665Y30526D01*
X240590Y30619D01*
X240513Y30709D01*
X240432Y30797D01*
X240348Y30882D01*
X240261Y30964D01*
X240172Y31044D01*
X240080Y31120D01*
X239986Y31194D01*
X239889Y31264D01*
X239791Y31331D01*
X239690Y31395D01*
X239586Y31455D01*
X239481Y31512D01*
X239374Y31565D01*
X239266Y31615D01*
X239156Y31661D01*
X239044Y31703D01*
X238931Y31742D01*
X238817Y31777D01*
X238702Y31808D01*
X238585Y31836D01*
X238468Y31859D01*
X238351Y31879D01*
X238232Y31895D01*
X238113Y31907D01*
X237994Y31915D01*
X237875Y31919D01*
X237755Y31919D01*
X237636Y31915D01*
X237517Y31907D01*
X237398Y31895D01*
X237279Y31879D01*
X237162Y31859D01*
X237045Y31836D01*
X236928Y31808D01*
X236813Y31777D01*
X236699Y31742D01*
X236586Y31703D01*
X236474Y31661D01*
X236364Y31615D01*
X236256Y31565D01*
X236149Y31512D01*
X236044Y31455D01*
X235940Y31395D01*
X235839Y31331D01*
X235741Y31264D01*
X235644Y31194D01*
X235550Y31120D01*
X235458Y31044D01*
X235369Y30964D01*
X235282Y30882D01*
X235198Y30797D01*
X235117Y30709D01*
X235040Y30619D01*
X234965Y30526D01*
X234893Y30430D01*
X234824Y30332D01*
X234759Y30232D01*
X234697Y30130D01*
X234638Y30026D01*
X234583Y29920D01*
X234532Y29812D01*
X234484Y29703D01*
X234439Y29592D01*
X234399Y29480D01*
X234362Y29366D01*
X234329Y29251D01*
X234299Y29136D01*
X234274Y29019D01*
X234252Y28902D01*
X234235Y28783D01*
X234221Y28665D01*
X234211Y28546D01*
X234205Y28426D01*
X234203Y28307D01*
X234203Y26501D01*
X241428Y26501D01*
X227275Y21082D02*
X227275Y31919D01*
X221856Y31919D01*
X221856Y30113D01*
X218016Y37338D02*
X218016Y40950D01*
X211416Y27404D02*
X206900Y25598D01*
X211416Y27404D02*
X211504Y27441D01*
X211590Y27482D01*
X211675Y27526D01*
X211758Y27574D01*
X211838Y27625D01*
X211917Y27679D01*
X211993Y27737D01*
X212067Y27797D01*
X212139Y27861D01*
X212207Y27927D01*
X212273Y27997D01*
X212336Y28068D01*
X212397Y28143D01*
X212454Y28219D01*
X212507Y28298D01*
X212558Y28379D01*
X212605Y28462D01*
X212649Y28547D01*
X212689Y28634D01*
X212726Y28722D01*
X212759Y28812D01*
X212789Y28903D01*
X212814Y28995D01*
X212836Y29088D01*
X212854Y29182D01*
X212869Y29276D01*
X212879Y29371D01*
X212885Y29467D01*
X212888Y29562D01*
X212887Y29658D01*
X212881Y29753D01*
X212872Y29849D01*
X212859Y29943D01*
X212843Y30037D01*
X212822Y30131D01*
X212797Y30223D01*
X212769Y30314D01*
X212737Y30404D01*
X212702Y30493D01*
X212663Y30580D01*
X212620Y30666D01*
X212574Y30750D01*
X212524Y30831D01*
X212472Y30911D01*
X212416Y30989D01*
X212356Y31064D01*
X212294Y31136D01*
X212229Y31206D01*
X212161Y31274D01*
X212091Y31338D01*
X212018Y31400D01*
X211942Y31458D01*
X211864Y31514D01*
X211784Y31566D01*
X211702Y31615D01*
X211618Y31660D01*
X211532Y31702D01*
X211445Y31741D01*
X211356Y31776D01*
X211265Y31807D01*
X211174Y31834D01*
X211081Y31858D01*
X210988Y31878D01*
X210894Y31894D01*
X210799Y31906D01*
X210704Y31915D01*
X210608Y31919D01*
X210513Y31920D01*
X210266Y31913D01*
X210020Y31901D01*
X209774Y31883D01*
X209528Y31858D01*
X209284Y31828D01*
X209040Y31792D01*
X208797Y31751D01*
X208555Y31703D01*
X208314Y31649D01*
X208075Y31590D01*
X207837Y31525D01*
X207601Y31454D01*
X207366Y31378D01*
X207133Y31296D01*
X206903Y31208D01*
X206675Y31115D01*
X206448Y31017D01*
X206900Y25597D02*
X206812Y25560D01*
X206726Y25519D01*
X206641Y25475D01*
X206558Y25427D01*
X206478Y25376D01*
X206399Y25322D01*
X206323Y25264D01*
X206249Y25204D01*
X206177Y25140D01*
X206109Y25074D01*
X206043Y25004D01*
X205980Y24933D01*
X205919Y24858D01*
X205862Y24782D01*
X205809Y24703D01*
X205758Y24622D01*
X205711Y24539D01*
X205667Y24454D01*
X205627Y24367D01*
X205590Y24279D01*
X205557Y24189D01*
X205527Y24098D01*
X205502Y24006D01*
X205480Y23913D01*
X205462Y23819D01*
X205447Y23725D01*
X205437Y23630D01*
X205431Y23534D01*
X205428Y23439D01*
X205429Y23343D01*
X205435Y23248D01*
X205444Y23152D01*
X205457Y23058D01*
X205473Y22964D01*
X205494Y22870D01*
X205519Y22778D01*
X205547Y22687D01*
X205579Y22597D01*
X205614Y22508D01*
X205653Y22421D01*
X205696Y22335D01*
X205742Y22251D01*
X205792Y22170D01*
X205844Y22090D01*
X205900Y22012D01*
X205960Y21937D01*
X206022Y21865D01*
X206087Y21795D01*
X206155Y21727D01*
X206225Y21663D01*
X206298Y21601D01*
X206374Y21543D01*
X206452Y21487D01*
X206532Y21435D01*
X206614Y21386D01*
X206698Y21341D01*
X206784Y21299D01*
X206871Y21260D01*
X206960Y21225D01*
X207051Y21194D01*
X207142Y21167D01*
X207235Y21143D01*
X207328Y21123D01*
X207422Y21107D01*
X207517Y21095D01*
X207612Y21086D01*
X207708Y21082D01*
X207803Y21081D01*
X207804Y21082D02*
X208166Y21091D01*
X208528Y21109D01*
X208889Y21136D01*
X209249Y21171D01*
X209609Y21214D01*
X209968Y21266D01*
X210325Y21327D01*
X210680Y21396D01*
X211034Y21473D01*
X211386Y21559D01*
X211736Y21653D01*
X212084Y21756D01*
X212429Y21866D01*
X212771Y21985D01*
X190016Y21082D02*
X190016Y37338D01*
X185500Y37338D01*
X185367Y37336D01*
X185235Y37330D01*
X185103Y37320D01*
X184971Y37307D01*
X184839Y37289D01*
X184709Y37268D01*
X184578Y37243D01*
X184449Y37214D01*
X184321Y37181D01*
X184193Y37145D01*
X184067Y37105D01*
X183942Y37061D01*
X183818Y37013D01*
X183696Y36962D01*
X183575Y36907D01*
X183456Y36849D01*
X183338Y36787D01*
X183223Y36722D01*
X183109Y36653D01*
X182998Y36582D01*
X182889Y36506D01*
X182782Y36428D01*
X182677Y36347D01*
X182575Y36262D01*
X182475Y36175D01*
X182378Y36085D01*
X182283Y35992D01*
X182192Y35896D01*
X182103Y35798D01*
X182017Y35697D01*
X181934Y35593D01*
X181854Y35487D01*
X181778Y35379D01*
X181704Y35269D01*
X181634Y35156D01*
X181567Y35042D01*
X181504Y34925D01*
X181444Y34807D01*
X181387Y34687D01*
X181334Y34565D01*
X181285Y34442D01*
X181239Y34318D01*
X181197Y34192D01*
X181159Y34065D01*
X181124Y33937D01*
X181093Y33808D01*
X181066Y33679D01*
X181043Y33548D01*
X181023Y33417D01*
X181008Y33285D01*
X180996Y33153D01*
X180988Y33021D01*
X180984Y32888D01*
X180984Y32756D01*
X180988Y32623D01*
X180996Y32491D01*
X181008Y32359D01*
X181023Y32227D01*
X181043Y32096D01*
X181066Y31965D01*
X181093Y31836D01*
X181124Y31707D01*
X181159Y31579D01*
X181197Y31452D01*
X181239Y31326D01*
X181285Y31202D01*
X181334Y31079D01*
X181387Y30957D01*
X181444Y30837D01*
X181504Y30719D01*
X181567Y30602D01*
X181634Y30488D01*
X181704Y30375D01*
X181778Y30265D01*
X181854Y30157D01*
X181934Y30051D01*
X182017Y29947D01*
X182103Y29846D01*
X182192Y29748D01*
X182283Y29652D01*
X182378Y29559D01*
X182475Y29469D01*
X182575Y29382D01*
X182677Y29297D01*
X182782Y29216D01*
X182889Y29138D01*
X182998Y29062D01*
X183109Y28991D01*
X183223Y28922D01*
X183338Y28857D01*
X183456Y28795D01*
X183575Y28737D01*
X183696Y28682D01*
X183818Y28631D01*
X183942Y28583D01*
X184067Y28539D01*
X184193Y28499D01*
X184321Y28463D01*
X184449Y28430D01*
X184578Y28401D01*
X184709Y28376D01*
X184839Y28355D01*
X184971Y28337D01*
X185103Y28324D01*
X185235Y28314D01*
X185367Y28308D01*
X185500Y28306D01*
X185500Y28307D02*
X190016Y28307D01*
X175117Y25598D02*
X175117Y32822D01*
X175115Y32955D01*
X175109Y33087D01*
X175099Y33219D01*
X175086Y33351D01*
X175068Y33483D01*
X175047Y33613D01*
X175022Y33744D01*
X174993Y33873D01*
X174960Y34001D01*
X174924Y34129D01*
X174884Y34255D01*
X174840Y34380D01*
X174792Y34504D01*
X174741Y34626D01*
X174686Y34747D01*
X174628Y34866D01*
X174566Y34984D01*
X174501Y35099D01*
X174432Y35213D01*
X174361Y35324D01*
X174285Y35433D01*
X174207Y35540D01*
X174126Y35645D01*
X174041Y35747D01*
X173954Y35847D01*
X173864Y35944D01*
X173771Y36039D01*
X173675Y36130D01*
X173577Y36219D01*
X173476Y36305D01*
X173372Y36388D01*
X173266Y36468D01*
X173158Y36544D01*
X173048Y36618D01*
X172935Y36688D01*
X172821Y36755D01*
X172704Y36818D01*
X172586Y36878D01*
X172466Y36935D01*
X172344Y36988D01*
X172221Y37037D01*
X172097Y37083D01*
X171971Y37125D01*
X171844Y37163D01*
X171716Y37198D01*
X171587Y37229D01*
X171458Y37256D01*
X171327Y37279D01*
X171196Y37299D01*
X171064Y37314D01*
X170932Y37326D01*
X170800Y37334D01*
X170667Y37338D01*
X170535Y37338D01*
X170402Y37334D01*
X170270Y37326D01*
X170138Y37314D01*
X170006Y37299D01*
X169875Y37279D01*
X169744Y37256D01*
X169615Y37229D01*
X169486Y37198D01*
X169358Y37163D01*
X169231Y37125D01*
X169105Y37083D01*
X168981Y37037D01*
X168858Y36988D01*
X168736Y36935D01*
X168616Y36878D01*
X168498Y36818D01*
X168381Y36755D01*
X168267Y36688D01*
X168154Y36618D01*
X168044Y36544D01*
X167936Y36468D01*
X167830Y36388D01*
X167726Y36305D01*
X167625Y36219D01*
X167527Y36130D01*
X167431Y36039D01*
X167338Y35944D01*
X167248Y35847D01*
X167161Y35747D01*
X167076Y35645D01*
X166995Y35540D01*
X166917Y35433D01*
X166841Y35324D01*
X166770Y35213D01*
X166701Y35099D01*
X166636Y34984D01*
X166574Y34866D01*
X166516Y34747D01*
X166461Y34626D01*
X166410Y34504D01*
X166362Y34380D01*
X166318Y34255D01*
X166278Y34129D01*
X166242Y34001D01*
X166209Y33873D01*
X166180Y33744D01*
X166155Y33613D01*
X166134Y33483D01*
X166116Y33351D01*
X166103Y33219D01*
X166093Y33087D01*
X166087Y32955D01*
X166085Y32822D01*
X166086Y32822D02*
X166086Y25598D01*
X166085Y25598D02*
X166087Y25465D01*
X166093Y25333D01*
X166103Y25201D01*
X166116Y25069D01*
X166134Y24937D01*
X166155Y24807D01*
X166180Y24676D01*
X166209Y24547D01*
X166242Y24419D01*
X166278Y24291D01*
X166318Y24165D01*
X166362Y24040D01*
X166410Y23916D01*
X166461Y23794D01*
X166516Y23673D01*
X166574Y23554D01*
X166636Y23436D01*
X166701Y23321D01*
X166770Y23207D01*
X166841Y23096D01*
X166917Y22987D01*
X166995Y22880D01*
X167076Y22775D01*
X167161Y22673D01*
X167248Y22573D01*
X167338Y22476D01*
X167431Y22381D01*
X167527Y22290D01*
X167625Y22201D01*
X167726Y22115D01*
X167830Y22032D01*
X167936Y21952D01*
X168044Y21876D01*
X168154Y21802D01*
X168267Y21732D01*
X168381Y21665D01*
X168498Y21602D01*
X168616Y21542D01*
X168736Y21485D01*
X168858Y21432D01*
X168981Y21383D01*
X169105Y21337D01*
X169231Y21295D01*
X169358Y21257D01*
X169486Y21222D01*
X169615Y21191D01*
X169744Y21164D01*
X169875Y21141D01*
X170006Y21121D01*
X170138Y21106D01*
X170270Y21094D01*
X170402Y21086D01*
X170535Y21082D01*
X170667Y21082D01*
X170800Y21086D01*
X170932Y21094D01*
X171064Y21106D01*
X171196Y21121D01*
X171327Y21141D01*
X171458Y21164D01*
X171587Y21191D01*
X171716Y21222D01*
X171844Y21257D01*
X171971Y21295D01*
X172097Y21337D01*
X172221Y21383D01*
X172344Y21432D01*
X172466Y21485D01*
X172586Y21542D01*
X172704Y21602D01*
X172821Y21665D01*
X172935Y21732D01*
X173048Y21802D01*
X173158Y21876D01*
X173266Y21952D01*
X173372Y22032D01*
X173476Y22115D01*
X173577Y22201D01*
X173675Y22290D01*
X173771Y22381D01*
X173864Y22476D01*
X173954Y22573D01*
X174041Y22673D01*
X174126Y22775D01*
X174207Y22880D01*
X174285Y22987D01*
X174361Y23096D01*
X174432Y23207D01*
X174501Y23321D01*
X174566Y23436D01*
X174628Y23554D01*
X174686Y23673D01*
X174741Y23794D01*
X174792Y23916D01*
X174840Y24040D01*
X174884Y24165D01*
X174924Y24291D01*
X174960Y24419D01*
X174993Y24547D01*
X175022Y24676D01*
X175047Y24807D01*
X175068Y24937D01*
X175086Y25069D01*
X175099Y25201D01*
X175109Y25333D01*
X175115Y25465D01*
X175117Y25598D01*
X155913Y21082D02*
X152300Y21082D01*
X155913Y21082D02*
X156031Y21084D01*
X156149Y21090D01*
X156267Y21099D01*
X156384Y21113D01*
X156501Y21130D01*
X156618Y21151D01*
X156733Y21176D01*
X156848Y21205D01*
X156962Y21238D01*
X157074Y21274D01*
X157185Y21314D01*
X157295Y21357D01*
X157404Y21404D01*
X157511Y21454D01*
X157616Y21509D01*
X157719Y21566D01*
X157820Y21627D01*
X157920Y21691D01*
X158017Y21758D01*
X158112Y21828D01*
X158204Y21902D01*
X158295Y21978D01*
X158382Y22058D01*
X158467Y22140D01*
X158549Y22225D01*
X158629Y22312D01*
X158705Y22403D01*
X158779Y22495D01*
X158849Y22590D01*
X158916Y22687D01*
X158980Y22787D01*
X159041Y22888D01*
X159098Y22991D01*
X159153Y23096D01*
X159203Y23203D01*
X159250Y23312D01*
X159293Y23422D01*
X159333Y23533D01*
X159369Y23645D01*
X159402Y23759D01*
X159431Y23874D01*
X159456Y23989D01*
X159477Y24106D01*
X159494Y24223D01*
X159508Y24340D01*
X159517Y24458D01*
X159523Y24576D01*
X159525Y24694D01*
X159525Y33726D01*
X159523Y33844D01*
X159517Y33962D01*
X159508Y34080D01*
X159494Y34197D01*
X159477Y34314D01*
X159456Y34431D01*
X159431Y34546D01*
X159402Y34661D01*
X159369Y34775D01*
X159333Y34887D01*
X159293Y34998D01*
X159250Y35108D01*
X159203Y35217D01*
X159153Y35324D01*
X159098Y35429D01*
X159041Y35532D01*
X158980Y35633D01*
X158916Y35733D01*
X158849Y35830D01*
X158779Y35925D01*
X158705Y36017D01*
X158629Y36108D01*
X158549Y36195D01*
X158467Y36280D01*
X158382Y36362D01*
X158295Y36442D01*
X158204Y36518D01*
X158112Y36592D01*
X158017Y36662D01*
X157920Y36729D01*
X157820Y36793D01*
X157719Y36854D01*
X157616Y36911D01*
X157511Y36966D01*
X157404Y37016D01*
X157295Y37063D01*
X157185Y37106D01*
X157074Y37146D01*
X156962Y37182D01*
X156848Y37215D01*
X156733Y37244D01*
X156618Y37269D01*
X156501Y37290D01*
X156384Y37307D01*
X156267Y37321D01*
X156149Y37330D01*
X156031Y37336D01*
X155913Y37338D01*
X152300Y37338D01*
X137950Y24694D02*
X137952Y24576D01*
X137958Y24458D01*
X137967Y24340D01*
X137981Y24223D01*
X137998Y24106D01*
X138019Y23989D01*
X138044Y23874D01*
X138073Y23759D01*
X138106Y23645D01*
X138142Y23533D01*
X138182Y23422D01*
X138225Y23312D01*
X138272Y23203D01*
X138322Y23096D01*
X138377Y22991D01*
X138434Y22888D01*
X138495Y22787D01*
X138559Y22687D01*
X138626Y22590D01*
X138696Y22495D01*
X138770Y22403D01*
X138846Y22312D01*
X138926Y22225D01*
X139008Y22140D01*
X139093Y22058D01*
X139180Y21978D01*
X139271Y21902D01*
X139363Y21828D01*
X139458Y21758D01*
X139555Y21691D01*
X139655Y21627D01*
X139756Y21566D01*
X139859Y21509D01*
X139964Y21454D01*
X140071Y21404D01*
X140180Y21357D01*
X140290Y21314D01*
X140401Y21274D01*
X140513Y21238D01*
X140627Y21205D01*
X140742Y21176D01*
X140857Y21151D01*
X140974Y21130D01*
X141091Y21113D01*
X141208Y21099D01*
X141326Y21090D01*
X141444Y21084D01*
X141562Y21082D01*
X141745Y21084D01*
X141927Y21091D01*
X142109Y21102D01*
X142291Y21117D01*
X142473Y21137D01*
X142654Y21161D01*
X142834Y21189D01*
X143014Y21221D01*
X143193Y21258D01*
X143370Y21299D01*
X143547Y21345D01*
X143723Y21394D01*
X143898Y21448D01*
X144071Y21506D01*
X144242Y21568D01*
X144413Y21634D01*
X144581Y21705D01*
X144748Y21779D01*
X144913Y21857D01*
X145076Y21939D01*
X145237Y22025D01*
X145396Y22115D01*
X145553Y22209D01*
X145707Y22306D01*
X145859Y22407D01*
X146009Y22512D01*
X146156Y22620D01*
X146300Y22731D01*
X146442Y22846D01*
X146581Y22965D01*
X146717Y23087D01*
X146850Y23212D01*
X146980Y23340D01*
X146528Y33726D02*
X146526Y33844D01*
X146520Y33962D01*
X146511Y34080D01*
X146497Y34197D01*
X146480Y34314D01*
X146459Y34431D01*
X146434Y34546D01*
X146405Y34661D01*
X146372Y34775D01*
X146336Y34887D01*
X146296Y34998D01*
X146253Y35108D01*
X146206Y35217D01*
X146156Y35324D01*
X146101Y35429D01*
X146044Y35532D01*
X145983Y35633D01*
X145919Y35733D01*
X145852Y35830D01*
X145782Y35925D01*
X145708Y36017D01*
X145632Y36108D01*
X145552Y36195D01*
X145470Y36280D01*
X145385Y36362D01*
X145298Y36442D01*
X145207Y36518D01*
X145115Y36592D01*
X145020Y36662D01*
X144923Y36729D01*
X144823Y36793D01*
X144722Y36854D01*
X144619Y36911D01*
X144514Y36966D01*
X144407Y37016D01*
X144298Y37063D01*
X144188Y37106D01*
X144077Y37146D01*
X143965Y37182D01*
X143851Y37215D01*
X143736Y37244D01*
X143621Y37269D01*
X143504Y37290D01*
X143387Y37307D01*
X143270Y37321D01*
X143152Y37330D01*
X143034Y37336D01*
X142916Y37338D01*
X142755Y37336D01*
X142593Y37330D01*
X142432Y37321D01*
X142271Y37307D01*
X142111Y37290D01*
X141951Y37269D01*
X141791Y37244D01*
X141632Y37215D01*
X141474Y37183D01*
X141317Y37147D01*
X141161Y37107D01*
X141005Y37063D01*
X140851Y37015D01*
X140698Y36964D01*
X140546Y36910D01*
X140395Y36851D01*
X140246Y36790D01*
X140099Y36724D01*
X139953Y36655D01*
X139808Y36583D01*
X139666Y36507D01*
X139525Y36428D01*
X139386Y36346D01*
X139250Y36260D01*
X139115Y36171D01*
X138982Y36079D01*
X138852Y35983D01*
X144723Y30565D02*
X144824Y30627D01*
X144924Y30692D01*
X145021Y30761D01*
X145116Y30833D01*
X145209Y30907D01*
X145299Y30985D01*
X145387Y31066D01*
X145472Y31149D01*
X145554Y31235D01*
X145633Y31324D01*
X145710Y31415D01*
X145783Y31509D01*
X145854Y31605D01*
X145921Y31703D01*
X145985Y31803D01*
X146046Y31906D01*
X146103Y32010D01*
X146157Y32116D01*
X146207Y32224D01*
X146254Y32333D01*
X146298Y32444D01*
X146338Y32556D01*
X146374Y32670D01*
X146406Y32784D01*
X146435Y32900D01*
X146460Y33016D01*
X146481Y33133D01*
X146498Y33251D01*
X146512Y33369D01*
X146521Y33488D01*
X146527Y33607D01*
X146529Y33726D01*
X139755Y27855D02*
X139654Y27793D01*
X139554Y27728D01*
X139457Y27659D01*
X139362Y27587D01*
X139269Y27513D01*
X139179Y27435D01*
X139091Y27354D01*
X139006Y27271D01*
X138924Y27185D01*
X138845Y27096D01*
X138768Y27005D01*
X138695Y26911D01*
X138624Y26815D01*
X138557Y26717D01*
X138493Y26617D01*
X138432Y26514D01*
X138375Y26410D01*
X138321Y26304D01*
X138271Y26196D01*
X138224Y26087D01*
X138180Y25976D01*
X138140Y25864D01*
X138104Y25750D01*
X138072Y25636D01*
X138043Y25520D01*
X138018Y25404D01*
X137997Y25287D01*
X137980Y25169D01*
X137966Y25051D01*
X137957Y24932D01*
X137951Y24813D01*
X137949Y24694D01*
X139756Y27855D02*
X144723Y30565D01*
X132773Y21082D02*
X127355Y37338D01*
X121936Y21082D01*
X123291Y25146D02*
X131419Y25146D01*
X109396Y30113D02*
X106687Y30113D01*
X106687Y21082D01*
X112106Y21082D01*
X112224Y21084D01*
X112342Y21090D01*
X112460Y21099D01*
X112577Y21113D01*
X112694Y21130D01*
X112811Y21151D01*
X112926Y21176D01*
X113041Y21205D01*
X113155Y21238D01*
X113267Y21274D01*
X113378Y21314D01*
X113488Y21357D01*
X113597Y21404D01*
X113704Y21454D01*
X113809Y21509D01*
X113912Y21566D01*
X114013Y21627D01*
X114113Y21691D01*
X114210Y21758D01*
X114305Y21828D01*
X114397Y21902D01*
X114488Y21978D01*
X114575Y22058D01*
X114660Y22140D01*
X114742Y22225D01*
X114822Y22312D01*
X114898Y22403D01*
X114972Y22495D01*
X115042Y22590D01*
X115109Y22687D01*
X115173Y22787D01*
X115234Y22888D01*
X115291Y22991D01*
X115346Y23096D01*
X115396Y23203D01*
X115443Y23312D01*
X115486Y23422D01*
X115526Y23533D01*
X115562Y23645D01*
X115595Y23759D01*
X115624Y23874D01*
X115649Y23989D01*
X115670Y24106D01*
X115687Y24223D01*
X115701Y24340D01*
X115710Y24458D01*
X115716Y24576D01*
X115718Y24694D01*
X115718Y33726D01*
X115716Y33844D01*
X115710Y33962D01*
X115701Y34080D01*
X115687Y34197D01*
X115670Y34314D01*
X115649Y34431D01*
X115624Y34546D01*
X115595Y34661D01*
X115562Y34775D01*
X115526Y34887D01*
X115486Y34998D01*
X115443Y35108D01*
X115396Y35217D01*
X115346Y35324D01*
X115291Y35429D01*
X115234Y35532D01*
X115173Y35633D01*
X115109Y35733D01*
X115042Y35830D01*
X114972Y35925D01*
X114898Y36017D01*
X114822Y36108D01*
X114742Y36195D01*
X114660Y36280D01*
X114575Y36362D01*
X114488Y36442D01*
X114397Y36518D01*
X114305Y36592D01*
X114210Y36662D01*
X114113Y36729D01*
X114013Y36793D01*
X113912Y36854D01*
X113809Y36911D01*
X113704Y36966D01*
X113597Y37016D01*
X113488Y37063D01*
X113378Y37106D01*
X113267Y37146D01*
X113155Y37182D01*
X113041Y37215D01*
X112926Y37244D01*
X112811Y37269D01*
X112694Y37290D01*
X112577Y37307D01*
X112460Y37321D01*
X112342Y37330D01*
X112224Y37336D01*
X112106Y37338D01*
X106687Y37338D01*
X90569Y37338D02*
X90569Y21082D01*
X85150Y28307D02*
X90569Y37338D01*
X85150Y28307D02*
X79732Y37338D01*
X79732Y21082D01*
X72611Y24694D02*
X72611Y28307D01*
X72610Y28307D02*
X72608Y28426D01*
X72602Y28546D01*
X72592Y28665D01*
X72578Y28783D01*
X72561Y28902D01*
X72539Y29019D01*
X72514Y29136D01*
X72484Y29251D01*
X72451Y29366D01*
X72414Y29480D01*
X72374Y29592D01*
X72329Y29703D01*
X72281Y29812D01*
X72230Y29920D01*
X72175Y30026D01*
X72116Y30130D01*
X72054Y30232D01*
X71989Y30332D01*
X71920Y30430D01*
X71848Y30526D01*
X71773Y30619D01*
X71696Y30709D01*
X71615Y30797D01*
X71531Y30882D01*
X71444Y30964D01*
X71355Y31044D01*
X71263Y31120D01*
X71169Y31194D01*
X71072Y31264D01*
X70974Y31331D01*
X70873Y31395D01*
X70769Y31455D01*
X70664Y31512D01*
X70557Y31565D01*
X70449Y31615D01*
X70339Y31661D01*
X70227Y31703D01*
X70114Y31742D01*
X70000Y31777D01*
X69885Y31808D01*
X69768Y31836D01*
X69651Y31859D01*
X69534Y31879D01*
X69415Y31895D01*
X69296Y31907D01*
X69177Y31915D01*
X69058Y31919D01*
X68938Y31919D01*
X68819Y31915D01*
X68700Y31907D01*
X68581Y31895D01*
X68462Y31879D01*
X68345Y31859D01*
X68228Y31836D01*
X68111Y31808D01*
X67996Y31777D01*
X67882Y31742D01*
X67769Y31703D01*
X67657Y31661D01*
X67547Y31615D01*
X67439Y31565D01*
X67332Y31512D01*
X67227Y31455D01*
X67123Y31395D01*
X67022Y31331D01*
X66924Y31264D01*
X66827Y31194D01*
X66733Y31120D01*
X66641Y31044D01*
X66552Y30964D01*
X66465Y30882D01*
X66381Y30797D01*
X66300Y30709D01*
X66223Y30619D01*
X66148Y30526D01*
X66076Y30430D01*
X66007Y30332D01*
X65942Y30232D01*
X65880Y30130D01*
X65821Y30026D01*
X65766Y29920D01*
X65715Y29812D01*
X65667Y29703D01*
X65622Y29592D01*
X65582Y29480D01*
X65545Y29366D01*
X65512Y29251D01*
X65482Y29136D01*
X65457Y29019D01*
X65435Y28902D01*
X65418Y28783D01*
X65404Y28665D01*
X65394Y28546D01*
X65388Y28426D01*
X65386Y28307D01*
X65386Y24694D01*
X65388Y24575D01*
X65394Y24455D01*
X65404Y24336D01*
X65418Y24218D01*
X65435Y24099D01*
X65457Y23982D01*
X65482Y23865D01*
X65512Y23750D01*
X65545Y23635D01*
X65582Y23521D01*
X65622Y23409D01*
X65667Y23298D01*
X65715Y23189D01*
X65766Y23081D01*
X65821Y22975D01*
X65880Y22871D01*
X65942Y22769D01*
X66007Y22669D01*
X66076Y22571D01*
X66148Y22475D01*
X66223Y22382D01*
X66300Y22292D01*
X66381Y22204D01*
X66465Y22119D01*
X66552Y22037D01*
X66641Y21957D01*
X66733Y21881D01*
X66827Y21807D01*
X66924Y21737D01*
X67022Y21670D01*
X67123Y21606D01*
X67227Y21546D01*
X67332Y21489D01*
X67439Y21436D01*
X67547Y21386D01*
X67657Y21340D01*
X67769Y21298D01*
X67882Y21259D01*
X67996Y21224D01*
X68111Y21193D01*
X68228Y21165D01*
X68345Y21142D01*
X68462Y21122D01*
X68581Y21106D01*
X68700Y21094D01*
X68819Y21086D01*
X68938Y21082D01*
X69058Y21082D01*
X69177Y21086D01*
X69296Y21094D01*
X69415Y21106D01*
X69534Y21122D01*
X69651Y21142D01*
X69768Y21165D01*
X69885Y21193D01*
X70000Y21224D01*
X70114Y21259D01*
X70227Y21298D01*
X70339Y21340D01*
X70449Y21386D01*
X70557Y21436D01*
X70664Y21489D01*
X70769Y21546D01*
X70873Y21606D01*
X70974Y21670D01*
X71072Y21737D01*
X71169Y21807D01*
X71263Y21881D01*
X71355Y21957D01*
X71444Y22037D01*
X71531Y22119D01*
X71615Y22204D01*
X71696Y22292D01*
X71773Y22382D01*
X71848Y22475D01*
X71920Y22571D01*
X71989Y22669D01*
X72054Y22769D01*
X72116Y22871D01*
X72175Y22975D01*
X72230Y23081D01*
X72281Y23189D01*
X72329Y23298D01*
X72374Y23409D01*
X72414Y23521D01*
X72451Y23635D01*
X72484Y23750D01*
X72514Y23865D01*
X72539Y23982D01*
X72561Y24099D01*
X72578Y24218D01*
X72592Y24336D01*
X72602Y24455D01*
X72608Y24575D01*
X72610Y24694D01*
X51912Y21082D02*
X51912Y37338D01*
X51912Y21082D02*
X56427Y21082D01*
X56528Y21084D01*
X56629Y21090D01*
X56730Y21099D01*
X56831Y21112D01*
X56931Y21129D01*
X57030Y21150D01*
X57128Y21174D01*
X57225Y21202D01*
X57322Y21234D01*
X57417Y21269D01*
X57510Y21308D01*
X57602Y21350D01*
X57693Y21396D01*
X57781Y21445D01*
X57868Y21497D01*
X57953Y21553D01*
X58036Y21611D01*
X58116Y21673D01*
X58194Y21738D01*
X58270Y21805D01*
X58343Y21875D01*
X58413Y21948D01*
X58480Y22024D01*
X58545Y22102D01*
X58607Y22182D01*
X58665Y22265D01*
X58721Y22350D01*
X58773Y22436D01*
X58822Y22525D01*
X58868Y22616D01*
X58910Y22708D01*
X58949Y22801D01*
X58984Y22896D01*
X59016Y22993D01*
X59044Y23090D01*
X59068Y23188D01*
X59089Y23287D01*
X59106Y23387D01*
X59119Y23488D01*
X59128Y23589D01*
X59134Y23690D01*
X59136Y23791D01*
X59137Y23791D02*
X59137Y29210D01*
X59136Y29210D02*
X59134Y29311D01*
X59128Y29412D01*
X59119Y29513D01*
X59106Y29614D01*
X59089Y29714D01*
X59068Y29813D01*
X59044Y29911D01*
X59016Y30008D01*
X58984Y30105D01*
X58949Y30200D01*
X58910Y30293D01*
X58868Y30385D01*
X58822Y30476D01*
X58773Y30565D01*
X58721Y30651D01*
X58665Y30736D01*
X58607Y30819D01*
X58545Y30899D01*
X58480Y30977D01*
X58413Y31053D01*
X58343Y31126D01*
X58270Y31196D01*
X58194Y31263D01*
X58116Y31328D01*
X58036Y31390D01*
X57953Y31448D01*
X57868Y31504D01*
X57782Y31556D01*
X57693Y31605D01*
X57602Y31651D01*
X57510Y31693D01*
X57417Y31732D01*
X57322Y31767D01*
X57225Y31799D01*
X57128Y31827D01*
X57030Y31851D01*
X56931Y31872D01*
X56831Y31889D01*
X56730Y31902D01*
X56629Y31911D01*
X56528Y31917D01*
X56427Y31919D01*
X51912Y31919D01*
X42286Y21082D02*
X37771Y21082D01*
X42286Y21082D02*
X42387Y21084D01*
X42488Y21090D01*
X42589Y21099D01*
X42690Y21112D01*
X42790Y21129D01*
X42889Y21150D01*
X42987Y21174D01*
X43084Y21202D01*
X43181Y21234D01*
X43276Y21269D01*
X43369Y21308D01*
X43461Y21350D01*
X43552Y21396D01*
X43640Y21445D01*
X43727Y21497D01*
X43812Y21553D01*
X43895Y21611D01*
X43975Y21673D01*
X44053Y21738D01*
X44129Y21805D01*
X44202Y21875D01*
X44272Y21948D01*
X44339Y22024D01*
X44404Y22102D01*
X44466Y22182D01*
X44524Y22265D01*
X44580Y22350D01*
X44632Y22436D01*
X44681Y22525D01*
X44727Y22616D01*
X44769Y22708D01*
X44808Y22801D01*
X44843Y22896D01*
X44875Y22993D01*
X44903Y23090D01*
X44927Y23188D01*
X44948Y23287D01*
X44965Y23387D01*
X44978Y23488D01*
X44987Y23589D01*
X44993Y23690D01*
X44995Y23791D01*
X44995Y28307D01*
X44993Y28426D01*
X44987Y28546D01*
X44977Y28665D01*
X44963Y28783D01*
X44946Y28902D01*
X44924Y29019D01*
X44899Y29136D01*
X44869Y29251D01*
X44836Y29366D01*
X44799Y29480D01*
X44759Y29592D01*
X44714Y29703D01*
X44666Y29812D01*
X44615Y29920D01*
X44560Y30026D01*
X44501Y30130D01*
X44439Y30232D01*
X44374Y30332D01*
X44305Y30430D01*
X44233Y30526D01*
X44158Y30619D01*
X44081Y30709D01*
X44000Y30797D01*
X43916Y30882D01*
X43829Y30964D01*
X43740Y31044D01*
X43648Y31120D01*
X43554Y31194D01*
X43457Y31264D01*
X43359Y31331D01*
X43258Y31395D01*
X43154Y31455D01*
X43049Y31512D01*
X42942Y31565D01*
X42834Y31615D01*
X42724Y31661D01*
X42612Y31703D01*
X42499Y31742D01*
X42385Y31777D01*
X42270Y31808D01*
X42153Y31836D01*
X42036Y31859D01*
X41919Y31879D01*
X41800Y31895D01*
X41681Y31907D01*
X41562Y31915D01*
X41443Y31919D01*
X41323Y31919D01*
X41204Y31915D01*
X41085Y31907D01*
X40966Y31895D01*
X40847Y31879D01*
X40730Y31859D01*
X40613Y31836D01*
X40496Y31808D01*
X40381Y31777D01*
X40267Y31742D01*
X40154Y31703D01*
X40042Y31661D01*
X39932Y31615D01*
X39824Y31565D01*
X39717Y31512D01*
X39612Y31455D01*
X39508Y31395D01*
X39407Y31331D01*
X39309Y31264D01*
X39212Y31194D01*
X39118Y31120D01*
X39026Y31044D01*
X38937Y30964D01*
X38850Y30882D01*
X38766Y30797D01*
X38685Y30709D01*
X38608Y30619D01*
X38533Y30526D01*
X38461Y30430D01*
X38392Y30332D01*
X38327Y30232D01*
X38265Y30130D01*
X38206Y30026D01*
X38151Y29920D01*
X38100Y29812D01*
X38052Y29703D01*
X38007Y29592D01*
X37967Y29480D01*
X37930Y29366D01*
X37897Y29251D01*
X37867Y29136D01*
X37842Y29019D01*
X37820Y28902D01*
X37803Y28783D01*
X37789Y28665D01*
X37779Y28546D01*
X37773Y28426D01*
X37771Y28307D01*
X37771Y26501D01*
X44995Y26501D01*
X30649Y21082D02*
X30649Y31919D01*
X22521Y31919D01*
X22420Y31917D01*
X22319Y31911D01*
X22218Y31902D01*
X22117Y31889D01*
X22017Y31872D01*
X21918Y31851D01*
X21820Y31827D01*
X21723Y31799D01*
X21626Y31767D01*
X21531Y31732D01*
X21438Y31693D01*
X21346Y31651D01*
X21255Y31605D01*
X21167Y31556D01*
X21080Y31504D01*
X20995Y31448D01*
X20912Y31390D01*
X20832Y31328D01*
X20754Y31263D01*
X20678Y31196D01*
X20605Y31126D01*
X20535Y31053D01*
X20468Y30977D01*
X20403Y30899D01*
X20341Y30819D01*
X20283Y30736D01*
X20227Y30651D01*
X20175Y30564D01*
X20126Y30476D01*
X20080Y30385D01*
X20038Y30293D01*
X19999Y30200D01*
X19964Y30105D01*
X19932Y30008D01*
X19904Y29911D01*
X19880Y29813D01*
X19859Y29714D01*
X19842Y29614D01*
X19829Y29513D01*
X19820Y29412D01*
X19814Y29311D01*
X19812Y29210D01*
X19812Y21082D01*
X25231Y21082D02*
X25231Y31919D01*
D11*
X376950Y577850D03*
X346950Y577850D03*
X92950Y755650D03*
X122950Y755650D03*
X92950Y730250D03*
X122950Y730250D03*
X376950Y603250D03*
X346950Y603250D03*
D12*
X330200Y143750D03*
X330200Y173750D03*
D11*
X376950Y755650D03*
X346950Y755650D03*
D13*
X95250Y552450D03*
X120650Y552450D03*
D14*
X146050Y552450D03*
X171450Y552450D03*
X196850Y552450D03*
X222250Y552450D03*
X247650Y552450D03*
X273050Y552450D03*
X298450Y552450D03*
D13*
X323850Y552450D03*
X349250Y552450D03*
D15*
X374650Y552450D03*
X95250Y785450D03*
D14*
X120650Y785450D03*
X146050Y785450D03*
X171450Y785450D03*
X196850Y785450D03*
X222250Y785450D03*
X247650Y785450D03*
X273050Y785450D03*
X298450Y785450D03*
X323850Y785450D03*
D13*
X349250Y785450D03*
D15*
X374650Y785450D03*
D16*
X44550Y478600D03*
D17*
X44550Y513600D03*
D16*
X44450Y406400D03*
D17*
X44450Y441400D03*
D18*
X101600Y190500D03*
X101600Y266700D03*
X101600Y317500D03*
X101600Y368300D03*
X25400Y368300D03*
X25400Y317500D03*
X25400Y266700D03*
X25400Y190500D03*
D19*
X488950Y50800D03*
D20*
X463451Y76299D03*
X514449Y76299D03*
X514449Y25301D03*
X463451Y25301D03*
D21*
X349250Y177800D03*
D22*
X158750Y165100D03*
X222250Y101600D03*
X127000Y469900D03*
X146050Y755650D03*
X260350Y730250D03*
X285750Y679450D03*
X120650Y679450D03*
X101600Y622300D03*
X101600Y577850D03*
X254000Y609600D03*
X266700Y628650D03*
X311150Y609600D03*
X336550Y628650D03*
X209550Y571500D03*
X228600Y584200D03*
X101600Y342900D03*
X82550Y285750D03*
X152400Y285750D03*
X19050Y120650D03*
X19050Y63500D03*
X171450Y63500D03*
X95250Y44450D03*
X95250Y95250D03*
X171450Y120650D03*
X196850Y12700D03*
X323850Y31750D03*
X349250Y209550D03*
X444500Y215900D03*
X349250Y279400D03*
X412750Y304800D03*
X393700Y247650D03*
X438150Y361950D03*
X368300Y425450D03*
X412750Y457200D03*
X508000Y317500D03*
X508000Y349250D03*
X69850Y368300D03*
X19050Y241300D03*
X19050Y215900D03*
X76200Y241300D03*
X76200Y215900D03*
D21*
X368300Y628650D03*
X95250Y647700D03*
D23*
X376650Y137250D03*
D22*
X153125Y311875D03*
X88900Y438150D03*
X88900Y450850D03*
X319532Y379984D03*
X423164Y591566D03*
X302260Y358394D03*
X328168Y500888D03*
X487934Y319532D03*
X431800Y574294D03*
X332486Y734060D03*
X112268Y397256D03*
X263398Y423164D03*
X414528Y582930D03*
M02*
