<svg id="svg" version="1.1" xmlns="http://www.w3.org/2000/svg" xmlns:xlink="http://www.w3.org/1999/xlink" width="400" height="400" viewBox="0, 0, 400,400"><g id="svgg"><path id="path0" d="M140.400 140.000 C 140.400 140.501,140.824 140.501,141.600 140.000 C 142.085 139.686,142.028 139.611,141.300 139.606 C 140.805 139.603,140.400 139.780,140.400 140.000 M151.200 140.000 C 151.976 140.501,152.400 140.501,152.400 140.000 C 152.400 139.780,151.995 139.603,151.500 139.606 C 150.772 139.611,150.715 139.686,151.200 140.000 M134.072 143.839 C 132.621 145.386,133.238 145.686,134.734 144.160 C 135.467 143.412,135.827 142.811,135.534 142.824 C 135.240 142.838,134.582 143.294,134.072 143.839 M158.066 144.160 C 158.800 144.908,159.458 145.363,159.530 145.171 C 159.694 144.729,157.787 142.800,157.184 142.800 C 156.936 142.800,157.333 143.412,158.066 144.160 M130.006 150.900 C 130.011 151.628,130.086 151.685,130.400 151.200 C 130.901 150.424,130.901 150.000,130.400 150.000 C 130.180 150.000,130.003 150.405,130.006 150.900 M162.006 150.300 C 162.024 151.177,162.788 151.759,162.794 150.900 C 162.797 150.405,162.620 150.000,162.400 150.000 C 162.180 150.000,162.003 150.135,162.006 150.300 M130.006 161.100 C 130.003 161.595,130.180 162.000,130.400 162.000 C 130.901 162.000,130.901 161.576,130.400 160.800 C 130.086 160.315,130.011 160.372,130.006 161.100 M162.279 160.957 C 162.115 161.374,162.075 161.809,162.191 161.924 C 162.555 162.289,162.876 161.691,162.724 160.931 C 162.583 160.235,162.562 160.236,162.279 160.957 M133.200 166.784 C 133.200 167.387,135.129 169.294,135.571 169.130 C 135.763 169.058,135.308 168.400,134.560 167.666 C 133.812 166.933,133.200 166.536,133.200 166.784 M158.066 167.840 C 157.333 168.588,156.936 169.200,157.184 169.200 C 157.787 169.200,159.694 167.271,159.530 166.829 C 159.458 166.637,158.800 167.092,158.066 167.840 M140.400 172.000 C 140.400 172.220,140.805 172.397,141.300 172.394 C 142.028 172.389,142.085 172.314,141.600 172.000 C 140.824 171.499,140.400 171.499,140.400 172.000 M151.200 172.000 C 150.715 172.314,150.772 172.389,151.500 172.394 C 151.995 172.397,152.400 172.220,152.400 172.000 C 152.400 171.499,151.976 171.499,151.200 172.000 " stroke="none" fill="#fcfcfc" fill-rule="evenodd"></path><path id="path1" d="M142.600 140.748 C 124.845 145.440,128.063 171.366,146.400 171.366 C 166.557 171.366,167.337 141.373,147.200 140.567 C 145.330 140.493,143.260 140.574,142.600 140.748 " stroke="none" fill="#0886fc" fill-rule="evenodd"></path><path id="path2" d="M140.800 140.257 C 140.030 140.565,139.085 140.925,138.700 141.056 C 138.315 141.186,138.000 141.452,138.000 141.647 C 138.000 141.841,137.757 142.000,137.461 142.000 C 137.164 142.000,135.904 143.017,134.661 144.261 C 133.417 145.504,132.400 146.764,132.400 147.061 C 132.400 147.357,132.241 147.600,132.047 147.600 C 131.852 147.600,131.589 147.915,131.461 148.300 C 131.333 148.685,130.955 149.720,130.620 150.600 C 130.231 151.624,130.012 153.567,130.012 156.000 C 130.012 158.433,130.231 160.376,130.620 161.400 C 130.955 162.280,131.333 163.315,131.461 163.700 C 131.589 164.085,131.852 164.400,132.047 164.400 C 132.241 164.400,132.400 164.643,132.400 164.939 C 132.400 165.804,136.635 169.795,138.496 170.684 C 141.770 172.249,142.465 172.400,146.400 172.400 C 150.335 172.400,151.030 172.249,154.304 170.684 C 156.165 169.795,160.400 165.804,160.400 164.939 C 160.400 164.643,160.559 164.400,160.753 164.400 C 160.948 164.400,161.211 164.085,161.339 163.700 C 161.467 163.315,161.845 162.280,162.180 161.400 C 162.909 159.482,163.020 152.585,162.349 150.919 C 161.091 147.794,160.076 146.197,158.074 144.196 C 156.866 142.988,155.636 142.000,155.339 142.000 C 155.043 142.000,154.800 141.841,154.800 141.647 C 154.800 141.452,154.485 141.189,154.100 141.061 C 153.715 140.933,152.680 140.555,151.800 140.220 C 149.742 139.438,142.785 139.461,140.800 140.257 M151.081 140.451 C 156.946 142.812,159.588 145.454,161.949 151.319 C 162.197 151.934,162.400 154.041,162.400 156.000 C 162.400 159.555,162.250 160.205,160.651 163.600 C 159.563 165.909,156.309 169.163,154.000 170.251 C 150.605 171.850,149.955 172.000,146.400 172.000 C 142.845 172.000,142.195 171.850,138.800 170.251 C 135.488 168.690,132.747 165.390,130.851 160.681 C 130.603 160.066,130.400 157.959,130.400 156.000 C 130.400 154.041,130.603 151.934,130.851 151.319 C 133.198 145.490,135.705 142.961,141.600 140.476 C 142.949 139.907,149.687 139.889,151.081 140.451 " stroke="none" fill="#ecf4fc" fill-rule="evenodd"></path><path id="path3" d="M141.600 140.476 C 135.705 142.961,133.198 145.490,130.851 151.319 C 130.603 151.934,130.400 154.041,130.400 156.000 C 130.400 159.555,130.550 160.205,132.149 163.600 C 133.710 166.912,137.010 169.653,141.719 171.549 C 142.334 171.797,144.441 172.000,146.400 172.000 C 149.955 172.000,150.605 171.850,154.000 170.251 C 157.312 168.690,160.053 165.390,161.949 160.681 C 162.197 160.066,162.400 157.959,162.400 156.000 C 162.400 154.041,162.197 151.934,161.949 151.319 C 159.588 145.454,156.946 142.812,151.081 140.451 C 149.687 139.889,142.949 139.907,141.600 140.476 M152.907 141.733 C 162.686 146.096,165.061 159.391,157.426 167.026 C 151.312 173.140,141.488 173.140,135.374 167.026 C 123.230 154.882,137.203 134.726,152.907 141.733 " stroke="none" fill="#7cbcfc" fill-rule="evenodd"></path><path id="path4" d="" stroke="none" fill="#100fcfc" fill-rule="evenodd"></path></g></svg>