G04 EAGLE Gerber RS-274X export*
G75*
%MOMM*%
%FSLAX34Y34*%
%LPD*%
%INSilkscreen Top*%
%IPPOS*%
%AMOC8*
5,1,8,0,0,1.08239X$1,22.5*%
G01*
%ADD10C,0.203200*%
%ADD11C,0.150000*%
%ADD12C,0.400000*%
%ADD13C,0.800000*%
%ADD14R,2.540000X1.270000*%
%ADD15R,0.762000X0.863600*%
%ADD16C,0.025400*%
%ADD17C,0.127000*%
%ADD18C,0.101600*%


D10*
X46850Y168750D02*
X46850Y173250D01*
X92850Y173250D01*
X92850Y168750D01*
X92850Y148750D02*
X92850Y144250D01*
X46850Y144250D01*
X46850Y148750D01*
X79850Y148750D02*
X79850Y168750D01*
X234188Y292608D02*
X236728Y292608D01*
X234188Y292608D02*
X234188Y293116D01*
X234239Y293116D01*
X234239Y342621D01*
X236550Y342621D01*
X283540Y292405D02*
X286258Y292405D01*
X286258Y292913D01*
X286283Y292913D01*
X286283Y342595D01*
X284023Y342595D01*
X269240Y292100D02*
X252222Y292100D01*
X251714Y342900D02*
X260350Y342900D01*
X268986Y342900D01*
X260350Y342900D02*
X285750Y317500D01*
X236728Y368808D02*
X234188Y368808D01*
X234188Y369316D01*
X234239Y369316D01*
X234239Y418821D01*
X236550Y418821D01*
X283540Y368605D02*
X286258Y368605D01*
X286258Y369113D01*
X286283Y369113D01*
X286283Y418795D01*
X284023Y418795D01*
X269240Y368300D02*
X252222Y368300D01*
X251714Y419100D02*
X260350Y419100D01*
X268986Y419100D01*
X260350Y419100D02*
X285750Y393700D01*
X236728Y216408D02*
X234188Y216408D01*
X234188Y216916D01*
X234239Y216916D01*
X234239Y266421D01*
X236550Y266421D01*
X283540Y216205D02*
X286258Y216205D01*
X286258Y216713D01*
X286283Y216713D01*
X286283Y266395D01*
X284023Y266395D01*
X269240Y215900D02*
X252222Y215900D01*
X251714Y266700D02*
X260350Y266700D01*
X268986Y266700D01*
X260350Y266700D02*
X285750Y241300D01*
X236728Y140208D02*
X234188Y140208D01*
X234188Y140716D01*
X234239Y140716D01*
X234239Y190221D01*
X236550Y190221D01*
X283540Y140005D02*
X286258Y140005D01*
X286258Y140513D01*
X286283Y140513D01*
X286283Y190195D01*
X284023Y190195D01*
X269240Y139700D02*
X252222Y139700D01*
X251714Y190500D02*
X260350Y190500D01*
X268986Y190500D01*
X260350Y190500D02*
X285750Y165100D01*
X236728Y64008D02*
X234188Y64008D01*
X234188Y64516D01*
X234239Y64516D01*
X234239Y114021D01*
X236550Y114021D01*
X283540Y63805D02*
X286258Y63805D01*
X286258Y64313D01*
X286283Y64313D01*
X286283Y113995D01*
X284023Y113995D01*
X269240Y63500D02*
X252222Y63500D01*
X251714Y114300D02*
X260350Y114300D01*
X268986Y114300D01*
X260350Y114300D02*
X285750Y88900D01*
X148450Y352900D02*
X148450Y357400D01*
X194450Y357400D01*
X194450Y352900D01*
X194450Y332900D02*
X194450Y328400D01*
X148450Y328400D01*
X148450Y332900D01*
X181450Y332900D02*
X181450Y352900D01*
X125980Y388620D02*
X125980Y424180D01*
X191520Y424180D01*
X191520Y388620D01*
X125980Y388620D01*
D11*
X15250Y544450D02*
X15250Y793450D01*
X525250Y793450D01*
X535250Y783450D01*
X535250Y554450D01*
X525250Y544450D01*
X15250Y544450D01*
D12*
X475250Y624450D02*
X555250Y624450D01*
X475250Y624450D02*
X475250Y718450D01*
X555250Y718450D01*
X555250Y624450D01*
D13*
X525254Y786130D02*
X525256Y786214D01*
X525262Y786298D01*
X525272Y786382D01*
X525285Y786465D01*
X525303Y786547D01*
X525325Y786629D01*
X525350Y786709D01*
X525379Y786788D01*
X525412Y786866D01*
X525448Y786942D01*
X525488Y787016D01*
X525531Y787088D01*
X525577Y787158D01*
X525627Y787226D01*
X525680Y787292D01*
X525736Y787355D01*
X525795Y787415D01*
X525857Y787472D01*
X525921Y787527D01*
X525988Y787578D01*
X526057Y787626D01*
X526128Y787671D01*
X526201Y787713D01*
X526276Y787751D01*
X526353Y787785D01*
X526431Y787816D01*
X526511Y787843D01*
X526592Y787867D01*
X526674Y787886D01*
X526757Y787902D01*
X526840Y787914D01*
X526924Y787922D01*
X527008Y787926D01*
X527092Y787926D01*
X527176Y787922D01*
X527260Y787914D01*
X527343Y787902D01*
X527426Y787886D01*
X527508Y787867D01*
X527589Y787843D01*
X527669Y787816D01*
X527747Y787785D01*
X527824Y787751D01*
X527899Y787713D01*
X527972Y787671D01*
X528043Y787626D01*
X528112Y787578D01*
X528179Y787527D01*
X528243Y787472D01*
X528305Y787415D01*
X528364Y787355D01*
X528420Y787292D01*
X528473Y787226D01*
X528523Y787158D01*
X528569Y787088D01*
X528612Y787016D01*
X528652Y786942D01*
X528688Y786866D01*
X528721Y786788D01*
X528750Y786709D01*
X528775Y786629D01*
X528797Y786547D01*
X528815Y786465D01*
X528828Y786382D01*
X528838Y786298D01*
X528844Y786214D01*
X528846Y786130D01*
X528844Y786046D01*
X528838Y785962D01*
X528828Y785878D01*
X528815Y785795D01*
X528797Y785713D01*
X528775Y785631D01*
X528750Y785551D01*
X528721Y785472D01*
X528688Y785394D01*
X528652Y785318D01*
X528612Y785244D01*
X528569Y785172D01*
X528523Y785102D01*
X528473Y785034D01*
X528420Y784968D01*
X528364Y784905D01*
X528305Y784845D01*
X528243Y784788D01*
X528179Y784733D01*
X528112Y784682D01*
X528043Y784634D01*
X527972Y784589D01*
X527899Y784547D01*
X527824Y784509D01*
X527747Y784475D01*
X527669Y784444D01*
X527589Y784417D01*
X527508Y784393D01*
X527426Y784374D01*
X527343Y784358D01*
X527260Y784346D01*
X527176Y784338D01*
X527092Y784334D01*
X527008Y784334D01*
X526924Y784338D01*
X526840Y784346D01*
X526757Y784358D01*
X526674Y784374D01*
X526592Y784393D01*
X526511Y784417D01*
X526431Y784444D01*
X526353Y784475D01*
X526276Y784509D01*
X526201Y784547D01*
X526128Y784589D01*
X526057Y784634D01*
X525988Y784682D01*
X525921Y784733D01*
X525857Y784788D01*
X525795Y784845D01*
X525736Y784905D01*
X525680Y784968D01*
X525627Y785034D01*
X525577Y785102D01*
X525531Y785172D01*
X525488Y785244D01*
X525448Y785318D01*
X525412Y785394D01*
X525379Y785472D01*
X525350Y785551D01*
X525325Y785631D01*
X525303Y785713D01*
X525285Y785795D01*
X525272Y785878D01*
X525262Y785962D01*
X525256Y786046D01*
X525254Y786130D01*
D11*
X492218Y582450D02*
X492220Y582647D01*
X492228Y582844D01*
X492240Y583041D01*
X492257Y583237D01*
X492278Y583433D01*
X492305Y583629D01*
X492336Y583823D01*
X492372Y584017D01*
X492413Y584210D01*
X492459Y584402D01*
X492509Y584592D01*
X492564Y584782D01*
X492623Y584969D01*
X492688Y585156D01*
X492756Y585341D01*
X492829Y585524D01*
X492907Y585705D01*
X492989Y585884D01*
X493076Y586061D01*
X493166Y586236D01*
X493261Y586409D01*
X493361Y586579D01*
X493464Y586747D01*
X493572Y586912D01*
X493683Y587075D01*
X493799Y587235D01*
X493918Y587392D01*
X494041Y587545D01*
X494168Y587696D01*
X494299Y587844D01*
X494433Y587988D01*
X494571Y588129D01*
X494712Y588267D01*
X494856Y588401D01*
X495004Y588532D01*
X495155Y588659D01*
X495308Y588782D01*
X495465Y588901D01*
X495625Y589017D01*
X495788Y589128D01*
X495953Y589236D01*
X496121Y589339D01*
X496291Y589439D01*
X496464Y589534D01*
X496639Y589624D01*
X496816Y589711D01*
X496995Y589793D01*
X497176Y589871D01*
X497359Y589944D01*
X497544Y590012D01*
X497731Y590077D01*
X497918Y590136D01*
X498108Y590191D01*
X498298Y590241D01*
X498490Y590287D01*
X498683Y590328D01*
X498877Y590364D01*
X499071Y590395D01*
X499267Y590422D01*
X499463Y590443D01*
X499659Y590460D01*
X499856Y590472D01*
X500053Y590480D01*
X500250Y590482D01*
X500447Y590480D01*
X500644Y590472D01*
X500841Y590460D01*
X501037Y590443D01*
X501233Y590422D01*
X501429Y590395D01*
X501623Y590364D01*
X501817Y590328D01*
X502010Y590287D01*
X502202Y590241D01*
X502392Y590191D01*
X502582Y590136D01*
X502769Y590077D01*
X502956Y590012D01*
X503141Y589944D01*
X503324Y589871D01*
X503505Y589793D01*
X503684Y589711D01*
X503861Y589624D01*
X504036Y589534D01*
X504209Y589439D01*
X504379Y589339D01*
X504547Y589236D01*
X504712Y589128D01*
X504875Y589017D01*
X505035Y588901D01*
X505192Y588782D01*
X505345Y588659D01*
X505496Y588532D01*
X505644Y588401D01*
X505788Y588267D01*
X505929Y588129D01*
X506067Y587988D01*
X506201Y587844D01*
X506332Y587696D01*
X506459Y587545D01*
X506582Y587392D01*
X506701Y587235D01*
X506817Y587075D01*
X506928Y586912D01*
X507036Y586747D01*
X507139Y586579D01*
X507239Y586409D01*
X507334Y586236D01*
X507424Y586061D01*
X507511Y585884D01*
X507593Y585705D01*
X507671Y585524D01*
X507744Y585341D01*
X507812Y585156D01*
X507877Y584969D01*
X507936Y584782D01*
X507991Y584592D01*
X508041Y584402D01*
X508087Y584210D01*
X508128Y584017D01*
X508164Y583823D01*
X508195Y583629D01*
X508222Y583433D01*
X508243Y583237D01*
X508260Y583041D01*
X508272Y582844D01*
X508280Y582647D01*
X508282Y582450D01*
X508280Y582253D01*
X508272Y582056D01*
X508260Y581859D01*
X508243Y581663D01*
X508222Y581467D01*
X508195Y581271D01*
X508164Y581077D01*
X508128Y580883D01*
X508087Y580690D01*
X508041Y580498D01*
X507991Y580308D01*
X507936Y580118D01*
X507877Y579931D01*
X507812Y579744D01*
X507744Y579559D01*
X507671Y579376D01*
X507593Y579195D01*
X507511Y579016D01*
X507424Y578839D01*
X507334Y578664D01*
X507239Y578491D01*
X507139Y578321D01*
X507036Y578153D01*
X506928Y577988D01*
X506817Y577825D01*
X506701Y577665D01*
X506582Y577508D01*
X506459Y577355D01*
X506332Y577204D01*
X506201Y577056D01*
X506067Y576912D01*
X505929Y576771D01*
X505788Y576633D01*
X505644Y576499D01*
X505496Y576368D01*
X505345Y576241D01*
X505192Y576118D01*
X505035Y575999D01*
X504875Y575883D01*
X504712Y575772D01*
X504547Y575664D01*
X504379Y575561D01*
X504209Y575461D01*
X504036Y575366D01*
X503861Y575276D01*
X503684Y575189D01*
X503505Y575107D01*
X503324Y575029D01*
X503141Y574956D01*
X502956Y574888D01*
X502769Y574823D01*
X502582Y574764D01*
X502392Y574709D01*
X502202Y574659D01*
X502010Y574613D01*
X501817Y574572D01*
X501623Y574536D01*
X501429Y574505D01*
X501233Y574478D01*
X501037Y574457D01*
X500841Y574440D01*
X500644Y574428D01*
X500447Y574420D01*
X500250Y574418D01*
X500053Y574420D01*
X499856Y574428D01*
X499659Y574440D01*
X499463Y574457D01*
X499267Y574478D01*
X499071Y574505D01*
X498877Y574536D01*
X498683Y574572D01*
X498490Y574613D01*
X498298Y574659D01*
X498108Y574709D01*
X497918Y574764D01*
X497731Y574823D01*
X497544Y574888D01*
X497359Y574956D01*
X497176Y575029D01*
X496995Y575107D01*
X496816Y575189D01*
X496639Y575276D01*
X496464Y575366D01*
X496291Y575461D01*
X496121Y575561D01*
X495953Y575664D01*
X495788Y575772D01*
X495625Y575883D01*
X495465Y575999D01*
X495308Y576118D01*
X495155Y576241D01*
X495004Y576368D01*
X494856Y576499D01*
X494712Y576633D01*
X494571Y576771D01*
X494433Y576912D01*
X494299Y577056D01*
X494168Y577204D01*
X494041Y577355D01*
X493918Y577508D01*
X493799Y577665D01*
X493683Y577825D01*
X493572Y577988D01*
X493464Y578153D01*
X493361Y578321D01*
X493261Y578491D01*
X493166Y578664D01*
X493076Y578839D01*
X492989Y579016D01*
X492907Y579195D01*
X492829Y579376D01*
X492756Y579559D01*
X492688Y579744D01*
X492623Y579931D01*
X492564Y580118D01*
X492509Y580308D01*
X492459Y580498D01*
X492413Y580690D01*
X492372Y580883D01*
X492336Y581077D01*
X492305Y581271D01*
X492278Y581467D01*
X492257Y581663D01*
X492240Y581859D01*
X492228Y582056D01*
X492220Y582253D01*
X492218Y582450D01*
X492218Y755450D02*
X492220Y755647D01*
X492228Y755844D01*
X492240Y756041D01*
X492257Y756237D01*
X492278Y756433D01*
X492305Y756629D01*
X492336Y756823D01*
X492372Y757017D01*
X492413Y757210D01*
X492459Y757402D01*
X492509Y757592D01*
X492564Y757782D01*
X492623Y757969D01*
X492688Y758156D01*
X492756Y758341D01*
X492829Y758524D01*
X492907Y758705D01*
X492989Y758884D01*
X493076Y759061D01*
X493166Y759236D01*
X493261Y759409D01*
X493361Y759579D01*
X493464Y759747D01*
X493572Y759912D01*
X493683Y760075D01*
X493799Y760235D01*
X493918Y760392D01*
X494041Y760545D01*
X494168Y760696D01*
X494299Y760844D01*
X494433Y760988D01*
X494571Y761129D01*
X494712Y761267D01*
X494856Y761401D01*
X495004Y761532D01*
X495155Y761659D01*
X495308Y761782D01*
X495465Y761901D01*
X495625Y762017D01*
X495788Y762128D01*
X495953Y762236D01*
X496121Y762339D01*
X496291Y762439D01*
X496464Y762534D01*
X496639Y762624D01*
X496816Y762711D01*
X496995Y762793D01*
X497176Y762871D01*
X497359Y762944D01*
X497544Y763012D01*
X497731Y763077D01*
X497918Y763136D01*
X498108Y763191D01*
X498298Y763241D01*
X498490Y763287D01*
X498683Y763328D01*
X498877Y763364D01*
X499071Y763395D01*
X499267Y763422D01*
X499463Y763443D01*
X499659Y763460D01*
X499856Y763472D01*
X500053Y763480D01*
X500250Y763482D01*
X500447Y763480D01*
X500644Y763472D01*
X500841Y763460D01*
X501037Y763443D01*
X501233Y763422D01*
X501429Y763395D01*
X501623Y763364D01*
X501817Y763328D01*
X502010Y763287D01*
X502202Y763241D01*
X502392Y763191D01*
X502582Y763136D01*
X502769Y763077D01*
X502956Y763012D01*
X503141Y762944D01*
X503324Y762871D01*
X503505Y762793D01*
X503684Y762711D01*
X503861Y762624D01*
X504036Y762534D01*
X504209Y762439D01*
X504379Y762339D01*
X504547Y762236D01*
X504712Y762128D01*
X504875Y762017D01*
X505035Y761901D01*
X505192Y761782D01*
X505345Y761659D01*
X505496Y761532D01*
X505644Y761401D01*
X505788Y761267D01*
X505929Y761129D01*
X506067Y760988D01*
X506201Y760844D01*
X506332Y760696D01*
X506459Y760545D01*
X506582Y760392D01*
X506701Y760235D01*
X506817Y760075D01*
X506928Y759912D01*
X507036Y759747D01*
X507139Y759579D01*
X507239Y759409D01*
X507334Y759236D01*
X507424Y759061D01*
X507511Y758884D01*
X507593Y758705D01*
X507671Y758524D01*
X507744Y758341D01*
X507812Y758156D01*
X507877Y757969D01*
X507936Y757782D01*
X507991Y757592D01*
X508041Y757402D01*
X508087Y757210D01*
X508128Y757017D01*
X508164Y756823D01*
X508195Y756629D01*
X508222Y756433D01*
X508243Y756237D01*
X508260Y756041D01*
X508272Y755844D01*
X508280Y755647D01*
X508282Y755450D01*
X508280Y755253D01*
X508272Y755056D01*
X508260Y754859D01*
X508243Y754663D01*
X508222Y754467D01*
X508195Y754271D01*
X508164Y754077D01*
X508128Y753883D01*
X508087Y753690D01*
X508041Y753498D01*
X507991Y753308D01*
X507936Y753118D01*
X507877Y752931D01*
X507812Y752744D01*
X507744Y752559D01*
X507671Y752376D01*
X507593Y752195D01*
X507511Y752016D01*
X507424Y751839D01*
X507334Y751664D01*
X507239Y751491D01*
X507139Y751321D01*
X507036Y751153D01*
X506928Y750988D01*
X506817Y750825D01*
X506701Y750665D01*
X506582Y750508D01*
X506459Y750355D01*
X506332Y750204D01*
X506201Y750056D01*
X506067Y749912D01*
X505929Y749771D01*
X505788Y749633D01*
X505644Y749499D01*
X505496Y749368D01*
X505345Y749241D01*
X505192Y749118D01*
X505035Y748999D01*
X504875Y748883D01*
X504712Y748772D01*
X504547Y748664D01*
X504379Y748561D01*
X504209Y748461D01*
X504036Y748366D01*
X503861Y748276D01*
X503684Y748189D01*
X503505Y748107D01*
X503324Y748029D01*
X503141Y747956D01*
X502956Y747888D01*
X502769Y747823D01*
X502582Y747764D01*
X502392Y747709D01*
X502202Y747659D01*
X502010Y747613D01*
X501817Y747572D01*
X501623Y747536D01*
X501429Y747505D01*
X501233Y747478D01*
X501037Y747457D01*
X500841Y747440D01*
X500644Y747428D01*
X500447Y747420D01*
X500250Y747418D01*
X500053Y747420D01*
X499856Y747428D01*
X499659Y747440D01*
X499463Y747457D01*
X499267Y747478D01*
X499071Y747505D01*
X498877Y747536D01*
X498683Y747572D01*
X498490Y747613D01*
X498298Y747659D01*
X498108Y747709D01*
X497918Y747764D01*
X497731Y747823D01*
X497544Y747888D01*
X497359Y747956D01*
X497176Y748029D01*
X496995Y748107D01*
X496816Y748189D01*
X496639Y748276D01*
X496464Y748366D01*
X496291Y748461D01*
X496121Y748561D01*
X495953Y748664D01*
X495788Y748772D01*
X495625Y748883D01*
X495465Y748999D01*
X495308Y749118D01*
X495155Y749241D01*
X495004Y749368D01*
X494856Y749499D01*
X494712Y749633D01*
X494571Y749771D01*
X494433Y749912D01*
X494299Y750056D01*
X494168Y750204D01*
X494041Y750355D01*
X493918Y750508D01*
X493799Y750665D01*
X493683Y750825D01*
X493572Y750988D01*
X493464Y751153D01*
X493361Y751321D01*
X493261Y751491D01*
X493166Y751664D01*
X493076Y751839D01*
X492989Y752016D01*
X492907Y752195D01*
X492829Y752376D01*
X492756Y752559D01*
X492688Y752744D01*
X492623Y752931D01*
X492564Y753118D01*
X492509Y753308D01*
X492459Y753498D01*
X492413Y753690D01*
X492372Y753883D01*
X492336Y754077D01*
X492305Y754271D01*
X492278Y754467D01*
X492257Y754663D01*
X492240Y754859D01*
X492228Y755056D01*
X492220Y755253D01*
X492218Y755450D01*
D14*
X416560Y800100D03*
D11*
X394970Y792480D02*
X394970Y770890D01*
X439420Y770890D01*
X439420Y792480D01*
D10*
X178054Y456184D02*
X118110Y456180D01*
X118110Y521720D01*
X178054Y521716D01*
D15*
X113284Y488950D03*
D16*
X107076Y460947D02*
X104113Y460947D01*
X107076Y460947D02*
X107131Y460945D01*
X107187Y460940D01*
X107241Y460931D01*
X107295Y460918D01*
X107348Y460902D01*
X107400Y460883D01*
X107451Y460860D01*
X107500Y460834D01*
X107547Y460804D01*
X107592Y460772D01*
X107634Y460737D01*
X107675Y460699D01*
X107713Y460658D01*
X107748Y460616D01*
X107780Y460571D01*
X107810Y460523D01*
X107836Y460475D01*
X107859Y460424D01*
X107878Y460372D01*
X107894Y460319D01*
X107907Y460265D01*
X107916Y460211D01*
X107921Y460155D01*
X107923Y460100D01*
X107923Y459677D01*
X104960Y462597D02*
X104113Y463655D01*
X107923Y463655D01*
X107923Y462597D02*
X107923Y464713D01*
X18076Y395097D02*
X15113Y395097D01*
X18076Y395097D02*
X18131Y395095D01*
X18187Y395090D01*
X18241Y395081D01*
X18295Y395068D01*
X18348Y395052D01*
X18400Y395033D01*
X18451Y395010D01*
X18500Y394984D01*
X18547Y394954D01*
X18592Y394922D01*
X18634Y394887D01*
X18675Y394849D01*
X18713Y394808D01*
X18748Y394766D01*
X18780Y394721D01*
X18810Y394673D01*
X18836Y394625D01*
X18859Y394574D01*
X18878Y394522D01*
X18894Y394469D01*
X18907Y394415D01*
X18916Y394361D01*
X18921Y394305D01*
X18923Y394250D01*
X18923Y393827D01*
X15113Y397911D02*
X15115Y397971D01*
X15121Y398030D01*
X15130Y398090D01*
X15143Y398148D01*
X15160Y398205D01*
X15180Y398262D01*
X15204Y398317D01*
X15231Y398370D01*
X15261Y398422D01*
X15295Y398471D01*
X15332Y398518D01*
X15371Y398563D01*
X15414Y398606D01*
X15459Y398645D01*
X15506Y398682D01*
X15555Y398716D01*
X15607Y398746D01*
X15660Y398773D01*
X15715Y398797D01*
X15772Y398817D01*
X15829Y398834D01*
X15887Y398847D01*
X15947Y398856D01*
X16006Y398862D01*
X16066Y398864D01*
X15113Y397911D02*
X15115Y397844D01*
X15120Y397777D01*
X15129Y397711D01*
X15142Y397645D01*
X15158Y397581D01*
X15178Y397517D01*
X15202Y397454D01*
X15228Y397392D01*
X15258Y397333D01*
X15291Y397275D01*
X15328Y397218D01*
X15367Y397164D01*
X15409Y397112D01*
X15454Y397063D01*
X15502Y397016D01*
X15552Y396972D01*
X15605Y396930D01*
X15660Y396892D01*
X15716Y396856D01*
X15775Y396824D01*
X15835Y396795D01*
X15897Y396769D01*
X15960Y396747D01*
X16807Y398545D02*
X16765Y398587D01*
X16720Y398626D01*
X16674Y398663D01*
X16625Y398697D01*
X16575Y398727D01*
X16523Y398755D01*
X16469Y398780D01*
X16414Y398802D01*
X16358Y398821D01*
X16301Y398836D01*
X16243Y398848D01*
X16184Y398856D01*
X16125Y398861D01*
X16066Y398863D01*
X16806Y398546D02*
X18923Y396747D01*
X18923Y398863D01*
D10*
X5250Y379150D02*
X5250Y179650D01*
X5250Y379150D02*
X121250Y379150D01*
X121250Y179650D01*
X5250Y179650D01*
D17*
X293650Y96250D02*
X293650Y476250D01*
X501650Y476250D01*
X501650Y96250D01*
X293650Y96250D01*
D18*
X332108Y330708D02*
X343792Y330708D01*
X332108Y330708D02*
X332108Y333954D01*
X332110Y334067D01*
X332116Y334180D01*
X332126Y334293D01*
X332140Y334406D01*
X332157Y334518D01*
X332179Y334629D01*
X332204Y334739D01*
X332234Y334849D01*
X332267Y334957D01*
X332304Y335064D01*
X332344Y335170D01*
X332389Y335274D01*
X332437Y335377D01*
X332488Y335478D01*
X332543Y335577D01*
X332601Y335674D01*
X332663Y335769D01*
X332728Y335862D01*
X332796Y335952D01*
X332867Y336040D01*
X332942Y336126D01*
X333019Y336209D01*
X333099Y336289D01*
X333182Y336366D01*
X333268Y336441D01*
X333356Y336512D01*
X333446Y336580D01*
X333539Y336645D01*
X333634Y336707D01*
X333731Y336765D01*
X333830Y336820D01*
X333931Y336871D01*
X334034Y336919D01*
X334138Y336964D01*
X334244Y337004D01*
X334351Y337041D01*
X334459Y337074D01*
X334569Y337104D01*
X334679Y337129D01*
X334790Y337151D01*
X334902Y337168D01*
X335015Y337182D01*
X335128Y337192D01*
X335241Y337198D01*
X335354Y337200D01*
X335467Y337198D01*
X335580Y337192D01*
X335693Y337182D01*
X335806Y337168D01*
X335918Y337151D01*
X336029Y337129D01*
X336139Y337104D01*
X336249Y337074D01*
X336357Y337041D01*
X336464Y337004D01*
X336570Y336964D01*
X336674Y336919D01*
X336777Y336871D01*
X336878Y336820D01*
X336977Y336765D01*
X337074Y336707D01*
X337169Y336645D01*
X337262Y336580D01*
X337352Y336512D01*
X337440Y336441D01*
X337526Y336366D01*
X337609Y336289D01*
X337689Y336209D01*
X337766Y336126D01*
X337841Y336040D01*
X337912Y335952D01*
X337980Y335862D01*
X338045Y335769D01*
X338107Y335674D01*
X338165Y335577D01*
X338220Y335478D01*
X338271Y335377D01*
X338319Y335274D01*
X338364Y335170D01*
X338404Y335064D01*
X338441Y334957D01*
X338474Y334849D01*
X338504Y334739D01*
X338529Y334629D01*
X338551Y334518D01*
X338568Y334406D01*
X338582Y334293D01*
X338592Y334180D01*
X338598Y334067D01*
X338600Y333954D01*
X338599Y333954D02*
X338599Y330708D01*
X338599Y334603D02*
X343792Y337199D01*
X343792Y342468D02*
X332108Y342468D01*
X332108Y347661D01*
X337301Y347661D02*
X337301Y342468D01*
X341196Y351970D02*
X332108Y354567D01*
X341196Y351970D02*
X341196Y358461D01*
X338599Y356514D02*
X343792Y356514D01*
X341196Y363400D02*
X332108Y365997D01*
X341196Y363400D02*
X341196Y369891D01*
X338599Y367944D02*
X343792Y367944D01*
X337301Y374830D02*
X337301Y378725D01*
X337303Y378824D01*
X337309Y378924D01*
X337318Y379023D01*
X337331Y379121D01*
X337348Y379219D01*
X337369Y379317D01*
X337394Y379413D01*
X337422Y379508D01*
X337454Y379602D01*
X337489Y379695D01*
X337528Y379787D01*
X337571Y379877D01*
X337616Y379965D01*
X337666Y380052D01*
X337718Y380136D01*
X337774Y380219D01*
X337832Y380299D01*
X337894Y380377D01*
X337959Y380452D01*
X338027Y380525D01*
X338097Y380595D01*
X338170Y380663D01*
X338245Y380728D01*
X338323Y380790D01*
X338403Y380848D01*
X338486Y380904D01*
X338570Y380956D01*
X338657Y381006D01*
X338745Y381051D01*
X338835Y381094D01*
X338927Y381133D01*
X339020Y381168D01*
X339114Y381200D01*
X339209Y381228D01*
X339305Y381253D01*
X339403Y381274D01*
X339501Y381291D01*
X339599Y381304D01*
X339698Y381313D01*
X339798Y381319D01*
X339897Y381321D01*
X340546Y381321D01*
X340546Y381322D02*
X340659Y381320D01*
X340772Y381314D01*
X340885Y381304D01*
X340998Y381290D01*
X341110Y381273D01*
X341221Y381251D01*
X341331Y381226D01*
X341441Y381196D01*
X341549Y381163D01*
X341656Y381126D01*
X341762Y381086D01*
X341866Y381041D01*
X341969Y380993D01*
X342070Y380942D01*
X342169Y380887D01*
X342266Y380829D01*
X342361Y380767D01*
X342454Y380702D01*
X342544Y380634D01*
X342632Y380563D01*
X342718Y380488D01*
X342801Y380411D01*
X342881Y380331D01*
X342958Y380248D01*
X343033Y380162D01*
X343104Y380074D01*
X343172Y379984D01*
X343237Y379891D01*
X343299Y379796D01*
X343357Y379699D01*
X343412Y379600D01*
X343463Y379499D01*
X343511Y379396D01*
X343556Y379292D01*
X343596Y379186D01*
X343633Y379079D01*
X343666Y378971D01*
X343696Y378861D01*
X343721Y378751D01*
X343743Y378640D01*
X343760Y378528D01*
X343774Y378415D01*
X343784Y378302D01*
X343790Y378189D01*
X343792Y378076D01*
X343790Y377963D01*
X343784Y377850D01*
X343774Y377737D01*
X343760Y377624D01*
X343743Y377512D01*
X343721Y377401D01*
X343696Y377291D01*
X343666Y377181D01*
X343633Y377073D01*
X343596Y376966D01*
X343556Y376860D01*
X343511Y376756D01*
X343463Y376653D01*
X343412Y376552D01*
X343357Y376453D01*
X343299Y376356D01*
X343237Y376261D01*
X343172Y376168D01*
X343104Y376078D01*
X343033Y375990D01*
X342958Y375904D01*
X342881Y375821D01*
X342801Y375741D01*
X342718Y375664D01*
X342632Y375589D01*
X342544Y375518D01*
X342454Y375450D01*
X342361Y375385D01*
X342266Y375323D01*
X342169Y375265D01*
X342070Y375210D01*
X341969Y375159D01*
X341866Y375111D01*
X341762Y375066D01*
X341656Y375026D01*
X341549Y374989D01*
X341441Y374956D01*
X341331Y374926D01*
X341221Y374901D01*
X341110Y374879D01*
X340998Y374862D01*
X340885Y374848D01*
X340772Y374838D01*
X340659Y374832D01*
X340546Y374830D01*
X337301Y374830D01*
X337158Y374832D01*
X337015Y374838D01*
X336872Y374848D01*
X336730Y374862D01*
X336588Y374879D01*
X336446Y374901D01*
X336305Y374926D01*
X336165Y374956D01*
X336026Y374989D01*
X335888Y375026D01*
X335751Y375067D01*
X335615Y375111D01*
X335480Y375160D01*
X335347Y375212D01*
X335215Y375267D01*
X335085Y375327D01*
X334956Y375390D01*
X334829Y375456D01*
X334705Y375526D01*
X334582Y375599D01*
X334461Y375676D01*
X334342Y375755D01*
X334226Y375839D01*
X334111Y375925D01*
X334000Y376014D01*
X333891Y376107D01*
X333784Y376202D01*
X333680Y376301D01*
X333579Y376402D01*
X333480Y376506D01*
X333385Y376612D01*
X333292Y376722D01*
X333203Y376833D01*
X333117Y376947D01*
X333034Y377064D01*
X332954Y377183D01*
X332877Y377304D01*
X332804Y377426D01*
X332734Y377551D01*
X332668Y377678D01*
X332605Y377807D01*
X332545Y377937D01*
X332490Y378069D01*
X332438Y378202D01*
X332389Y378337D01*
X332345Y378473D01*
X332304Y378610D01*
X332267Y378748D01*
X332234Y378887D01*
X332204Y379027D01*
X332179Y379168D01*
X332157Y379310D01*
X332140Y379452D01*
X332126Y379594D01*
X332116Y379737D01*
X332110Y379880D01*
X332108Y380023D01*
X343792Y386260D02*
X343792Y389506D01*
X343790Y389619D01*
X343784Y389732D01*
X343774Y389845D01*
X343760Y389958D01*
X343743Y390070D01*
X343721Y390181D01*
X343696Y390291D01*
X343666Y390401D01*
X343633Y390509D01*
X343596Y390616D01*
X343556Y390722D01*
X343511Y390826D01*
X343463Y390929D01*
X343412Y391030D01*
X343357Y391129D01*
X343299Y391226D01*
X343237Y391321D01*
X343172Y391414D01*
X343104Y391504D01*
X343033Y391592D01*
X342958Y391678D01*
X342881Y391761D01*
X342801Y391841D01*
X342718Y391918D01*
X342632Y391993D01*
X342544Y392064D01*
X342454Y392132D01*
X342361Y392197D01*
X342266Y392259D01*
X342169Y392317D01*
X342070Y392372D01*
X341969Y392423D01*
X341866Y392471D01*
X341762Y392516D01*
X341656Y392556D01*
X341549Y392593D01*
X341441Y392626D01*
X341331Y392656D01*
X341221Y392681D01*
X341110Y392703D01*
X340998Y392720D01*
X340885Y392734D01*
X340772Y392744D01*
X340659Y392750D01*
X340546Y392752D01*
X340433Y392750D01*
X340320Y392744D01*
X340207Y392734D01*
X340094Y392720D01*
X339982Y392703D01*
X339871Y392681D01*
X339761Y392656D01*
X339651Y392626D01*
X339543Y392593D01*
X339436Y392556D01*
X339330Y392516D01*
X339226Y392471D01*
X339123Y392423D01*
X339022Y392372D01*
X338923Y392317D01*
X338826Y392259D01*
X338731Y392197D01*
X338638Y392132D01*
X338548Y392064D01*
X338460Y391993D01*
X338374Y391918D01*
X338291Y391841D01*
X338211Y391761D01*
X338134Y391678D01*
X338059Y391592D01*
X337988Y391504D01*
X337920Y391414D01*
X337855Y391321D01*
X337793Y391226D01*
X337735Y391129D01*
X337680Y391030D01*
X337629Y390929D01*
X337581Y390826D01*
X337536Y390722D01*
X337496Y390616D01*
X337459Y390509D01*
X337426Y390401D01*
X337396Y390291D01*
X337371Y390181D01*
X337349Y390070D01*
X337332Y389958D01*
X337318Y389845D01*
X337308Y389732D01*
X337302Y389619D01*
X337300Y389506D01*
X332108Y390155D02*
X332108Y386260D01*
X332108Y390155D02*
X332110Y390256D01*
X332116Y390356D01*
X332126Y390456D01*
X332139Y390556D01*
X332157Y390655D01*
X332178Y390754D01*
X332203Y390851D01*
X332232Y390948D01*
X332265Y391043D01*
X332301Y391137D01*
X332341Y391229D01*
X332384Y391320D01*
X332431Y391409D01*
X332481Y391496D01*
X332535Y391582D01*
X332592Y391665D01*
X332652Y391745D01*
X332715Y391824D01*
X332782Y391900D01*
X332851Y391973D01*
X332923Y392043D01*
X332997Y392111D01*
X333074Y392176D01*
X333154Y392237D01*
X333236Y392296D01*
X333320Y392351D01*
X333406Y392403D01*
X333494Y392452D01*
X333584Y392497D01*
X333676Y392539D01*
X333769Y392577D01*
X333864Y392611D01*
X333959Y392642D01*
X334056Y392669D01*
X334154Y392692D01*
X334253Y392712D01*
X334353Y392727D01*
X334453Y392739D01*
X334553Y392747D01*
X334654Y392751D01*
X334754Y392751D01*
X334855Y392747D01*
X334955Y392739D01*
X335055Y392727D01*
X335155Y392712D01*
X335254Y392692D01*
X335352Y392669D01*
X335449Y392642D01*
X335544Y392611D01*
X335639Y392577D01*
X335732Y392539D01*
X335824Y392497D01*
X335914Y392452D01*
X336002Y392403D01*
X336088Y392351D01*
X336172Y392296D01*
X336254Y392237D01*
X336334Y392176D01*
X336411Y392111D01*
X336485Y392043D01*
X336557Y391973D01*
X336626Y391900D01*
X336693Y391824D01*
X336756Y391745D01*
X336816Y391665D01*
X336873Y391582D01*
X336927Y391496D01*
X336977Y391409D01*
X337024Y391320D01*
X337067Y391229D01*
X337107Y391137D01*
X337143Y391043D01*
X337176Y390948D01*
X337205Y390851D01*
X337230Y390754D01*
X337251Y390655D01*
X337269Y390556D01*
X337282Y390456D01*
X337292Y390356D01*
X337298Y390256D01*
X337300Y390155D01*
X337301Y390155D02*
X337301Y387558D01*
X332108Y398094D02*
X343792Y398094D01*
X332108Y398094D02*
X332108Y403287D01*
X337301Y403287D02*
X337301Y398094D01*
X343792Y407596D02*
X343792Y410842D01*
X343790Y410955D01*
X343784Y411068D01*
X343774Y411181D01*
X343760Y411294D01*
X343743Y411406D01*
X343721Y411517D01*
X343696Y411627D01*
X343666Y411737D01*
X343633Y411845D01*
X343596Y411952D01*
X343556Y412058D01*
X343511Y412162D01*
X343463Y412265D01*
X343412Y412366D01*
X343357Y412465D01*
X343299Y412562D01*
X343237Y412657D01*
X343172Y412750D01*
X343104Y412840D01*
X343033Y412928D01*
X342958Y413014D01*
X342881Y413097D01*
X342801Y413177D01*
X342718Y413254D01*
X342632Y413329D01*
X342544Y413400D01*
X342454Y413468D01*
X342361Y413533D01*
X342266Y413595D01*
X342169Y413653D01*
X342070Y413708D01*
X341969Y413759D01*
X341866Y413807D01*
X341762Y413852D01*
X341656Y413892D01*
X341549Y413929D01*
X341441Y413962D01*
X341331Y413992D01*
X341221Y414017D01*
X341110Y414039D01*
X340998Y414056D01*
X340885Y414070D01*
X340772Y414080D01*
X340659Y414086D01*
X340546Y414088D01*
X340433Y414086D01*
X340320Y414080D01*
X340207Y414070D01*
X340094Y414056D01*
X339982Y414039D01*
X339871Y414017D01*
X339761Y413992D01*
X339651Y413962D01*
X339543Y413929D01*
X339436Y413892D01*
X339330Y413852D01*
X339226Y413807D01*
X339123Y413759D01*
X339022Y413708D01*
X338923Y413653D01*
X338826Y413595D01*
X338731Y413533D01*
X338638Y413468D01*
X338548Y413400D01*
X338460Y413329D01*
X338374Y413254D01*
X338291Y413177D01*
X338211Y413097D01*
X338134Y413014D01*
X338059Y412928D01*
X337988Y412840D01*
X337920Y412750D01*
X337855Y412657D01*
X337793Y412562D01*
X337735Y412465D01*
X337680Y412366D01*
X337629Y412265D01*
X337581Y412162D01*
X337536Y412058D01*
X337496Y411952D01*
X337459Y411845D01*
X337426Y411737D01*
X337396Y411627D01*
X337371Y411517D01*
X337349Y411406D01*
X337332Y411294D01*
X337318Y411181D01*
X337308Y411068D01*
X337302Y410955D01*
X337300Y410842D01*
X332108Y411491D02*
X332108Y407596D01*
X332108Y411491D02*
X332110Y411592D01*
X332116Y411692D01*
X332126Y411792D01*
X332139Y411892D01*
X332157Y411991D01*
X332178Y412090D01*
X332203Y412187D01*
X332232Y412284D01*
X332265Y412379D01*
X332301Y412473D01*
X332341Y412565D01*
X332384Y412656D01*
X332431Y412745D01*
X332481Y412832D01*
X332535Y412918D01*
X332592Y413001D01*
X332652Y413081D01*
X332715Y413160D01*
X332782Y413236D01*
X332851Y413309D01*
X332923Y413379D01*
X332997Y413447D01*
X333074Y413512D01*
X333154Y413573D01*
X333236Y413632D01*
X333320Y413687D01*
X333406Y413739D01*
X333494Y413788D01*
X333584Y413833D01*
X333676Y413875D01*
X333769Y413913D01*
X333864Y413947D01*
X333959Y413978D01*
X334056Y414005D01*
X334154Y414028D01*
X334253Y414048D01*
X334353Y414063D01*
X334453Y414075D01*
X334553Y414083D01*
X334654Y414087D01*
X334754Y414087D01*
X334855Y414083D01*
X334955Y414075D01*
X335055Y414063D01*
X335155Y414048D01*
X335254Y414028D01*
X335352Y414005D01*
X335449Y413978D01*
X335544Y413947D01*
X335639Y413913D01*
X335732Y413875D01*
X335824Y413833D01*
X335914Y413788D01*
X336002Y413739D01*
X336088Y413687D01*
X336172Y413632D01*
X336254Y413573D01*
X336334Y413512D01*
X336411Y413447D01*
X336485Y413379D01*
X336557Y413309D01*
X336626Y413236D01*
X336693Y413160D01*
X336756Y413081D01*
X336816Y413001D01*
X336873Y412918D01*
X336927Y412832D01*
X336977Y412745D01*
X337024Y412656D01*
X337067Y412565D01*
X337107Y412473D01*
X337143Y412379D01*
X337176Y412284D01*
X337205Y412187D01*
X337230Y412090D01*
X337251Y411991D01*
X337269Y411892D01*
X337282Y411792D01*
X337292Y411692D01*
X337298Y411592D01*
X337300Y411491D01*
X337301Y411491D02*
X337301Y408894D01*
X337950Y419026D02*
X337720Y419029D01*
X337490Y419037D01*
X337261Y419051D01*
X337032Y419070D01*
X336803Y419095D01*
X336575Y419125D01*
X336348Y419160D01*
X336122Y419201D01*
X335897Y419247D01*
X335673Y419299D01*
X335450Y419356D01*
X335229Y419418D01*
X335009Y419486D01*
X334791Y419559D01*
X334575Y419637D01*
X334361Y419720D01*
X334149Y419808D01*
X333938Y419901D01*
X333731Y420000D01*
X333641Y420033D01*
X333552Y420069D01*
X333464Y420109D01*
X333379Y420153D01*
X333295Y420200D01*
X333213Y420250D01*
X333133Y420304D01*
X333056Y420360D01*
X332980Y420420D01*
X332907Y420483D01*
X332837Y420548D01*
X332769Y420617D01*
X332705Y420688D01*
X332643Y420761D01*
X332584Y420837D01*
X332528Y420915D01*
X332475Y420996D01*
X332426Y421078D01*
X332380Y421162D01*
X332337Y421249D01*
X332298Y421336D01*
X332262Y421426D01*
X332230Y421516D01*
X332202Y421608D01*
X332177Y421701D01*
X332156Y421795D01*
X332139Y421889D01*
X332125Y421984D01*
X332116Y422080D01*
X332110Y422176D01*
X332108Y422272D01*
X332110Y422368D01*
X332116Y422464D01*
X332125Y422560D01*
X332139Y422655D01*
X332156Y422749D01*
X332177Y422843D01*
X332202Y422936D01*
X332230Y423028D01*
X332262Y423118D01*
X332298Y423208D01*
X332337Y423296D01*
X332380Y423382D01*
X332426Y423466D01*
X332475Y423548D01*
X332528Y423629D01*
X332584Y423707D01*
X332643Y423783D01*
X332705Y423856D01*
X332769Y423927D01*
X332837Y423996D01*
X332907Y424061D01*
X332980Y424124D01*
X333056Y424184D01*
X333133Y424240D01*
X333213Y424294D01*
X333295Y424344D01*
X333379Y424391D01*
X333464Y424435D01*
X333552Y424475D01*
X333641Y424511D01*
X333731Y424544D01*
X333938Y424643D01*
X334149Y424736D01*
X334361Y424824D01*
X334575Y424907D01*
X334791Y424985D01*
X335009Y425058D01*
X335229Y425126D01*
X335450Y425188D01*
X335673Y425245D01*
X335897Y425297D01*
X336122Y425343D01*
X336348Y425384D01*
X336575Y425419D01*
X336803Y425449D01*
X337032Y425474D01*
X337261Y425493D01*
X337490Y425507D01*
X337720Y425515D01*
X337950Y425518D01*
X337950Y419026D02*
X338180Y419029D01*
X338410Y419037D01*
X338639Y419051D01*
X338868Y419070D01*
X339097Y419095D01*
X339325Y419125D01*
X339552Y419160D01*
X339778Y419201D01*
X340003Y419247D01*
X340227Y419299D01*
X340450Y419356D01*
X340671Y419418D01*
X340891Y419486D01*
X341109Y419559D01*
X341325Y419637D01*
X341539Y419720D01*
X341751Y419808D01*
X341962Y419901D01*
X342169Y420000D01*
X342259Y420033D01*
X342348Y420069D01*
X342436Y420110D01*
X342521Y420153D01*
X342605Y420200D01*
X342687Y420250D01*
X342767Y420304D01*
X342844Y420360D01*
X342920Y420420D01*
X342993Y420483D01*
X343063Y420548D01*
X343131Y420617D01*
X343195Y420688D01*
X343257Y420761D01*
X343316Y420837D01*
X343372Y420915D01*
X343425Y420996D01*
X343474Y421078D01*
X343520Y421162D01*
X343563Y421249D01*
X343602Y421336D01*
X343638Y421426D01*
X343670Y421516D01*
X343698Y421608D01*
X343723Y421701D01*
X343744Y421795D01*
X343761Y421889D01*
X343775Y421984D01*
X343784Y422080D01*
X343790Y422176D01*
X343792Y422272D01*
X342169Y424544D02*
X341962Y424643D01*
X341751Y424736D01*
X341539Y424824D01*
X341325Y424907D01*
X341109Y424985D01*
X340891Y425058D01*
X340671Y425126D01*
X340450Y425188D01*
X340227Y425245D01*
X340003Y425297D01*
X339778Y425343D01*
X339552Y425384D01*
X339325Y425419D01*
X339097Y425449D01*
X338868Y425474D01*
X338639Y425493D01*
X338410Y425507D01*
X338180Y425515D01*
X337950Y425518D01*
X342169Y424544D02*
X342259Y424511D01*
X342348Y424475D01*
X342436Y424435D01*
X342521Y424391D01*
X342605Y424344D01*
X342687Y424294D01*
X342767Y424240D01*
X342844Y424184D01*
X342920Y424124D01*
X342993Y424061D01*
X343063Y423996D01*
X343131Y423927D01*
X343195Y423856D01*
X343257Y423783D01*
X343316Y423707D01*
X343372Y423629D01*
X343425Y423548D01*
X343474Y423466D01*
X343520Y423382D01*
X343563Y423295D01*
X343602Y423208D01*
X343638Y423118D01*
X343670Y423028D01*
X343698Y422936D01*
X343723Y422843D01*
X343744Y422749D01*
X343761Y422655D01*
X343775Y422560D01*
X343784Y422464D01*
X343790Y422368D01*
X343792Y422272D01*
X341196Y419675D02*
X334704Y424868D01*
D10*
X477950Y82800D02*
X499950Y82800D01*
X520950Y61800D02*
X520950Y39800D01*
X499950Y18800D02*
X477950Y18800D01*
X456950Y39800D02*
X456950Y61800D01*
X471950Y50800D02*
X471955Y51217D01*
X471970Y51634D01*
X471996Y52051D01*
X472032Y52466D01*
X472078Y52881D01*
X472134Y53294D01*
X472200Y53706D01*
X472277Y54117D01*
X472363Y54525D01*
X472459Y54931D01*
X472566Y55334D01*
X472682Y55735D01*
X472808Y56133D01*
X472944Y56527D01*
X473089Y56918D01*
X473244Y57306D01*
X473408Y57689D01*
X473582Y58068D01*
X473765Y58443D01*
X473957Y58814D01*
X474159Y59179D01*
X474369Y59540D01*
X474587Y59895D01*
X474815Y60245D01*
X475051Y60589D01*
X475295Y60927D01*
X475548Y61259D01*
X475809Y61585D01*
X476077Y61904D01*
X476354Y62217D01*
X476638Y62522D01*
X476929Y62821D01*
X477228Y63112D01*
X477533Y63396D01*
X477846Y63673D01*
X478165Y63941D01*
X478491Y64202D01*
X478823Y64455D01*
X479161Y64699D01*
X479505Y64935D01*
X479855Y65163D01*
X480210Y65381D01*
X480571Y65591D01*
X480936Y65793D01*
X481307Y65985D01*
X481682Y66168D01*
X482061Y66342D01*
X482444Y66506D01*
X482832Y66661D01*
X483223Y66806D01*
X483617Y66942D01*
X484015Y67068D01*
X484416Y67184D01*
X484819Y67291D01*
X485225Y67387D01*
X485633Y67473D01*
X486044Y67550D01*
X486456Y67616D01*
X486869Y67672D01*
X487284Y67718D01*
X487699Y67754D01*
X488116Y67780D01*
X488533Y67795D01*
X488950Y67800D01*
X489367Y67795D01*
X489784Y67780D01*
X490201Y67754D01*
X490616Y67718D01*
X491031Y67672D01*
X491444Y67616D01*
X491856Y67550D01*
X492267Y67473D01*
X492675Y67387D01*
X493081Y67291D01*
X493484Y67184D01*
X493885Y67068D01*
X494283Y66942D01*
X494677Y66806D01*
X495068Y66661D01*
X495456Y66506D01*
X495839Y66342D01*
X496218Y66168D01*
X496593Y65985D01*
X496964Y65793D01*
X497329Y65591D01*
X497690Y65381D01*
X498045Y65163D01*
X498395Y64935D01*
X498739Y64699D01*
X499077Y64455D01*
X499409Y64202D01*
X499735Y63941D01*
X500054Y63673D01*
X500367Y63396D01*
X500672Y63112D01*
X500971Y62821D01*
X501262Y62522D01*
X501546Y62217D01*
X501823Y61904D01*
X502091Y61585D01*
X502352Y61259D01*
X502605Y60927D01*
X502849Y60589D01*
X503085Y60245D01*
X503313Y59895D01*
X503531Y59540D01*
X503741Y59179D01*
X503943Y58814D01*
X504135Y58443D01*
X504318Y58068D01*
X504492Y57689D01*
X504656Y57306D01*
X504811Y56918D01*
X504956Y56527D01*
X505092Y56133D01*
X505218Y55735D01*
X505334Y55334D01*
X505441Y54931D01*
X505537Y54525D01*
X505623Y54117D01*
X505700Y53706D01*
X505766Y53294D01*
X505822Y52881D01*
X505868Y52466D01*
X505904Y52051D01*
X505930Y51634D01*
X505945Y51217D01*
X505950Y50800D01*
X505945Y50383D01*
X505930Y49966D01*
X505904Y49549D01*
X505868Y49134D01*
X505822Y48719D01*
X505766Y48306D01*
X505700Y47894D01*
X505623Y47483D01*
X505537Y47075D01*
X505441Y46669D01*
X505334Y46266D01*
X505218Y45865D01*
X505092Y45467D01*
X504956Y45073D01*
X504811Y44682D01*
X504656Y44294D01*
X504492Y43911D01*
X504318Y43532D01*
X504135Y43157D01*
X503943Y42786D01*
X503741Y42421D01*
X503531Y42060D01*
X503313Y41705D01*
X503085Y41355D01*
X502849Y41011D01*
X502605Y40673D01*
X502352Y40341D01*
X502091Y40015D01*
X501823Y39696D01*
X501546Y39383D01*
X501262Y39078D01*
X500971Y38779D01*
X500672Y38488D01*
X500367Y38204D01*
X500054Y37927D01*
X499735Y37659D01*
X499409Y37398D01*
X499077Y37145D01*
X498739Y36901D01*
X498395Y36665D01*
X498045Y36437D01*
X497690Y36219D01*
X497329Y36009D01*
X496964Y35807D01*
X496593Y35615D01*
X496218Y35432D01*
X495839Y35258D01*
X495456Y35094D01*
X495068Y34939D01*
X494677Y34794D01*
X494283Y34658D01*
X493885Y34532D01*
X493484Y34416D01*
X493081Y34309D01*
X492675Y34213D01*
X492267Y34127D01*
X491856Y34050D01*
X491444Y33984D01*
X491031Y33928D01*
X490616Y33882D01*
X490201Y33846D01*
X489784Y33820D01*
X489367Y33805D01*
X488950Y33800D01*
X488533Y33805D01*
X488116Y33820D01*
X487699Y33846D01*
X487284Y33882D01*
X486869Y33928D01*
X486456Y33984D01*
X486044Y34050D01*
X485633Y34127D01*
X485225Y34213D01*
X484819Y34309D01*
X484416Y34416D01*
X484015Y34532D01*
X483617Y34658D01*
X483223Y34794D01*
X482832Y34939D01*
X482444Y35094D01*
X482061Y35258D01*
X481682Y35432D01*
X481307Y35615D01*
X480936Y35807D01*
X480571Y36009D01*
X480210Y36219D01*
X479855Y36437D01*
X479505Y36665D01*
X479161Y36901D01*
X478823Y37145D01*
X478491Y37398D01*
X478165Y37659D01*
X477846Y37927D01*
X477533Y38204D01*
X477228Y38488D01*
X476929Y38779D01*
X476638Y39078D01*
X476354Y39383D01*
X476077Y39696D01*
X475809Y40015D01*
X475548Y40341D01*
X475295Y40673D01*
X475051Y41011D01*
X474815Y41355D01*
X474587Y41705D01*
X474369Y42060D01*
X474159Y42421D01*
X473957Y42786D01*
X473765Y43157D01*
X473582Y43532D01*
X473408Y43911D01*
X473244Y44294D01*
X473089Y44682D01*
X472944Y45073D01*
X472808Y45467D01*
X472682Y45865D01*
X472566Y46266D01*
X472459Y46669D01*
X472363Y47075D01*
X472277Y47483D01*
X472200Y47894D01*
X472134Y48306D01*
X472078Y48719D01*
X472032Y49134D01*
X471996Y49549D01*
X471970Y49966D01*
X471955Y50383D01*
X471950Y50800D01*
M02*
