G04 EAGLE Gerber RS-274X export*
G75*
%MOMM*%
%FSLAX34Y34*%
%LPD*%
%INSolderpaste Top*%
%IPPOS*%
%AMOC8*
5,1,8,0,0,1.08239X$1,22.5*%
G01*
%ADD10R,2.000000X1.500000*%
%ADD11R,2.950000X2.700000*%
%ADD12R,1.300000X1.500000*%
%ADD13R,1.500000X1.300000*%
%ADD14R,2.700000X2.950000*%
%ADD15R,1.270000X1.470000*%
%ADD16R,1.000000X1.651000*%
%ADD17R,1.500000X2.000000*%
%ADD18R,3.800000X2.000000*%
%ADD19R,6.200000X5.400000*%
%ADD20R,1.600000X1.000000*%
%ADD21R,1.803000X1.600000*%
%ADD22R,1.400000X1.000000*%
%ADD23R,1.400000X1.800000*%


D10*
X317500Y516650D03*
X317500Y486650D03*
X292100Y516650D03*
X292100Y486650D03*
X266700Y516650D03*
X266700Y486650D03*
D11*
X376650Y69850D03*
X309150Y69850D03*
X446500Y508000D03*
X379000Y508000D03*
D12*
X200050Y241300D03*
X219050Y241300D03*
X200050Y165100D03*
X219050Y165100D03*
X200050Y88900D03*
X219050Y88900D03*
D13*
X222250Y358750D03*
X222250Y339750D03*
D12*
X200050Y317500D03*
X219050Y317500D03*
D10*
X222250Y385050D03*
X222250Y415050D03*
X107950Y440450D03*
X107950Y410450D03*
D14*
X222250Y510000D03*
X222250Y442500D03*
D15*
X48350Y158750D03*
X91350Y158750D03*
D16*
X244350Y291730D03*
X244350Y343270D03*
X276350Y343270D03*
X276350Y291730D03*
X244350Y367930D03*
X244350Y419470D03*
X276350Y419470D03*
X276350Y367930D03*
X244350Y215530D03*
X244350Y267070D03*
X276350Y267070D03*
X276350Y215530D03*
X244350Y139330D03*
X244350Y190870D03*
X276350Y190870D03*
X276350Y139330D03*
X244350Y63130D03*
X244350Y114670D03*
X276350Y114670D03*
X276350Y63130D03*
D15*
X149950Y342900D03*
X192950Y342900D03*
D17*
X181750Y437900D03*
X158750Y437900D03*
X135750Y437900D03*
D18*
X158750Y374900D03*
D19*
X164700Y488950D03*
D20*
X91700Y511750D03*
X91700Y466150D03*
D21*
X158750Y188980D03*
X158750Y217420D03*
X136700Y217420D03*
X136700Y188980D03*
D22*
X116000Y158750D03*
X138000Y168250D03*
X138000Y149250D03*
D23*
X490650Y417250D03*
X490650Y377250D03*
X490650Y337250D03*
X490650Y297250D03*
X490650Y257250D03*
X490650Y217250D03*
X490650Y177250D03*
X490650Y137250D03*
X304650Y417250D03*
X304650Y377250D03*
X304650Y337250D03*
X304650Y297250D03*
X304650Y257250D03*
X304650Y217250D03*
X304650Y177250D03*
X304650Y137250D03*
M02*
