G04 EAGLE Gerber RS-274X export*
G75*
%MOMM*%
%FSLAX34Y34*%
%LPD*%
%INSoldermask Bottom*%
%IPPOS*%
%AMOC8*
5,1,8,0,0,1.08239X$1,22.5*%
G01*
%ADD10R,1.703200X2.203200*%
%ADD11R,2.203200X1.703200*%
%ADD12R,2.183200X2.183200*%
%ADD13C,2.183200*%
%ADD14P,2.363074X8X22.500000*%
%ADD15R,2.363200X2.363200*%
%ADD16C,2.363200*%
%ADD17C,2.003200*%
%ADD18C,2.489200*%
%ADD19C,3.403600*%
%ADD20C,1.355600*%
%ADD21C,0.755600*%
%ADD22C,1.155600*%


D10*
X376950Y577850D03*
X346950Y577850D03*
X92950Y755650D03*
X122950Y755650D03*
X92950Y730250D03*
X122950Y730250D03*
X376950Y603250D03*
X346950Y603250D03*
D11*
X330200Y143750D03*
X330200Y173750D03*
D10*
X376950Y755650D03*
X346950Y755650D03*
D12*
X95250Y552450D03*
X120650Y552450D03*
D13*
X146050Y552450D03*
X171450Y552450D03*
X196850Y552450D03*
X222250Y552450D03*
X247650Y552450D03*
X273050Y552450D03*
X298450Y552450D03*
D12*
X323850Y552450D03*
X349250Y552450D03*
D14*
X374650Y552450D03*
X95250Y785450D03*
D13*
X120650Y785450D03*
X146050Y785450D03*
X171450Y785450D03*
X196850Y785450D03*
X222250Y785450D03*
X247650Y785450D03*
X273050Y785450D03*
X298450Y785450D03*
X323850Y785450D03*
D12*
X349250Y785450D03*
D14*
X374650Y785450D03*
D15*
X44550Y478600D03*
D16*
X44550Y513600D03*
D15*
X44450Y406400D03*
D16*
X44450Y441400D03*
D17*
X101600Y190500D03*
X101600Y266700D03*
X101600Y317500D03*
X101600Y368300D03*
X25400Y368300D03*
X25400Y317500D03*
X25400Y266700D03*
X25400Y190500D03*
D18*
X488950Y50800D03*
D19*
X463451Y76299D03*
X514449Y76299D03*
X514449Y25301D03*
X463451Y25301D03*
D20*
X349250Y177800D03*
D21*
X158750Y165100D03*
X222250Y101600D03*
X127000Y469900D03*
X146050Y755650D03*
X260350Y730250D03*
X285750Y679450D03*
X120650Y679450D03*
X101600Y622300D03*
X101600Y577850D03*
X254000Y609600D03*
X266700Y628650D03*
X311150Y609600D03*
X336550Y628650D03*
X209550Y571500D03*
X228600Y584200D03*
X101600Y342900D03*
X82550Y285750D03*
X152400Y285750D03*
X19050Y120650D03*
X19050Y69850D03*
X171450Y63500D03*
X95250Y25400D03*
X95250Y95250D03*
X171450Y120650D03*
X196850Y25400D03*
X323850Y31750D03*
X349250Y209550D03*
X444500Y215900D03*
X349250Y279400D03*
X412750Y304800D03*
X393700Y247650D03*
X438150Y361950D03*
X368300Y425450D03*
X412750Y457200D03*
X508000Y317500D03*
X508000Y349250D03*
X69850Y368300D03*
X19050Y241300D03*
X19050Y215900D03*
X76200Y241300D03*
X76200Y215900D03*
D20*
X368300Y628650D03*
X95250Y647700D03*
D22*
X376650Y137250D03*
D21*
X153125Y311875D03*
X88900Y438150D03*
X88900Y450850D03*
X319532Y379984D03*
X423164Y591566D03*
X302260Y358394D03*
X328168Y500888D03*
X487934Y319532D03*
X431800Y574294D03*
X332486Y734060D03*
X112268Y397256D03*
X263398Y423164D03*
X414528Y582930D03*
M02*
